<svg id="Group_605" data-name="Group 605" xmlns="http://www.w3.org/2000/svg" xmlns:xlink="http://www.w3.org/1999/xlink" width="60" height="60" viewBox="0 0 60 60">
  <defs>
    <clipPath id="clip-path">
      <rect id="Rectangle_320" data-name="Rectangle 320" width="60" height="60" fill="none"/>
    </clipPath>
  </defs>
  <g id="Group_604" data-name="Group 604" clip-path="url(#clip-path)">
    <path id="Path_8872" data-name="Path 8872" d="M48.312,20.926a6.619,6.619,0,0,0-3.8-3.8,11.038,11.038,0,0,0-3.713-.688c-2.109-.1-2.742-.117-8.082-.117s-5.973.02-8.082.117a11.049,11.049,0,0,0-3.714.688,6.625,6.625,0,0,0-3.8,3.8,11.081,11.081,0,0,0-.688,3.713c-.1,2.109-.117,2.742-.117,8.082s.021,5.973.117,8.082a11.093,11.093,0,0,0,.688,3.714,6.631,6.631,0,0,0,3.8,3.8A11.093,11.093,0,0,0,24.639,49c2.108.1,2.741.117,8.082.117S38.694,49.1,40.8,49a11.082,11.082,0,0,0,3.713-.688,6.625,6.625,0,0,0,3.8-3.8A11.066,11.066,0,0,0,49,40.8c.1-2.108.117-2.741.117-8.082S49.1,26.748,49,24.639a11.054,11.054,0,0,0-.689-3.713M32.721,42.992a10.27,10.27,0,1,1,10.27-10.271,10.27,10.27,0,0,1-10.27,10.271M43.4,24.445a2.4,2.4,0,1,1,2.4-2.4,2.4,2.4,0,0,1-2.4,2.4" transform="translate(-2.721 -2.721)" fill-rule="evenodd"/>
    <path id="Path_8873" data-name="Path 8873" d="M34.667,28a6.667,6.667,0,1,0,6.667,6.667A6.667,6.667,0,0,0,34.667,28" transform="translate(-4.667 -4.667)" fill-rule="evenodd"/>
    <path id="Path_8874" data-name="Path 8874" d="M0,60H60V0H0ZM49.88,38.246a14.7,14.7,0,0,1-.929,4.855A10.229,10.229,0,0,1,43.1,48.95a14.671,14.671,0,0,1-4.854.929c-2.133.1-2.815.121-8.247.121s-6.112-.023-8.246-.121A14.671,14.671,0,0,1,16.9,48.95,10.229,10.229,0,0,1,11.05,43.1a14.676,14.676,0,0,1-.929-4.855C10.023,36.112,10,35.432,10,30s.023-6.113.121-8.246A14.672,14.672,0,0,1,11.05,16.9,10.229,10.229,0,0,1,16.9,11.05a14.668,14.668,0,0,1,4.854-.93c2.133-.1,2.814-.12,8.246-.12s6.113.023,8.247.12a14.668,14.668,0,0,1,4.854.93,10.229,10.229,0,0,1,5.85,5.849,14.693,14.693,0,0,1,.929,4.855c.1,2.132.12,2.814.12,8.246s-.022,6.112-.12,8.246" fill-rule="evenodd"/>
  </g>
</svg>
