<svg id="Group_603" data-name="Group 603" xmlns="http://www.w3.org/2000/svg" xmlns:xlink="http://www.w3.org/1999/xlink" width="60" height="60" viewBox="0 0 60 60">
  <defs>
    <clipPath id="clip-path">
      <rect id="Rectangle_319" data-name="Rectangle 319" width="60" height="60" fill="none"/>
    </clipPath>
  </defs>
  <g id="Group_602" data-name="Group 602" clip-path="url(#clip-path)">
    <path id="Path_8871" data-name="Path 8871" d="M0,60H60V0H0Zm18.141-8.333H9.193V22.778h8.948ZM13.624,19a5.331,5.331,0,1,1,5.29-5.331A5.311,5.311,0,0,1,13.624,19M51.667,51.667h-8.9V36.5c0-4.157-1.58-6.481-4.871-6.481-3.58,0-5.451,2.417-5.451,6.481V51.667H23.861V22.778h8.581v3.892A10.079,10.079,0,0,1,41.153,21.9c6.127,0,10.514,3.742,10.514,11.481Z" fill-rule="evenodd"/>
  </g>
</svg>
