<svg xmlns="http://www.w3.org/2000/svg" width="54.24" height="54.236" viewBox="0 0 54.24 54.236">
  <g id="Warstwa_2" data-name="Warstwa 2" transform="translate(0.002 -0.001)">
    <g id="Warstwa_1" data-name="Warstwa 1" transform="translate(-0.002 0.001)">
      <path id="Path_9217" data-name="Path 9217" d="M52.531,42.665a5.689,5.689,0,0,1,0,8.127,5.878,5.878,0,0,1-1.409,1.029A20.29,20.29,0,0,1,36.3,53.555C23.03,50.169,4.012,31.152.68,17.9A20.29,20.29,0,0,1,2.414,3.086,5.689,5.689,0,0,1,10.108.648a5.228,5.228,0,0,1,1.409,1.029l5.635,5.635a5.635,5.635,0,0,1,1.219,6.231,10.836,10.836,0,0,1-2.113,3.251C9.81,23.241,30.94,44.372,37.387,37.924a10.294,10.294,0,0,1,3.251-2.113A5.689,5.689,0,0,1,46.95,37Z" transform="translate(0.002 -0.001)" fill="#009274"/>
    </g>
  </g>
</svg>
