<svg xmlns="http://www.w3.org/2000/svg" width="302.267" height="60.456" viewBox="0 0 302.267 60.456">
  <g id="orbico_logo" transform="translate(-300 -5579.683)">
    <path id="Path_9239" data-name="Path 9239" d="M474.672,274.306H495.9v-16.09h-21.23Zm-1.238,18.608-17.145-4.932a5.7,5.7,0,0,1-4.085-5.469v-6.955h21.23ZM439.3,256.961a12.078,12.078,0,0,1-.475,2.636h19.746a17.625,17.625,0,0,1-.445,1.794H438.172a9.371,9.371,0,0,1-2.05,2.744H457.03a19.7,19.7,0,0,1-.985,1.775H407.434a21.65,21.65,0,0,0,2.112,2.822H453.93a23.2,23.2,0,0,1-1.727,1.77H411.295a25.262,25.262,0,0,0,3.413,2.625h34.083c.761-.491,1.484-1.02,2.177-1.57v10.956a6.926,6.926,0,0,0,4.983,6.675l18.1,5.207,18.1-5.207a6.926,6.926,0,0,0,4.983-6.675V256.961Zm-1.432-6.273h20.154a18.6,18.6,0,0,0-1.114-2.66H435.544a8.746,8.746,0,0,1,2.326,2.66ZM404.906,259.6h19.512a11.619,11.619,0,0,1-.475-2.636H404.6A17.8,17.8,0,0,0,404.906,259.6Zm1.684-11.569a18.614,18.614,0,0,0-1.114,2.66H425.37a8.839,8.839,0,0,1,2.334-2.66Zm20.539,16.107a9.2,9.2,0,0,1-2.056-2.744H405.359a18.713,18.713,0,0,0,1.087,2.744Zm-2.593-11.674H405a17.292,17.292,0,0,0-.383,2.728h19.371a11.788,11.788,0,0,1,.553-2.728Zm7.212,25.471a32.367,32.367,0,0,0,13.773-3H417.98a32.351,32.351,0,0,0,13.768,3Zm7.511-22.744h19.63a17.613,17.613,0,0,0-.386-2.728h-19.8a11.65,11.65,0,0,1,.553,2.728Zm-7.511-20.669a32.477,32.477,0,0,0-13.368,2.814h26.739A32.471,32.471,0,0,0,431.748,234.52Zm24.171,11.793a21.729,21.729,0,0,0-2.058-2.7H409.638a21.445,21.445,0,0,0-2.056,2.7Zm-7.441-7.182H415.023a25.646,25.646,0,0,0-3.656,2.752h40.763A25.469,25.469,0,0,0,448.478,239.13Zm-80.623,31.391a26.228,26.228,0,0,0,3.5,2.636h34.523a21.9,21.9,0,0,0,1.829-1.767l-1.222-.869Zm25.434-6.394h4.187l-2.342-1.665A8.756,8.756,0,0,1,393.289,264.127Zm0-16.069a8.826,8.826,0,0,1,1.845,1.665l2.4-1.665Zm-8.566,0H363.137a18.453,18.453,0,0,0-1.125,2.63h20.232a9.075,9.075,0,0,1,2.479-2.63Zm15.265,17.852H363.973a21.425,21.425,0,0,0,2.153,2.827H403.97ZM381.936,261.4H361.9A18.744,18.744,0,0,0,363,264.127h21.144A9.516,9.516,0,0,1,381.936,261.4Zm21.975-17.752H366.147a22.08,22.08,0,0,0-2.013,2.631h35.972Zm3.793-2.628a26.822,26.822,0,0,0-2.687-1.883h-33.46a26.494,26.494,0,0,0-3.588,2.73h38.508Zm-19.42-6.5a32.513,32.513,0,0,0-13.4,2.836h26.828a32.523,32.523,0,0,0-13.425-2.836Zm0,43.413c6.5,0,11.14-.634,15.09-2.995H374.551A32.33,32.33,0,0,0,388.284,277.932Zm-7.57-20.952H361.127a18.615,18.615,0,0,0,.326,2.636h19.738A11.049,11.049,0,0,1,380.714,256.98Zm.7-4.511H361.556a18.044,18.044,0,0,0-.407,2.733h19.6a11.071,11.071,0,0,1,.666-2.733Zm-61.427-1.3c3.372,0,6.494-.413,6.494-3.4,0-2.256-2.034-3.308-6.394-3.308H313.3v6.71Zm-48.04.612c2.1,0,6.993-.362,6.993-3.71,0-3.173-3.265-3.613-6.8-3.613h-6.184v7.322Zm64.837,3.027a16.621,16.621,0,0,1,5.739,2.5v-6.232A13.668,13.668,0,0,1,336.788,254.814ZM222.7,245.085c-5.49,0-8.512,3.783-8.512,10.657,0,4.816,1.492,10.56,8.612,10.56,8.606,0,8.606-8.334,8.606-11.07C231.407,248.689,228.315,245.085,222.7,245.085Zm98.6,22.442c7.293,0,7.293-2.8,7.293-3.715,0-2.39-2.347-3.5-7.392-3.5h-7.9v7.217Zm-26.1,1.3V254.668a18.173,18.173,0,0,1-9.373,4.411ZM223.5,278.3c-4.665,0-11.464-.6-17.34-3.488-7.492-3.675-11.291-9.918-11.291-18.554,0-7.4,3.146-13.349,9.1-17.2,4.835-3.13,11.558-4.854,18.931-4.854,6.869,0,18.826,1.311,24.754,9.721V234.93l30.382,0c5.048,0,12.564,0,17.162,4.392v-4.39h32.062c7.106,0,12.589,2.118,15.265,5.6v-5.6h18.006v42.649H342.527v-4.147c-4.551,3.6-11.447,4.147-17.793,4.147H282.908L267.16,260.717h-1.2v16.862H247.657v-8.954C242.19,276.564,231.655,278.3,223.5,278.3Zm217.419,10.182c1.066,0,1.578-.54,1.578-1.379s-.513-1.4-1.578-1.4h-1.562v2.782Zm-5.315-5.6h5.531c3.7,0,5.04,2.08,5.04,4.2,0,2.08-1.344,4.141-5.04,4.141h-1.778V294.4h-3.753Zm-18.192,0h3.756v7.1c0,1.12.534,1.74,1.522,1.74,1.006,0,1.559-.62,1.559-1.74v-7.1h3.734v7.1c0,3.078-2.193,4.681-5.293,4.681-3.084,0-5.277-1.6-5.277-4.681Zm-13.546,8.86c1.541,0,2.587-1.279,2.587-3.159,0-1.781-1.066-3.06-2.587-3.06-1.54,0-2.587,1.279-2.587,3.06C401.283,290.459,402.311,291.738,403.87,291.738Zm0-9.141a6.039,6.039,0,0,1,6.343,5.981c0,3.68-2.747,6.081-6.343,6.081-3.615,0-6.362-2.4-6.362-6.081A6.044,6.044,0,0,1,403.87,282.6Zm-18.683,5.822c1.047,0,1.6-.521,1.6-1.341,0-.842-.55-1.381-1.6-1.381h-1.818v2.722Zm-5.571-5.542H385.4c3.694,0,5.037,2.1,5.037,4.222a3.4,3.4,0,0,1-1.9,3.2l1.916,4.1h-3.772l-1.384-3.48h-1.935v3.48h-3.753Zm-12.483-.281a8.474,8.474,0,0,1,4.546,1.441l-1.719,2.4a4.971,4.971,0,0,0-2.806-.917c-1.937,0-2.765,1.438-2.765,3.06,0,1.681.828,3.159,2.765,3.159a3.746,3.746,0,0,0,1.8-.418v-1.4h-2.172v-2.161h5.272v5.22a7.774,7.774,0,0,1-5,1.681c-3.95,0-6.44-2.62-6.44-6.081C360.614,285.276,363,282.6,367.132,282.6Z" transform="translate(105.126 5345.479)" fill="#020203" fill-rule="evenodd"/>
  </g>
</svg>
