<svg xmlns="http://www.w3.org/2000/svg" width="200" height="73.765" viewBox="0 0 200 73.765">
  <path id="Path_9238" data-name="Path 9238" d="M239.013,186.22H214.221a12.849,12.849,0,0,0,1.178,4.373,8.49,8.49,0,0,0,2.055,2.7,6.7,6.7,0,0,0,2.623,1.37,11.041,11.041,0,0,0,2.814.379,8.466,8.466,0,0,0,5.094-1.255,7.733,7.733,0,0,0,2.51-3.231l8.213,3.346a13.569,13.569,0,0,1-5.818,7,19.97,19.97,0,0,1-10.38,2.433,21.3,21.3,0,0,1-7.87-1.368,15.552,15.552,0,0,1-5.856-3.993,17.657,17.657,0,0,1-3.65-6.311,26.051,26.051,0,0,1-1.255-8.4,23.641,23.641,0,0,1,1.178-7.6,16.879,16.879,0,0,1,3.5-6.045,16.521,16.521,0,0,1,5.741-4.031,19.72,19.72,0,0,1,7.909-1.483,17.455,17.455,0,0,1,7.071,1.368,15.373,15.373,0,0,1,5.288,3.765,16.436,16.436,0,0,1,3.308,5.667,21.345,21.345,0,0,1,1.14,7.071Zm-9.2-6.692a7.963,7.963,0,0,0-2.129-5.284,6.8,6.8,0,0,0-5.171-2.093A7.535,7.535,0,0,0,217,174.129a9.7,9.7,0,0,0-2.623,5.4Zm48.061,23.194H267.529V179.6a8.753,8.753,0,0,0-1.332-5.322,4.962,4.962,0,0,0-4.218-1.751,9.45,9.45,0,0,0-3.842.723,12.975,12.975,0,0,0-3.154,2.014v27.453H244.716V164.7H254.6v2.814a17.715,17.715,0,0,1,10.038-3.423,12.516,12.516,0,0,1,4.98,1.064,9.538,9.538,0,0,1,4.22,3.8,16.861,16.861,0,0,1,5.286-3.537,18.032,18.032,0,0,1,7.185-1.329,20.571,20.571,0,0,1,5.058.647,11.828,11.828,0,0,1,4.6,2.319,12.5,12.5,0,0,1,3.384,4.6,18.223,18.223,0,0,1,1.329,7.49v23.575H290.42V179.6a9.013,9.013,0,0,0-1.255-5.248,4.75,4.75,0,0,0-4.144-1.749,6.8,6.8,0,0,0-5.248,2.053,7.317,7.317,0,0,0-1.9,5.171ZM307.149,164.7h9.657v2.738a15.875,15.875,0,0,1,4.563-2.4,18.3,18.3,0,0,1,5.475-.723,15.42,15.42,0,0,1,6.275,1.255,13.292,13.292,0,0,1,4.867,3.65,16.96,16.96,0,0,1,3.116,5.894,26.241,26.241,0,0,1,1.1,7.909,23.594,23.594,0,0,1-1.255,7.794,18.138,18.138,0,0,1-3.65,6.275,16.668,16.668,0,0,1-5.971,4.182A20.581,20.581,0,0,1,323.2,202.8c-.966,0-1.929-.028-2.891-.077s-1.927-.126-2.891-.228v12.016H307.149Zm10.266,29.81a24.263,24.263,0,0,0,2.7.153h3.08a7.333,7.333,0,0,0,6.5-3.195q2.166-3.194,2.168-8.9,0-5.019-1.863-7.377t-5.894-2.357a12.452,12.452,0,0,0-3.612.5,9.322,9.322,0,0,0-3.08,1.634Zm32.473-21.446h-5.324V164.7H360.23v38.023H349.888Zm9.808-25.779a32.539,32.539,0,0,1-.3,4.714,15.171,15.171,0,0,1-1.1,3.88,17.478,17.478,0,0,1-2.091,3.535q-1.3,1.713-3.2,3.765l-3.5-3.5a18.721,18.721,0,0,0,2.7-3.459,12.261,12.261,0,0,0,1.332-3.157h-6.16V140.746H359.7Zm8.443.685h10.342v31.254h4.029l9.659-14.524h11.025l-11.937,17.338,12.622,20.684H392.473l-9.734-15.286h-4.258v15.286H368.139Z" transform="translate(-203.879 -140.746)" fill="#020203"/>
</svg>
