<svg xmlns="http://www.w3.org/2000/svg" xmlns:xlink="http://www.w3.org/1999/xlink" width="261" height="73.268" viewBox="0 0 261 73.268">
  <defs>
    <clipPath id="clip-path">
      <rect id="Rectangle_395" data-name="Rectangle 395" width="261" height="73.268" fill="none"/>
    </clipPath>
  </defs>
  <g id="Group_753" data-name="Group 753" transform="translate(0 0)">
    <g id="Group_746" data-name="Group 746" transform="translate(0 0)" clip-path="url(#clip-path)">
      <path id="Path_9299" data-name="Path 9299" d="M37.707,29.039v6.376H33.192V30.141c0-2.525-.645-3.171-3.492-3.171H14.215v8.445H9.661V10.386H28.354c5.843,0,9.677,2.183,9.677,7.59a6.434,6.434,0,0,1-4.1,6.548,4.172,4.172,0,0,1,3.776,4.515M14.215,14.409v8.578H27.177c2.6,0,5.975,0,5.975-4.307s-3.376-4.27-5.975-4.27Z" transform="translate(12.845 13.81)" fill="#020203"/>
      <path id="Path_9300" data-name="Path 9300" d="M68,19.362C68,24.939,64.2,28.3,58.36,28.3H43.56v7.117H39.1V10.386H58.456c5.675,0,9.544,3.357,9.544,8.976M56.615,24.238c2.563,0,6.546,0,6.546-4.876s-3.984-4.915-6.546-4.915H43.56v9.791Z" transform="translate(51.986 13.81)" fill="#020203"/>
      <path id="Path_9301" data-name="Path 9301" d="M53.387,23.017c0-7.59,6.017-11.1,14.632-11.1s14.593,3.585,14.593,11.1S76.6,34.081,68.019,34.081,53.387,30.493,53.387,23.017m24.423,0c0-4.839-3.415-7.191-9.791-7.191s-9.812,2.353-9.812,7.191,3.418,7.154,9.812,7.154S77.81,27.8,77.81,23.017" transform="translate(70.983 15.845)" fill="#020203"/>
      <path id="Path_9302" data-name="Path 9302" d="M110.175,12.219h4.764l-9.356,20.759H98.808L90.837,16.47,82.83,32.978H76.074L66.8,12.219H71.52l8.046,17.724,8.426-17.724h5.691l8.522,17.724Z" transform="translate(88.81 16.246)" fill="#020203"/>
      <path id="Path_9303" data-name="Path 9303" d="M111.842,26.5h4.82c-1.291,4.764-6.283,7.59-13.7,7.59-8.557,0-14.667-3.508-14.667-11.061s6.336-11.1,14.308-11.1,14.364,2.961,14.364,12.2H93.131c.454,4.307,3.909,6.092,9.847,6.092,5.447-.019,7.762-1.519,8.864-3.72M93.415,20.484h18.464c-.93-3.3-4.081-4.764-9.279-4.764-4.878,0-8.161,1.423-9.186,4.764" transform="translate(117.392 15.856)" fill="#020203"/>
      <path id="Path_9304" data-name="Path 9304" d="M123.215,12.584V16.57a20.377,20.377,0,0,0-5.521-.741c-2.942,0-5.9.7-10.325,4.156V33.268h-4.44V12.584h4.44v3.795A13.094,13.094,0,0,1,117.6,11.957a19.352,19.352,0,0,1,5.617.627" transform="translate(136.853 15.882)" fill="#020203"/>
      <path id="Path_9305" data-name="Path 9305" d="M36.642,52.353A36.68,36.68,0,0,1,0,15.73H4.533A32.147,32.147,0,0,0,36.642,47.818Z" transform="translate(0 20.915)" fill="#020203"/>
      <path id="Path_9306" data-name="Path 9306" d="M52.353,36.642H47.818A32.147,32.147,0,0,0,15.73,4.533V0A36.68,36.68,0,0,1,52.353,36.642" transform="translate(20.914 0.001)" fill="#020203"/>
      <rect id="Rectangle_394" data-name="Rectangle 394" width="4.554" height="4.554" transform="translate(68.732 44.67)" fill="#020203"/>
      <path id="Path_9307" data-name="Path 9307" d="M70.949,26.721h3.322a2.951,2.951,0,0,1,2.143.741,2.342,2.342,0,0,1-1.158,3.869l2.013,2.828H75.732l-1.9-2.6H72.2v2.6H70.949Zm3.226,3.795c.93,0,1.538-.494,1.538-1.253,0-.8-.589-1.232-1.556-1.232h-1.9v2.5Z" transform="translate(94.333 35.521)" fill="#020203"/>
      <path id="Path_9308" data-name="Path 9308" d="M75.169,26.718H80.69v1.158H76.534v1.9h3.8V30.93h-3.8v2.013H80.8v1.176H75.169Z" transform="translate(99.944 35.525)" fill="#020203"/>
      <path id="Path_9309" data-name="Path 9309" d="M79.155,26.718h1.214l4,5.162V26.718h1.291v7.457H84.543l-4.116-5.314v5.314H79.136Z" transform="translate(105.218 35.525)" fill="#020203"/>
      <path id="Path_9310" data-name="Path 9310" d="M83.728,26.718H89.27v1.158H85.037v1.9h3.795V30.93H85.037v2.013h4.289v1.176H83.632Z" transform="translate(111.196 35.525)" fill="#020203"/>
      <path id="Path_9311" data-name="Path 9311" d="M87.4,26.729h1.423l1.784,5.521,1.9-5.54h1.1l1.9,5.54,1.766-5.521h1.384l-2.6,7.59H94.919l-1.9-5.37-1.9,5.37H90Z" transform="translate(116.211 35.514)" fill="#020203"/>
      <path id="Path_9312" data-name="Path 9312" d="M96.274,26.694H97.49l3.282,7.59H99.387l-.759-1.8H95.1l-.778,1.8H92.992Zm1.9,4.554-1.291-3-1.272,3Z" transform="translate(123.641 35.493)" fill="#020203"/>
      <path id="Path_9313" data-name="Path 9313" d="M97.821,26.72h3.341a2.718,2.718,0,0,1,1.9.645,1.671,1.671,0,0,1,.51,1.251,1.745,1.745,0,0,1-1.081,1.652,1.9,1.9,0,0,1,1.5,1.9c0,1.33-1.1,2.05-2.772,2.05H97.765Zm3.075,3.131c.853,0,1.423-.324,1.423-1.006,0-.589-.475-.948-1.309-.948h-1.9v1.9Zm.4,3.168c.892,0,1.423-.361,1.423-1.025,0-.645-.494-1.006-1.519-1.006H99.111v2.05Z" transform="translate(129.987 35.523)" fill="#020203"/>
      <path id="Path_9314" data-name="Path 9314" d="M102.009,26.718h1.309V32.98h3.946v1.2h-5.237Z" transform="translate(135.63 35.525)" fill="#020203"/>
      <path id="Path_9315" data-name="Path 9315" d="M105.756,26.718h5.521v1.158h-4.212v1.9h3.795V30.93h-3.795v2.013h4.27v1.176h-5.579Z" transform="translate(140.612 35.525)" fill="#020203"/>
      <path id="Path_9316" data-name="Path 9316" d="M109.52,33.176l.778-.948a3.431,3.431,0,0,0,2.351.967c.815,0,1.328-.361,1.328-.93,0-.531-.3-.834-1.689-1.139s-2.486-.853-2.486-2.239a2.3,2.3,0,0,1,2.362-2.229,2.542,2.542,0,0,1,.3.028,4.09,4.09,0,0,1,2.693.93l-.7,1.006a3.284,3.284,0,0,0-2.013-.778c-.778,0-1.214.4-1.214.892,0,.568.342.834,1.766,1.176s2.39.948,2.39,2.183c0,1.4-1.1,2.22-2.656,2.22a4.589,4.589,0,0,1-3.206-1.139" transform="translate(145.616 35.443)" fill="#020203"/>
    </g>
  </g>
</svg>
