<svg id="Group_735" data-name="Group 735" xmlns="http://www.w3.org/2000/svg" width="302.268" height="73.31" viewBox="0 0 302.268 73.31">
  <path id="Path_8515" data-name="Path 8515" d="M34.416,178.128l5.01-13.436,4.692,13.541h-9.7Zm14.607,13.649h4.587L41.665,159.253H37.186L24.819,191.777H29.4l3.626-10.023H45.4Zm21.646-6.931c0,2.666-2.131,4.052-5.865,4.052-2.984,0-4.9-.855-6.076-2.774l-4.373.747c1.708,3.518,5.226,5.118,10.236,5.118,6.826,0,10.344-3.734,10.344-7.784,0-5.118-4.8-6.5-10.236-7.678-2.666-.534-5.757-1.492-5.757-3.839,0-1.705,1.6-3.626,4.9-3.626a6.206,6.206,0,0,1,5.65,3.2l3.839-1.6c-1.813-3.41-5.331-4.692-8.957-4.692-5.757,0-9.489,2.774-9.489,7.252,0,5.118,4.371,6.079,8.636,7.036C67.15,181.22,70.668,182.072,70.668,184.846ZM84.1,159.253l-4.265,1.813v5.973H75.894v3.41h3.944v15.888c-.108,3.2-.108,5.544,4.8,5.544a27.485,27.485,0,0,0,4.052-.426v-3.3a13.083,13.083,0,0,1-2.666.531c-1.813,0-1.813-1.279-1.813-4.158V170.45h4.479v-3.41H84.209v-7.786Zm8.21,7.786v24.738h4.158v-11.41c0-2.134-.105-4.587,1.068-6.4,1.384-2.239,3.305-2.984,7.463-3.092V166.61c-1.705.108-6.079.108-8.423,4.8v-4.371Zm37.108-7.786v4.052h18.554l-18.449,24.311v4.266h23.78v-3.944H134.432l18.449-24.524v-4.052H129.422Zm49.9,7.786v24.738h4.158V177.7c0-1.813,0-3.734,1.813-5.544a6.436,6.436,0,0,1,4.692-1.921,5.322,5.322,0,0,1,5.331,3.413,16.963,16.963,0,0,1,.213,4.052v13.967h4.16v-14.5a17.166,17.166,0,0,0-.426-5.01c-1.174-4.052-5.013-5.652-8.1-5.652a8.486,8.486,0,0,0-7.678,4.371v-3.731h-4.158Zm64.4,18.764c-.853,1.708-2.452,3.2-5.757,3.2-2.771,0-7.463-1.705-7.463-9.915,0-2.239.426-9.918,7.249-9.918a5.905,5.905,0,0,1,5.757,3.518l3.839-1.6c-2.345-3.944-6.718-4.9-9.81-4.9-7.892,0-11.728,6.292-11.728,13.331,0,6.076,3.3,12.794,12.049,12.794,5.01,0,7.889-2.452,9.384-4.9Zm-84.449-8.955h13.115c-.318-6.5-4.052-7.573-6.61-7.573C162.264,169.276,159.812,171.836,159.278,176.849Zm16.528,10.236c-1.387,2.452-4.16,5.118-9.491,5.118-7.249,0-11.515-4.9-11.515-13.223,0-9.276,6.079-12.8,11.3-12.8,4.587,0,8.852,2.56,10.344,8.744a24.616,24.616,0,0,1,.426,5.013h-17.7c-.105,4.158,1.6,9.384,7.465,9.276a5.974,5.974,0,0,0,5.118-2.771Zm30.708-10.236h13.115c-.318-6.5-4.05-7.573-6.61-7.573C209.392,169.276,206.94,171.836,206.514,176.849Zm16.423,10.236c-1.387,2.452-4.16,5.118-9.491,5.118-7.249,0-11.515-4.9-11.515-13.223,0-9.276,6.076-12.8,11.3-12.8,4.587,0,8.849,2.56,10.344,8.744a24.616,24.616,0,0,1,.426,5.013H206.2c-.108,4.158,1.6,9.384,7.463,9.276a5.971,5.971,0,0,0,5.118-2.771Zm47.236,4.692H265.8a21.825,21.825,0,0,1-.531-3.626,10.863,10.863,0,0,1-8.318,3.944c-4.8,0-8.318-2.879-8.318-7.036a6.615,6.615,0,0,1,1.068-3.734c1.384-2.131,4.05-3.731,11.407-4.371l3.947-.318v-.642c0-2.558,0-6.823-5.544-6.823-3.413,0-4.692,1.705-5.013,3.2l-3.839-1.6c.108-.108.108-.321.213-.426,1.495-2.666,4.373-4.373,8.531-4.373,2.239,0,5.226.534,7.144,2.134,2.774,2.131,2.666,6.184,2.666,6.184l.213,12.689C269.425,187.085,269.638,190.709,270.172,191.777Zm-5.757-6.826c.639-1.387.639-1.918.639-5.544a62.258,62.258,0,0,0-6.5,1.174c-4.587.96-5.331,2.771-5.331,4.479,0,2.026,1.6,3.623,4.692,3.623C260.788,188.682,263.241,187.511,264.415,184.951Zm-137.871,6.826h-4.265a21.983,21.983,0,0,1-.534-3.626,10.862,10.862,0,0,1-8.318,3.944c-4.8,0-8.423-2.879-8.423-7.036a6.634,6.634,0,0,1,1.066-3.734c1.387-2.131,4.052-3.731,11.41-4.371l3.947-.318v-.642c0-2.558,0-6.823-5.547-6.823-3.518,0-4.692,1.705-5.01,3.2l-3.839-1.6c.108-.108.108-.321.213-.426,1.492-2.666,4.373-4.373,8.531-4.373,2.239,0,5.226.534,7.144,2.134,2.771,2.131,2.666,6.184,2.666,6.184l.105,12.689C125.8,187.085,126.009,190.709,126.543,191.777Zm-5.652-6.826c.639-1.387.639-1.918.639-5.544a62.258,62.258,0,0,0-6.5,1.174c-4.584.96-5.331,2.771-5.331,4.479,0,2.026,1.6,3.623,4.692,3.623A6.879,6.879,0,0,0,120.891,184.951Z" transform="translate(-24.819 -119.446)" fill="#010203"/>
  <path id="Path_8516" data-name="Path 8516" d="M144.967,196.036l-1.921,1.279c-7.463-4.158-23.456-12.154-24.843-12.8-1.492-.745-4.052-1.81-3.731-4.263.426-3.413,6.5-10.983,9.062-14.183,13.862-16.846,20.046-22.072,24.1-21.538,4.371.532,6.823,5.118,7.144,26.23q-3.679-1.121-8-2.239c-.213-3.092-.853-7.676-1.066-9.276-.216-1.813-.642-2.452-1.282-2.56-.853-.105-2.879,1.813-4.692,3.731-.853.855-3.2,3.2-5.757,5.865-2.131-.105-3.626.321-4.371,1.387a4.211,4.211,0,0,0-.426,3.518l-3.413,3.413c-2.879,2.879-5.971,5.223-6.079,6.4-.105.961,1.279,1.921,3.413,3.2C128.013,186.866,140.489,193.689,144.967,196.036Zm19.406-21.114c-4.9-1.705-16.954-6.184-29.643-7.889-4.373-.534-6.078.96-4.373,5.118,1.813,4.158,6.4,10.983,11.2,16.207,4.8,5.118,10.023,6.5,11.731-1.387.105-.318.105-.531.213-.853a42.1,42.1,0,0,0,.853-5.757c-2.134-.96-4.587-2.026-6.931-2.987.105,1.813.318,5.013.426,7.36v.853c.105,3.944-1.174,3.944-3.413,2.345-2.558-1.813-10.554-12.367-11.515-17.059,0-.321.105-.321.213-.213.105,0,.105,0,.213.105h0c1.813.747,7.784,3.092,13.862,5.652,2.452,1.066,4.9,2.026,7.036,3.092,2.134.96,4.052,1.918,5.544,2.666,2.668,1.387,3.626,2.345,2.56,3.518-5.439,5.544-24.632,13.436-31.242,23.246l-.105.108c-.108.105-.108.213-.216.318a.1.1,0,0,1-.105.108,9.9,9.9,0,0,0-.96,2.879c-.318,2.131.853,4.052,3.947,4.9a15.193,15.193,0,0,0,2.558.531h.534c5.863.321,21.22-3.092,25.8-5.118,4.8-2.131,3.413-4.266,2.026-5.331-1.066-.853-6.4-3.839-8.957-5.223a11.863,11.863,0,0,0-1.918,1.279c4.371,2.666,6.184,4.052,7.249,4.8.426.321.213.639-.426.747h-.426c-4.158.321-12.154.853-15.888,1.066-.531,0-1.171.108-1.492.108.96-.853,1.918-1.6,2.452-2.026,8-5.652,21.325-13.541,25.272-16.954C173.436,188.466,181.328,180.788,164.374,174.922Z" transform="translate(127.363 -144.498)" fill="#010203"/>
</svg>
