<svg xmlns="http://www.w3.org/2000/svg" width="234.755" height="45.578" viewBox="0 0 234.755 45.578">
  <path id="Path_8781" data-name="Path 8781" d="M563.992,255.412v4.556a4.552,4.552,0,0,0,4.553,4.553h29.638a2.286,2.286,0,0,1,2.278,2.285v4.556a2.277,2.277,0,0,1-2.272,2.284H568.555a13.68,13.68,0,0,1-13.675-13.678h0V241.734a13.678,13.678,0,0,1,13.678-13.665h29.625a2.275,2.275,0,0,1,2.278,2.271v4.569a2.273,2.273,0,0,1-2.278,2.268H568.555A4.564,4.564,0,0,0,564,241.734V246.3h25.072a2.275,2.275,0,0,1,2.278,2.268v4.556a2.279,2.279,0,0,1-2.272,2.285H563.992Zm56.981,18.234A13.675,13.675,0,0,1,607.3,259.972V230.34a2.277,2.277,0,0,1,2.278-2.271h4.556a2.278,2.278,0,0,1,2.281,2.271v29.628a4.552,4.552,0,0,0,4.553,4.553h18.244a4.553,4.553,0,0,0,4.556-4.553h0V230.34a2.277,2.277,0,0,1,2.278-2.271H650.6a2.277,2.277,0,0,1,2.278,2.271v29.628a13.674,13.674,0,0,1-13.668,13.678H620.973Zm59.259,0a2.291,2.291,0,0,1-2.067-1.316l-18.234-41.021a2.278,2.278,0,0,1,1.1-3.025,2.236,2.236,0,0,1,.962-.214h5.008a2.291,2.291,0,0,1,2.067,1.316L682.5,259.637l13.431-30.252A2.292,2.292,0,0,1,698,228.069h5.008a2.281,2.281,0,0,1,2.067,3.24L686.842,272.33a2.287,2.287,0,0,1-2.064,1.316h-4.546Zm31.909-43.306a2.275,2.275,0,0,1,2.278-2.271h4.559a2.277,2.277,0,0,1,2.278,2.271v41.022a2.279,2.279,0,0,1-2.272,2.284h-4.566a2.279,2.279,0,0,1-2.278-2.278V230.34Zm15.953,11.394a13.671,13.671,0,0,1,13.678-13.665H771.4a2.277,2.277,0,0,1,2.278,2.271v4.569a2.274,2.274,0,0,1-2.278,2.268H741.776a4.567,4.567,0,0,0-4.559,4.556v18.231a4.557,4.557,0,0,0,4.556,4.556H771.4a2.291,2.291,0,0,1,2.281,2.285v4.553a2.28,2.28,0,0,1-2.275,2.288H741.776A13.678,13.678,0,0,1,728.1,259.968V241.734Zm52.422-11.394a2.278,2.278,0,0,1,2.281-2.271h4.559a2.277,2.277,0,0,1,2.278,2.271v9.122a2.277,2.277,0,0,1-2.278,2.272H782.8a2.278,2.278,0,0,1-2.281-2.272Zm0,31.912a2.277,2.277,0,0,1,2.275-2.285h4.566a2.277,2.277,0,0,1,2.278,2.278v9.116a2.279,2.279,0,0,1-2.275,2.284H782.8a2.279,2.279,0,0,1-2.281-2.278v-9.116Z" transform="translate(-554.88 -228.069)" fill="#010203" fill-rule="evenodd"/>
</svg>
