<svg xmlns="http://www.w3.org/2000/svg" width="200" height="68.039" viewBox="0 0 200 68.039">
  <g id="Warstwa_2" data-name="Warstwa 2" transform="translate(0.023)">
    <g id="Layer_1" data-name="Layer 1" transform="translate(-0.023)">
      <path id="Path_9344" data-name="Path 9344" d="M555.8,178.952h0l.1-.022h0Z" transform="translate(-381.731 -122.894)" fill="none"/>
      <path id="Path_9345" data-name="Path 9345" d="M204.8,104.71c-6.3,0-12.367,4.15-14.13,8.29h23.688C215.777,108.311,212.088,104.707,204.8,104.71Z" transform="translate(-130.95 -71.918)" fill="none"/>
      <path id="Path_9346" data-name="Path 9346" d="M384.48,179.763h0l0,0Z" transform="translate(-264.064 -123.464)" fill="none"/>
      <path id="Path_9347" data-name="Path 9347" d="M22.909,104.9c-6.89.15-10.9-4.679-8.957-10.914s9.082-10.911,15.972-10.908c4.3,0,8.274,1.566,10.172,3.955l8.769-9.442c-5.08-4.281-10.6-6.154-18.637-6.154C15.2,71.44,2.333,81.859.363,94.173c-2.067,12.94,4.2,21.922,18.023,22.752,9.47.567,17.926-1.9,25.129-8.164l-7.2-9.107C32.817,102.306,28.715,104.777,22.909,104.9Z" transform="translate(0.023 -49.067)" fill="#131f6b"/>
      <path id="Path_9348" data-name="Path 9348" d="M174.369,73.57c-16.821,0-28.812,9.752-31.408,22.082-2.656,12.69,5.208,21.4,17.851,21.4h23.72L188,106.817H165.177c-6.548,0-9.4-2.38-9.151-6.426h34.869l1.475-4.732C196.241,83.266,188.067,73.57,174.369,73.57Zm6.868,18.051H157.548c1.763-4.14,7.829-8.29,14.13-8.29,7.288-.013,10.977,3.592,9.558,8.29Z" transform="translate(-97.828 -50.53)" fill="#131f6b"/>
      <path id="Path_9349" data-name="Path 9349" d="M428.043,128.446l-.163.225.066.11.11-.351h0Z" transform="translate(-293.872 -88.209)" fill="#0f2087"/>
      <path id="Path_9350" data-name="Path 9350" d="M371.964,0H359.321l-7.9,25.411L345.986,42.9c-1.748,5.618-6.962,12.082-14.215,13.338l-.272.047h0l-.163.025h0a14.967,14.967,0,0,1-2.036.153c-6.89.034-10.914-4.82-9.154-11.1a14.481,14.481,0,0,1,14.406-10.648,12.413,12.413,0,0,1,10.366,5.769l.163-.225h0l3.692-11.819c-10.582-8.894-35.94-5.289-41.076,16.717-2.978,12.771,5.584,22.624,18.039,22.74,15.314.138,26.933-7.3,32.179-22.746Z" transform="translate(-210.919)" fill="#131f6b"/>
      <path id="Path_9351" data-name="Path 9351" d="M384.48,179.715h0l.163-.025h0l-.153.019h0Z" transform="translate(-264.064 -123.416)" fill="#0f2087"/>
      <path id="Path_9352" data-name="Path 9352" d="M521.6,168.708c-.085-.078-.166-.16-.238-.238C521.366,168.476,521.445,168.561,521.6,168.708Z" transform="translate(-358.077 -115.71)" fill="#028c38"/>
      <path id="Path_9353" data-name="Path 9353" d="M521.111,105.239c10.256-3.9,17.851-17.306,10.554-27.7-.138-.194-.272-.388-.42-.576a21.594,21.594,0,0,0-13.213-5.59c-12.671-1.008-23.544,4.344-27.982,14.744a121.667,121.667,0,0,0,7.958,11.45,11.047,11.047,0,0,1,.667-3.445c2.089-6.859,8.312-10.72,15.2-10.717s10.908,4.679,8.966,10.917-8.481,10.335-15.364,10.335a10.441,10.441,0,0,1-6.295-1.879,7.488,7.488,0,0,1-1.052-.8C501.622,103.4,509.185,109.771,521.111,105.239Zm-10.485-.251h0l.1-.022h0Z" transform="translate(-336.572 -48.94)" fill="#028c38"/>
      <path id="Path_9354" data-name="Path 9354" d="M515.049,89.49c.144.191.285.382.42.576,7.3,10.391-.3,23.8-10.554,27.7-11.926,4.532-19.492-1.841-20.983-3.27l-.031-.031c-.153-.147-.232-.232-.238-.238h0a92.751,92.751,0,0,1-8.587-10.883l-3.5-4.986s-1.506,5.133-2.505,8.265a45.85,45.85,0,0,1-2.6,6.226,86.463,86.463,0,0,0,8.265,10.711v-.041a19.449,19.449,0,0,0,12.931,5.869c15.3,1.253,28.853-7.516,32.188-22.73C521.441,99.5,519.293,93.527,515.049,89.49Z" transform="translate(-320.377 -61.464)" fill="#131f6b"/>
      <path id="Path_9355" data-name="Path 9355" d="M555.85,178.9l-.1.022h0l.078-.019Z" transform="translate(-381.697 -122.873)" fill="#0f2087"/>
    </g>
  </g>
</svg>
