<svg id="Warstwa_2" data-name="Warstwa 2" xmlns="http://www.w3.org/2000/svg" width="626.835" height="637.551" viewBox="0 0 626.835 637.551">
  <g id="Слой_1" data-name="Слой 1">
    <path id="Path_9043" data-name="Path 9043" d="M626.835,215.111c0,135.737-151.423,220.4-324.517,220.4S0,350.848,0,215.111,213.79,0,386.883,0,626.835,79.374,626.835,215.111Z" fill="#f2b705"/>
    <path id="Path_9044" data-name="Path 9044" d="M438.258,104.559a3.763,3.763,0,0,1,2.78,2.812c.1.381.2.761.307,1.131s.243.751.37,1.12a3.753,3.753,0,0,1-.751,3.869l-3.33,3.552L449.188,127.9l3.361-3.573a3.731,3.731,0,0,1,3.805-.972c.74.211,1.49.391,2.252.529a3.784,3.784,0,0,1,3,2.611l1.406,4.651,15.19-4.588L476.8,121.9a3.816,3.816,0,0,1,1.057-3.837,21.755,21.755,0,0,0,1.586-1.691,3.763,3.763,0,0,1,3.71-1.29l4.778,1.12,3.615-15.444-4.757-1.12a3.7,3.7,0,0,1-2.748-2.738c-.1-.4-.211-.793-.328-1.194s-.243-.782-.391-1.163a3.742,3.742,0,0,1,.782-3.827l3.34-3.552L475.837,76.314l-3.33,3.541a3.731,3.731,0,0,1-3.752,1.057,21.739,21.739,0,0,0-2.452-.581,3.731,3.731,0,0,1-2.9-2.59l-1.4-4.651-15.19,4.566,1.4,4.64a3.8,3.8,0,0,1-1.057,3.848,21.76,21.76,0,0,0-1.586,1.691,3.774,3.774,0,0,1-3.721,1.29l-4.757-1.12-3.626,15.444Zm18.921-14.3a8.965,8.965,0,1,1-.053,0Z" transform="translate(24.733 4.17)" fill="#fff" opacity="0.28"/>
    <path id="Path_9045" data-name="Path 9045" d="M248.138,184.276a58.138,58.138,0,1,1,58.138-58.138A58.138,58.138,0,0,1,248.138,184.276Zm0-114.162a56.024,56.024,0,1,0,56.024,56.024,56.024,56.024,0,0,0-56.024-56.024Z" transform="translate(10.841 3.88)" fill="#fff" opacity="0.32"/>
    <g id="Group_649" data-name="Group 649" transform="translate(404.547 22.579)" opacity="0.3">
      <path id="Path_9046" data-name="Path 9046" d="M413.925,33.064l-4.376-7.4h.148l-2.378,1.469a2.114,2.114,0,0,1-1.438.19,2.463,2.463,0,0,1-.7-.275l-.592-.338-.6-.338a2.272,2.272,0,0,1-1.194-1.808v-2.78l.233.233-8.583.063.285-.3v2.78a2.357,2.357,0,0,1-1.237,1.924l-.592.349-.581.338a2.388,2.388,0,0,1-.74.307,2.294,2.294,0,0,1-1.6-.169l-2.41-1.374.465-.127-4.228,7.4-.137-.5,2.41,1.4a2.378,2.378,0,0,1,1.057,2.114v1.364a2.644,2.644,0,0,1-.116.8,2.336,2.336,0,0,1-.951,1.29l-2.431,1.374.148-.529,4.228,7.4-.507-.137,2.421-1.374a2.421,2.421,0,0,1,1.586-.19,2.547,2.547,0,0,1,.74.307l.592.349.581.338a2.241,2.241,0,0,1,.634.5,2.326,2.326,0,0,1,.634,1.459v2.78l-.338-.349h8.583l-.307.307v-2.78a2.347,2.347,0,0,1,.624-1.416,2.242,2.242,0,0,1,.624-.465l.592-.338.592-.338a2.22,2.22,0,0,1,.719-.285,2.273,2.273,0,0,1,1.512.18l2.389,1.406-.307.085,4.366-7.4.053.2-2.378-1.416a2.114,2.114,0,0,1-.824-1.152,4.472,4.472,0,0,1-.063-1.4,4.461,4.461,0,0,1,.1-1.4,2.008,2.008,0,0,1,.835-1.057Zm0,0-2.378,1.416a1.935,1.935,0,0,0-.761,1.057,4.229,4.229,0,0,0-.053,1.364,4.038,4.038,0,0,0,.085,1.342,1.881,1.881,0,0,0,.772,1.057l2.4,1.342.127.074-.074.127-4.228,7.473-.106.2-.2-.116-2.389-1.353a1.9,1.9,0,0,0-1.184-.127,2.115,2.115,0,0,0-.55.233l-.6.359-.6.349a2,2,0,0,0-.465.37,1.712,1.712,0,0,0-.455,1.057v3.044H394.02V49.29a1.68,1.68,0,0,0-.444-1.057,2.114,2.114,0,0,0-.455-.349l-.613-.349-.6-.349a1.734,1.734,0,0,0-.529-.211,1.67,1.67,0,0,0-1.11.127L387.9,48.476l-.317.18-.18-.317-4.313-7.4-.19-.328.338-.2,2.368-1.364a1.649,1.649,0,0,0,.729-1.438V36.2a1.438,1.438,0,0,0-.074-.56,1.617,1.617,0,0,0-.645-.888l-2.368-1.374-.317-.18.18-.317,4.313-7.4.169-.307.3.18,2.368,1.364a1.649,1.649,0,0,0,1.12.137,1.713,1.713,0,0,0,.539-.222l.6-.381.613-.349a1.628,1.628,0,0,0,.465-.349,1.734,1.734,0,0,0,.465-1.057v-3h.3l8.583.063h.233v2.97a1.786,1.786,0,0,0,.476,1.12,1.691,1.691,0,0,0,.486.381l.6.359.6.359a1.786,1.786,0,0,0,.581.243,1.85,1.85,0,0,0,1.237-.116l2.4-1.342.106-.063.053.1Z" transform="translate(-382.699 -21.352)" fill="#fff"/>
      <path id="Path_9047" data-name="Path 9047" d="M393.936,52.511V49.34a1.628,1.628,0,0,0-.412-.93,1.882,1.882,0,0,0-.423-.328l-1.216-.7a1.639,1.639,0,0,0-.5-.2,1.469,1.469,0,0,0-1.057.116l-2.791,1.617-.254-.433-4.577-7.875,2.865-1.66a1.48,1.48,0,0,0,.592-.8,1.659,1.659,0,0,0,.074-.518V36.222a1.987,1.987,0,0,0-.063-.518,1.544,1.544,0,0,0-.6-.824l-2.791-1.617.243-.423L387.583,25l2.77,1.617a1.628,1.628,0,0,0,1.057.116,1.733,1.733,0,0,0,.507-.211l1.216-.7a1.7,1.7,0,0,0,.433-.317,1.543,1.543,0,0,0,.423-.972V21.36l9.366.063v3.108a1.67,1.67,0,0,0,.444,1.057,2.019,2.019,0,0,0,.465.359l1.194.708a1.7,1.7,0,0,0,.539.233,1.765,1.765,0,0,0,1.163-.116l2.178-1.216v-.063h.106l.359-.2.2.349h.042l4.144,7.4-.116.063-2.368,1.406a1.86,1.86,0,0,0-.708,1,2.643,2.643,0,0,0-.063.962q0,.174,0,.349v.359a2.569,2.569,0,0,0,.085.951,1.712,1.712,0,0,0,.719.951l2.114,1.216h0v.063l.433.243-.254.444v.063h0L409.8,48.664,407.1,47.131a1.607,1.607,0,0,0-1.057-.106,1.532,1.532,0,0,0-.518.211l-1.205.708a1.691,1.691,0,0,0-.856,1.332v3.171Zm.254-.846v.581h.571Zm.687.159v.423h7.674v-.359Zm8.287-.085-.465.476h.476Zm-.338-.148h.338V49.3a1.818,1.818,0,0,1,.5-1.163,1.543,1.543,0,0,1,.5-.391l1.205-.708a1.882,1.882,0,0,1,1.85-.116l2.114,1.184.106-.18-2.114-1.216a2.114,2.114,0,0,0-2.114.106l-1.184.677a2.114,2.114,0,0,0-.592.444,2.188,2.188,0,0,0-.581,1.332Zm-7.949,0h7.685V49.256a2.379,2.379,0,0,1,.655-1.5,2.61,2.61,0,0,1,.655-.5l1.184-.677a2.188,2.188,0,0,1,.75-.3,2.378,2.378,0,0,1,1.6.19l2.114,1.226,4.049-6.85-2.114-1.279a2.167,2.167,0,0,1-.888-1.226,3.247,3.247,0,0,1-.084-1.057c0-.106,0-.222,0-.328v-.338a3.023,3.023,0,0,1,.106-1.057,2.114,2.114,0,0,1,.888-1.163l2.294-1.3-4.228-7.051-2.167,1.29a2.368,2.368,0,0,1-1.543.2,2.114,2.114,0,0,1-.729-.3l-1.194-.666a2.167,2.167,0,0,1-.624-.476,2.315,2.315,0,0,1-.645-1.438V22.237l-7.8.063v2.273a2.452,2.452,0,0,1-.655,1.533,2.42,2.42,0,0,1-.655.507l-1.173.687a2.21,2.21,0,0,1-.772.317,2.526,2.526,0,0,1-1.649-.18l-2.008-1.173-3.784,6.607,1.987,1.142a2.58,2.58,0,0,1,1.057,1.364,2.665,2.665,0,0,1,.116.835v1.364a2.454,2.454,0,0,1-.116.835,2.5,2.5,0,0,1-1,1.374l-1.966,1.142,3.763,6.564,1.945-1.142a2.5,2.5,0,0,1,1.681-.2,2.622,2.622,0,0,1,.782.328l1.173.677a2.684,2.684,0,0,1,.666.518,2.558,2.558,0,0,1,.666,1.543Zm-.687,0h.423V49.256a2.262,2.262,0,0,0-.6-1.374,2.232,2.232,0,0,0-.6-.465l-1.173-.687a2.379,2.379,0,0,0-.708-.285,2.262,2.262,0,0,0-1.49.169l-1.977,1.12.233.412,1.934-1.12a1.829,1.829,0,0,1,1.205-.137,1.681,1.681,0,0,1,.56.222l1.216.7a1.946,1.946,0,0,1,.486.381,1.776,1.776,0,0,1,.486,1.057Zm-6.86-3.615.338.571.56-.328Zm22.2.264.2.116.116-.2h0Zm.264-.37.159.085,3.911-6.924h0Zm-26.247-6.5,3.795,6.543.412-.243-3.816-6.607Zm-.391-.677.359.624.254-.983Zm.677-.391.254.444L386.04,39.6a2.338,2.338,0,0,0,.994-1.977V36.265a2.506,2.506,0,0,0-.106-.761,2.22,2.22,0,0,0-.9-1.216l-1.987-1.131-.222.4,1.934,1.12a1.8,1.8,0,0,1,.793,1.575v1.385a2.188,2.188,0,0,1-.085.6,1.713,1.713,0,0,1-.708.951Zm29.45.074.465.285h0Zm-30.094-7.188.55.317-.233-.867Zm.37-.624.391.222,3.795-6.607-.37-.2Zm4.545-6.48,2,1.152a2.294,2.294,0,0,0,1.48.159,2.263,2.263,0,0,0,.687-.285l1.184-.687a2.357,2.357,0,0,0,.592-.465,2.272,2.272,0,0,0,.581-1.353V22.216H394.3v2.326a1.819,1.819,0,0,1-.5,1.131,1.966,1.966,0,0,1-.5.37l-1.216.7a1.86,1.86,0,0,1-.571.233,1.818,1.818,0,0,1-1.205-.137L388.3,25.694Zm14.8-3.9v2.421a2.114,2.114,0,0,0,.571,1.268,2.231,2.231,0,0,0,.56.423l1.205.677a1.955,1.955,0,0,0,.645.254,2.03,2.03,0,0,0,1.364-.169l.92-.539-.93.507a1.966,1.966,0,0,1-1.342.137,1.924,1.924,0,0,1-.613-.264l-1.12-.74a2.029,2.029,0,0,1-.518-.412,1.945,1.945,0,0,1-.518-1.194v-2.4Zm-15.222,3.171-.3.5.793-.211Zm6.575-3.721v.4l.423-.412Zm.571,0v.307l7.8-.063v-.19Zm8.034.053h0l.233.233v-.233Z" transform="translate(-382.71 -21.36)" fill="#fff"/>
      <path id="Path_9048" data-name="Path 9048" d="M405.272,36.471a7.241,7.241,0,1,1-2.019-5.021A7.241,7.241,0,0,1,405.272,36.471Zm0,0a6.839,6.839,0,1,0-6.777,6.836,6.829,6.829,0,0,0,6.777-6.836Z" transform="translate(-382.249 -20.911)" fill="#fff"/>
      <path id="Path_9049" data-name="Path 9049" d="M398.045,43.793a7.341,7.341,0,1,1-.011-14.683h.2a7.4,7.4,0,0,1,0,14.714Zm0-14.461a7.093,7.093,0,0,0-7.093,7.093,7.23,7.23,0,0,0,2.178,5.158,7.125,7.125,0,0,0,4.926,1.987h.19a6.807,6.807,0,0,0,2.3-.444,6.972,6.972,0,1,1,.042-13.277,7.072,7.072,0,0,0-2.347-.465Zm.4.391h-.2a6.712,6.712,0,0,0,0,13.414h.169a6.691,6.691,0,0,0,6.691-6.7,6.619,6.619,0,0,0-6.691-6.67Z" transform="translate(-382.253 -20.918)" fill="#fff"/>
    </g>
    <g id="Group_650" data-name="Group 650" transform="translate(47.525 241.781)" opacity="0.3">
      <path id="Path_9050" data-name="Path 9050" d="M50.607,238.71,45.671,251.3l-.1-.222,4.059,1.6a3.478,3.478,0,0,1,1.628,1.628,3.7,3.7,0,0,1,.328,1.12l.159,1.057.159,1.057a3.425,3.425,0,0,1,0,1.184,3.52,3.52,0,0,1-1.057,2.061L47.415,263.5l.063-.507,8.382,10.623-.634-.074,3.446-2.706a3.721,3.721,0,0,1,2.378-.634,3.954,3.954,0,0,1,1.216.307l.994.4.994.4a3.953,3.953,0,0,1,1.057.613,3.71,3.71,0,0,1,1.3,2.114l.613,4.345-.6-.465,13.393-1.882-.486.645-.613-4.344a3.827,3.827,0,0,1,.677-2.442,4.029,4.029,0,0,1,.888-.909l.867-.634.825-.687a3.921,3.921,0,0,1,1.057-.634,3.678,3.678,0,0,1,2.537-.063l4.07,1.628-.793.338,5.169-12.452.317.761-4.091-1.7a3.827,3.827,0,0,1-1.765-1.8,4.155,4.155,0,0,1-.338-1.226l-.137-1.057-.137-1.057a3.594,3.594,0,0,1,0-1.258,3.8,3.8,0,0,1,1.237-2.177l3.467-2.685-.1.751L84.4,234.281l.687.1L81.6,237.03a3.647,3.647,0,0,1-2.357.592,3.773,3.773,0,0,1-1.184-.317l-.994-.412-.994-.412a3.668,3.668,0,0,1-2.283-2.674l-.571-4.334.4.307L60.205,231.5l.19-.254.529,4.323a3.235,3.235,0,0,1-.634,2.114,7.092,7.092,0,0,1-1.67,1.427,6.923,6.923,0,0,1-1.818,1.216,3.171,3.171,0,0,1-2.178,0Zm0,0,4.049,1.575a3.066,3.066,0,0,0,2.114-.074,7,7,0,0,0,1.734-1.247,6.659,6.659,0,0,0,1.6-1.406,3.013,3.013,0,0,0,.518-1.956l-.634-4.292v-.222h.233l13.308-2.019h.349v.359l.634,4.228a2.8,2.8,0,0,0,.983,1.586,3.014,3.014,0,0,0,.825.465l1.057.4,1.057.4a2.812,2.812,0,0,0,.909.233,2.748,2.748,0,0,0,1.776-.465l3.393-2.674.381-.3.307.381,8.351,10.655.328.423-.423.328-3.4,2.664a2.653,2.653,0,0,0-.835,1.554,2.569,2.569,0,0,0,0,.9l.148,1.057.148,1.057a2.95,2.95,0,0,0,.243.856,2.579,2.579,0,0,0,1.237,1.247l4,1.628.539.222-.222.539-5.074,12.537-.222.571-.571-.233-4.006-1.586a2.537,2.537,0,0,0-1.723,0,3.171,3.171,0,0,0-.782.444l-.846.7-.888.655a2.78,2.78,0,0,0-.634.634,2.579,2.579,0,0,0-.476,1.67l.581,4.281.074.56-.56.085-13.4,1.818-.539.074-.074-.529-.581-4.281a2.717,2.717,0,0,0-.93-1.522,3.033,3.033,0,0,0-.782-.455l-1.057-.412-1.057-.423a2.917,2.917,0,0,0-.888-.243,2.674,2.674,0,0,0-1.744.433l-3.435,2.622-.37.275-.275-.359-8.15-10.676-.222-.285.285-.222,3.435-2.632a2.939,2.939,0,0,0,.941-1.723,3.066,3.066,0,0,0,0-.983l-.137-1.057-.127-1.057a3.4,3.4,0,0,0-.254-.962,3.023,3.023,0,0,0-1.364-1.427l-3.985-1.681-.169-.074.074-.159Z" transform="translate(-44.941 -228.711)" fill="#fff"/>
      <path id="Path_9051" data-name="Path 9051" d="M66.027,279.405l-.7-5.063a2.4,2.4,0,0,0-.825-1.353,2.505,2.505,0,0,0-.719-.412l-2.051-.846a2.42,2.42,0,0,0-.8-.222,2.463,2.463,0,0,0-1.586.391l-3.985,3.044-8.245-10.814h0l-.751-.983.972-.761h0l2.949-2.262a2.643,2.643,0,0,0,.835-2.41l-.264-2.188a2.738,2.738,0,0,0-.233-.877,2.643,2.643,0,0,0-1.29-1.321l-3.562-1.512-.074.19-.116-.264-.624-.275.254-.613-.106-.254.18.074,5.19-12.315.254.106,4.038,1.575a2.843,2.843,0,0,0,1.892-.085,4.4,4.4,0,0,0,1.237-.835l.433-.37.444-.338a4,4,0,0,0,1.057-1,2.8,2.8,0,0,0,.486-1.786l-.518-3.774h-.148l.127-.159-.127-.814.835-.127.127-.169v.148l12.272-1.818h0l1.205-.18.2,1.247h0l.55,3.657a2.41,2.41,0,0,0,.877,1.416,2.474,2.474,0,0,0,.751.423l2.051.814a2.559,2.559,0,0,0,.835.211,2.463,2.463,0,0,0,1.607-.423l3.975-3.171,9.3,11.966-4.027,3.171a2.326,2.326,0,0,0-.74,1.374,2.7,2.7,0,0,0,0,.824l.307,2.188a2.188,2.188,0,0,0,.222.782,2.357,2.357,0,0,0,1.11,1.131l4.757,1.934L90.149,270.41l-4.81-1.956a2.251,2.251,0,0,0-1.533,0,2.813,2.813,0,0,0-.7.412l-.856.7-.9.655a2.59,2.59,0,0,0-.56.571,2.294,2.294,0,0,0-.433,1.5l.687,5.1Zm.349-1.3.1.708.729-.116Zm1.057,0,.085.55,11.776-1.6-.085-.613Zm-6.776-7.146h.285a3.108,3.108,0,0,1,.972.338l2.03.835a3.309,3.309,0,0,1,.867.5,2.865,2.865,0,0,1,1,1.67l.486,3.5.539-.074-.507-3.541a3.446,3.446,0,0,0-1.205-1.956,3.393,3.393,0,0,0-1.057-.581l-1.987-.793a3.51,3.51,0,0,0-1.142-.3,3.467,3.467,0,0,0-2.209.581l-2.865,2.252.243.317,2.854-2.188a2.991,2.991,0,0,1,1.723-.55Zm0-1H61a4.546,4.546,0,0,1,1.29.328l1.977.8a3.9,3.9,0,0,1,1.163.655,3.943,3.943,0,0,1,1.385,2.273l.507,3.562,11.776-1.66-.5-3.52a4,4,0,0,1,.729-2.622,4.3,4.3,0,0,1,.941-.972l.867-.634.814-.677a4.43,4.43,0,0,1,1.173-.687,4.027,4.027,0,0,1,2.727-.063l3.34,1.385,4.44-10.983L90.35,255.8a4.006,4.006,0,0,1-1.892-1.934,3.763,3.763,0,0,1-.359-1.3l-.285-2.114a4.08,4.08,0,0,1,0-1.342,3.974,3.974,0,0,1,1.29-2.357l2.843-2.209-7.325-9.514-2.886,2.2a3.869,3.869,0,0,1-2.537.645,4.228,4.228,0,0,1-1.268-.338l-1.977-.825a3.678,3.678,0,0,1-1.12-.655,3.784,3.784,0,0,1-1.29-2.178l-.5-3.742-12.325,1.586.476,3.837a3.615,3.615,0,0,1-.677,2.336,4.852,4.852,0,0,1-1.311,1.163l-.423.317c-.148.106-.275.211-.412.328a4.947,4.947,0,0,1-1.48.93,3.446,3.446,0,0,1-2.378.011l-3.784-1.586-4.672,11.955,3.647,1.438a3.721,3.721,0,0,1,1.776,1.755,4.228,4.228,0,0,1,.391,1.237l.317,2.114a3.657,3.657,0,0,1,0,1.268A3.752,3.752,0,0,1,51,261.044l-2.949,2.336,7.526,9.545,2.875-2.262a3.985,3.985,0,0,1,2.283-.7ZM80.276,276.1l-.7.909.8-.106Zm4.376-9.027a3.541,3.541,0,0,0-1.268.233,3.786,3.786,0,0,0-1.057.6l-.825.677-.877.645a3.89,3.89,0,0,0-.824.846,3.5,3.5,0,0,0-.634,2.273l.5,3.5.6-.085-.381-3.4a2.843,2.843,0,0,1,.529-1.86,2.685,2.685,0,0,1,.687-.7l.888-.655.846-.687a2.917,2.917,0,0,1,2.748-.529l3.171,1.3.264-.634-3.256-1.311A3.341,3.341,0,0,0,84.653,267.069Zm-29.481,6.755.285.359.37-.285Zm-7.685-10.042,7.4,9.683.285-.233-7.526-9.545ZM89,269.3l.867.349.349-.867Zm.677-1.057.645.254,4.429-10.941-.592-.254ZM47.053,263.2l.106.137v-.233Zm.571-.433.106.148,2.939-2.326a3.266,3.266,0,0,0,1.057-1.9,3.5,3.5,0,0,0,0-1.057l-.381-2.188a2.558,2.558,0,0,0-.127-.592,3.33,3.33,0,0,1,.106.581l.275,2.114a3.277,3.277,0,0,1,0,1.057,3.108,3.108,0,0,1-1.057,1.829ZM94.4,256.161l.465,1.057.317-.782Zm-2.114-11.226-2.822,2.2a3.456,3.456,0,0,0-1.057,2.03,3.636,3.636,0,0,0,0,1.173l.285,2.114a3.964,3.964,0,0,0,.317,1.142,3.488,3.488,0,0,0,1.638,1.67L93.9,256.6l.233-.581-3.171-1.311a2.822,2.822,0,0,1-1.364-1.374,2.759,2.759,0,0,1-.264-.941l-.307-2.188a3.076,3.076,0,0,1,0-.983,2.907,2.907,0,0,1,.93-1.7l2.769-2.178Zm.751-.793-.127,1,.571-.444Zm-7.97-9.44,7.315,9.514.433-.338-7.4-9.429Zm-11.522-4.63.5,3.721a3.309,3.309,0,0,0,1.142,1.892,3.519,3.519,0,0,0,.972.571l2,.824a3.626,3.626,0,0,0,1.057.3,3.393,3.393,0,0,0,2.188-.55l2.875-2.188-.159-.338-2.8,2.2a3.034,3.034,0,0,1-1.966.529,2.938,2.938,0,0,1-.994-.254l-2.04-.8a3.17,3.17,0,0,1-.888-.507,3.044,3.044,0,0,1-1.057-1.734l-.592-3.657Zm10.835,3.964.782.1-.349-.433Zm-11.416-4.6-8.869,1.321,8.89-1.142Zm.539-.074.19.148v-.18Z" transform="translate(-44.96 -228.73)" fill="#fff"/>
      <path id="Path_9052" data-name="Path 9052" d="M68.414,242.113a11.438,11.438,0,1,1-10.232,12.156,11.4,11.4,0,0,1,10.232-12.156Zm0,0a10.761,10.761,0,1,0,8.065,2.505,10.761,10.761,0,0,0-8.065-2.505Z" transform="translate(-44.207 -227.97)" fill="#fff"/>
      <path id="Path_9053" data-name="Path 9053" d="M69.631,265.106a11.807,11.807,0,0,1-7.59-2.77,11.628,11.628,0,1,1,8.647,2.706A10.137,10.137,0,0,1,69.631,265.106ZM58.458,252.58a11.13,11.13,0,1,0,22.135-.539,9.621,9.621,0,0,0-.307-1.554,11.036,11.036,0,1,1-21.733,3.774,11.2,11.2,0,0,1-.1-1.681Zm9.989-10.19a10.645,10.645,0,0,0-7.22,3.964,10.507,10.507,0,1,0,15.095-1.522A10.645,10.645,0,0,0,68.447,242.39Z" transform="translate(-44.22 -227.982)" fill="#fff"/>
    </g>
    <g id="Group_651" data-name="Group 651" transform="translate(468.769 193.03)" opacity="0.38">
      <path id="Path_9054" data-name="Path 9054" d="M501.455,210.93a11.321,11.321,0,0,1,5.053,10.8l-7.759-5.074-4.228,3.245-1.268,5.2,7.769,5.074a11.332,11.332,0,1,1,.465-19.249Z" transform="translate(-441.157 -181.101)" fill="#fff"/>
      <path id="Path_9055" data-name="Path 9055" d="M448.6,203.423a11.321,11.321,0,0,1-5.053-10.8l7.759,5.074,4.228-3.245,1.268-5.2-7.769-5.074a11.332,11.332,0,1,1-.465,19.249Z" transform="translate(-443.466 -182.611)" fill="#fff"/>
      <rect id="Rectangle_353" data-name="Rectangle 353" width="10.084" height="41.035" transform="matrix(0.547, -0.837, 0.837, 0.547, 12.225, 17.935)" fill="#fff"/>
    </g>
    <path id="Path_9056" data-name="Path 9056" d="M348.2,74.2H326V52h22.2Zm-21.141-1.057h20.084V53.057H327.057Z" transform="translate(18.601 2.967)" fill="#fff" opacity="0.31"/>
    <path id="Path_9057" data-name="Path 9057" d="M87.138,198.2H29V176H87.138Zm-57.081-1.057H86.081V177.057H30.057Z" transform="translate(1.655 10.042)" fill="#fff" opacity="0.46"/>
    <path id="Path_9058" data-name="Path 9058" d="M580.138,192.2H522V170h58.138Zm-57.081-1.057h56.024V171.057H523.057Z" transform="translate(29.784 9.7)" fill="#fff" opacity="0.46"/>
    <path id="Path_9059" data-name="Path 9059" d="M115.138,185.2H57V163h58.138Zm-57.081-1.057h56.024V164.057H58.057Z" transform="translate(3.252 9.3)" fill="#fff" opacity="0.46"/>
    <rect id="Rectangle_354" data-name="Rectangle 354" width="360.457" height="243.123" rx="15.97" transform="translate(133.189 108.877)" fill="#fff"/>
    <path id="Path_9060" data-name="Path 9060" d="M469.743,350.023H143.113A20.6,20.6,0,0,1,122.5,329.41v-209.3A20.6,20.6,0,0,1,143.113,99.5H469.743a20.6,20.6,0,0,1,20.613,20.613v209.3a20.6,20.6,0,0,1-20.613,20.613ZM143.113,106.9A13.192,13.192,0,0,0,129.9,120.113v209.3a13.192,13.192,0,0,0,13.213,13.213H469.743a13.192,13.192,0,0,0,13.213-13.213v-209.3A13.192,13.192,0,0,0,469.743,106.9Z" transform="translate(6.99 5.677)" fill="#fdeca0"/>
    <circle id="Ellipse_11" data-name="Ellipse 11" cx="52.853" cy="52.853" r="52.853" transform="translate(172.3 208.24)" fill="#d9d9d9"/>
    <rect id="Rectangle_355" data-name="Rectangle 355" width="71.88" height="21.141" rx="4.61" transform="translate(160.673 132.132)" fill="#bfbfbf"/>
    <rect id="Rectangle_356" data-name="Rectangle 356" width="23.255" height="63.423" transform="translate(352 242.066)" fill="#009274"/>
    <rect id="Rectangle_357" data-name="Rectangle 357" width="23.255" height="103.592" transform="translate(391.111 202.955)" fill="#009274"/>
    <rect id="Rectangle_358" data-name="Rectangle 358" width="23.255" height="133.189" transform="translate(430.222 174.415)" fill="#009274"/>
    <rect id="Rectangle_359" data-name="Rectangle 359" width="38.054" height="4.228" rx="2" transform="translate(160.673 168.072)" fill="#d9d9d9"/>
    <rect id="Rectangle_360" data-name="Rectangle 360" width="38.054" height="4.228" rx="2" transform="translate(204.012 168.072)" fill="#d9d9d9"/>
    <rect id="Rectangle_361" data-name="Rectangle 361" width="42.282" height="4.228" rx="2" transform="translate(248.409 168.072)" fill="#d9d9d9"/>
    <rect id="Rectangle_362" data-name="Rectangle 362" width="21.141" height="4.228" rx="2" transform="translate(160.673 177.586)" fill="#d9d9d9"/>
    <rect id="Rectangle_363" data-name="Rectangle 363" width="21.141" height="4.228" rx="2" transform="translate(269.55 177.586)" fill="#d9d9d9"/>
    <rect id="Rectangle_364" data-name="Rectangle 364" width="11.628" height="4.228" rx="2" transform="translate(208.24 187.099)" fill="#d9d9d9"/>
    <rect id="Rectangle_365" data-name="Rectangle 365" width="30.655" height="4.228" rx="2" transform="translate(187.099 177.586)" fill="#d9d9d9"/>
    <rect id="Rectangle_366" data-name="Rectangle 366" width="40.168" height="4.228" rx="2" transform="translate(221.982 177.586)" fill="#d9d9d9"/>
    <rect id="Rectangle_367" data-name="Rectangle 367" width="40.168" height="4.228" rx="2" transform="translate(160.673 187.099)" fill="#d9d9d9"/>
    <path id="Path_9061" data-name="Path 9061" d="M171.873,219.34a52.853,52.853,0,0,0,81.637,66.341L221.924,250.8Z" transform="translate(9.307 12.515)" fill="#bfbfbf"/>
    <path id="Path_9062" data-name="Path 9062" d="M248.633,208.84,185.78,293.574a52.853,52.853,0,0,0,62.853-84.734Z" transform="translate(10.6 11.916)" fill="#0c154a"/>
    <path id="Path_9063" data-name="Path 9063" d="M62.3,591.334c38.942,13.742,143.21-.317,190.027-13.213,23.16-6.342,36.606-28.276-5.539-28.181C227.864,550,20.712,576.631,62.3,591.334Z" transform="translate(3.241 31.378)" fill="#bfbfbf"/>
    <path id="Path_9064" data-name="Path 9064" d="M103.821,576.619c-.825,1.681-1.67,3.467-1.469,5.285.359,3.171,3.6,5.2,6.67,6.131,7.251,2.2,15.031.994,22.5-.222,4.651-.761,10.2-2.3,11.406-6.85,1.057-4.133-2.537-8.319-6.67-9.429s-8.456,0-12.621,1.057a515.463,515.463,0,0,1,30.031-68.381c-5.92,1.723-15.063-.761-18.921,3.922C130.036,513.935,111.115,561.756,103.821,576.619Z" transform="translate(5.838 28.769)" fill="#7f7f7f"/>
    <path id="Path_9065" data-name="Path 9065" d="M118.105,590.449a32.282,32.282,0,0,1-9.334-1.268c-4.292-1.3-7.061-3.932-7.4-7.029-.243-2.22.761-4.228,1.564-5.909h0c2.865-5.835,7.516-16.733,12.442-28.276,7.706-18.065,15.666-36.754,18.625-40.337,2.738-3.319,7.569-3.425,12.241-3.541a29.851,29.851,0,0,0,7.188-.719l2.4-.708-1.163,2.209a517.021,517.021,0,0,0-29.3,66.373c3.467-.877,7.452-1.607,11.236-.592,4.535,1.216,8.689,5.909,7.4,10.719-1.4,5.285-7.664,6.86-12.251,7.611a84.673,84.673,0,0,1-13.647,1.469Zm-13.277-13.277h0c-.877,1.776-1.533,3.256-1.364,4.746.37,3.309,4.619,4.841,5.92,5.285,7.156,2.114,15.063.888,22.029-.254,4.017-.655,9.514-2,10.571-6.068.93-3.5-2.357-7.188-5.92-8.139-3.964-1.057-8.277.085-12.082,1.057l-1.934.518.666-1.892a518.431,518.431,0,0,1,29.059-66.595,46.4,46.4,0,0,1-5.465.338c-4.4.106-8.541.2-10.666,2.78-2.759,3.34-11.025,22.716-18.308,39.809C112.376,560.365,107.714,571.295,104.829,577.172Z" transform="translate(5.782 28.681)" fill="#fff"/>
    <path id="Path_9066" data-name="Path 9066" d="M182.44,553.313c-.951,3.287-1.85,6.8-.877,10.074,1.945,6.5,9.883,8.742,16.617,9.514,4.429.529,9,.856,13.308-.275s8.456-4.006,9.926-8.213-.307-9.64-4.492-11.2-8.573.825-12.949,1A659.8,659.8,0,0,1,228.7,487.056c-6.564,1.924-15.222-3.118-21.279,0-5.507,2.812-6.913,16.088-9.27,21.68a400.928,400.928,0,0,0-15.708,44.576Z" transform="translate(10.336 27.731)" fill="#7f7f7f"/>
    <path id="Path_9067" data-name="Path 9067" d="M205.024,574.51a59.449,59.449,0,0,1-6.913-.486c-9.926-1.163-15.856-4.619-17.5-10.275-1.057-3.467-.18-7.029.867-10.676h0a404.635,404.635,0,0,1,15.761-44.692,55.415,55.415,0,0,0,1.966-6.512c1.649-6.342,3.531-13.52,7.791-15.7,3.573-1.829,7.843-1.057,11.966-.381,3.3.56,6.7,1.152,9.514.328l2.114-.634L229.7,487.6a662.374,662.374,0,0,0-24.217,65.537c1.057-.148,2.04-.38,3.055-.6,2.886-.634,5.877-1.3,8.784-.2,4.524,1.7,6.913,7.569,5.116,12.558-1.522,4.228-5.5,7.516-10.645,8.869a26.671,26.671,0,0,1-6.765.75Zm7.336-87.4a9.514,9.514,0,0,0-4.4.92c-3.425,1.744-5.285,8.742-6.723,14.355a55.177,55.177,0,0,1-2.061,6.8,402.343,402.343,0,0,0-15.666,44.523h0c-.962,3.34-1.755,6.564-.877,9.513,1.427,4.767,6.712,7.716,15.718,8.774,4.006.476,8.636.877,12.928-.254s7.928-4.059,9.2-7.547-.127-8.456-3.869-9.862c-2.326-.877-4.884-.307-7.59.285a27.6,27.6,0,0,1-4.947.793l-1.49.063.433-1.427A664.426,664.426,0,0,1,227,488.624a31.279,31.279,0,0,1-8.4-.677A37.534,37.534,0,0,0,212.36,487.112Z" transform="translate(10.278 27.675)" fill="#fff"/>
    <path id="Path_9068" data-name="Path 9068" d="M274.1,451.394c.56,2.78,1.057,5.761,3.118,7.886s6.427,2.727,8.2.391a5.813,5.813,0,0,0,.909-2.273c1.131-5.158.412-10.571-.793-15.666-5.127-21.923-20.993-47.007-43.54-58.212,1.712,11.628-4.228,15.306,12.547,30.094C265.837,423.572,271.3,437.356,274.1,451.394Z" transform="translate(13.808 21.883)" fill="#7f7f7f"/>
    <path id="Path_9069" data-name="Path 9069" d="M282.008,462.35a7.917,7.917,0,0,1-5.476-2.209c-2.167-2.22-2.759-5.285-3.287-7.907l-.106-.507c-3.309-16.543-9.6-28.71-19.217-37.2-12.907-11.374-12.738-16.659-12.579-23.3a41.132,41.132,0,0,0-.317-7.452l-.3-2.008,1.818.9c23.7,11.786,39.227,38.054,44.09,58.92,1.057,4.45,2.114,10.306.793,16.141a6.49,6.49,0,0,1-1.057,2.674,5.074,5.074,0,0,1-3.869,1.9Zm-38.657-76.859a50.1,50.1,0,0,1,.106,5.814c-.159,6.342-.264,10.941,11.86,21.638,9.989,8.805,16.49,21.353,19.894,38.371l.106.507c.5,2.495,1,5.063,2.738,6.839a5.782,5.782,0,0,0,4.228,1.564,3.171,3.171,0,0,0,2.326-1.057,4.7,4.7,0,0,0,.719-1.85c1.184-5.423.2-10.972-.782-15.2-4.6-19.873-19.09-44.766-41.194-56.648Z" transform="translate(13.735 21.783)" fill="#fff"/>
    <path id="Path_9070" data-name="Path 9070" d="M66.28,429.69c-5.782,2.114-2.22.729-8,2.875-6.744,2.495-13.573,5.042-19.439,9.207s-10.761,10.19-11.966,17.283,2.04,15.137,8.573,18.139c4.767,2.178,9.757,2.548,14.979,2.178a101.37,101.37,0,0,1,23.255,1.057c6.691,1.057,16.374.93,20.327-4.556a8.837,8.837,0,0,0-1.448-11.48c-3.171-2.674-7.843-2.7-11.828-1.543s-7.6,3.309-11.533,4.6a28.54,28.54,0,0,1-17.145.148c-4.894-1.522-9.936-5.476-9.514-10.571s5.835-7.949,10.571-9.683c7.6-2.78,8.287-3.531,16.247-4.958" transform="translate(1.519 24.517)" fill="#7f7f7f"/>
    <path id="Path_9071" data-name="Path 9071" d="M80.09,482.026a44.5,44.5,0,0,1-6.511-.5,99.8,99.8,0,0,0-23.012-1.057c-6.226.444-11.152-.285-15.5-2.273-6.585-3.023-10.571-11.311-9.175-19.281,1.142-6.733,5.539-13.118,12.389-17.97,6.015-4.228,12.96-6.839,19.682-9.334,2.917-1.057,3.488-1.268,4.049-1.448s1.057-.359,3.964-1.427l.729,1.987C63.8,431.784,63.22,432,62.67,432.175s-1.057.359-3.975,1.427c-6.585,2.442-13.4,4.968-19.186,9.07-6.342,4.524-10.486,10.423-11.532,16.606-1.205,7.061,2.23,14.365,7.97,17,4.07,1.86,8.53,2.505,14.461,2.114a101.652,101.652,0,0,1,23.5,1.057c3.446.529,15.031,1.8,19.291-4.133a7.78,7.78,0,0,0-1.226-10.042c-3.562-3.013-8.774-1.945-10.856-1.342a48.842,48.842,0,0,0-6.067,2.389,56,56,0,0,1-5.433,2.2,29.418,29.418,0,0,1-17.78.148c-5.285-1.628-10.74-5.993-10.211-11.691.4-4.429,4.228-7.991,11.268-10.571,1.734-.634,3.1-1.163,4.228-1.617a52.419,52.419,0,0,1,12.241-3.393l.37,2.114a50.081,50.081,0,0,0-11.776,3.277c-1.184.455-2.569.983-4.3,1.628-6.237,2.273-9.514,5.232-9.894,8.784-.423,4.524,4.228,8.086,8.731,9.514a27.346,27.346,0,0,0,16.49-.137,54.98,54.98,0,0,0,5.285-2.114,50.158,50.158,0,0,1,6.342-2.484c5.084-1.469,9.757-.835,12.812,1.755a9.873,9.873,0,0,1,1.586,12.9C91.7,481.022,85.217,482.026,80.09,482.026Z" transform="translate(1.462 24.463)" fill="#fff"/>
    <path id="Path_9072" data-name="Path 9072" d="M264.806,492.6,106.987,528.067c-9.514,2.114-19.164-3.583-21.511-12.79L46.566,362.828a16.913,16.913,0,0,1,13.012-20.56L217.4,306.8c9.514-2.114,19.164,3.583,21.511,12.79l38.91,152.459A16.913,16.913,0,0,1,264.806,492.6Z" transform="translate(2.63 17.48)" fill="#d9d9d9"/>
    <path id="Path_9073" data-name="Path 9073" d="M103.03,529.638A19.027,19.027,0,0,1,84.51,515.6L45.61,363.12a17.4,17.4,0,0,1,2.04-13.541A18.361,18.361,0,0,1,59.4,341.27L217.224,305.8c10.074-2.262,20.285,3.827,22.769,13.573L278.9,471.817a17.431,17.431,0,0,1-2.051,13.53,18.319,18.319,0,0,1-11.754,8.319L107.279,529.131a19.472,19.472,0,0,1-4.249.507Zm118.5-222.162a17.25,17.25,0,0,0-3.794.423L59.87,343.363a16.289,16.289,0,0,0-10.423,7.347,15.4,15.4,0,0,0-1.8,11.913l38.91,152.449c2.2,8.647,11.289,14.006,20.253,12.029l157.829-35.475a16.247,16.247,0,0,0,10.412-7.347,15.348,15.348,0,0,0,1.8-11.913l-38.9-152.449A16.913,16.913,0,0,0,221.526,307.476Z" transform="translate(2.57 17.421)" fill="#fff"/>
    <path id="Path_9074" data-name="Path 9074" d="M243.848,473.907,127.709,500.1c-9.693,2.177-19.429-3.425-21.754-12.526L78.027,378.54c-2.326-9.091,3.647-18.234,13.34-20.422l116.171-26.152c9.693-2.188,19.429,3.414,21.754,12.516l27.9,109C259.513,462.586,253.5,471.73,243.848,473.907Z" transform="translate(4.423 18.914)" fill="#fff"/>
    <path id="Path_9075" data-name="Path 9075" d="M123.536,501.65c-8.615,0-16.469-5.55-18.573-13.742L77.078,378.841a16.987,16.987,0,0,1,2.061-13.2,18.847,18.847,0,0,1,12.1-8.509l116.171-26.162c10.232-2.3,20.549,3.657,23.012,13.287L258.3,453.279a16.987,16.987,0,0,1-2.03,13.2,18.826,18.826,0,0,1-12.1,8.52L128,501.153A19.926,19.926,0,0,1,123.536,501.65Zm88.307-169.066a18.352,18.352,0,0,0-3.985.444L91.676,359.19A16.786,16.786,0,0,0,80.9,366.738a14.936,14.936,0,0,0-1.776,11.628L107,487.4c2.178,8.53,11.374,13.805,20.5,11.744l116.171-26.152a16.765,16.765,0,0,0,10.771-7.558,14.894,14.894,0,0,0,1.776-11.628L228.343,344.772c-1.86-7.273-8.837-12.188-16.511-12.188Z" transform="translate(4.368 18.856)" fill="#fff"/>
    <path id="Path_9076" data-name="Path 9076" d="M212.047,335.737l-1.987-.7c1.216-3.457,3.3-8.182,5.285-12.759s4.07-9.239,5.285-12.611l1.987.7c-1.216,3.457-3.3,8.182-5.285,12.759S213.242,332.365,212.047,335.737Z" transform="translate(11.986 17.669)" fill="#fff"/>
    <path id="Path_9077" data-name="Path 9077" d="M84.349,367.9c-2.97-2.421-34.206-17.97-36.669-18.837l.677-2.008c2.632.9,34.122,16.6,37.325,19.217Z" transform="translate(2.721 19.802)" fill="#fff"/>
    <path id="Path_9078" data-name="Path 9078" d="M94.88,517.212l-1.67-1.29c2.378-3.065,4.958-6.057,7.452-8.953C105.884,500.891,111.3,494.6,115,487.54l1.871.972c-3.805,7.283-9.3,13.668-14.609,19.83C99.785,511.218,97.216,514.188,94.88,517.212Z" transform="translate(5.318 27.818)" fill="#fff"/>
    <path id="Path_9079" data-name="Path 9079" d="M262.064,477.882c-4.968-4.757-17.389-18.562-18.784-20.084l1.543-1.438h0c1.4,1.554,13.742,15.3,18.689,20.01Z" transform="translate(13.881 26.039)" fill="#fff"/>
    <path id="Path_9080" data-name="Path 9080" d="M179.6,456.867a33.656,33.656,0,0,1-17.2-4.979,1.589,1.589,0,0,1,1.649-2.717c6.712,4.059,14.4,5.476,21.078,3.9,7.273-1.712,13.319-7.294,15.063-13.869a1.586,1.586,0,0,1,1.934-1.131,1.607,1.607,0,0,1,1.131,1.945c-2.061,7.791-8.89,14.133-17.4,16.141A27.3,27.3,0,0,1,179.6,456.867Z" transform="translate(9.223 24.992)" fill="#181618"/>
    <path id="Path_9081" data-name="Path 9081" d="M131.274,402.4q-2.643-1.332-4.757-6.469a113.906,113.906,0,0,1-3.7-12.336q-2.452-9.63-2.368-14.376.085-5.719,3.679-7.4a5.951,5.951,0,0,1,5.063-.169,7.093,7.093,0,0,1,3.89,4.63l-2.769.877a4.387,4.387,0,0,0-2.273-2.854,3.087,3.087,0,0,0-2.653.127c-1.4.666-2.114,2.442-2.04,5.349a61.532,61.532,0,0,0,2.3,13.076q1.934,7.537,3.171,11.025c1.226,3.33,2.474,5.285,3.721,5.951l.328.127a3.163,3.163,0,0,0,.455.1,2.938,2.938,0,0,0,1.29-.233,4.651,4.651,0,0,0,2.325-1.66,3.171,3.171,0,0,0,.338-2.061l2.9-.328c.359,3.171-1.131,5.391-4.492,6.744a5.285,5.285,0,0,1-.972.307,4.81,4.81,0,0,1-3.435-.423Z" transform="translate(6.872 20.607)" fill="#181618"/>
    <path id="Path_9082" data-name="Path 9082" d="M152.255,358.412l-.433.137c-.307.085-.687.2-1.12.349-1.173.349-2.357.708-3.531,1.057l.719,3.065,1.057,4.228,2.452,10.475q3.256,13.932,4.556,19.608L153.1,398q-1.29-5.613-4.492-19.355l-2.442-10.423-.983-4.228c-.243-1.057-.507-2.114-.772-3.171-2.347.772-3.922,1.311-4.714,1.638l-1.057-2.717c1.057-.433,3.52-1.247,7.241-2.431l3.805-1.173c.455-.127.877-.254,1.258-.381l.539-.159Z" transform="translate(7.91 20.29)" fill="#181618"/>
    <path id="Path_9083" data-name="Path 9083" d="M177.8,392.1l-.127-.169-.1-.148-.127-.18-.835-1.173c-.877-1.258-1.744-2.516-2.6-3.795q-4.133-6.089-6.881-10.719c.5,1.956.92,3.6,1.258,4.915q2.537,9.7,3.319,13.076l-2.812.655q-.867-3.721-3.33-12.981l-.581-2.23L164.4,377.1c-.455-1.755-.835-3.266-1.152-4.535-.888-3.446-1.6-6.29-2.114-8.509A59.194,59.194,0,0,1,159.5,355.6c0-1.142.317-1.85,1.057-2.114a5.75,5.75,0,0,1,2.579-.275,10.738,10.738,0,0,1,3.383.835,9.006,9.006,0,0,1,4.862,5.222,10.412,10.412,0,0,1,.222,7.558,11.511,11.511,0,0,1-3.6,4.778q2.7,4.915,7.664,12.346c1.057,1.564,2.114,3.108,3.171,4.651l.962,1.374a2.749,2.749,0,0,1,.264.381.592.592,0,0,1,.116.137Zm-15.38-36.077q.349,2.833,3.171,13.742a11.1,11.1,0,0,0,1.575-1.385,7.4,7.4,0,0,0,1.49-8.192,6.131,6.131,0,0,0-2.981-3.383,6.988,6.988,0,0,0-1.723-.645,6.045,6.045,0,0,0-1.533-.148Z" transform="translate(9.101 20.151)" fill="#181618"/>
    <path id="Path_9084" data-name="Path 9084" d="M191.239,389a6.14,6.14,0,0,1-.835,0l-.243-.063-.127-.053c-.5-.222-.962-.994-1.4-2.336q-.983-3.1-3.245-13.5-1.543-7.072-3.5-15.327c-1.152-4.841-1.86-7.78-2.114-8.795l2.791-.8c.317,1.057,1.057,4.038,2.178,8.816q1.966,8.3,3.509,15.486,2.294,10.571,3.319,13.678a54.494,54.494,0,0,0,6.945-1.6l.772,2.822c-1.332.37-2.6.7-3.795.973a25.989,25.989,0,0,1-4.26.7Z" transform="translate(10.258 19.863)" fill="#181618"/>
    <path id="Path_9085" data-name="Path 9085" d="M146.161,431.755a9.164,9.164,0,0,1-5.042-1.575,8.742,8.742,0,0,1-4.049-6.342,1.593,1.593,0,1,1,3.171-.317,5.666,5.666,0,1,0,10.645-3.393,1.585,1.585,0,1,1,2.77-1.543,9.2,9.2,0,0,1-5.1,12.78A8.011,8.011,0,0,1,146.161,431.755Z" transform="translate(7.82 23.837)" fill="#181618"/>
    <path id="Path_9086" data-name="Path 9086" d="M192.161,419.755a9.164,9.164,0,0,1-5.042-1.575,8.742,8.742,0,0,1-4.049-6.342,1.594,1.594,0,1,1,3.171-.317,5.666,5.666,0,1,0,10.645-3.393,1.585,1.585,0,1,1,2.77-1.543,9.2,9.2,0,0,1-5.1,12.78A8.013,8.013,0,0,1,192.161,419.755Z" transform="translate(10.445 23.152)" fill="#181618"/>
    <path id="Path_9087" data-name="Path 9087" d="M286.7,570.37c-6.247.972-13.742,3.33-14.8,9.281-.592,3.668,1.786,7.188,4.566,9.8,9.661,9.048,24.164,11.163,37.652,12.526,64.956,6.575,231.411,4.228,230.565-13.594C543.357,559.345,341.6,561.766,286.7,570.37Z" transform="translate(15.509 32.216)" fill="#bfbfbf"/>
    <path id="Path_9088" data-name="Path 9088" d="M519.141,321.289c.317-20.38-4.566-40.6-4.387-60.982,0-3.013.19-6.131,1.617-8.858a8.879,8.879,0,0,1,7.759-4.9,26,26,0,0,1,1.268-9.122c.793-2.421,2.188-4.968,4.81-5.856,3.541-1.205,7.516,1.448,8.721,4.693s.423,6.765-.349,10.105c-4.112,17.8-7.78,35.94-6.015,54.079,1.469,15.116,6.712,30.073,5.2,45.189-1.6,16-10.571,30.538-19.365,44.523L499.533,420.2c-.423-9.334-2.114-19.418-1.321-28.72.634-7.251,6.2-13.625,9.366-20.4A118.218,118.218,0,0,0,519.141,321.289Z" transform="translate(28.415 13.196)" fill="#7f7f7f"/>
    <path id="Path_9089" data-name="Path 9089" d="M498.691,423.68l-.159-3.383c-.137-3.076-.423-6.342-.7-9.45-.571-6.437-1.163-13.1-.613-19.408.444-5.116,3.171-9.778,5.888-14.291a73.268,73.268,0,0,0,3.562-6.459c7.516-16.12,11.49-33.181,11.49-49.343h0c.159-10.243-1.057-20.655-2.178-30.718-1.131-9.894-2.3-20.084-2.209-30.253,0-3.087.19-6.342,1.734-9.334a10.222,10.222,0,0,1,7.621-5.433,27.017,27.017,0,0,1,1.342-8.456c1.142-3.488,2.981-5.687,5.465-6.533,4.228-1.438,8.7,1.66,10.063,5.285s.465,7.4-.307,10.708c-4.006,17.293-7.759,35.676-6,53.741.529,5.38,1.554,10.856,2.547,16.152,1.8,9.514,3.647,19.408,2.664,29.249-1.649,16.532-11.152,31.648-19.534,44.978Zm21.564-102.323c0,16.469-4.038,33.826-11.628,50.221-1.057,2.262-2.389,4.492-3.668,6.649-2.674,4.5-5.2,8.763-5.6,13.393-.529,6.131.053,12.685.613,19.027.18,2.061.37,4.165.507,6.247l17.1-27.293c8.256-13.129,17.611-28.012,19.217-44.058.951-9.514-.877-19.249-2.632-28.646-1-5.338-2.04-10.856-2.579-16.342-1.786-18.382,2.008-37,6.046-54.417.708-3.044,1.5-6.5.391-9.514-1-2.7-4.461-5.053-7.4-4.059-1.829.624-3.171,2.368-4.144,5.19a24.894,24.894,0,0,0-1.216,8.752v1.131h-1.131a7.812,7.812,0,0,0-6.786,4.334c-1.342,2.558-1.469,5.55-1.5,8.382-.085,10,1.057,20.169,2.188,29.989C519.2,300.5,520.435,310.977,520.255,321.357Z" transform="translate(28.358 13.138)" fill="#fff"/>
    <path id="Path_9090" data-name="Path 9090" d="M308.925,386.77c-10.867,6.406-18.234,17.41-23.794,28.741s-9.7,23.361-16.173,34.2c-1.469,2.463-3.118,5.285-2.357,8.023s5.518,3.837,6.268,1.057c-2.008,5.285-3.953,11.089-2.051,16.384A6.9,6.9,0,0,0,273,478.427c2.77,2.114,7.029.5,9.017-2.347s2.357-6.469,2.812-9.915a123.348,123.348,0,0,1,20.961-54.132" transform="translate(15.201 22.068)" fill="#7f7f7f"/>
    <path id="Path_9091" data-name="Path 9091" d="M276,480.5a5.782,5.782,0,0,1-3.583-1.173,7.823,7.823,0,0,1-2.537-3.731c-1.649-4.577-.645-9.4.951-14.069h-.275a5.148,5.148,0,0,1-4.926-3.457c-.877-3.171.983-6.342,2.474-8.848a182.479,182.479,0,0,0,10.232-21.067c1.871-4.313,3.795-8.763,5.909-13.055,7.019-14.323,14.714-23.594,24.2-29.2l1.057,1.829c-9.122,5.37-16.543,14.365-23.382,28.3-2.114,4.228-4.006,8.678-5.867,12.97A184.66,184.66,0,0,1,269.9,450.3c-1.353,2.283-2.9,4.863-2.252,7.2a3.087,3.087,0,0,0,2.886,1.913h0a1.3,1.3,0,0,0,1.237-.571l.137-.359,2.008.645a3.34,3.34,0,0,1-.211.571c-1.924,5.095-3.573,10.433-1.871,15.19a5.93,5.93,0,0,0,1.829,2.759,3.975,3.975,0,0,0,3.1.676,6.871,6.871,0,0,0,4.408-2.78c1.723-2.463,2.114-5.7,2.547-8.826l.085-.624a124.341,124.341,0,0,1,21.141-54.6l1.734,1.205a122.249,122.249,0,0,0-20.75,53.646l-.085.624c-.433,3.372-.888,6.871-2.907,9.757a9.07,9.07,0,0,1-5.814,3.668A6.754,6.754,0,0,1,276,480.5Z" transform="translate(15.143 22.019)" fill="#fff"/>
    <path id="Path_9092" data-name="Path 9092" d="M361.555,547.448c.973,2.949,2.114,5.9,2.3,9.027s-.92,6.564-3.467,8.1A18.054,18.054,0,0,1,356.048,566a12.241,12.241,0,0,0-8.171,7.4c-1.321,3.689-.888,9.027,2.8,10.571,8.678,3.583,26.088-5.666,27.156-6.268,1.448-.825,2-2.738,2.315-4.461,4.228-23.255-9.461-47.568-3.583-70.485,0,.275-14.8-1.057-16.057-.529-3.953,1.607-3.689,3.89-3.9,8.171a107.6,107.6,0,0,0,4.947,37.05Z" transform="translate(19.81 28.649)" fill="#7f7f7f"/>
    <path id="Path_9093" data-name="Path 9093" d="M355.5,586.157a13.646,13.646,0,0,1-5.2-.9c-4.122-1.7-4.968-7.495-3.393-11.892a13.192,13.192,0,0,1,8.869-8.013c.412-.127.835-.233,1.258-.328a10.087,10.087,0,0,0,2.833-.994c2.389-1.438,3.087-4.746,2.96-7.135a27.356,27.356,0,0,0-1.776-7.315l-.476-1.438h0a108.34,108.34,0,0,1-5-37.494v-1.057c.148-3.679.254-6.342,4.5-8.055.825-.338,3.626-.233,11.1.222,1.7.106,3.562.222,4.535.254l1.882-7.325v8.784l-.106.106c-2.886,11.628-.634,23.921,1.543,35.834,2.114,11.279,4.228,22.938,2.114,34.28-.328,1.86-.962,4.123-2.833,5.19C378.252,579.012,365.313,586.157,355.5,586.157Zm7.082-38.667c.148.476.317.941.476,1.417a29.46,29.46,0,0,1,1.882,7.875c.211,3.922-1.353,7.484-3.985,9.059a11.87,11.87,0,0,1-3.414,1.237c-.391.1-.793.19-1.173.306a11.258,11.258,0,0,0-7.473,6.7c-1.057,3.034-.92,7.917,2.209,9.217,7.325,3.023,22.547-4.133,26.226-6.216,1.11-.634,1.554-2.326,1.808-3.731,2-10.962-.106-22.431-2.114-33.519-2.114-11.786-4.387-23.964-1.755-35.707-.867,0-2.114-.116-4.144-.233-3.5-.222-9.355-.571-10.232-.359-2.928,1.194-2.991,2.653-3.171,6.163v1.057a105.821,105.821,0,0,0,4.894,36.743Zm13-44.735a.2.2,0,0,0,0,.085Z" transform="translate(19.752 28.226)" fill="#fff"/>
    <path id="Path_9094" data-name="Path 9094" d="M406.887,555.68c-1.279,4.989-2.558,10.285-1.226,15.317a18.3,18.3,0,0,0,9.08,11.036,33.668,33.668,0,0,0,13.488,3.488c4.788.381,10.444-.169,12.938-4.556,2.114-3.721.824-9.017-2.241-11.955a13.4,13.4,0,0,0-11.469-3.171c-.983.159-2.114.349-2.833-.412a3.53,3.53,0,0,1-.486-2.8c2.294-20.158,8.6-38.688,12.262-58.286-10.782-1.818-16.49.867-19.365,11.575C413.451,529.126,410.28,542.435,406.887,555.68Z" transform="translate(23.114 28.746)" fill="#7f7f7f"/>
    <path id="Path_9095" data-name="Path 9095" d="M430.717,586.727a20.636,20.636,0,0,1-2.516-.106c-5.92-.476-10.2-1.586-13.911-3.615a19.26,19.26,0,0,1-9.6-11.691c-1.438-5.444,0-11.2,1.226-15.856h0c1.131-4.429,2.241-8.869,3.361-13.308,2.178-8.678,4.429-17.663,6.8-26.426,2.886-10.74,8.848-14.323,20.56-12.346l1.057.18-.19,1.057c-1.459,7.822-3.372,15.6-5.222,23.118-2.78,11.321-5.655,23.023-7.04,35.094-.053.465-.169,1.554.211,1.956s1,.243,1.892.106a14.291,14.291,0,0,1,12.368,3.414c3.615,3.467,4.683,9.281,2.431,13.245C440.178,584.983,436.341,586.727,430.717,586.727ZM407.959,556c-1.12,4.4-2.516,9.862-1.226,14.8a17.167,17.167,0,0,0,8.573,10.38c3.435,1.871,7.463,2.907,13.065,3.362,6.12.5,10.137-.856,11.934-4.027s.846-7.9-2.051-10.666a12.41,12.41,0,0,0-10.571-2.865c-1.057.169-2.664.433-3.763-.74a4.492,4.492,0,0,1-.761-3.647c1.385-12.2,4.281-23.974,7.082-35.359,1.755-7.146,3.562-14.524,4.989-21.923-10.042-1.459-14.566,1.5-17.1,10.972-2.357,8.774-4.609,17.737-6.786,26.426-1.12,4.44-2.23,8.879-3.372,13.319Z" transform="translate(23.056 28.692)" fill="#fff"/>
    <rect id="Rectangle_368" data-name="Rectangle 368" width="209.297" height="209.297" rx="14.06" transform="translate(321.345 326.631)" fill="#d9d9d9"/>
    <path id="Path_9096" data-name="Path 9096" d="M498.492,519.412H318.919A15.94,15.94,0,0,1,303,503.492V323.919A15.94,15.94,0,0,1,318.919,308H498.492a15.941,15.941,0,0,1,15.919,15.919V503.492a15.941,15.941,0,0,1-15.919,15.919Zm-179.573-209.3a13.826,13.826,0,0,0-13.805,13.805V503.492A13.826,13.826,0,0,0,318.919,517.3H498.492A13.826,13.826,0,0,0,512.3,503.492V323.919a13.826,13.826,0,0,0-13.805-13.805Z" transform="translate(17.288 17.574)" fill="#fff"/>
    <rect id="Rectangle_369" data-name="Rectangle 369" width="162.787" height="162.787" rx="13.06" transform="translate(349.949 353.586)" fill="#fff"/>
    <path id="Path_9097" data-name="Path 9097" d="M480.1,498.4H344.922a14.873,14.873,0,0,1-14.862-14.862V348.362A14.873,14.873,0,0,1,344.922,333.5H480.1a14.883,14.883,0,0,1,14.873,14.862V483.539A14.883,14.883,0,0,1,480.1,498.4ZM344.933,335.614a12.759,12.759,0,0,0-12.748,12.748V483.539a12.759,12.759,0,0,0,12.748,12.748H480.1a12.769,12.769,0,0,0,12.759-12.748V348.362A12.769,12.769,0,0,0,480.1,335.614Z" transform="translate(18.832 19.029)" fill="#fff"/>
    <rect id="Rectangle_370" data-name="Rectangle 370" width="32.071" height="2.114" transform="matrix(0.72, -0.694, 0.694, 0.72, 329.213, 533.634)" fill="#fff"/>
    <path id="Path_9098" data-name="Path 9098" d="M497.223,503.99l-1.057-.888.1-.106-12.146-12.949a14.734,14.734,0,0,1-3.816-5.655l2.03-.6a12.971,12.971,0,0,0,3.33,4.82l13,13.847Z" transform="translate(27.405 27.604)" fill="#fff"/>
    <path id="Path_9099" data-name="Path 9099" d="M480.437,341.3a3.372,3.372,0,0,1,.7-3.171l17.473-25.369,1.744,1.194-17.473,25.369c-.529.75-.539,1.057-.5,1.12Z" transform="translate(27.405 17.845)" fill="#fff"/>
    <rect id="Rectangle_371" data-name="Rectangle 371" width="2.114" height="37.832" transform="matrix(0.666, -0.746, 0.746, 0.666, 325.331, 333.859)" fill="#fff"/>
    <path id="Path_9100" data-name="Path 9100" d="M368.227,386.219a1.564,1.564,0,0,1-1.131-.476,11.374,11.374,0,1,1,18.826-12.093,1.586,1.586,0,0,1-2.96,1.142,8.2,8.2,0,1,0-13.6,8.742,1.575,1.575,0,0,1-1.131,2.685Z" transform="translate(20.77 20.917)" fill="#181618"/>
    <path id="Path_9101" data-name="Path 9101" d="M445.032,386.222a1.6,1.6,0,0,1-1.226-2.6,10.01,10.01,0,0,0,1.808-9.63,8.309,8.309,0,0,0-7.621-5.391,7.061,7.061,0,0,0-6.67,5.814,1.6,1.6,0,1,1-3.171-.37,10.222,10.222,0,0,1,9.746-8.615,11.554,11.554,0,0,1,10.666,7.452,13.224,13.224,0,0,1-2.325,12.759A1.6,1.6,0,0,1,445.032,386.222Z" transform="translate(24.429 20.851)" fill="#181618"/>
    <path id="Path_9102" data-name="Path 9102" d="M393.176,457.719h-.19A14.682,14.682,0,0,1,381.411,445.6a1.057,1.057,0,0,1,2.093-.3,12.526,12.526,0,0,0,9.873,10.327,1.062,1.062,0,1,1-.2,2.114Z" transform="translate(21.762 25.356)" fill="#181618"/>
    <path id="Path_9103" data-name="Path 9103" d="M422.077,404.784a18.72,18.72,0,0,0-22.05-2.643c-6.459,3.679-10.909,10.719-12.389,17.959a31.426,31.426,0,0,0,3.594,22.484A24.894,24.894,0,0,0,409.709,454.4a22.5,22.5,0,0,0,12.177-1.913c4.133-1.913,8.235-5.719,7.209-10.676-.613-3-5.2-1.734-4.577,1.258.55,2.664-3.71,4.81-5.655,5.571a18.3,18.3,0,0,1-8.52,1.057,19.883,19.883,0,0,1-14.408-8.689c-6.733-10.105-5.444-25.464,4.281-33.266a14.048,14.048,0,0,1,18.53.391c2.241,2.114,5.613-1.268,3.361-3.361Z" transform="translate(22.077 22.806)" fill="#181618"/>
  </g>
</svg>
