<svg xmlns="http://www.w3.org/2000/svg" width="519.77" height="585.984" viewBox="0 0 519.77 585.984">
  <g id="Warstwa_2" data-name="Warstwa 2" transform="translate(0 0.006)">
    <g id="Слой_1" data-name="Слой 1">
      <path id="Path_9152" data-name="Path 9152" d="M398.25,227.26c35,138.63-4.39,248.21-151.91,251C61.34,481.73-5,385,25,218.7,50.58,76.36,39.39,12.43,151.44.92S362.68,86.41,398.25,227.26Z" fill="#0c154a"/>
      <path id="Path_9153" data-name="Path 9153" d="M364.43,555.42c-9.68-19.69-267.35.51-265.6,16.25C101.67,597.27,379.72,586.49,364.43,555.42Z" fill="#bfbfbf"/>
      <rect id="Rectangle_376" data-name="Rectangle 376" width="78.33" height="116.2" transform="translate(0.658 443.855) rotate(-42.42)" fill="#f2b705"/>
      <path id="Path_9154" data-name="Path 9154" d="M135.5,477.81h-.06l-73.77-8.49-3.67-77a.51.51,0,0,1,.48-.53.49.49,0,0,1,.52.48l3.63,76.14,72.93,8.39a.5.5,0,1,1-.06,1Z" fill="#fff"/>
      <path id="Path_9155" data-name="Path 9155" d="M60.5,444.81H.5a.5.5,0,1,1,0-1h60a.5.5,0,0,1,0,1Z" fill="#fff"/>
      <path id="Path_9156" data-name="Path 9156" d="M79,530.2h-.1a.5.5,0,0,1-.39-.59L90,472.21a.5.5,0,0,1,.59-.39.51.51,0,0,1,.39.59L79.47,529.79A.51.51,0,0,1,79,530.2Z" fill="#fff"/>
      <path id="Path_9157" data-name="Path 9157" d="M463.64,187.79l7.22-16.13,25-10.17-1.48,11.67Z" fill="#0a231a"/>
      <path id="Path_9158" data-name="Path 9158" d="M463.64,187.79l-4.62-22.07,46.15-13.42-34.58,21.55Z" fill="#164831"/>
      <path id="Path_9159" data-name="Path 9159" d="M459.02,165.72l-15.48-12.33,76.23-11.1-24.71,60.59-24.47-29.03,27.46-18.01Z" fill="#009274"/>
      <path id="Path_9160" data-name="Path 9160" d="M381.3,285.57c-.1-2.67-.36-5.59,1.17-7.79a5.75,5.75,0,0,1,6.79-1.94c2.33,1,3.47,6,2.93,8.52,3-5,9.36-14.21,15-13,14,3,8,22-1,29-5.58,4.34-14.95,25.44-20.05,34l-27.59,46.51c-2.57-17.7-4.55-31.51,5.27-46.57C373.31,319.76,382,303.49,381.3,285.57Z" fill="#7f7f7f"/>
      <path id="Path_9161" data-name="Path 9161" d="M358.55,381.91h-.19a1,1,0,0,1-.8-.84c-2.59-17.79-4.63-31.83,5.42-47.26,8.95-13.74,18-30.21,17.32-48.18h0v-.59c-.11-2.58-.24-5.49,1.37-7.81a6.75,6.75,0,0,1,8-2.29c2,.85,3.09,3.55,3.49,6.06,4-6,9.21-11.68,14.26-10.6,6,1.29,8.07,5.16,8.76,8.19,1.78,7.77-3.4,17.95-9.35,22.58-3.69,2.86-9.44,14-14.06,23-2.14,4.15-4.16,8.07-5.75,10.75l-27.59,46.51a1,1,0,0,1-.88.48Zm23.75-96.37c.71,18.52-8.52,35.34-17.65,49.34s-7.82,27-5.51,43.08l26.14-44.07c1.56-2.63,3.56-6.53,5.69-10.65,5-9.62,10.58-20.53,14.61-23.67,6-4.69,10.06-14.29,8.63-20.55-.82-3.58-3.25-5.83-7.23-6.68-3.6-.77-8.69,3.79-13.93,12.53a1,1,0,0,1-1.84-.72c.5-2.3-.67-6.66-2.35-7.39a4.75,4.75,0,0,0-5.57,1.59c-1.22,1.76-1.12,4.21-1,6.58Z" fill="#fff"/>
      <path id="Path_9162" data-name="Path 9162" d="M105.79,423.41c-4.73,3.58-9.72,7.18-12.31,12.5a3.94,3.94,0,0,0-.42,2.21c.36,3,4,3.41,6.66,3,3.38-.55,2.19-1.07,4.47-1.73l4.66,5.19c.7,2.23,28.53-21.73,28.53-21.73,4.8-4.38,9.63-8.79,13.59-13.91a54.22,54.22,0,0,0,11-26.12c1.67-13.84-5.75-7.71-11.88-.84a312.569,312.569,0,0,1-44.3,41.43Z" fill="#7f7f7f"/>
      <path id="Path_9163" data-name="Path 9163" d="M109.11,445.71a1.388,1.388,0,0,1-.39-.06,1.22,1.22,0,0,1-.7-.53l-4.13-4.6a2.732,2.732,0,0,0-.74.42,6.41,6.41,0,0,1-3.27,1.14c-.93.15-4.14.53-6.2-1a4.07,4.07,0,0,1-1.61-2.82,5,5,0,0,1,.51-2.77c2.58-5.29,7.34-8.88,11.94-12.36l.66-.5a309.605,309.605,0,0,0,44.18-41.32c5.56-6.24,9.27-8.64,11.67-7.55,2,.89,2.6,3.81,1.95,9.17a55.08,55.08,0,0,1-11.22,26.61c-4,5.2-8.95,9.69-13.71,14-.08.07-6.64,5.71-13.39,11.21C112.66,444.54,110.08,445.71,109.11,445.71Zm.69-1.46Zm-5.61-5.89a1,1,0,0,1,.75.33l4.41,4.92c3-1.16,17.55-13.09,27.38-21.55,4.67-4.27,9.53-8.7,13.45-13.76A53.19,53.19,0,0,0,161,382.67c.71-5.94-.43-6.94-.79-7.11-.51-.23-2.7-.4-9.36,7.06a310.72,310.72,0,0,1-44.46,41.58h0l-.66.51c-4.42,3.33-9,6.78-11.35,11.64a2.85,2.85,0,0,0-.32,1.65,2,2,0,0,0,.82,1.46c1.13.85,3.16.89,4.68.65a4.561,4.561,0,0,0,2.41-.79,5.54,5.54,0,0,1,1.94-.92A1,1,0,0,1,104.19,438.36Zm1.6-14.95Z" fill="#fff"/>
      <path id="Path_9164" data-name="Path 9164" d="M215.19,526c-7.15,5.64,2.19,13.75,8,21.33s11.4,12.62,19.93,12.34c4.71-.15,10.73-2.64,10.65-8.35-.09-7.2-11.23-10.3-11.58-17.48-.21-4.29,4.46-6.61,7.41-9a313.689,313.689,0,0,0,36.69-34.73c-.54.6-14.64-1.39-16.85-1-5.71.9-9.2,2.82-14.06,6.41C243.58,504.26,226.78,516.9,215.19,526Z" fill="#7f7f7f"/>
      <path id="Path_9165" data-name="Path 9165" d="M242.44,560.71c-8.51,0-14.19-5.1-20-12.74-1-1.32-2.16-2.69-3.27-4-3.91-4.65-7.94-9.47-7.49-13.83a7.14,7.14,0,0,1,2.93-4.88c11.79-9.28,29-22.24,40.21-30.51,4.92-3.64,8.51-5.66,14.5-6.6,1.12-.17,4.12.1,8.93.57a71.317,71.317,0,0,0,7.71.55.79.79,0,0,0-.38.25l1.49,1.33h0a315.667,315.667,0,0,1-36.8,34.84c-.57.46-1.21.92-1.86,1.39-2.62,1.88-5.32,3.83-5.18,6.76.15,3.14,2.74,5.49,5.49,8,3,2.7,6,5.48,6.09,9.54.08,5.9-5.78,9.18-11.62,9.37Zm27.76-70.63a4.709,4.709,0,0,0-.61,0c-5.58.88-9,2.78-13.62,6.23-11.17,8.26-28.39,21.2-40.16,30.47h0a5.15,5.15,0,0,0-2.18,3.52c-.36,3.51,3.39,8,7,12.34,1.12,1.34,2.29,2.73,3.33,4.08,5.63,7.36,11,12.17,19.1,12,3.93-.12,9.75-2.19,9.68-7.34,0-3.19-2.66-5.57-5.44-8.08s-5.94-5.39-6.14-9.36,3.25-6.5,6-8.49c.62-.45,1.23-.88,1.78-1.32a314.483,314.483,0,0,0,35-32.89c-1.29-.08-3.17-.25-6-.53s-6.21-.63-7.74-.63Z" fill="#fff"/>
      <path id="Path_9166" data-name="Path 9166" d="M270.19,560.36c9,3,29,3,33-1,9.62-9.62-16.48-15-18-19-5-13-5.67-47.75-10-62-.33-1.09-3.44-1.78-4.2-2.43-.93-.8-2.14-.6-3.24-.36-6.66,1.4-9.4.05-10.52,8.1-.91,6.56-.06,18.09,1,24.69C260.66,524.27,263.84,558.24,270.19,560.36Z" fill="#7f7f7f"/>
      <path id="Path_9167" data-name="Path 9167" d="M287.33,563.49c-6.55,0-13.38-.82-17.45-2.18h0c-5.34-1.78-8.12-19.44-11.21-42.33-.52-3.86-1-7.5-1.47-10.47-1-6.26-1.9-18.14-1-25,1-7,3.31-7.66,8.09-8.39.95-.14,2-.3,3.21-.55,1-.22,2.75-.58,4.1.58a8.582,8.582,0,0,0,1.29.6c1.41.57,2.87,1.16,3.22,2.3,2.05,6.76,3.25,17.72,4.53,29.33,1.39,12.69,2.83,25.81,5.44,32.6.35.91,3.86,2.54,6.67,3.86,5.93,2.77,12.65,5.91,13.45,10.45.34,1.93-.45,3.87-2.34,5.76C301.49,562.48,294.58,563.49,287.33,563.49Zm-16.82-4.08c9.41,3.14,28.53,2.68,32-.76,1.43-1.42,2-2.73,1.79-4-.62-3.52-7.39-6.68-12.33-9-4.5-2.1-7.07-3.37-7.68-4.95-2.71-7-4.16-20.29-5.57-33.1-1.21-11-2.46-22.39-4.46-29a8.23,8.23,0,0,0-2.05-1,7.1,7.1,0,0,1-1.84-.93c-.51-.44-1.24-.39-2.39-.15s-2.35.43-3.32.58c-4.19.63-5.6.85-6.41,6.69-.92,6.63,0,18.26,1,24.4.46,3,.95,6.63,1.47,10.5,2,14.65,5.28,39.17,9.86,40.7Z" fill="#fff"/>
      <rect id="Rectangle_377" data-name="Rectangle 377" width="219.47" height="219.47" rx="13.44" transform="translate(139.128 279.323) rotate(-2.26)" fill="#d9d9d9"/>
      <path id="Path_9168" data-name="Path 9168" d="M160.65,499.11a14.45,14.45,0,0,1-14.42-13.87L138.65,292.8a14.45,14.45,0,0,1,13.85-15l192.44-7.58a14.44,14.44,0,0,1,15,13.86l7.58,192.43a14.44,14.44,0,0,1-13.85,15L161.23,499.1Zm184.87-226.9H345L152.58,279.8a12.46,12.46,0,0,0-11.94,12.92l7.59,192.44a12.45,12.45,0,0,0,12.92,11.94l192.44-7.59a12.45,12.45,0,0,0,11.94-12.92l-7.59-192.44A12.44,12.44,0,0,0,345.52,272.21Z" fill="#fff"/>
      <rect id="Rectangle_378" data-name="Rectangle 378" width="166.25" height="166.25" rx="13.89" transform="matrix(1, -0.04, 0.04, 1, 173.431, 304.997)" fill="#fff"/>
      <path id="Path_9169" data-name="Path 9169" d="M177.62,311.18c-5.5-3.89-11.85-8.26-18-12.5s-12.5-8.61-18-12.5l1.15-1.64c5.5,3.89,11.85,8.26,18,12.5s12.5,8.61,18,12.5Z" fill="#fff"/>
      <path id="Path_9170" data-name="Path 9170" d="M335,302.92l-1.66-1.11c6-9,12.95-19.12,19.53-28.43l1.64,1.15C348,283.83,341,293.91,335,302.92Z" fill="#fff"/>
      <path id="Path_9171" data-name="Path 9171" d="M150.79,494.16l-1.2-1.6c5.36-4,11.52-8.82,17.47-13.47s12.15-9.5,17.53-13.53l1.2,1.6c-5.37,4-11.54,8.84-17.5,13.5S156.17,490.13,150.79,494.16Z" fill="#fff"/>
      <path id="Path_9172" data-name="Path 9172" d="M360.25,487.83l-.17-.22c-6.35-8.31-13.54-17.73-20.63-25.58l1.48-1.34c7.14,7.91,14.37,17.36,20.74,25.7l.17.22Z" fill="#fff"/>
      <path id="Path_9173" data-name="Path 9173" d="M202.3,379.56c0-16.06,11.61-26.58,25-26.58,12.11,0,19.72,8.06,19.72,19.91,0,10.48-6.54,15.92-12,15.92-3.27,0-5.79-1.53-6.21-4.56h-.12c-1.94,2.33-4.65,4.12-7.28,4.12-4.08,0-7.25-3-7.25-8.49,0-6.39,4.54-13.93,11.53-13.93a5.19,5.19,0,0,1,4.82,2.92h.12l.65-2.44h3.29l-2.35,12c-1.18,4.74,0,7,3.28,7,3.75,0,8-4.62,8-12.4,0-9.68-5.72-16.77-16.62-16.77-10.69,0-21,9.1-21,23.1,0,11.73,7.65,18.37,17.86,18.37a19.39,19.39,0,0,0,9.71-2.69l1.33,2.94a21.8,21.8,0,0,1-11.43,3.07C211.68,401.08,202.3,393.58,202.3,379.56Zm25.61,1.87,1.7-9.54c-1.14-1.82-2.23-2.5-3.84-2.5-4.72,0-7.62,5.67-7.62,10.2,0,3.85,1.79,5.37,4.2,5.37C224,385,225.83,383.91,227.91,381.43Z" fill="#181618"/>
      <path id="Path_9174" data-name="Path 9174" d="M277.17,378c0-16.06,11.61-26.58,25-26.58,12.1,0,19.71,8.06,19.71,19.91,0,10.48-6.54,15.92-12,15.92-3.27,0-5.8-1.52-6.21-4.56h-.12c-1.94,2.33-4.65,4.12-7.28,4.12-4.08,0-7.25-3-7.25-8.49,0-6.39,4.53-13.93,11.53-13.93a5.17,5.17,0,0,1,4.81,2.92h.12l.66-2.44h3.28l-2.35,12c-1.17,4.74,0,7,3.28,7,3.75,0,8.06-4.62,8.06-12.4,0-9.68-5.72-16.76-16.63-16.76-10.68,0-21,9.09-21,23.09,0,11.73,7.64,18.37,17.85,18.37a19.46,19.46,0,0,0,9.72-2.69l1.32,2.94a21.74,21.74,0,0,1-11.42,3.07C286.55,399.52,277.17,392,277.17,378Zm25.6,1.87,1.7-9.54c-1.14-1.82-2.23-2.5-3.84-2.5-4.71,0-7.62,5.67-7.62,10.2,0,3.85,1.8,5.37,4.21,5.37,1.68,0,3.48-1.05,5.55-3.53Z" fill="#181618"/>
      <path id="Path_9175" data-name="Path 9175" d="M263.32,428.7a11,11,0,0,1-9.62-5.7,1.5,1.5,0,0,1,2.65-1.4,7.75,7.75,0,0,0,14.54-2.6,1.513,1.513,0,1,1,3,.4,11,11,0,0,1-8.77,9.17A10.71,10.71,0,0,1,263.32,428.7Z" fill="#181618"/>
      <rect id="Rectangle_379" data-name="Rectangle 379" width="73.68" height="51.4" transform="matrix(0.584, -0.812, 0.812, 0.584, 214.44, 203.532)" fill="#fff"/>
      <path id="Path_9176" data-name="Path 9176" d="M214.26,203.74l-.24-.97,47.47-12.12-4.41-47.12.99-.09,4.49,47.97Z" fill="#06072d"/>
      <rect id="Rectangle_380" data-name="Rectangle 380" width="41.76" height="29.14" transform="translate(97.119 176.908) rotate(22.34)" fill="#fff" opacity="0.93"/>
      <path id="Path_9177" data-name="Path 9177" d="M109.41,201.35,96.75,176.59l.89-.46,12.28,24.02,26.15-8.22.3.96Z" fill="#06072d"/>
      <rect id="Rectangle_381" data-name="Rectangle 381" width="56.26" height="39.25" transform="translate(120.814 91.944) rotate(-22.75)" fill="#fff" opacity="0.87"/>
      <path id="Path_9178" data-name="Path 9178" d="M157.1,102.97,120.32,92.54l.27-.96,35.99,10.21,16.29-32.31.89.45Z" fill="#06072d"/>
    </g>
  </g>
</svg>
