<svg xmlns="http://www.w3.org/2000/svg" width="120" height="120" viewBox="0 0 120 120">
  <g id="icon_10" transform="translate(-758 -4219)">
    <rect id="Rectangle_392" data-name="Rectangle 392" width="120" height="120" transform="translate(758 4219)" fill="#fff"/>
    <path id="Icon_10-2" data-name="Icon_10" d="M58,24.389V54.944A3.056,3.056,0,0,1,54.944,58H24.389a3.056,3.056,0,0,1-3.056-3.056V24.389a3.056,3.056,0,0,1,3.056-3.056H54.944A3.056,3.056,0,0,1,58,24.389ZM12.167,36.611H9.111V9.111h27.5v3.056a3.056,3.056,0,1,0,6.111,0V6.056A3.056,3.056,0,0,0,39.667,3H6.056A3.056,3.056,0,0,0,3,6.056V39.667a3.056,3.056,0,0,0,3.056,3.056h6.111a3.056,3.056,0,1,0,0-6.111Z" transform="translate(788 4249)" fill="#009274"/>
  </g>
</svg>
