<svg xmlns="http://www.w3.org/2000/svg" width="120" height="120" viewBox="0 0 120 120">
  <g id="icon_02" transform="translate(-764 -3405)">
    <rect id="Rectangle_392" data-name="Rectangle 392" width="120" height="120" transform="translate(764 3405)" fill="#fff"/>
    <path id="Icon_2" d="M25.259,48.519a23.1,23.1,0,0,0,11.4-3L46.3,55.168a6.266,6.266,0,0,0,8.861-8.861L45.52,36.661A23.249,23.249,0,1,0,25.259,48.519ZM12.907,12.909A17.465,17.465,0,1,1,7.789,25.262a17.465,17.465,0,0,1,5.118-12.352Zm.773,12.352a2.9,2.9,0,0,1,2.895-2.895h5.79v-5.79a2.895,2.895,0,0,1,5.79,0v5.79h5.79a2.895,2.895,0,0,1,0,5.79h-5.79v5.79a2.895,2.895,0,0,1-5.79,0v-5.79h-5.79a2.9,2.9,0,0,1-2.895-2.895Z" transform="translate(794.999 3435.001)" fill="#009274"/>
  </g>
</svg>
