<svg xmlns="http://www.w3.org/2000/svg" width="120" height="120" viewBox="0 0 120 120">
  <g id="icon_07" transform="translate(-256 -4049)">
    <rect id="Rectangle_391" data-name="Rectangle 391" width="120" height="120" transform="translate(256 4049)" fill="#fff"/>
    <path id="Icon_7" d="M45.25,2,59,15.75H45.25ZM38.375,22.625H59V67.312a3.438,3.438,0,0,1-3.437,3.438H7.438A3.438,3.438,0,0,1,4,67.312V5.438A3.437,3.437,0,0,1,7.438,2H38.375ZM14.313,15.75a3.437,3.437,0,0,0,3.438,3.437H28.063a3.437,3.437,0,1,0,0-6.875H17.75A3.437,3.437,0,0,0,14.313,15.75ZM48.687,57a3.438,3.438,0,0,0-3.437-3.437H17.75a3.438,3.438,0,0,0,0,6.875h27.5A3.438,3.438,0,0,0,48.687,57ZM17.75,39.813a3.438,3.438,0,0,0,0,6.875h27.5a3.438,3.438,0,1,0,0-6.875Z" transform="translate(285 4073)" fill="#009274"/>
  </g>
</svg>
