<svg xmlns="http://www.w3.org/2000/svg" width="120" height="120" viewBox="0 0 120 120">
  <g id="icon_04" transform="translate(-256 -3575)">
    <rect id="Rectangle_392" data-name="Rectangle 392" width="120" height="120" transform="translate(256 3575)" fill="#fff"/>
    <path id="Icon_4" d="M21.333,60.056a3.056,3.056,0,0,1-3.056,3.056H6.056A3.056,3.056,0,0,1,3,60.056V17.278a3.056,3.056,0,0,1,3.056-3.056H39.667a3.056,3.056,0,0,1,0,6.111H9.111V57h9.167A3.056,3.056,0,0,1,21.333,60.056ZM30.5,8.111A3.056,3.056,0,1,0,30.5,2H12.167a3.056,3.056,0,1,0,0,6.111ZM58,29.5V60.056a3.056,3.056,0,0,1-3.056,3.056H33.556A3.056,3.056,0,0,1,30.5,60.056V29.5a3.056,3.056,0,0,1,3.056-3.056H54.944A3.056,3.056,0,0,1,58,29.5ZM51.889,49.361a3.056,3.056,0,0,0-3.056-3.056H39.667a3.056,3.056,0,1,0,0,6.111h9.167A3.056,3.056,0,0,0,51.889,49.361Zm0-12.222a3.056,3.056,0,0,0-3.056-3.056H39.667a3.056,3.056,0,1,0,0,6.111h9.167A3.056,3.056,0,0,0,51.889,37.139Z" transform="translate(286 3602)" fill="#009274"/>
  </g>
</svg>
