<svg xmlns="http://www.w3.org/2000/svg" width="120" height="120" viewBox="0 0 120 120">
  <g id="icon_05" transform="translate(-764 -3575)">
    <rect id="Rectangle_393" data-name="Rectangle 393" width="120" height="120" transform="translate(764 3575)" fill="#fff"/>
    <path id="Icon_5" d="M56.618,4.382a4.712,4.712,0,0,1,0,6.667L33.286,34.381l-10,3.334,3.334-10L49.951,4.382a4.712,4.712,0,0,1,6.667,0ZM6.056,58H51.888a3.056,3.056,0,0,0,3.056-3.056V30.5a3.056,3.056,0,0,0-6.111,0V51.889H9.111V12.167H30.5a3.056,3.056,0,1,0,0-6.111H6.056A3.056,3.056,0,0,0,3,9.112V54.944A3.056,3.056,0,0,0,6.056,58Z" transform="translate(794 3605)" fill="#009274"/>
  </g>
</svg>
