<svg xmlns="http://www.w3.org/2000/svg" width="150" height="38.529" viewBox="0 0 150 38.529">
  <g id="Group_1" data-name="Group 1" transform="translate(-73.866 -70.426)">
    <path id="Path_1" data-name="Path 1" d="M92.027,95.851a9.471,9.471,0,0,0-2.634-1.982,7.388,7.388,0,0,0-3.286-.677,7.264,7.264,0,0,0-3.236.677,6.587,6.587,0,0,0-2.308,1.856,8.344,8.344,0,0,0-1.4,2.709,10.644,10.644,0,0,0-.476,3.186,8.886,8.886,0,0,0,.552,3.136,7.888,7.888,0,0,0,1.555,2.583A7.142,7.142,0,0,0,83.2,109.07a7.663,7.663,0,0,0,3.161.627,7.224,7.224,0,0,0,3.26-.678,8.342,8.342,0,0,0,2.509-1.982l3.211,3.211a10.1,10.1,0,0,1-4.089,2.809,14.278,14.278,0,0,1-4.942.853,13.593,13.593,0,0,1-5.041-.9,11.643,11.643,0,0,1-3.938-2.533,11.2,11.2,0,0,1-2.559-3.913,13.6,13.6,0,0,1-.9-5.042,13.8,13.8,0,0,1,.9-5.067A11.606,11.606,0,0,1,77.3,92.489a11.487,11.487,0,0,1,3.913-2.583,13.407,13.407,0,0,1,5.092-.928,13.64,13.64,0,0,1,4.991.928,10.99,10.99,0,0,1,4.139,2.835Z" transform="translate(0 -4.956)" fill="#222221"/>
    <path id="Path_2" data-name="Path 2" d="M108.915,70.426h4.515v37.927h-4.515Z" transform="translate(-9.363)" fill="#222221"/>
    <path id="Path_3" data-name="Path 3" d="M125.344,89.73h4.515v23.78h-4.515Z" transform="translate(-13.752 -5.157)" fill="#222221"/>
    <path id="Path_4" data-name="Path 4" d="M157.88,95.851a9.482,9.482,0,0,0-2.634-1.982,7.39,7.39,0,0,0-3.286-.677,7.26,7.26,0,0,0-3.236.677,6.58,6.58,0,0,0-2.308,1.856,8.329,8.329,0,0,0-1.4,2.709,10.644,10.644,0,0,0-.477,3.186,8.9,8.9,0,0,0,.552,3.136,7.888,7.888,0,0,0,1.555,2.583,7.138,7.138,0,0,0,2.409,1.731,7.657,7.657,0,0,0,3.16.627,7.227,7.227,0,0,0,3.261-.678,8.34,8.34,0,0,0,2.508-1.982l3.211,3.211a10.1,10.1,0,0,1-4.089,2.809,14.282,14.282,0,0,1-4.942.853,13.6,13.6,0,0,1-5.042-.9,11.65,11.65,0,0,1-3.938-2.533,11.2,11.2,0,0,1-2.558-3.913,13.6,13.6,0,0,1-.9-5.042,13.8,13.8,0,0,1,.9-5.067,11.616,11.616,0,0,1,2.533-3.963,11.49,11.49,0,0,1,3.913-2.583,13.4,13.4,0,0,1,5.092-.928,13.64,13.64,0,0,1,4.991.928,11,11,0,0,1,4.139,2.835Z" transform="translate(-17.592 -4.956)" fill="#222221"/>
    <path id="Path_5" data-name="Path 5" d="M173.968,92.421a12.568,12.568,0,0,1,4.415-2.634,15.113,15.113,0,0,1,5.017-.878,13.758,13.758,0,0,1,4.489.652,8.745,8.745,0,0,1,3.085,1.756,6.926,6.926,0,0,1,1.782,2.533,7.917,7.917,0,0,1,.577,2.985v12.14q0,1.254.05,2.308t.151,2.007H189.52q-.151-1.806-.15-3.612h-.1a8.648,8.648,0,0,1-3.562,3.26,11.229,11.229,0,0,1-4.766.953,10.955,10.955,0,0,1-3.16-.451,7.714,7.714,0,0,1-2.634-1.355,6.456,6.456,0,0,1-1.782-2.232,7.709,7.709,0,0,1,.377-6.948,7.785,7.785,0,0,1,2.81-2.533,13.549,13.549,0,0,1,4.163-1.4,28.967,28.967,0,0,1,5.092-.427h3.312v-1a4.975,4.975,0,0,0-.351-1.806,4.9,4.9,0,0,0-1.054-1.631,5.035,5.035,0,0,0-1.756-1.154,6.687,6.687,0,0,0-2.509-.427,9.258,9.258,0,0,0-2.283.251,10.183,10.183,0,0,0-1.781.627,7.818,7.818,0,0,0-1.455.878q-.652.5-1.254.953Zm12.743,9.432a31.761,31.761,0,0,0-3.286.175,12.929,12.929,0,0,0-3.06.677,5.9,5.9,0,0,0-2.257,1.4,3.173,3.173,0,0,0-.878,2.308,3.27,3.27,0,0,0,1.379,2.96,6.751,6.751,0,0,0,3.738.9,7.243,7.243,0,0,0,3.161-.627,5.941,5.941,0,0,0,2.107-1.63,6.327,6.327,0,0,0,1.154-2.233,8.857,8.857,0,0,0,.351-2.433v-1.5Z" transform="translate(-26.407 -4.938)" fill="#222221"/>
    <path id="Path_6" data-name="Path 6" d="M209.817,89.511h4.514v3.663h.1a6.657,6.657,0,0,1,2.96-3.085,9.8,9.8,0,0,1,4.866-1.179,10.328,10.328,0,0,1,3.286.527,7.408,7.408,0,0,1,2.759,1.631,7.874,7.874,0,0,1,1.881,2.835,10.835,10.835,0,0,1,.7,4.088v15.3h-4.516V99.244a7.951,7.951,0,0,0-.451-2.835,5.183,5.183,0,0,0-1.2-1.906,4.523,4.523,0,0,0-1.73-1.054,6.4,6.4,0,0,0-2.031-.326,7.364,7.364,0,0,0-2.609.452A5.433,5.433,0,0,0,216.238,95a6.743,6.743,0,0,0-1.4,2.484,11.287,11.287,0,0,0-.5,3.562V113.29h-4.514Z" transform="translate(-36.319 -4.938)" fill="#222221"/>
    <path id="Path_7" data-name="Path 7" d="M250.778,103.057a5.962,5.962,0,0,0,.677,2.834,7.045,7.045,0,0,0,1.781,2.182,8.246,8.246,0,0,0,2.558,1.4,9.174,9.174,0,0,0,3.011.5,6.733,6.733,0,0,0,3.662-.979,11.8,11.8,0,0,0,2.86-2.583l3.411,2.609a12.556,12.556,0,0,1-10.535,4.866,13.093,13.093,0,0,1-5.092-.953,11.064,11.064,0,0,1-3.863-2.634,11.65,11.65,0,0,1-2.433-3.963,14,14,0,0,1-.852-4.941,12.986,12.986,0,0,1,.928-4.942,12.224,12.224,0,0,1,2.558-3.963,11.662,11.662,0,0,1,3.888-2.634,12.513,12.513,0,0,1,4.917-.953,11.754,11.754,0,0,1,5.342,1.1,10.581,10.581,0,0,1,3.587,2.885,11.411,11.411,0,0,1,2.031,4.014,16.7,16.7,0,0,1,.627,4.54v1.606Zm14.247-3.612a9.534,9.534,0,0,0-.476-2.759A6.085,6.085,0,0,0,263.27,94.5a5.913,5.913,0,0,0-2.133-1.455,7.806,7.806,0,0,0-2.985-.526,7.244,7.244,0,0,0-3.035.627,7.406,7.406,0,0,0-2.333,1.63,7.552,7.552,0,0,0-1.48,2.232,6.161,6.161,0,0,0-.526,2.434Z" transform="translate(-45.975 -4.938)" fill="#222221"/>
  </g>
</svg>
