<svg xmlns="http://www.w3.org/2000/svg" width="369" height="529.907" viewBox="0 0 369 529.907">
  <g id="Warstwa_2" data-name="Warstwa 2" transform="translate(-159)">
    <g id="Слой_1" data-name="Слой 1" transform="translate(159)">
      <path id="Path_9104" data-name="Path 9104" d="M325.161,236.108c29.462,113.918-4.58,204.2-130.676,206.967C36.361,446.553-20,367.187,6.134,230.3,28.508,113.129,19.159,60.569,114.962,50.743S295.2,120.357,325.161,236.108Z" transform="translate(0 -8.872)" fill="#f2b705"/>
      <path id="Path_9105" data-name="Path 9105" d="M287.651,612.067c-7.474-16.988-203.217-1.1-201.8,12.449C88.159,646.553,299.459,638.881,287.651,612.067Z" transform="translate(-15.256 -107.469)" fill="#bfbfbf"/>
      <path id="Path_9106" data-name="Path 9106" d="M58.339,527.879c4.366,2.13,12.721-6.109,8.807-12.7-.115-.477,2.113,4.884,4.514,4.013s3.495-3.791,3.223-6.331-1.571-4.835-2.64-7.154a43.754,43.754,0,0,1-3.207-26.51c2.738-14.02,14.439-38.5,20.2-46.722,2.516-3.593-6.109-3.125-7.31-7.318-10.78,8.963-21.881,35.522-24.759,48.432C53.134,491.633,46.473,522.106,58.339,527.879Z" transform="translate(-9.175 -75.561)" fill="#7f7f7f"/>
      <path id="Path_9107" data-name="Path 9107" d="M59.715,528.724A4.3,4.3,0,0,1,57.8,528.3c-12.581-6.118-5.756-36.846-1.645-55.207,2.681-12.022,13.65-39.412,25.038-48.884l.97-.822.345,1.209c.46,1.6,2.467,2.467,4.226,3.207s3.133,1.332,3.495,2.607a2.565,2.565,0,0,1-.526,2.2c-6.011,8.626-17.4,32.842-20.047,46.426A42.932,42.932,0,0,0,72.8,505.05l.567,1.192a19.176,19.176,0,0,1,2.146,6.216c.3,2.788-.888,6.151-3.758,7.195a2.887,2.887,0,0,1-2.968-.822,10.9,10.9,0,0,1-2.952,6.685A8.767,8.767,0,0,1,59.715,528.724ZM81.447,426.186C71.481,435.3,60.71,460.31,57.774,473.458c-3.725,16.709-10.69,47.824.74,53.366h0c1.587.773,4.111-.214,6.11-2.4s3.585-5.83,1.645-9.136l-.09-.222-.173-.707.674-.288c.691-.263,1.028.378,1.176.65,1.85,3.487,2.96,3.528,3.355,3.388,2.047-.748,2.911-3.38,2.689-5.468a18.088,18.088,0,0,0-2.015-5.7c-.2-.4-.386-.822-.576-1.209a44.5,44.5,0,0,1-3.289-27.012c2.689-13.781,14.225-38.318,20.327-47.034a1.184,1.184,0,0,0,.3-.822c-.148-.518-1.431-1.069-2.566-1.546-1.62-.691-3.61-1.538-4.629-3.133Z" transform="translate(-8.988 -75.247)" fill="#fff"/>
      <path id="Path_9108" data-name="Path 9108" d="M340.508,479.867c1.127,6.29.452,16.651-1.727,22.654a32.227,32.227,0,0,0-2.039,5.715c-.329,2,.271,4.358,2.056,5.32s3.355-.822,4.111-2.533c-.691,2.6-1.39,5.345-.666,7.935s3.454,4.819,6.011,4a6.364,6.364,0,0,0,3.914-4.934c3.947-20.869,6.414-40.045-1.809-57.872-8.765-18.986-18.09-32.069-31.97-45.949,1.809,1.209-1.242,15.927-.041,19.093,1.645,4.333,6.249,7.4,8.675,11.389a96.329,96.329,0,0,1,13.485,35.185Z" transform="translate(-56.527 -73.613)" fill="#7f7f7f"/>
      <path id="Path_9109" data-name="Path 9109" d="M346.988,523.773a5.113,5.113,0,0,1-2.4-.633,7.014,7.014,0,0,1-3.289-4.111,11.364,11.364,0,0,1-.123-4.934,3.118,3.118,0,0,1-.608.271,2.86,2.86,0,0,1-2.327-.214c-2.2-1.192-2.837-3.955-2.467-6.175a17.677,17.677,0,0,1,1.357-4.111c.247-.584.493-1.168.715-1.768,2.056-5.657,2.829-15.829,1.686-22.2a95.149,95.149,0,0,0-13.354-34.922,31.009,31.009,0,0,0-3.733-4.555c-1.973-2.113-4.013-4.3-5.016-6.965-.625-1.645-.263-5.633.132-9.867.288-3.19.732-7.976.214-8.864l-.115-.107a.822.822,0,0,1,1.036-1.266,1.514,1.514,0,0,1,.337.313c14.16,14.192,23.418,27.538,31.929,45.973s5.707,38.071,1.867,58.382a7.121,7.121,0,0,1-4.473,5.583,4.491,4.491,0,0,1-1.365.173Zm-4.235-13.707a.826.826,0,0,1,.8,1.036c-.633,2.368-1.357,5.049-.666,7.5a5.3,5.3,0,0,0,2.467,3.133,3.174,3.174,0,0,0,2.467.3,5.577,5.577,0,0,0,3.347-4.317c3.791-20.03,6.513-39.469-1.743-57.378-8.058-17.465-16.8-30.309-29.816-43.687,0,1.644-.164,3.93-.452,7.1-.337,3.659-.724,7.8-.23,9.1.888,2.36,2.73,4.342,4.679,6.43a31.725,31.725,0,0,1,3.939,4.818,96.643,96.643,0,0,1,13.567,35.481c1.184,6.628.378,17.194-1.76,23.081-.23.625-.485,1.233-.748,1.842a16.555,16.555,0,0,0-1.25,3.725c-.255,1.587.148,3.659,1.644,4.465a1.217,1.217,0,0,0,1.02.107,4.111,4.111,0,0,0,1.965-2.253A.822.822,0,0,1,342.753,510.066Z" transform="translate(-56.355 -73.438)" fill="#fff"/>
      <path id="Path_9110" data-name="Path 9110" d="M168.455,564.453c1.982,5.139,4.284,10.2,5.378,15.623s.822,11.446-2.047,16.092c-1.694,2.738-4.177,4.819-6.068,7.4s-3.166,6.142-1.924,9.152,4.893,4.49,8.058,4.111,5.986-2.228,8.708-4c5.147-3.355,10.69-7.146,12.721-13.2,1.645-4.753.822-10.114-.979-14.8s-4.358-9-6.389-13.576c-5.008-11.306-5.131-23.3-7.861-35.095-5.756-.189-13.724-2.146-15.623,5.213C160.832,547.638,166.268,558.755,168.455,564.453Z" transform="translate(-28.816 -95.222)" fill="#7f7f7f"/>
      <path id="Path_9111" data-name="Path 9111" d="M170.606,617.528c-3.059,0-6.438-1.488-7.746-4.654-1.184-2.87-.436-6.578,2.015-9.95a40.726,40.726,0,0,1,2.73-3.248,28.555,28.555,0,0,0,3.289-4.111c2.467-3.972,3.149-9.473,1.941-15.492a71.413,71.413,0,0,0-4.037-12.219c-.436-1.077-.822-2.154-1.283-3.24h0c-.362-.938-.822-2.023-1.3-3.207-2.6-6.282-6.159-14.883-4.745-20.417,1.768-6.9,8.387-6.4,13.707-5.994.962.066,1.867.14,2.73.164h.625l.148.617c.946,4.111,1.6,8.28,2.212,12.334,1.168,7.532,2.36,15.319,5.6,22.613.822,1.834,1.735,3.659,2.631,5.419a81.161,81.161,0,0,1,3.774,8.223c1.488,3.98,2.862,9.867.979,15.377-2.08,6.077-7.359,9.867-13.05,13.617-2.648,1.727-5.641,3.684-9.045,4.111A9.309,9.309,0,0,1,170.606,617.528Zm.46-81.142c-3.717,0-6.948.822-8,4.934-1.283,5,2.3,13.65,4.671,19.373.493,1.2.946,2.3,1.316,3.248h0c.411,1.077.822,2.146,1.266,3.224A71.829,71.829,0,0,1,174.43,579.7c1.291,6.438.526,12.334-2.154,16.684a30.164,30.164,0,0,1-3.437,4.358,36.558,36.558,0,0,0-2.631,3.116c-2.113,2.894-2.8,6.019-1.826,8.354,1.159,2.812,4.5,3.922,7.187,3.577,3.026-.4,5.863-2.245,8.363-3.873,5.443-3.544,10.484-7.195,12.392-12.778,1.719-5.032.428-10.533-.962-14.275a78.288,78.288,0,0,0-3.708-8.034c-.9-1.784-1.834-3.626-2.664-5.5-3.289-7.491-4.539-15.393-5.715-23.024-.592-3.815-1.192-7.754-2.056-11.6l-2.163-.148c-1.34-.066-2.7-.173-3.988-.173Z" transform="translate(-28.64 -95.046)" fill="#fff"/>
      <path id="Path_9112" data-name="Path 9112" d="M217.308,580.342a24.016,24.016,0,0,0-2.031,6.66c-.576,5.674,3.149,11.051,7.812,13.855s10.139,3.577,15.451,4.292c2.006.271,4.194.5,5.888-.666a6.043,6.043,0,0,0,1.941-2.467c1.891-4.111,0-9.744-3.922-11.643-1.645-.822-3.536-1.02-4.934-2.179-3.059-2.467-2.335-7.491-1.316-11.438q5.7-21.905,11.389-43.8c-11.586-2.006-16.051-1.513-18.723,10.352A235.048,235.048,0,0,1,217.308,580.342Z" transform="translate(-38.25 -94.558)" fill="#7f7f7f"/>
      <path id="Path_9113" data-name="Path 9113" d="M240.941,606.026a20.314,20.314,0,0,1-2.689-.23c-5.1-.682-10.887-1.464-15.763-4.4-4.547-2.738-8.848-8.321-8.223-14.645a24.094,24.094,0,0,1,1.982-6.578l.107-.271a234.74,234.74,0,0,0,11.512-36.887c2.837-12.605,7.91-13.025,19.661-10.994l.88.156L236.8,576.844c-1.406,5.419-1.069,8.889,1.036,10.591a8.515,8.515,0,0,0,2.8,1.308,17.433,17.433,0,0,1,2.015.773c4.342,2.105,6.4,8.174,4.309,12.721a6.709,6.709,0,0,1-2.22,2.8A6.413,6.413,0,0,1,240.941,606.026Zm-23.024-25.548-.107.28a22.737,22.737,0,0,0-1.867,6.159c-.559,5.608,3.289,10.607,7.4,13.066,4.588,2.763,10.2,3.519,15.138,4.185,2,.271,3.906.428,5.3-.534a5.116,5.116,0,0,0,1.645-2.122c1.71-3.717,0-8.848-3.536-10.558a14.694,14.694,0,0,0-1.817-.691,10.205,10.205,0,0,1-3.289-1.587c-3.947-3.207-2.171-10.04-1.587-12.285l11.15-42.906c-10.69-1.784-14.406-1.192-16.9,9.867a236.073,236.073,0,0,1-11.569,37.126Z" transform="translate(-38.07 -94.39)" fill="#fff"/>
      <rect id="Rectangle_372" data-name="Rectangle 372" width="194.382" height="175.364" rx="20.696" transform="translate(65.57 274.083) rotate(-2.862)" fill="#d9d9d9"/>
      <path id="Path_9114" data-name="Path 9114" d="M106.274,505.13A17.835,17.835,0,0,1,88.5,488.265L80.915,347.319a17.843,17.843,0,0,1,16.84-18.748l159.916-8.576a17.852,17.852,0,0,1,18.748,16.84l7.573,140.946a17.811,17.811,0,0,1-16.832,18.748l-159.916,8.576ZM258.633,321.59l-.863.049L97.837,330.207a16.2,16.2,0,0,0-15.278,17.021l7.573,140.955a16.19,16.19,0,0,0,17.021,15.278l159.916-8.593a16.166,16.166,0,0,0,15.278-17l-7.573-140.955A16.191,16.191,0,0,0,258.633,321.59Z" transform="translate(-14.376 -56.866)" fill="#fff"/>
      <rect id="Rectangle_373" data-name="Rectangle 373" width="151.299" height="136.498" rx="15.23" transform="matrix(0.999, -0.054, 0.054, 0.999, 96.991, 291.569)" fill="#fff"/>
      <path id="Path_9115" data-name="Path 9115" d="M137.049,489.281a13.37,13.37,0,0,1-13.346-12.63l-5.978-111.295a13.337,13.337,0,0,1,12.606-14.036L256.4,344.536a13.37,13.37,0,0,1,14.044,12.614l5.986,111.287a13.337,13.337,0,0,1-12.614,14.044l-126.071,6.784Zm120.1-143.117h-.633l-126.071,6.792a11.709,11.709,0,0,0-11.051,12.334l5.953,111.27a11.709,11.709,0,0,0,12.334,11.06l126.071-6.784a11.693,11.693,0,0,0,11.06-12.334l-5.986-111.254A11.709,11.709,0,0,0,257.151,346.164Z" transform="translate(-20.919 -61.229)" fill="#fff"/>
      <path id="Path_9116" data-name="Path 9116" d="M297.25,345.247l-1.25-1.02A115.751,115.751,0,0,1,309.8,329.5l1.1,1.225a113.16,113.16,0,0,0-13.65,14.521Z" transform="translate(-52.606 -58.56)" fill="#fff"/>
      <path id="Path_9117" data-name="Path 9117" d="M113.966,356.842c-4.2-3.141-8.724-6.438-13.1-9.629s-8.905-6.5-13.107-9.637l.987-1.316c4.194,3.133,8.716,6.43,13.091,9.629s8.905,6.5,13.107,9.629Z" transform="translate(-15.597 -59.762)" fill="#fff"/>
      <path id="Path_9118" data-name="Path 9118" d="M98.971,536.506l-1.151-1.168a141.813,141.813,0,0,1,24.5-19.241h0l2.212-1.307.822,1.414a140.355,140.355,0,0,0-26.387,20.3Z" transform="translate(-17.385 -91.491)" fill="#fff"/>
      <path id="Path_9119" data-name="Path 9119" d="M316.215,524.537A89.986,89.986,0,0,1,303.1,507.392l1.414-.822a88.237,88.237,0,0,0,12.877,16.8Z" transform="translate(-53.868 -90.03)" fill="#fff"/>
      <path id="Path_9120" data-name="Path 9120" d="M178.494,445.669a10.287,10.287,0,0,1-9.711-7.721,1.233,1.233,0,0,1,.921-1.48,1.25,1.25,0,0,1,1.48.929,7.746,7.746,0,0,0,7.3,5.805h0a7.746,7.746,0,0,0,7.277-5.9,1.233,1.233,0,0,1,2.409.526,10.3,10.3,0,0,1-9.67,7.836Z" transform="translate(-29.991 -77.553)" fill="#181618"/>
      <path id="Path_9121" data-name="Path 9121" d="M248.614,439.925a10.066,10.066,0,0,1-2.7-.37,10.254,10.254,0,0,1-6.932-6.734,1.233,1.233,0,1,1,2.352-.74,7.7,7.7,0,0,0,12.425,3.462,5.218,5.218,0,0,0,1.883-4.8,1.235,1.235,0,1,1,2.4-.584,7.557,7.557,0,0,1-2.656,7.236A10.263,10.263,0,0,1,248.614,439.925Z" transform="translate(-42.461 -76.281)" fill="#181618"/>
      <path id="Path_9122" data-name="Path 9122" d="M222.611,481.8a9.045,9.045,0,0,1-7.236-3.585,1.233,1.233,0,1,1,1.982-1.456,6.381,6.381,0,0,0,11.512-3.873,1.234,1.234,0,0,1,2.467-.041,9.045,9.045,0,0,1-6.027,8.519A8.437,8.437,0,0,1,222.611,481.8Z" transform="translate(-38.224 -83.821)" fill="#181618"/>
      <path id="Path_9123" data-name="Path 9123" d="M169.067,398.49c-1.34-1-2.352-3.034-3.018-6.1a96.053,96.053,0,0,1-1.283-10.862q-.641-8.412.123-12.334.913-4.786,4.169-5.69a5.073,5.073,0,0,1,4.259.608,5.97,5.97,0,0,1,2.565,4.465l-2.467.329a3.676,3.676,0,0,0-1.48-2.714,2.615,2.615,0,0,0-2.237-.288q-1.9.518-2.467,4.169a54.331,54.331,0,0,0,0,11.265q.5,6.578,1.069,9.695.822,4.44,2.237,5.518l.255.156a2.463,2.463,0,0,0,.37.148,2.538,2.538,0,0,0,1.11,0,3.972,3.972,0,0,0,2.179-1.036,2.648,2.648,0,0,0,.584-1.645l2.467.156c-.156,2.672-1.743,4.333-4.745,4.934a4.736,4.736,0,0,1-.822.123A4.194,4.194,0,0,1,169.067,398.49Z" transform="translate(-29.231 -64.564)" fill="#181618"/>
      <path id="Path_9124" data-name="Path 9124" d="M203.823,364.138l-.378.049a9.445,9.445,0,0,0-.987.123q-1.554.181-3.108.395l.148,2.664.23,3.684.51,9.111q.682,12.129.929,17.054l-2.467.14q-.263-4.884-.921-16.832l-.51-9.045-.206-3.684q-.074-1.365-.173-2.738c-2.08.3-3.47.518-4.185.666l-.526-2.426q1.48-.3,6.414-.97l3.355-.428a7.355,7.355,0,0,0,1.1-.132l.477-.049Z" transform="translate(-34.155 -64.286)" fill="#181618"/>
      <path id="Path_9125" data-name="Path 9125" d="M231.338,395.64a1.3,1.3,0,0,0-.082-.164l-.058-.14-.082-.165c-.164-.362-.337-.732-.518-1.1q-.822-1.76-1.645-3.552-2.565-5.7-4.177-9.974c.123,1.71.238,3.149.337,4.3q.691,8.478.822,11.413l-2.467.132q-.173-3.24-.872-11.339l-.156-1.941-.164-1.973c-.115-1.538-.214-2.853-.288-3.963-.238-3.01-.411-5.485-.543-7.4a48.413,48.413,0,0,1-.115-7.351c.132-.954.534-1.5,1.184-1.645a4.868,4.868,0,0,1,2.2.14,9.341,9.341,0,0,1,2.7,1.2A7.622,7.622,0,0,1,230.7,367.2a8.856,8.856,0,0,1-.921,6.348,9.727,9.727,0,0,1-3.717,3.462q1.529,4.506,4.6,11.446c.65,1.455,1.307,2.911,1.982,4.35l.608,1.3a3.211,3.211,0,0,1,.164.345.547.547,0,0,1,.074.148Zm-7.557-32.414q-.14,2.418.592,11.956a9.044,9.044,0,0,0,1.521-.929,6.266,6.266,0,0,0,2.467-6.628,5.172,5.172,0,0,0-1.99-3.289,6.241,6.241,0,0,0-1.349-.822A4.994,4.994,0,0,0,223.781,363.226Z" transform="translate(-39.32 -64.107)" fill="#181618"/>
      <path id="Path_9126" data-name="Path 9126" d="M254.2,394.333a4.3,4.3,0,0,1-.682-.156l-.2-.082-.1-.066c-.386-.255-.658-.97-.822-2.154q-.37-2.722-.732-11.759-.247-6.134-.674-13.329-.386-6.315-.5-7.664l2.467-.263c.107.962.28,3.528.534,7.7q.419,7.211.65,13.453.37,9.185.765,11.923a48.4,48.4,0,0,0,6.044-.312l.23,2.467c-1.168.115-2.27.206-3.289.263A22.2,22.2,0,0,1,254.2,394.333Z" transform="translate(-44.518 -63.778)" fill="#181618"/>
      <path id="Path_9127" data-name="Path 9127" d="M80.07,33.954c-2.4-5.526-4.465-12.022-3.158-17.613A3.289,3.289,0,0,1,82.487,14.7a23.024,23.024,0,0,1,6.841,15.319l-.082-1.99a3.288,3.288,0,0,1,5.312-2.812c.107.1.214.2.312.3,1.521,1.645,1.924,3.98,2.36,6.167,3.149,15.8,11.578,30.21,22.2,42.3s23.492,22.045,36.649,31.345c1.036.732-1.645,13.855-3.47,14.464-3.24,1.077-9.506-5.32-11.717-7.063a202.841,202.841,0,0,1-24.512-22.8A203.752,203.752,0,0,1,80.07,33.954Z" transform="translate(-13.597 -2.436)" fill="#7f7f7f"/>
      <path id="Path_9128" data-name="Path 9128" d="M151.652,120.571c-3.034,0-7.088-3.569-9.867-6.019-.633-.551-1.176-1.028-1.571-1.34a204.072,204.072,0,0,1-24.6-22.9A203.784,203.784,0,0,1,79.135,34.116h0c-3.289-7.6-4.317-13.362-3.19-18.09A4.111,4.111,0,0,1,82.9,14a24.084,24.084,0,0,1,6.348,10.953,4.235,4.235,0,0,1,1.3-1,3.914,3.914,0,0,1,4.342.5c.132.115.263.238.378.362,1.645,1.727,2.08,4.111,2.467,6.241l.066.337c2.845,14.283,10.468,28.78,22.037,41.936,11.142,12.638,24.668,22.876,36.5,31.246.469.329.872.962.312,4.7,0,.107-1.645,10.435-4,11.224A3.331,3.331,0,0,1,151.652,120.571ZM80.023,14.415a2.516,2.516,0,0,0-2.467,1.949c-1.036,4.407-.058,9.867,3.1,17.1h0A201.942,201.942,0,0,0,116.837,89.2a202.76,202.76,0,0,0,24.405,22.719c.428.337.987.822,1.645,1.4,2.311,2.031,7.113,6.258,9.308,5.526.962-.666,3.692-10.994,3.116-13.156-11.849-8.379-25.441-18.649-36.649-31.37C106.9,60.964,99.15,46.2,96.247,31.641l-.066-.337c-.395-1.99-.822-4.054-2.089-5.435a2.311,2.311,0,0,0-2.779-.518,2.508,2.508,0,0,0-1.423,2.459l.066,1.061c0,.329.049.65.058.979a.823.823,0,0,1-1.645.049l-.058-.946a22.2,22.2,0,0,0-6.578-13.839A2.467,2.467,0,0,0,80.023,14.415ZM155.253,105.63Z" transform="translate(-13.419 -2.27)" fill="#fff"/>
      <path id="Path_9129" data-name="Path 9129" d="M393.628,98.373a462.313,462.313,0,0,0,11.446-48.259c.493-2.771,1.332-5.887,4.309-7.3a4.251,4.251,0,0,1,6.249,3.569C415.87,40.353,419.784,34.531,425.8,31a4.177,4.177,0,0,1,5.254.822,7.252,7.252,0,0,1,1.455,5.517c-.428,2.936-2.278,5.591-4.013,8.223-6.841,10.27-10.237,22.563-13.485,33.935-3.067,10.69-6.233,20.376-9.695,31.008-6.874,21.149-23.172,39.675-42.832,54.665,4.884-3.717,1.028-16.174,3.289-21.026,2.187-4.7,2.631-9.662,6.718-13.666C382.182,120.92,390.191,110.3,393.628,98.373Z" transform="translate(-64.422 -5.406)" fill="#7f7f7f"/>
      <path id="Path_9130" data-name="Path 9130" d="M362.3,165.766a.822.822,0,0,1-.5-1.472h0c2.541-1.941,2.385-6.891,2.237-11.668-.107-3.536-.214-6.882.822-9.045a46.578,46.578,0,0,0,1.686-4.407c1.11-3.289,2.261-6.619,5.2-9.5,11.068-10.862,17.917-21.231,20.935-31.715h0a461.071,461.071,0,0,0,11.43-48.177c.535-3.042,1.521-6.356,4.761-7.894a5.2,5.2,0,0,1,4.934.148,4.769,4.769,0,0,1,1.258,1c1.225-5.106,4.934-9.867,10.139-12.967a4.934,4.934,0,0,1,6.315,1,8.034,8.034,0,0,1,1.645,6.151c-.428,2.968-2.179,5.591-3.873,8.132l-.271.395c-6.578,9.867-9.867,21.47-13.091,32.694l-.288,1.02c-2.886,10.073-5.9,19.323-9.045,29.117l-.625,1.908c-6.274,19.307-21.182,38.351-43.112,55.093h0A.822.822,0,0,1,362.3,165.766ZM394.24,98.413c-3.1,10.755-10.081,21.379-21.379,32.431-2.656,2.6-3.692,5.641-4.794,8.856a47.543,47.543,0,0,1-1.751,4.564c-.822,1.817-.748,4.934-.641,8.3.1,3.2.2,6.463-.485,9.045C385,145.744,398.491,127.966,404.338,110l.625-1.916c3.182-9.777,6.183-19.011,9.045-29.059L414.3,78c3.24-11.347,6.578-23.081,13.3-33.154l.263-.395c1.6-2.393,3.24-4.86,3.618-7.458a6.463,6.463,0,0,0-1.283-4.884,3.289,3.289,0,0,0-4.152-.584c-5.8,3.4-9.538,9.045-9.76,14.686a.822.822,0,0,1-.822.822h0a.822.822,0,0,1-.822-.781A3.379,3.379,0,0,0,413,43.469a3.593,3.593,0,0,0-3.421-.082c-2.557,1.217-3.363,3.939-3.848,6.7a464.887,464.887,0,0,1-11.471,48.35Z" transform="translate(-64.244 -5.217)" fill="#fff"/>
      <path id="Path_9131" data-name="Path 9131" d="M180.282,307.839c-1.891,1.464-4.235,2.237-6.184,3.61s-3.552,3.791-2.845,6.068c1,3.24,5.378,3.593,8.757,3.289l6.693-.543c2.121-.173,4.333-.378,6.118-1.538,3.19-2.072,3.906-6.364,4.194-10.155a213.636,213.636,0,0,1,4.72-32.439c1.258-5.485,7.458-18.789-.822-22.2C186.934,248.2,193.1,297.89,180.282,307.839Z" transform="translate(-30.406 -45.048)" fill="#7f7f7f"/>
      <path id="Path_9132" data-name="Path 9132" d="M178.074,321.553c-4.243,0-6.981-1.381-7.787-3.963s.987-5.444,3.158-6.981a24.545,24.545,0,0,1,3-1.727,20.467,20.467,0,0,0,3.158-1.866h0c5.756-4.457,7.59-17.926,9.226-29.807,1.587-11.512,2.96-21.511,7.4-24.085a5.221,5.221,0,0,1,4.786-.1c7.483,3.075,4.391,13.008,2.344,19.578-.436,1.4-.822,2.607-1.036,3.561a211.49,211.49,0,0,0-4.7,32.315c-.3,4.07-1.094,8.527-4.564,10.788-2,1.3-4.5,1.5-6.5,1.645l-6.693.551Q178.954,321.553,178.074,321.553Zm2.533-13.239a21.954,21.954,0,0,1-3.412,2.031,22.933,22.933,0,0,0-2.8,1.6c-1.694,1.192-3.133,3.248-2.541,5.156.9,2.87,5.337,2.944,7.9,2.73l6.7-.543c1.916-.156,4.111-.337,5.756-1.406,2.87-1.867,3.544-5.863,3.824-9.53a212.426,212.426,0,0,1,4.728-32.554c.238-1.02.625-2.261,1.069-3.692,2.467-7.935,4.227-15.253-1.4-17.564a3.618,3.618,0,0,0-3.347,0c-3.774,2.171-5.156,12.227-6.578,22.876-1.76,12.795-3.577,26.017-9.867,30.885Z" transform="translate(-30.229 -44.874)" fill="#fff"/>
      <path id="Path_9133" data-name="Path 9133" d="M268.1,269.6a146.88,146.88,0,0,0-2.927,31.559,13.552,13.552,0,0,1-.46,4.728c-1.381,3.84-6.011,5.065-7.277,8.963-1.127,3.462,1.233,7.45,4.251,8.626s6.364.238,9.308-1.2a62.648,62.648,0,0,0,5.6-3.248c1.867-1.168,3.889-2.541,4.514-4.884a10.845,10.845,0,0,0,.148-3.651l-2.516-35.218a6.423,6.423,0,0,0-.51-2.467,4.709,4.709,0,0,0-3.125-2.113,45.891,45.891,0,0,0-7.7-1.6" transform="translate(-45.702 -47.824)" fill="#7f7f7f"/>
      <path id="Path_9134" data-name="Path 9134" d="M264.456,324.652a8.824,8.824,0,0,1-3.24-.592c-3.289-1.291-6.027-5.7-4.736-9.653.715-2.2,2.335-3.577,3.906-4.934,1.423-1.225,2.771-2.376,3.371-4.07a12.337,12.337,0,0,0,.419-4.3v-.14a148.01,148.01,0,0,1,2.944-31.731h.074l.14-1.2a45.937,45.937,0,0,1,7.836,1.645,5.5,5.5,0,0,1,3.626,2.516,7.3,7.3,0,0,1,.592,2.812l2.516,35.218a11.57,11.57,0,0,1-.173,3.922c-.7,2.582-2.788,4.062-4.876,5.369a62.922,62.922,0,0,1-5.674,3.289,15.45,15.45,0,0,1-6.726,1.85Zm4.21-54.747a146.43,146.43,0,0,0-2.845,31.049v.14a13.831,13.831,0,0,1-.51,4.884,11.624,11.624,0,0,1-3.865,4.761c-1.53,1.307-2.837,2.426-3.4,4.177-.995,3.059,1.209,6.578,3.774,7.606,2.335.921,5.164.526,8.642-1.176a62.691,62.691,0,0,0,5.526-3.207c1.883-1.176,3.618-2.393,4.161-4.4a10.286,10.286,0,0,0,.115-3.379l-2.508-35.218a6.007,6.007,0,0,0-.428-2.179,3.914,3.914,0,0,0-2.623-1.694,45.066,45.066,0,0,0-6.036-1.365Z" transform="translate(-45.525 -47.635)" fill="#fff"/>
      <rect id="Rectangle_374" data-name="Rectangle 374" width="172.604" height="172.604" rx="16.39" transform="translate(148.313 40.016) rotate(9.5)" fill="#d9d9d9"/>
      <path id="Path_9135" data-name="Path 9135" d="M305.164,246.452a14.654,14.654,0,0,1-2.385-.2L159.12,222.2a14.291,14.291,0,0,1-11.742-16.446L171.429,62.081a14.291,14.291,0,0,1,16.446-11.734L331.551,74.391a14.316,14.316,0,0,1,11.734,16.446L319.233,234.513a14.291,14.291,0,0,1-14.069,11.939Zm-2.113-1.817a12.655,12.655,0,0,0,14.563-10.418L341.665,90.581a12.663,12.663,0,0,0-10.385-14.562L187.62,51.967a12.655,12.655,0,0,0-14.571,10.394L149,206.012a12.655,12.655,0,0,0,10.369,14.571Z" transform="translate(-26.158 -8.913)" fill="#fff"/>
      <rect id="Rectangle_375" data-name="Rectangle 375" width="131.329" height="131.329" rx="17.88" transform="translate(160.191 65.117) rotate(9.744)" fill="#fff"/>
      <path id="Path_9136" data-name="Path 9136" d="M285.558,227.425a15.853,15.853,0,0,1-2.557-.214L182.921,210.453a15.467,15.467,0,0,1-12.688-17.8L186.984,92.58a15.475,15.475,0,0,1,17.8-12.7l100.071,16.75a15.467,15.467,0,0,1,12.7,17.843L300.8,214.515A15.5,15.5,0,0,1,285.558,227.425Zm-2.286-1.842a13.823,13.823,0,0,0,15.9-11.339l16.758-100.079a13.806,13.806,0,0,0-11.347-15.9L204.539,81.5a13.831,13.831,0,0,0-15.911,11.347L171.854,192.922a13.831,13.831,0,0,0,11.306,15.911Z" transform="translate(-30.217 -14.16)" fill="#fff"/>
      <path id="Path_9137" data-name="Path 9137" d="M195.622,78.574a100.573,100.573,0,0,0-9.152-25.211l1.455-.773a101.285,101.285,0,0,1,9.308,25.639Z" transform="translate(-33.14 -9.347)" fill="#fff"/>
      <path id="Path_9138" data-name="Path 9138" d="M343.357,105.171l-.937-1.349c11.01-7.631,23.772-13.288,32.546-16.692l.592,1.529C366.874,92.031,354.236,97.639,343.357,105.171Z" transform="translate(-60.856 -15.485)" fill="#fff"/>
      <path id="Path_9139" data-name="Path 9139" d="M149.061,245.477,148,244.187a168.521,168.521,0,0,1,22.892-15.007l.822,1.447a170.867,170.867,0,0,0-22.654,14.85Z" transform="translate(-26.303 -40.731)" fill="#fff"/>
      <path id="Path_9140" data-name="Path 9140" d="M340.272,280.412a189,189,0,0,0-17.12-24.972.871.871,0,0,1-.411,0,1.061,1.061,0,0,1-.822-.97.97.97,0,0,1,.608-.995,1.332,1.332,0,0,1,1.579.567A189.944,189.944,0,0,1,341.719,279.6Zm-17.334-26.592a.715.715,0,0,0-.625.354l1.11.65a.641.641,0,0,0,.164-.477.6.6,0,0,0-.485-.51Z" transform="translate(-57.212 -45.035)" fill="#fff"/>
      <path id="Path_9141" data-name="Path 9141" d="M233.725,134.081a1.233,1.233,0,0,1-1.217-1.011A5.9,5.9,0,0,0,221,132.6a1.233,1.233,0,0,1-1.513.872,1.25,1.25,0,0,1-.872-1.513,8.363,8.363,0,0,1,16.306.666,1.233,1.233,0,0,1-.987,1.439Z" transform="translate(-38.846 -22.351)" fill="#181618"/>
      <path id="Path_9142" data-name="Path 9142" d="M300.483,144.827h-.132a1.242,1.242,0,0,1-1.1-1.357,5.9,5.9,0,0,0-10.9-3.676,1.234,1.234,0,0,1-2.113-1.275,8.363,8.363,0,0,1,15.467,5.205A1.233,1.233,0,0,1,300.483,144.827Z" transform="translate(-50.841 -23.903)" fill="#181618"/>
      <path id="Path_9143" data-name="Path 9143" d="M245.39,205.351a2.129,2.129,0,0,1-.395,0,2.467,2.467,0,0,1-1.842-1.381A330.5,330.5,0,0,1,227.464,164.3a2.467,2.467,0,1,1,4.7-1.513,324.168,324.168,0,0,0,13.929,35.736c9.275-9.81,18.5-19.866,27.472-29.906a2.467,2.467,0,1,1,3.676,3.289c-9.8,11-19.916,22-30.062,32.685a2.467,2.467,0,0,1-1.784.757Z" transform="translate(-40.405 -28.628)" fill="#181618"/>
      <path id="Path_9144" data-name="Path 9144" d="M257.013,39.988c.4-.173,5.682-4.506,7.927-6.636s4.448-4.449,6.66-6.685c3.059-3.084,6.093-6.184,9.168-9.251,1.4-1.39,2.853-2.746,4.342-4.07a4.49,4.49,0,0,1,6.759.822,38.4,38.4,0,0,1,2.467,4.243c1.85,3.758,3.585,7.557,5.443,11.315q2.664,5.378,5.517,10.69c1.127,2.089,2.467,4.111,3.774,6.34,7.178-2.327,13.156-6.011,19.973-8.5,1.406,1.168,1.324,2.278.584,3.355-2.59,3.832-5.262,7.631-7.836,11.512-2.113,3.149-4.111,6.364-6.184,9.522-.863,1.291-1.883,2.467-2.672,3.552-5.583-.707-10.887-1.349-16.191-2.047-5.9-.773-11.8-1.529-17.671-2.426-9-1.365-17.967-2.837-26.946-4.268q-3.289-.526-6.578-1.118c-1.883-.345-1.949-.4-2.2-1.957-.132-.822-.123-1.587-.247-2.376q-1.159-7.4-2.368-14.875c-.543-3.24-1.184-6.48-1.7-9.719a4.531,4.531,0,0,1,.345-1.645,6.767,6.767,0,0,1,1.949.6C243.577,27.967,253.667,37.324,257.013,39.988Z" transform="translate(-42.481 -2.163)" fill="#0c154a" fill-rule="evenodd"/>
      <path id="Path_9145" data-name="Path 9145" d="M338.173,38.339c-6.841,2.467-12.795,6.175-19.973,8.5-1.324-2.212-2.648-4.251-3.774-6.34q-2.861-5.32-5.517-10.69c-1.858-3.758-3.593-7.557-5.443-11.315A38.374,38.374,0,0,0,301,14.255a4.5,4.5,0,0,0-1.875-1.645c-2.467,16.577-3.9,33.343-8.543,49.517,5.073.74,10.172,1.4,15.261,2.072,5.3.7,10.607,1.34,16.191,2.047.822-1.044,1.809-2.261,2.672-3.552,2.1-3.158,4.07-6.373,6.184-9.522,2.574-3.848,5.246-7.647,7.836-11.512C339.5,40.617,339.579,39.507,338.173,38.339Z" transform="translate(-51.643 -2.241)" fill="#05051f" fill-rule="evenodd"/>
      <path id="Path_9146" data-name="Path 9146" d="M342,43.9c-6.841,2.467-12.795,6.175-19.973,8.5-.058-.09-.115-.181-.164-.271-1.184,6.5-5.945,12.26-9.744,17.942,4.506.584,9.045,1.135,13.773,1.735.822-1.044,1.809-2.261,2.672-3.552,2.1-3.158,4.07-6.373,6.183-9.522,2.574-3.848,5.246-7.647,7.836-11.512C343.325,46.178,343.408,45.068,342,43.9Z" transform="translate(-55.471 -7.802)" fill="#030409" fill-rule="evenodd"/>
      <path id="Path_9147" data-name="Path 9147" d="M298.946,12.334a6.239,6.239,0,0,0,6.167-6.167,6.167,6.167,0,1,0-12.334,0A6.274,6.274,0,0,0,298.946,12.334Z" transform="translate(-52.033)" fill="#06072d"/>
      <path id="Path_9148" data-name="Path 9148" d="M235.306,30.474a6.167,6.167,0,1,0-6.167-6.167A6.228,6.228,0,0,0,235.306,30.474Z" transform="translate(-40.723 -3.224)" fill="#06072d"/>
      <path id="Path_9149" data-name="Path 9149" d="M350,47.874a6.167,6.167,0,1,0-6.167-6.167A6.228,6.228,0,0,0,350,47.874Z" transform="translate(-61.106 -6.316)" fill="#030409"/>
      <path id="Path_9150" data-name="Path 9150" d="M318.146,76.7a2.445,2.445,0,0,1-2.968,1.686L242.5,66.847a2.477,2.477,0,0,1-2.311-2.524h0a2.4,2.4,0,0,1,2.977-1.645L315.844,74.19a2.464,2.464,0,0,1,2.3,2.524Z" transform="translate(-42.684 -11.129)" fill="#06072d" fill-rule="evenodd"/>
      <path id="Path_9151" data-name="Path 9151" d="M241.36,32.882l4.111,24.668,10.69,1.645L242.182,32.06Z" transform="translate(-42.896 -5.698)" fill="#fff" fill-rule="evenodd" opacity="0.26"/>
    </g>
  </g>
</svg>
