<svg id="Group_427" data-name="Group 427" xmlns="http://www.w3.org/2000/svg" width="215.683" height="49.025" viewBox="0 0 215.683 49.025">
  <g id="Group_424" data-name="Group 424" transform="translate(92.691 6.08)">
    <path id="Path_8572" data-name="Path 8572" d="M245.1,511.754h-2.083V493.023h3.08a7.9,7.9,0,0,1,4.643.993,5.157,5.157,0,0,1,2.112,4.272,5.259,5.259,0,0,1-1.788,4.025,6.759,6.759,0,0,1-4.447,1.244H245.1Zm0-10.136h1.4c2.308,0,4.27-.7,4.27-3.379,0-3.057-2.458-3.278-4.892-3.278h-.772v6.657Z" transform="translate(-243.021 -491.954)" fill="#020203"/>
    <path id="Path_8573" data-name="Path 8573" d="M269.843,502.569a9.766,9.766,0,1,1-9.766-9.714A9.716,9.716,0,0,1,269.843,502.569Zm-17.444-.025a7.678,7.678,0,1,0,7.677-7.752A7.744,7.744,0,0,0,252.4,502.544Z" transform="translate(-236.277 -492.11)" fill="#020203"/>
    <path id="Path_8574" data-name="Path 8574" d="M265.306,509.818h5.165v1.937h-7.252V493.023h2.087v16.795Z" transform="translate(-224.335 -491.954)" fill="#020203"/>
    <path id="Path_8575" data-name="Path 8575" d="M268.472,493.023h2.41l4.768,8.347,4.772-8.347h2.406l-6.137,10.682v8.049h-2.083v-8.049Z" transform="translate(-219.476 -491.954)" fill="#020203"/>
    <path id="Path_8576" data-name="Path 8576" d="M281.383,492.468l6.807,15.724,6.836-15.724,3.8,19.8h-2.139L294.276,499.6h-.046l-6.039,13.439L282.18,499.6h-.052l-2.41,12.671h-2.133Z" transform="translate(-211.045 -492.468)" fill="#020203"/>
    <path id="Path_8577" data-name="Path 8577" d="M293.2,504.177c0,1.392-.046,2.982.824,4.174a4.829,4.829,0,0,0,3.773,1.788,4.968,4.968,0,0,0,3.681-1.663c.993-1.194.918-2.834.918-4.3V493.023h2.087v11.726c0,2.037-.15,3.652-1.638,5.192a6.894,6.894,0,0,1-5.046,2.137,7.016,7.016,0,0,1-4.846-1.914c-1.638-1.565-1.835-3.28-1.835-5.415V493.023h2.083v11.154Z" transform="translate(-198.52 -491.954)" fill="#020203"/>
    <path id="Path_8578" data-name="Path 8578" d="M310.206,496.83a3.443,3.443,0,0,0-3.228-2.039,2.975,2.975,0,0,0-3.109,2.909c0,1.615,1.665,2.36,2.936,2.932l1.242.545c2.433,1.07,4.5,2.287,4.5,5.267a5.913,5.913,0,0,1-11.728.943l2.037-.57a3.852,3.852,0,0,0,3.748,3.477,3.766,3.766,0,0,0,3.852-3.652c0-2.187-1.713-2.932-3.454-3.727l-1.143-.5c-2.185-.993-4.072-2.112-4.072-4.794,0-2.909,2.456-4.77,5.238-4.77a5.377,5.377,0,0,1,4.846,2.907Z" transform="translate(-189.553 -492.11)" fill="#020203"/>
  </g>
  <g id="Group_425" data-name="Group 425" transform="translate(92.283 33.857)">
    <path id="Path_8579" data-name="Path 8579" d="M242.809,511.831c0-.083.038-.121.114-.121h.341v-4.487h-.341c-.077,0-.114-.04-.114-.121s.038-.119.114-.119h.907a.1.1,0,0,1,.117.119c0,.081-.037.121-.117.121h-.337v4.487h.337c.081,0,.117.038.117.121a.1.1,0,0,1-.117.119h-.907C242.847,511.951,242.809,511.91,242.809,511.831Z" transform="translate(-242.809 -506.818)" fill="#020203"/>
    <path id="Path_8580" data-name="Path 8580" d="M247.358,511.924a.112.112,0,0,1-.214.048l-2.2-4.412v4.364c0,.077-.037.114-.115.114a.1.1,0,0,1-.117-.114v-4.861a.1.1,0,0,1,.117-.115.117.117,0,0,1,.112.064l2.187,4.409v-4.359c0-.077.037-.114.115-.114a.1.1,0,0,1,.114.114v4.863Z" transform="translate(-241.048 -506.85)" fill="#020203"/>
    <path id="Path_8581" data-name="Path 8581" d="M250.063,506.983a.105.105,0,0,1,.117.119.107.107,0,0,1-.117.121h-1.155v4.653a.1.1,0,0,1-.117.114.1.1,0,0,1-.117-.114v-4.653h-1.157a.107.107,0,0,1-.116-.121.1.1,0,0,1,.116-.119Z" transform="translate(-238.561 -506.817)" fill="#020203"/>
    <path id="Path_8582" data-name="Path 8582" d="M250.275,512.029a.1.1,0,0,1-.117-.117v-4.842a.1.1,0,0,1,.117-.117H252.5c.079,0,.117.04.117.121a.1.1,0,0,1-.117.119h-2.118v1.992h1.382c.079,0,.115.039.115.119s-.037.119-.115.119h-1.382v2.366H252.5a.1.1,0,0,1,.117.117c0,.081-.039.123-.117.123h-2.229Z" transform="translate(-236.01 -506.846)" fill="#020203"/>
    <path id="Path_8583" data-name="Path 8583" d="M254.319,512.145a1.207,1.207,0,0,1-.683-.216,2.163,2.163,0,0,1-.787-1.074,3.852,3.852,0,0,1,0-2.67,2.107,2.107,0,0,1,.787-1.072,1.2,1.2,0,0,1,.683-.216,1.454,1.454,0,0,1,1.226.785,1.3,1.3,0,0,1,.214.437.115.115,0,0,1-.223.042c-.039-.079-.1-.194-.193-.352a1.215,1.215,0,0,0-1.024-.672.994.994,0,0,0-.554.173,1.992,1.992,0,0,0-.718.988,3.551,3.551,0,0,0-.208,1.217,3.593,3.593,0,0,0,.208,1.228,2,2,0,0,0,.718.988,1.006,1.006,0,0,0,.554.173,1.138,1.138,0,0,0,.918-.524,2.686,2.686,0,0,0,.462-.993,4.27,4.27,0,0,0,.094-.747h-1.068c-.079,0-.115-.04-.115-.119s.037-.119.115-.119h1.19a.1.1,0,0,1,.117.115,3.715,3.715,0,0,1-.239,1.338,2.161,2.161,0,0,1-.785,1.074A1.267,1.267,0,0,1,254.319,512.145Z" transform="translate(-233.742 -506.897)" fill="#020203"/>
    <path id="Path_8584" data-name="Path 8584" d="M257.262,509.745c.745,1.423,1.12,2.143,1.12,2.16a.1.1,0,0,1-.114.114.1.1,0,0,1-.1-.056l-1.151-2.175c-.048.006-.412.01-1.092.01V511.9a.1.1,0,0,1-.112.114.1.1,0,0,1-.116-.114v-4.819a.1.1,0,0,1,.116-.117h1.063a1.391,1.391,0,0,1,1.011.414,1.344,1.344,0,0,1,.422,1,1.382,1.382,0,0,1-.295.861A1.362,1.362,0,0,1,257.262,509.745Zm-.383-.181a1.155,1.155,0,0,0,.847-.345,1.162,1.162,0,0,0,0-1.663,1.156,1.156,0,0,0-.847-.346h-.951v2.354Z" transform="translate(-230.882 -506.83)" fill="#020203"/>
    <path id="Path_8585" data-name="Path 8585" d="M258.448,512.1a.1.1,0,0,1-.116-.117q0-.017,1.629-4.99c.013-.052.056-.075.117-.075a.1.1,0,0,1,.112.075q1.629,4.964,1.627,4.984c0,.083-.037.123-.116.123a.121.121,0,0,1-.117-.091l-.608-1.9h-1.792l-.628,1.9C258.536,512.07,258.5,512.1,258.448,512.1Zm1.631-4.717-.816,2.485H260.9Z" transform="translate(-228.448 -506.877)" fill="#020203"/>
    <path id="Path_8586" data-name="Path 8586" d="M263.7,506.983c.081,0,.117.038.117.119s-.036.121-.117.121h-1.155v4.653a.115.115,0,0,1-.229,0v-4.653h-1.157c-.079,0-.116-.042-.116-.121s.037-.119.116-.119Z" transform="translate(-225.942 -506.817)" fill="#020203"/>
    <path id="Path_8587" data-name="Path 8587" d="M263.911,512.029a.1.1,0,0,1-.116-.117v-4.842a.1.1,0,0,1,.116-.117h2.233c.077,0,.114.04.114.121s-.037.119-.114.119h-2.116v1.992h1.38c.075,0,.114.039.114.119s-.038.119-.114.119h-1.38v2.366h2.116c.077,0,.114.038.114.117s-.037.123-.114.123h-2.233Z" transform="translate(-223.393 -506.846)" fill="#020203"/>
    <path id="Path_8588" data-name="Path 8588" d="M266.5,512.052a.1.1,0,0,1-.114-.114v-4.863c0-.081.037-.123.121-.123h1.19a1.23,1.23,0,0,1,.961.516,2.649,2.649,0,0,1,.514,1.018,3.984,3.984,0,0,1,.131,1.022,4.033,4.033,0,0,1-.131,1.018,2.671,2.671,0,0,1-.514,1.02,1.236,1.236,0,0,1-.961.5h-1.2Zm2.568-2.543a3.675,3.675,0,0,0-.121-.951,2.449,2.449,0,0,0-.422-.893,1.041,1.041,0,0,0-.828-.472h-1.082v4.62H267.7a1.05,1.05,0,0,0,.828-.464,2.435,2.435,0,0,0,.422-.893A3.745,3.745,0,0,0,269.072,509.509Z" transform="translate(-220.994 -506.846)" fill="#020203"/>
  </g>
  <g id="Group_426" data-name="Group 426" transform="translate(148.708 33.863)">
    <path id="Path_8589" data-name="Path 8589" d="M273.832,512.148a1.225,1.225,0,0,1-.687-.214,2.108,2.108,0,0,1-.785-1.074,3.824,3.824,0,0,1,0-2.67,2.167,2.167,0,0,1,.785-1.074,1.243,1.243,0,0,1,.687-.216,1.449,1.449,0,0,1,1.222.787,1.2,1.2,0,0,1,.214.437.1.1,0,0,1-.116.115.114.114,0,0,1-.108-.073c-.343-.683-.745-1.026-1.213-1.026a.956.956,0,0,0-.553.181,1.929,1.929,0,0,0-.72.982,3.693,3.693,0,0,0,0,2.443,1.967,1.967,0,0,0,.72.989,1,1,0,0,0,.553.173c.468,0,.87-.341,1.213-1.026a.117.117,0,0,1,.108-.073.1.1,0,0,1,.116.117,1.218,1.218,0,0,1-.214.437A1.453,1.453,0,0,1,273.832,512.148Z" transform="translate(-272.119 -506.9)" fill="#020203"/>
    <path id="Path_8590" data-name="Path 8590" d="M276.759,506.9a1.265,1.265,0,0,1,.683.216,2.127,2.127,0,0,1,.785,1.074,3.824,3.824,0,0,1,0,2.67,2.17,2.17,0,0,1-.785,1.074,1.253,1.253,0,0,1-.683.216,1.219,1.219,0,0,1-.687-.216,2.13,2.13,0,0,1-.782-1.074,3.795,3.795,0,0,1,0-2.67,2.081,2.081,0,0,1,.782-1.074A1.238,1.238,0,0,1,276.759,506.9Zm0,5.011a.971.971,0,0,0,.552-.183,1.911,1.911,0,0,0,.712-.98,3.573,3.573,0,0,0,0-2.445,1.918,1.918,0,0,0-.712-.988.965.965,0,0,0-1.109,0,1.924,1.924,0,0,0-.716.988,3.731,3.731,0,0,0,0,2.445,1.909,1.909,0,0,0,.716.98A.974.974,0,0,0,276.759,511.915Z" transform="translate(-269.409 -506.896)" fill="#020203"/>
    <path id="Path_8591" data-name="Path 8591" d="M278.254,512.044a.1.1,0,0,1-.116-.114v-4.853a.105.105,0,0,1,.116-.117c.064,0,.1.037.133.108l1.638,4.453,1.654-4.486a.111.111,0,0,1,.115-.075c.075,0,.112.04.112.117v4.853a.1.1,0,0,1-.112.114.1.1,0,0,1-.115-.114v-4.216l-1.53,4.164c0,.083-.039.125-.114.125a.1.1,0,0,1-.108-.083l-1.553-4.224v4.233A.106.106,0,0,1,278.254,512.044Z" transform="translate(-266.551 -506.845)" fill="#020203"/>
    <path id="Path_8592" data-name="Path 8592" d="M281.547,512.044a.1.1,0,0,1-.117-.114v-4.853a.106.106,0,0,1,.117-.117.138.138,0,0,1,.131.108l1.638,4.453,1.654-4.486a.111.111,0,0,1,.117-.075c.073,0,.11.04.11.117v4.853a.1.1,0,0,1-.11.114c-.081,0-.117-.039-.117-.114v-4.216l-1.532,4.164c0,.083-.037.125-.112.125a.1.1,0,0,1-.106-.083l-1.555-4.224v4.233A.1.1,0,0,1,281.547,512.044Z" transform="translate(-263.505 -506.845)" fill="#020203"/>
    <path id="Path_8593" data-name="Path 8593" d="M287.643,506.939a.1.1,0,0,1,.114.117V510.7a1.31,1.31,0,0,1-.418,1.039,1.574,1.574,0,0,1-1.1.372,1.6,1.6,0,0,1-1.1-.375,1.319,1.319,0,0,1-.426-1.034v-3.648a.1.1,0,0,1,.117-.115.1.1,0,0,1,.117.115v3.64a1.1,1.1,0,0,0,.368.88,1.351,1.351,0,0,0,.918.3,1.366,1.366,0,0,0,.932-.306,1.087,1.087,0,0,0,.35-.872v-3.64A.106.106,0,0,1,287.643,506.939Z" transform="translate(-260.459 -506.864)" fill="#020203"/>
    <path id="Path_8594" data-name="Path 8594" d="M290.28,511.925a.113.113,0,0,1-.216.048l-2.2-4.412v4.364a.1.1,0,0,1-.116.114c-.081,0-.119-.039-.119-.114v-4.861a.107.107,0,0,1,.119-.117.116.116,0,0,1,.112.065l2.187,4.409v-4.358a.1.1,0,0,1,.116-.116c.075,0,.112.039.112.116v4.863Z" transform="translate(-257.767 -506.856)" fill="#020203"/>
    <path id="Path_8595" data-name="Path 8595" d="M290.32,511.828a.107.107,0,0,1,.119-.119h.341v-4.487h-.341a.119.119,0,0,1,0-.239h.907c.081,0,.117.038.117.119a.1.1,0,0,1-.117.119h-.337v4.487h.337a.1.1,0,0,1,.117.119c0,.081-.037.121-.117.121h-.907A.108.108,0,0,1,290.32,511.828Z" transform="translate(-255.281 -506.823)" fill="#020203"/>
    <path id="Path_8596" data-name="Path 8596" d="M293.918,512.148a1.221,1.221,0,0,1-.687-.214,2.092,2.092,0,0,1-.782-1.074,3.767,3.767,0,0,1,0-2.67,2.15,2.15,0,0,1,.782-1.074,1.243,1.243,0,0,1,.687-.216,1.444,1.444,0,0,1,1.221.787,1.206,1.206,0,0,1,.218.437.1.1,0,0,1-.117.115.116.116,0,0,1-.108-.073c-.341-.683-.743-1.026-1.213-1.026a.976.976,0,0,0-.556.181,1.98,1.98,0,0,0-.718.982,3.757,3.757,0,0,0,0,2.443,2.021,2.021,0,0,0,.718.989,1.03,1.03,0,0,0,.556.173c.47,0,.872-.341,1.213-1.026a.119.119,0,0,1,.108-.073.1.1,0,0,1,.117.117,1.221,1.221,0,0,1-.218.437A1.445,1.445,0,0,1,293.918,512.148Z" transform="translate(-253.537 -506.9)" fill="#020203"/>
    <path id="Path_8597" data-name="Path 8597" d="M295.1,512.1c-.075,0-.112-.039-.112-.115q0-.015,1.625-4.992a.131.131,0,0,1,.233,0q1.632,4.97,1.629,4.984c0,.083-.042.123-.116.123a.122.122,0,0,1-.119-.089l-.612-1.9h-1.788l-.633,1.9A.1.1,0,0,1,295.1,512.1Zm1.629-4.717-.809,2.485h1.631Z" transform="translate(-250.965 -506.882)" fill="#020203"/>
    <path id="Path_8598" data-name="Path 8598" d="M300.354,506.983a.119.119,0,0,1,0,.239H299.2v4.653a.1.1,0,0,1-.117.116.1.1,0,0,1-.117-.116v-4.653h-1.155c-.075,0-.114-.04-.114-.119s.038-.119.114-.119Z" transform="translate(-248.459 -506.823)" fill="#020203"/>
    <path id="Path_8599" data-name="Path 8599" d="M300.427,511.828c0-.081.037-.119.116-.119h.339v-4.487h-.339c-.079,0-.116-.04-.116-.119s.037-.119.116-.119h.911a.119.119,0,0,1,0,.239h-.339v4.487h.339a.12.12,0,0,1,0,.241h-.911C300.464,511.95,300.427,511.909,300.427,511.828Z" transform="translate(-245.931 -506.823)" fill="#020203"/>
    <path id="Path_8600" data-name="Path 8600" d="M304.025,506.9a1.265,1.265,0,0,1,.683.216,2.138,2.138,0,0,1,.785,1.074,3.853,3.853,0,0,1,0,2.67,2.181,2.181,0,0,1-.785,1.074,1.253,1.253,0,0,1-.683.216,1.234,1.234,0,0,1-.689-.216,2.181,2.181,0,0,1-.785-1.074,3.853,3.853,0,0,1,0-2.67,2.13,2.13,0,0,1,.785-1.074A1.249,1.249,0,0,1,304.025,506.9Zm0,5.011a.961.961,0,0,0,.551-.183,1.925,1.925,0,0,0,.714-.98,3.573,3.573,0,0,0,0-2.445,1.921,1.921,0,0,0-.714-.988.962.962,0,0,0-1.107,0,1.924,1.924,0,0,0-.716.988,3.635,3.635,0,0,0,0,2.445,1.91,1.91,0,0,0,.716.98A.965.965,0,0,0,304.025,511.915Z" transform="translate(-244.187 -506.896)" fill="#020203"/>
    <path id="Path_8601" data-name="Path 8601" d="M308.049,511.925a.114.114,0,0,1-.218.048l-2.195-4.412v4.364a.1.1,0,0,1-.117.114.1.1,0,0,1-.117-.114v-4.861a.106.106,0,0,1,.117-.117.114.114,0,0,1,.112.065l2.187,4.409v-4.358c0-.077.037-.116.112-.116a.1.1,0,0,1,.117.116v4.863Z" transform="translate(-241.328 -506.856)" fill="#020203"/>
  </g>
  <path id="Path_8602" data-name="Path 8602" d="M265.846,495.444a24.51,24.51,0,0,0-40.728,18.371h-.01a9.7,9.7,0,0,1-15.4,7.856L199.183,532.2a24.508,24.508,0,0,0,40.73-18.368h0a9.7,9.7,0,0,1,15.4-7.86Z" transform="translate(-190.886 -489.309)" fill="#020203"/>
  <path id="Path_8603" data-name="Path 8603" d="M226.93,507.712a27.328,27.328,0,0,1,7.387-13.314,24.5,24.5,0,0,0-33.187,35.776l10.509-10.507a9.706,9.706,0,0,1,15.291-11.955Z" transform="translate(-194.873 -489.31)" fill="#020203"/>
  <path id="Path_8604" data-name="Path 8604" d="M250.827,493.548l-10.509,10.511A9.705,9.705,0,0,1,225.02,516a27.3,27.3,0,0,1-7.4,13.32,24.508,24.508,0,0,0,33.2-35.775Z" transform="translate(-173.827 -485.389)" fill="#020203"/>
</svg>
