<svg id="Group_417" data-name="Group 417" xmlns="http://www.w3.org/2000/svg" width="181.006" height="66.759" viewBox="0 0 181.006 66.759">
  <path id="Path_8514" data-name="Path 8514" d="M235.676,181.9H213.239a11.629,11.629,0,0,0,1.067,3.958,7.684,7.684,0,0,0,1.86,2.443,6.064,6.064,0,0,0,2.374,1.24,9.992,9.992,0,0,0,2.547.343,7.662,7.662,0,0,0,4.611-1.136,7,7,0,0,0,2.272-2.924l7.433,3.028a12.281,12.281,0,0,1-5.265,6.332,18.073,18.073,0,0,1-9.395,2.2,19.272,19.272,0,0,1-7.123-1.238,14.074,14.074,0,0,1-5.3-3.613,15.98,15.98,0,0,1-3.3-5.712,23.576,23.576,0,0,1-1.136-7.606,21.4,21.4,0,0,1,1.067-6.882,15.276,15.276,0,0,1,3.167-5.471,14.952,14.952,0,0,1,5.2-3.648,17.848,17.848,0,0,1,7.158-1.342,15.8,15.8,0,0,1,6.4,1.238,13.913,13.913,0,0,1,4.786,3.407,14.875,14.875,0,0,1,2.994,5.129,19.318,19.318,0,0,1,1.032,6.4Zm-8.328-6.056a7.207,7.207,0,0,0-1.927-4.782,6.15,6.15,0,0,0-4.68-1.894,6.819,6.819,0,0,0-4.99,1.79,8.774,8.774,0,0,0-2.374,4.886Zm43.5,20.992h-9.36V175.914a7.922,7.922,0,0,0-1.205-4.817,4.491,4.491,0,0,0-3.818-1.584,8.552,8.552,0,0,0-3.477.655,11.742,11.742,0,0,0-2.855,1.823v24.846h-9.293V162.425h8.948v2.547a16.033,16.033,0,0,1,9.085-3.1,11.327,11.327,0,0,1,4.507.963,8.632,8.632,0,0,1,3.819,3.442,15.26,15.26,0,0,1,4.784-3.2,16.319,16.319,0,0,1,6.5-1.2,18.617,18.617,0,0,1,4.578.585,10.7,10.7,0,0,1,4.164,2.1,11.31,11.31,0,0,1,3.063,4.164,16.492,16.492,0,0,1,1.2,6.778v21.336H282.2V175.914a8.157,8.157,0,0,0-1.136-4.749,4.3,4.3,0,0,0-3.75-1.582,6.153,6.153,0,0,0-4.749,1.858,6.622,6.622,0,0,0-1.721,4.68Zm26.5-34.412h8.74V164.9a14.367,14.367,0,0,1,4.129-2.168,16.557,16.557,0,0,1,4.955-.655,13.955,13.955,0,0,1,5.679,1.136,12.029,12.029,0,0,1,4.4,3.3,15.349,15.349,0,0,1,2.82,5.335,23.749,23.749,0,0,1,1,7.158,21.353,21.353,0,0,1-1.136,7.054,16.416,16.416,0,0,1-3.3,5.679,15.085,15.085,0,0,1-5.4,3.785,18.627,18.627,0,0,1-7.362,1.376c-.874,0-1.746-.025-2.616-.069s-1.744-.114-2.616-.206v10.875h-9.291Zm9.291,26.979a21.959,21.959,0,0,0,2.445.139h2.788a6.637,6.637,0,0,0,5.883-2.892q1.961-2.891,1.962-8.053,0-4.542-1.686-6.676t-5.335-2.133a11.269,11.269,0,0,0-3.269.449,8.436,8.436,0,0,0-2.788,1.478Zm29.389-19.409H331.2v-7.57h14.179v34.412h-9.36Zm8.877-23.331a29.449,29.449,0,0,1-.275,4.266,13.73,13.73,0,0,1-1,3.511,15.818,15.818,0,0,1-1.892,3.2q-1.172,1.551-2.892,3.407l-3.165-3.167a16.945,16.945,0,0,0,2.443-3.13,11.1,11.1,0,0,0,1.205-2.857H333.75V140.746H344.9Zm7.641.62h9.36V175.57h3.646l8.742-13.145h9.978l-10.8,15.692,11.424,18.72H374.562L365.753,183H361.9v13.834h-9.36Z" transform="translate(-203.879 -140.746)" fill="#020203"/>
</svg>
