<svg id="Group_438" data-name="Group 438" xmlns="http://www.w3.org/2000/svg" width="215.681" height="53.923" viewBox="0 0 215.681 53.923">
  <path id="Path_8790" data-name="Path 8790" d="M33.259,238.661H45.537q4.485,0,6.778,2.3a6.006,6.006,0,0,1,1.779,4.416v.075a6.351,6.351,0,0,1-.277,1.966,6.083,6.083,0,0,1-.737,1.538,5.853,5.853,0,0,1-1.068,1.209,7.131,7.131,0,0,1-1.309.889,8.78,8.78,0,0,1,3.546,2.32,5.939,5.939,0,0,1,1.294,4.064v.073a6.748,6.748,0,0,1-.685,3.117,6.059,6.059,0,0,1-1.964,2.225,9.176,9.176,0,0,1-3.074,1.338,16.581,16.581,0,0,1-3.983.447H33.259V238.661Zm11.077,10.5a5.961,5.961,0,0,0,3.005-.649,2.242,2.242,0,0,0,1.113-2.095v-.077a2.279,2.279,0,0,0-.966-1.983,4.737,4.737,0,0,0-2.782-.687H39.065v5.49Zm1.521,10.465a5.5,5.5,0,0,0,2.967-.685,2.354,2.354,0,0,0,1.078-2.135v-.073a2.452,2.452,0,0,0-1-2.06,5.385,5.385,0,0,0-3.228-.76H39.065v5.714Z" transform="translate(-17.011 -224.688)" fill="#020203"/>
  <path id="Path_8791" data-name="Path 8791" d="M54.893,238.661h5.782v4.559H54.893v-4.559Z" transform="translate(3.003 -224.689)" fill="#020203"/>
  <path id="Path_8792" data-name="Path 8792" d="M54.893,242.073h5.782v19.408H54.893V242.073Z" transform="translate(3.003 -221.532)" fill="#020203"/>
  <path id="Path_8793" data-name="Path 8793" d="M59.962,238.647h5.782v26H59.962v-26Z" transform="translate(7.693 -224.702)" fill="#020203"/>
  <path id="Path_8794" data-name="Path 8794" d="M65.031,238.647h5.783v26H65.031v-26Z" transform="translate(12.382 -224.702)" fill="#020203"/>
  <path id="Path_8795" data-name="Path 8795" d="M99.778,249.405v12.369H94V250.691c0-2.707-.993-4.172-3.406-4.172-2.279,0-3.739,1.315-3.739,4.174v11.081H81.072V242.365H86.53v2.478h.435a6.429,6.429,0,0,1,5.931-3.086c4.522,0,6.882,2.942,6.882,7.648" transform="translate(27.222 -221.824)" fill="#020203"/>
  <path id="Path_8796" data-name="Path 8796" d="M111.334,249.405v12.369h-5.783V250.691c0-2.707-.993-4.172-3.406-4.172-2.277,0-3.739,1.315-3.739,4.174v11.081H92.626V242.365h5.458v2.478h.435a6.429,6.429,0,0,1,5.931-3.086c4.522,0,6.884,2.942,6.884,7.648" transform="translate(37.911 -221.824)" fill="#020203"/>
  <path id="Path_8797" data-name="Path 8797" d="M104.18,238.661h5.782v4.3H104.18v-4.3Z" transform="translate(48.6 -224.689)" fill="#020203"/>
  <path id="Path_8798" data-name="Path 8798" d="M104.18,242.073h5.782v19.408H104.18V242.073Z" transform="translate(48.6 -221.532)" fill="#020203"/>
  <path id="Path_8799" data-name="Path 8799" d="M127.725,242.073v19.409h-5.41v-2.859h-.4c-1.207,2.414-3.205,3.467-6.1,3.467-4.453,0-6.794-2.959-6.794-7.648V242.075H114.8v11.081c0,2.865,1.174,4.174,3.533,4.174,2.308,0,3.613-1.573,3.613-4.079V242.075h5.779Z" transform="translate(53.076 -221.532)" fill="#020203"/>
  <path id="Path_8800" data-name="Path 8800" d="M151.919,249.423v12.352h-5.781V250.663c0-1.731-.5-4.143-3.311-4.143-2.331,0-3.69,1.234-3.69,4.166v11.089h-5.781V250.663c0-2.8-1.072-4.143-3.332-4.143s-3.669,1.136-3.669,4.062v11.193H120.57V242.365h5.458v2.478h.433a6.211,6.211,0,0,1,5.695-3.086c2.957,0,5.053,1.174,6.039,3.086h1.024a6.389,6.389,0,0,1,5.9-3.086c4.43,0,6.8,3.04,6.8,7.666" transform="translate(63.762 -221.824)" fill="#020203"/>
  <path id="Path_8801" data-name="Path 8801" d="M24.819,231.4v53.923H78.738V231.4Zm48.026,48.028H30.712V237.3H72.845Z" transform="translate(-24.819 -231.403)" fill="#020203"/>
  <path id="Path_8802" data-name="Path 8802" d="M89.337,255.853c-.71,4.01-4.31,6.53-9.5,6.53-6.237,0-10.413-3.7-10.413-10.271v-.123c0-6.465,4.127-10.232,10.109-10.232s9.662,3.662,9.662,9.943c0,.645-.031,1.294-.09,2.066H75.351a4.144,4.144,0,0,0,4.52,3.916c1.735,0,2.938-.566,3.536-1.829Zm-13.919-5.91h8.126a3.781,3.781,0,0,0-4-3.471,4.047,4.047,0,0,0-4.122,3.471" transform="translate(16.446 -221.824)" fill="#020203"/>
</svg>
