<svg id="Group_749" data-name="Group 749" xmlns="http://www.w3.org/2000/svg" xmlns:xlink="http://www.w3.org/1999/xlink" width="177.772" height="49.025" viewBox="0 0 177.772 49.025">
  <defs>
    <clipPath id="clip-path">
      <rect id="Rectangle_400" data-name="Rectangle 400" width="177.772" height="49.025" fill="none"/>
    </clipPath>
  </defs>
  <g id="Group_748" data-name="Group 748" transform="translate(0 0)" clip-path="url(#clip-path)">
    <path id="Path_9317" data-name="Path 9317" d="M22.612,9.688A16.806,16.806,0,0,0,14.131,7.87q-6.617,0-10.374,4.064T0,22.563A16.469,16.469,0,0,0,1.871,30.6a12.133,12.133,0,0,0,4.721,4.986,16.314,16.314,0,0,0,7.818,1.569q5.719,0,8.781-1.844a14.552,14.552,0,0,0,5.228-6.091l-9.473-.984a6.756,6.756,0,0,1-1.671,1.785,4.976,4.976,0,0,1-2.685.8A4.352,4.352,0,0,1,10.966,29a7.429,7.429,0,0,1-1.247-3.843H28.972V23.944a21.239,21.239,0,0,0-1.625-8.986,11.717,11.717,0,0,0-4.735-5.27m-12.87,10.3a7.788,7.788,0,0,1,1.115-3.718,4.256,4.256,0,0,1,3.676-2,4.162,4.162,0,0,1,3.213,1.327,7.473,7.473,0,0,1,1.506,4.394Z" transform="translate(0 4.618)"/>
    <path id="Path_9318" data-name="Path 9318" d="M43.5,18.924v-.211a9.169,9.169,0,0,0,3.846-3.4,9.327,9.327,0,0,0,1.361-5.039A9.368,9.368,0,0,0,47.713,5.9a7.348,7.348,0,0,0-3.032-3.054,12.128,12.128,0,0,0-3.97-1.4,44.565,44.565,0,0,0-6.317-.317H20.536V40.492h15.6a23.317,23.317,0,0,0,6.418-.741A12.941,12.941,0,0,0,47.2,37.266a10.3,10.3,0,0,0,2.867-3.726,11.964,11.964,0,0,0,1.044-5.1A9.437,9.437,0,0,0,49.056,22.1,9.814,9.814,0,0,0,43.5,18.924M29.763,8.321h.863q2.711,0,4.211.04a6.971,6.971,0,0,1,2.505.465,2.859,2.859,0,0,1,1.572,1.46,4.754,4.754,0,0,1,.444,1.964,6.071,6.071,0,0,1-.386,2.245,3.1,3.1,0,0,1-1.631,1.58,6.124,6.124,0,0,1-2.423.532q-1.535.081-3.718.079H29.763ZM40.976,30.815a3.876,3.876,0,0,1-1.961,1.764,7.364,7.364,0,0,1-3.069.689q-1.664.026-5.517.027h-.666V23.452h2q2.044,0,3.924.027a10.473,10.473,0,0,1,2.95.371,3.945,3.945,0,0,1,2.223,1.525,5.394,5.394,0,0,1,.654,2.905,5.727,5.727,0,0,1-.535,2.534" transform="translate(12.049 0.659)"/>
    <rect id="Rectangle_396" data-name="Rectangle 396" width="9.165" height="7.197" transform="translate(65.64)"/>
    <rect id="Rectangle_397" data-name="Rectangle 397" width="8.673" height="29.71" transform="translate(65.886 11.442)"/>
    <rect id="Rectangle_398" data-name="Rectangle 398" width="8.673" height="41.152" transform="translate(79.014)"/>
    <path id="Path_9319" data-name="Path 9319" d="M72.159,6.629q-7.136,0-11.231,4.3t-4.1,11.655q0,7.435,4.325,11.458t12.451,4.021a26.335,26.335,0,0,0,5.744-.581,30,30,0,0,0,5.53-1.876V27.974h-.965a16.153,16.153,0,0,1-4.079,2.35A13.5,13.5,0,0,1,74.5,31.418q-4.344,0-6.575-1.868a7.182,7.182,0,0,1-2.425-5.39H85.373V20.829q0-6.874-3.316-10.536t-9.9-3.664M65.48,18.563a6.326,6.326,0,0,1,1.8-4.548,5.984,5.984,0,0,1,4.11-1.419,4.924,4.924,0,0,1,3.964,1.5A7.035,7.035,0,0,1,76.7,18.563Z" transform="translate(33.344 3.889)"/>
    <path id="Path_9320" data-name="Path 9320" d="M86.683,1.861H78.009V10.35H74.44v6.458h3.569V30.679q0,5.443,2.45,7.689t7.475,2.245a27.022,27.022,0,0,0,3.8-.225,21.878,21.878,0,0,0,2.942-.622V33.232h-.712a6.7,6.7,0,0,1-1.506.6,6.373,6.373,0,0,1-1.744.325,4.572,4.572,0,0,1-2.458-.541,2.849,2.849,0,0,1-1.173-1.468,6.048,6.048,0,0,1-.381-2.088q-.024-1.164-.022-2.724V16.808h8V10.35h-8Z" transform="translate(43.676 1.092)"/>
    <path id="Path_9321" data-name="Path 9321" d="M92.058,20.491a4.374,4.374,0,0,0-4.446,4.575,4.3,4.3,0,0,0,4.3,4.575h.075a4.331,4.331,0,0,0,4.444-4.575,4.275,4.275,0,0,0-4.37-4.575" transform="translate(51.404 12.023)"/>
    <path id="Path_9322" data-name="Path 9322" d="M106.232,12.1a7.478,7.478,0,0,0-3.445.762,14.268,14.268,0,0,0-2.928,2.02V12.65H93.586V41.928H99.86V33a12.79,12.79,0,0,0,2.366,1.1,8.918,8.918,0,0,0,2.815.39,7.643,7.643,0,0,0,3.369-.762,8.53,8.53,0,0,0,2.816-2.247,10.885,10.885,0,0,0,1.925-3.58,14.987,14.987,0,0,0,.735-4.817q0-5.122-2.014-8.053a6.451,6.451,0,0,0-5.639-2.932m-.008,15.889a4.3,4.3,0,0,1-3.654,1.579,13.343,13.343,0,0,1-1.39-.075,4.543,4.543,0,0,1-1.32-.341V18.459a7.25,7.25,0,0,1,1.768-.843,5.954,5.954,0,0,1,1.8-.292,3.419,3.419,0,0,1,3.035,1.4,8.142,8.142,0,0,1,.962,4.5,7.81,7.81,0,0,1-1.2,4.759" transform="translate(54.91 7.097)"/>
    <rect id="Rectangle_399" data-name="Rectangle 399" width="6.274" height="29.648" transform="translate(171.497 11.504)"/>
  </g>
</svg>
