<svg id="Group_435" data-name="Group 435" xmlns="http://www.w3.org/2000/svg" width="205.301" height="41.082" viewBox="0 0 205.301 41.082">
  <path id="Path_8775" data-name="Path 8775" d="M733.359,531.418a27.534,27.534,0,0,1-5.939.632,20.225,20.225,0,0,1-8.166-1.594,18.581,18.581,0,0,1-6.214-4.318,18.987,18.987,0,0,1-3.933-6.351,21.559,21.559,0,0,1-1.375-7.7A22.059,22.059,0,0,1,709.189,504a19.436,19.436,0,0,1,4.1-6.49,19.207,19.207,0,0,1,6.353-4.345,20.483,20.483,0,0,1,8.166-1.594,24.733,24.733,0,0,1,10.449,2.033v9.185a15.441,15.441,0,0,0-4.62-2.53,16.281,16.281,0,0,0-5.554-.99,12.149,12.149,0,0,0-4.591.857,10.667,10.667,0,0,0-3.685,2.458,11.11,11.11,0,0,0-2.449,3.975,15.342,15.342,0,0,0-.88,5.36,14.9,14.9,0,0,0,.743,4.722,11.479,11.479,0,0,0,2.227,3.95,10.763,10.763,0,0,0,3.712,2.734,12.347,12.347,0,0,0,5.2,1.022,15.791,15.791,0,0,0,5.72-.939,15.512,15.512,0,0,0,4.179-2.36v8.688A20.368,20.368,0,0,1,733.359,531.418Z" transform="translate(-707.732 -491.189)" fill="#010203"/>
  <path id="Path_8776" data-name="Path 8776" d="M739.675,491.916h9.019l16.057,38.993h-9.4l-2.915-7.864H736.264l-2.859,7.864H724.33Zm10.063,23.76-3.3-8.856q-.549-1.484-1.126-3.244t-1.072-3.521q-.5,1.816-1.045,3.548t-1.1,3.273l-3.188,8.8Z" transform="translate(-692.377 -490.873)" fill="#010203"/>
  <path id="Path_8777" data-name="Path 8777" d="M747.7,491.916h12.045a25.543,25.543,0,0,1,6.461.77,10.6,10.6,0,0,1,4.923,2.751,10.182,10.182,0,0,1,2.42,3.629,12.617,12.617,0,0,1,.716,4.4,11.54,11.54,0,0,1-.689,4.014,10.833,10.833,0,0,1-1.9,3.3,10.469,10.469,0,0,1-6.49,3.575l11.218,16.554H766.4l-10.284-16.444v16.444H747.7Zm11.439,17.049a11.284,11.284,0,0,0,3.163-.356,4.57,4.57,0,0,0,1.952-1.128,4.987,4.987,0,0,0,1.43-3.685,8.409,8.409,0,0,0-.165-1.348,4.107,4.107,0,0,0-.934-1.842A4.605,4.605,0,0,0,762,499.039a15.074,15.074,0,0,0-3.024-.3h-2.861v10.228Z" transform="translate(-670.758 -490.873)" fill="#010203"/>
  <path id="Path_8778" data-name="Path 8778" d="M769.4,520.852q.716.771,1.519,1.567a11.724,11.724,0,0,0,1.74,1.43,10,10,0,0,0,2.016,1.045,6.39,6.39,0,0,0,2.293.412,4.989,4.989,0,0,0,3.508-1.294,4.375,4.375,0,0,0,1.409-3.38,3.592,3.592,0,0,0-1.192-2.751,14.644,14.644,0,0,0-2.963-2.062q-1.773-.961-3.848-1.925a19.161,19.161,0,0,1-3.848-2.364,12.16,12.16,0,0,1-2.963-3.438,9.982,9.982,0,0,1-1.192-5.115,10.83,10.83,0,0,1,1.018-4.757,11.522,11.522,0,0,1,2.749-3.658,12.232,12.232,0,0,1,4.043-2.364,14.267,14.267,0,0,1,4.84-.824,14.633,14.633,0,0,1,6.434,1.428,14.406,14.406,0,0,1,4.9,3.741l-5.059,5.61a8.575,8.575,0,0,0-2.682-2.751,6.108,6.108,0,0,0-3.29-.99,4.234,4.234,0,0,0-3.207,1.211,4.125,4.125,0,0,0-1.161,2.969,3.378,3.378,0,0,0,1.178,2.641,14.1,14.1,0,0,0,2.959,1.952q1.782.907,3.864,1.815a18.2,18.2,0,0,1,3.866,2.281,11.734,11.734,0,0,1,2.959,3.382,9.831,9.831,0,0,1,1.178,5.032,12.531,12.531,0,0,1-1.1,5.334,11.916,11.916,0,0,1-3,4.016,13.341,13.341,0,0,1-4.428,2.528,16.1,16.1,0,0,1-5.334.882A16.519,16.519,0,0,1,769.427,531a17.554,17.554,0,0,1-5.417-4.043Z" transform="translate(-655.668 -491.374)" fill="#010203"/>
  <path id="Path_8779" data-name="Path 8779" d="M781.408,491.916H803.46v7.7H789.986v7.645h13.2v7.7h-13.2v8.249H803.46v7.7H781.408Z" transform="translate(-639.573 -490.873)" fill="#010203"/>
  <path id="Path_8780" data-name="Path 8780" d="M797.862,491.916h11.054a27.639,27.639,0,0,1,8.746,1.265,15.92,15.92,0,0,1,6.324,3.794,19.77,19.77,0,0,1,4.235,6.106,19.383,19.383,0,0,1,1.43,7.754,20.288,20.288,0,0,1-1.623,8.524,20.941,20.941,0,0,1-4.208,6.1,16.8,16.8,0,0,1-6.848,4.206,27.981,27.981,0,0,1-8.551,1.238H797.862Zm10.725,32.173a15.688,15.688,0,0,0,4.894-.687,9.514,9.514,0,0,0,3.685-2.233,12.9,12.9,0,0,0,2.476-3.775,14.955,14.955,0,0,0,1.1-6.2,15.261,15.261,0,0,0-.909-5.429,10.813,10.813,0,0,0-2.393-3.885,9.278,9.278,0,0,0-4.289-2.535,20.076,20.076,0,0,0-5.005-.606h-1.923v25.352Z" transform="translate(-624.351 -490.873)" fill="#010203"/>
</svg>
