<svg xmlns="http://www.w3.org/2000/svg" xmlns:xlink="http://www.w3.org/1999/xlink" width="215.684" height="60.547" viewBox="0 0 215.684 60.547">
  <defs>
    <clipPath id="clip-path">
      <rect id="Rectangle_395" data-name="Rectangle 395" width="215.684" height="60.547" fill="none"/>
    </clipPath>
  </defs>
  <g id="Group_747" data-name="Group 747" transform="translate(0 0)">
    <g id="Group_746" data-name="Group 746" transform="translate(0 0)" clip-path="url(#clip-path)">
      <path id="Path_9299" data-name="Path 9299" d="M32.837,25.8v5.269H29.107V26.711c0-2.087-.533-2.62-2.886-2.62h-12.8v6.979H9.661V10.386H25.108c4.828,0,8,1.8,8,6.272a5.317,5.317,0,0,1-3.388,5.411A3.447,3.447,0,0,1,32.837,25.8M13.425,13.711V20.8H24.136c2.148,0,4.938,0,4.938-3.56s-2.789-3.529-4.938-3.529Z" transform="translate(8.937 9.609)" fill="#020203"/>
      <path id="Path_9300" data-name="Path 9300" d="M62.982,17.8c0,4.609-3.136,7.385-7.966,7.385H42.786v5.881H39.1V10.386h16c4.69,0,7.887,2.774,7.887,7.417m-9.408,4.029c2.118,0,5.41,0,5.41-4.029s-3.292-4.062-5.41-4.062H42.786v8.091Z" transform="translate(36.171 9.609)" fill="#020203"/>
      <path id="Path_9301" data-name="Path 9301" d="M53.387,21.09c0-6.272,4.973-9.173,12.092-9.173S77.538,14.88,77.538,21.09s-4.971,9.142-12.059,9.142S53.387,27.268,53.387,21.09m20.183,0c0-4-2.822-5.943-8.091-5.943S57.37,17.092,57.37,21.09,60.194,27,65.479,27s8.091-1.96,8.091-5.912" transform="translate(49.389 11.025)" fill="#020203"/>
      <path id="Path_9302" data-name="Path 9302" d="M102.643,12.219h3.937L98.848,29.373h-5.6L86.662,15.732,80.046,29.373H74.463L66.8,12.219h3.9l6.649,14.646,6.963-14.646h4.7l7.042,14.646Z" transform="translate(61.793 11.304)" fill="#020203"/>
      <path id="Path_9303" data-name="Path 9303" d="M107.753,23.968h3.983c-1.067,3.937-5.192,6.272-11.324,6.272-7.071,0-12.12-2.9-12.12-9.14s5.236-9.175,11.824-9.175,11.87,2.447,11.87,10.084H92.29c.375,3.56,3.23,5.034,8.137,5.034,4.5-.015,6.414-1.255,7.325-3.074M92.525,19h15.258c-.768-2.728-3.373-3.937-7.668-3.937-4.031,0-6.744,1.176-7.591,3.937" transform="translate(81.68 11.033)" fill="#020203"/>
      <path id="Path_9304" data-name="Path 9304" d="M119.693,12.473v3.294a16.839,16.839,0,0,0-4.562-.612c-2.431,0-4.878.579-8.532,3.434V29.566h-3.669V12.473H106.6v3.136a10.82,10.82,0,0,1,8.453-3.654,15.992,15.992,0,0,1,4.641.518" transform="translate(95.221 11.051)" fill="#020203"/>
      <path id="Path_9305" data-name="Path 9305" d="M30.28,45.995A30.311,30.311,0,0,1,0,15.73H3.746A26.565,26.565,0,0,0,30.28,42.246Z" transform="translate(0 14.553)" fill="#020203"/>
      <path id="Path_9306" data-name="Path 9306" d="M45.995,30.28H42.246A26.565,26.565,0,0,0,15.73,3.746V0A30.311,30.311,0,0,1,45.995,30.28" transform="translate(14.552 0.001)" fill="#020203"/>
      <rect id="Rectangle_394" data-name="Rectangle 394" width="3.764" height="3.764" transform="translate(56.798 36.914)" fill="#020203"/>
      <path id="Path_9307" data-name="Path 9307" d="M70.949,26.72h2.745a2.438,2.438,0,0,1,1.771.612,1.935,1.935,0,0,1-.957,3.2l1.663,2.337H74.9l-1.569-2.148H71.985v2.148H70.949Zm2.666,3.136c.768,0,1.271-.408,1.271-1.036,0-.658-.487-1.018-1.286-1.018H72.031v2.069Z" transform="translate(65.636 24.715)" fill="#020203"/>
      <path id="Path_9308" data-name="Path 9308" d="M75.169,26.718h4.563v.957H76.3v1.567h3.138V30.2H76.3v1.663h3.529v.972H75.169Z" transform="translate(69.54 24.718)" fill="#020203"/>
      <path id="Path_9309" data-name="Path 9309" d="M79.151,26.718h1l3.309,4.266V26.718H84.53V32.88H83.6l-3.4-4.391V32.88H79.136Z" transform="translate(73.21 24.718)" fill="#020203"/>
      <path id="Path_9310" data-name="Path 9310" d="M83.711,26.718h4.58v.957h-3.5v1.567h3.136V30.2H84.793v1.663h3.544v.972h-4.7Z" transform="translate(77.369 24.718)" fill="#020203"/>
      <path id="Path_9311" data-name="Path 9311" d="M87.4,26.725H88.58l1.475,4.563,1.567-4.578h.911L94.1,31.288l1.459-4.563H96.7L94.554,33h-.939L92.045,28.56,90.478,33h-.926Z" transform="translate(80.858 24.71)" fill="#020203"/>
      <path id="Path_9312" data-name="Path 9312" d="M95.7,26.694h1l2.712,6.272H98.276l-.628-1.49H94.732l-.643,1.49h-1.1Zm1.569,3.764L96.207,27.98l-1.051,2.478Z" transform="translate(86.028 24.695)" fill="#020203"/>
      <path id="Path_9313" data-name="Path 9313" d="M97.811,26.719h2.761a2.246,2.246,0,0,1,1.569.533,1.381,1.381,0,0,1,.422,1.034,1.442,1.442,0,0,1-.893,1.365,1.57,1.57,0,0,1,1.24,1.567c0,1.1-.911,1.694-2.291,1.694H97.765Zm2.541,2.587c.7,0,1.176-.268,1.176-.832,0-.487-.393-.784-1.082-.784H98.878v1.567Zm.329,2.618c.737,0,1.176-.3,1.176-.847,0-.533-.408-.832-1.255-.832H98.878V31.94Z" transform="translate(90.443 24.716)" fill="#020203"/>
      <path id="Path_9314" data-name="Path 9314" d="M102.009,26.718h1.082v5.175h3.261v.988h-4.328Z" transform="translate(94.37 24.718)" fill="#020203"/>
      <path id="Path_9315" data-name="Path 9315" d="M105.756,26.718h4.563v.957h-3.481v1.567h3.136V30.2h-3.136v1.663h3.529v.972h-4.611Z" transform="translate(97.836 24.718)" fill="#020203"/>
      <path id="Path_9316" data-name="Path 9316" d="M109.52,32.044l.643-.784a2.836,2.836,0,0,0,1.942.8c.674,0,1.1-.3,1.1-.768,0-.439-.25-.689-1.4-.941s-2.054-.7-2.054-1.85a1.9,1.9,0,0,1,1.952-1.842,2.1,2.1,0,0,1,.244.023,3.379,3.379,0,0,1,2.225.768l-.579.832a2.713,2.713,0,0,0-1.663-.643c-.643,0-1,.329-1,.737,0,.47.283.689,1.459.972s1.975.784,1.975,1.8c0,1.159-.909,1.835-2.195,1.835a3.792,3.792,0,0,1-2.649-.941" transform="translate(101.318 24.661)" fill="#020203"/>
    </g>
  </g>
</svg>
