<svg id="Group_437" data-name="Group 437" xmlns="http://www.w3.org/2000/svg" width="215.683" height="32.392" viewBox="0 0 215.683 32.392">
  <path id="Path_8782" data-name="Path 8782" d="M370.45,262.045c4.434-1.944,8.865,2.645,11.51-2.955-4.743,1.244-9.177-2.1-11.51,2.955m0-6.143c6.378-2.8,12.833,3.733,16.566-4.2-6.844,1.865-13.222-2.878-16.566,4.2m0-6.923c8.087-3.812,18.044,4.588,21-5.679-8.711,2.489-16.722-3.966-21,5.679m18.433,19.912H364.927V243.379a6.241,6.241,0,0,1,6.222-6.222H396.74v23.954a7.869,7.869,0,0,1-7.856,7.779" transform="translate(-364.927 -236.845)" fill="#020203"/>
  <g id="Group_436" data-name="Group 436" transform="translate(47.524)">
    <path id="Path_8783" data-name="Path 8783" d="M400.113,256.056v-1.633a8.157,8.157,0,0,0,5.134-1.011c2.1-1.323,2.878-3.812,2.878-6.224A8.32,8.32,0,0,0,407.58,244c-1.09-2.8-3.5-4.511-7.312-4.511-.7,0-1.555.077-1.711.077v20.922c0,2.179,0,3.968.079,4.978s.31,1.09,2.643,1.632l1.323.235v1.556H389.613v-1.556l1.323-.235c2.41-.543,2.643-.622,2.643-1.632.079-1.011.079-2.878.079-4.978V245.556c0-2.177,0-3.968-.079-4.978s-.233-1.088-2.643-1.633l-1.323-.233v-1.555h9.333c3.968,0,5.833.154,7.933.778a8.234,8.234,0,0,1,6.378,8.322C413.257,252.479,408.279,257.457,400.113,256.056Z" transform="translate(-389.613 -236.845)" fill="#020203"/>
    <path id="Path_8784" data-name="Path 8784" d="M426.457,245.012h-1.632c-.235-1.633-.391-2.566-.624-3.733-.389-1.556-.934-1.944-11.121-1.944v13.222c3.81,0,6.611-.077,7.7-.233.778-.077,1.088-.156,1.321-.7.235-.932.389-1.555.7-2.876h1.478v10.032H422.8a24.433,24.433,0,0,0-.7-2.8c-.233-.778-.389-1.011-1.321-1.09-1.013-.156-3.812-.156-7.7-.156v5.756c0,2.179,0,4.045.077,5.055s.233,1.09,2.722,1.555l1.323.235v1.556H404.212v-1.556l1.323-.235c2.333-.543,2.643-.622,2.643-1.632.079-1.011.079-2.878.079-4.978V245.556c0-2.177,0-3.968-.079-4.978s-.389-1.088-3.344-1.633l-1.323-.233v-1.555h23.1C426.689,239.334,426.612,242.056,426.457,245.012Z" transform="translate(-376.756 -236.845)" fill="#020203"/>
    <path id="Path_8785" data-name="Path 8785" d="M450.029,269.2c-5.91.235-7.7-.543-12.367-5.91L433.228,258a15.4,15.4,0,0,0-1.865-1.944h-4.2v4.513c0,2.177,0,3.966.077,4.976s.312,1.09,2.645,1.634l1.322.233v1.555H418.218v-1.555l1.323-.233c2.41-.545,2.643-.622,2.643-1.634.079-1.011.079-2.876.079-4.976V245.556c0-2.177,0-3.968-.079-4.978s-.233-1.088-2.643-1.633l-1.323-.233v-1.555s5.055.077,7.077.077c1.79,0,2.8-.077,4.9-.077a18.938,18.938,0,0,1,5.91.7,8.379,8.379,0,0,1,6.378,8.322,8.946,8.946,0,0,1-6.145,8.555,12.417,12.417,0,0,1,2.568,2.335l4.588,4.976c3.891,4.2,4.668,4.978,7.079,5.523Zm-13.222-25.277c-1.09-2.8-3.579-4.357-7.312-4.357a13.481,13.481,0,0,0-2.256.156v13.844h5.367c2.489,0,3.812-1.71,4.434-3.889a9.328,9.328,0,0,0,.389-2.566A11,11,0,0,0,436.807,243.924Z" transform="translate(-363.15 -236.845)" fill="#020203"/>
    <path id="Path_8786" data-name="Path 8786" d="M464.882,245.706c-.7-2.955-.857-3.968-1.246-4.59-.545-1.167-1.711-1.633-5.055-1.633H455.47v21.234c0,2.177,0,3.966.077,4.976s.233,1.09,2.645,1.634l1.323.233v1.555H446.526v-1.555l1.321-.233c2.412-.545,2.645-.622,2.645-1.634.077-1.011.077-2.876.077-4.976V239.484h-3.111c-3.344,0-4.511.466-5.055,1.633a38.608,38.608,0,0,0-1.244,4.59h-1.634a81.891,81.891,0,0,1,0-8.711,34.943,34.943,0,0,0,4.357.233h18.356a35.79,35.79,0,0,0,4.355-.233,80.9,80.9,0,0,1,0,8.711Z" transform="translate(-343.546 -236.995)" fill="#020203"/>
    <path id="Path_8787" data-name="Path 8787" d="M478.413,245.012H476.78c-.233-1.633-.389-2.566-.622-3.733-.389-1.556-.934-1.944-11.123-1.944v13.222c3.812,0,6.611-.077,7.7-.233.778-.077,1.09-.156,1.323-.7.233-.932.389-1.555.7-2.876h1.479v10.032h-1.479a24.411,24.411,0,0,0-.7-2.8c-.233-.778-.389-1.011-1.323-1.09-1.011-.156-3.812-.156-7.7-.156v5.756c0,2.179,0,4.045.079,5.055s.233,1.09,2.722,1.555l1.323.235v1.556H456.168v-1.556l1.323-.235c2.333-.543,2.645-.622,2.645-1.632.077-1.011.077-2.878.077-4.978V245.556c0-2.177,0-3.968-.077-4.978s-.389-1.088-3.344-1.633l-1.323-.233v-1.555h23.1C478.647,239.334,478.568,242.056,478.413,245.012Z" transform="translate(-328.688 -236.845)" fill="#020203"/>
    <path id="Path_8788" data-name="Path 8788" d="M470.216,268.891v-1.556l1.321-.235c2.412-.543,2.645-.622,2.645-1.632.077-1.011.077-2.878.077-4.978V245.556c0-2.177,0-3.968-.077-4.978s-.233-1.088-2.645-1.633l-1.321-.233v-1.555H483.2v1.555l-1.323.233c-2.333.545-2.645.622-2.722,1.633s-.079,2.878-.079,4.978v14.933c0,2.179,0,3.968.079,4.978s.31,1.09,2.722,1.632l1.323.235v1.556Z" transform="translate(-315.045 -236.845)" fill="#020203"/>
  </g>
</svg>
