<svg id="Group_444" data-name="Group 444" xmlns="http://www.w3.org/2000/svg" xmlns:xlink="http://www.w3.org/1999/xlink" width="215.693" height="53.965" viewBox="0 0 215.693 53.965">
  <defs>
    <clipPath id="clip-path">
      <path id="Path_8816" data-name="Path 8816" d="M50.958,316.047c-12.623,0-26.143,10.844-26.143,26.986,0,14.875,11.726,26.979,26.143,26.979H214.422c14.381,0,26.085-12.1,26.085-26.979,0-16.142-13.489-26.986-26.085-26.986Z" transform="translate(-24.815 -316.047)" fill="#020203"/>
    </clipPath>
  </defs>
  <g id="Group_441" data-name="Group 441">
    <path id="Path_8814" data-name="Path 8814" d="M50.958,316.047c-12.623,0-26.143,10.844-26.143,26.986,0,14.875,11.726,26.979,26.143,26.979H214.422c14.381,0,26.085-12.1,26.085-26.979,0-16.142-13.489-26.986-26.085-26.986Z" transform="translate(-24.815 -316.047)" fill="#020203"/>
    <g id="Group_440" data-name="Group 440" clip-path="url(#clip-path)">
      <g id="Group_439" data-name="Group 439">
        <path id="Path_8815" data-name="Path 8815" d="M50.958,316.047c-12.623,0-26.143,10.844-26.143,26.986,0,14.875,11.726,26.979,26.143,26.979H214.422c14.381,0,26.085-12.1,26.085-26.979,0-16.142-13.489-26.986-26.085-26.986Z" transform="translate(-24.815 -316.047)" fill="#020203"/>
      </g>
    </g>
  </g>
  <g id="Group_443" data-name="Group 443" transform="translate(21.883 8.78)">
    <g id="Group_442" data-name="Group 442">
      <path id="Path_8817" data-name="Path 8817" d="M47.225,330.986c-5.246,0-7.269,3.912-7.269,7.785,0,4.07,2.116,7.822,7.5,7.822,5.338,0,7.131-3.95,7.131-7.983,0-3.871-2.3-7.624-7.362-7.624M36.182,328.47h3.912v2.8h.094c1.288-2.275,4.324-3.275,7.589-3.275,7.317,0,10.95,5.03,10.95,10.862s-3.587,10.736-10.858,10.736c-2.439,0-5.935-.8-7.683-3.232h-.092v10.657H36.182Zm27.015,0h3.681v4.355h.092c1.885-3.315,4.507-4.953,8.74-4.834v3.594c-6.3,0-8.6,3.115-8.6,8.344v9.181H63.2V328.47Zm30.186,9.98c-1.521.959-4.464,1-7.086,1.4-2.578.4-4.786,1.2-4.786,3.714,0,2.235,2.208,3.032,4.6,3.032,5.155,0,7.271-2.793,7.271-4.67Zm6.349,10.58a5.943,5.943,0,0,1-2.807.56c-2.025,0-3.313-.959-3.313-3.2a11.329,11.329,0,0,1-8.374,3.194c-4.324,0-7.868-1.677-7.868-5.789,0-4.67,4-5.668,8.053-6.347,4.326-.72,8.007-.477,8.007-3.032,0-2.955-2.807-3.434-5.292-3.434-3.313,0-5.752.88-5.937,3.912H78.29c.229-5.109,4.786-6.905,10.078-6.905,4.278,0,8.927.835,8.927,5.669v10.617c0,1.6,0,2.314,1.24,2.314a3.8,3.8,0,0,0,1.2-.2ZM119.521,335.1c-.6-2.6-2.668-4.112-5.887-4.112-5.662,0-7.412,3.871-7.412,8.064,0,3.793,1.981,7.543,6.95,7.543,3.773,0,6.028-1.914,6.532-5.028h4.006c-.876,5.03-4.511,8.024-10.492,8.024-7.271,0-11.137-4.391-11.137-10.538,0-6.189,3.681-11.058,11.229-11.058,5.381,0,9.71,2.193,10.261,7.106Zm28.253,14.011h-3.681v-3.271H144c-1.65,2.553-4.32,3.752-7.729,3.752-6.257,0-8.188-3.113-8.188-7.546V328.47H132v13.974c0,2.512,1.838,4.151,4.83,4.151,4.742,0,7.04-2.755,7.04-6.466V328.47h3.91v20.637Zm10.038-24.351H153.9v-4.151h3.914Zm0,26.988c0,3.669-2.254,5.269-5.706,5.269a11.758,11.758,0,0,1-2.025-.162v-2.913a11.012,11.012,0,0,0,1.611.079c1.7,0,2.206-.718,2.206-2.834V328.47h3.914Zm6.948-7.067h5.105v4.43h-5.105Zm23.1-13.693c-5.248,0-7.273,3.912-7.273,7.785,0,4.07,2.12,7.822,7.5,7.822,5.335,0,7.131-3.95,7.131-7.983,0-3.871-2.3-7.624-7.362-7.624m-11.046-2.516h3.91v2.8h.094c1.288-2.275,4.326-3.275,7.593-3.275,7.315,0,10.952,5.03,10.952,10.862s-3.59,10.736-10.86,10.736c-2.437,0-5.935-.8-7.683-3.232h-.094v10.657h-3.912Zm27.383-7.862h3.914v28.5H204.2Z" transform="translate(-36.182 -320.608)" fill="#fff"/>
    </g>
  </g>
</svg>
