<svg id="Group_430" data-name="Group 430" xmlns="http://www.w3.org/2000/svg" width="184.806" height="66.758" viewBox="0 0 184.806 66.758">
  <path id="Path_8612" data-name="Path 8612" d="M794.467,427.823a1.513,1.513,0,0,0-.46-.556,1.163,1.163,0,0,0-.71-.21,1.434,1.434,0,0,0-.422.064,1.641,1.641,0,0,0-.426.21,2.973,2.973,0,0,0-.446.374,5.221,5.221,0,0,0-.485.572v2.5a5,5,0,0,0,.859.88,1.388,1.388,0,0,0,.851.312,1.178,1.178,0,0,0,.712-.214,1.634,1.634,0,0,0,.479-.558,2.8,2.8,0,0,0,.277-.778,4.288,4.288,0,0,0,.091-.868,5.81,5.81,0,0,0-.073-.932A2.782,2.782,0,0,0,794.467,427.823Z" transform="translate(-640.467 -369.927)" fill="none"/>
  <path id="Path_8613" data-name="Path 8613" d="M715.181,428.7a1.681,1.681,0,0,0-.595.229.938.938,0,0,0-.337.372,1.108,1.108,0,0,0-.106.5.954.954,0,0,0,.3.749,1.2,1.2,0,0,0,.838.273,1.559,1.559,0,0,0,.83-.231,3.369,3.369,0,0,0,.772-.672v-1.294h-.818A4.33,4.33,0,0,0,715.181,428.7Z" transform="translate(-712.049 -368.475)" fill="none"/>
  <path id="Path_8614" data-name="Path 8614" d="M797.282,428.7a1.689,1.689,0,0,0-.6.229.946.946,0,0,0-.335.372,1.109,1.109,0,0,0-.108.5.96.96,0,0,0,.3.749,1.2,1.2,0,0,0,.839.273,1.564,1.564,0,0,0,.83-.231,3.353,3.353,0,0,0,.77-.672v-1.294h-.816A4.329,4.329,0,0,0,797.282,428.7Z" transform="translate(-636.096 -368.475)" fill="none"/>
  <path id="Path_8615" data-name="Path 8615" d="M760.031,427.727a1.5,1.5,0,0,0-.564-.545,1.822,1.822,0,0,0-.891-.2,1.893,1.893,0,0,0-.834.175,1.5,1.5,0,0,0-.587.51,2.454,2.454,0,0,0-.345.808,4.58,4.58,0,0,0-.115,1.078,5.22,5.22,0,0,0,.094,1.034,2.549,2.549,0,0,0,.3.822,1.426,1.426,0,0,0,.566.539,1.843,1.843,0,0,0,.885.192,1.876,1.876,0,0,0,.841-.175,1.51,1.51,0,0,0,.589-.506,2.336,2.336,0,0,0,.339-.8,4.657,4.657,0,0,0,.112-1.076,5.722,5.722,0,0,0-.089-1.034A2.42,2.42,0,0,0,760.031,427.727Z" transform="translate(-672.682 -369.993)" fill="none"/>
  <path id="Path_8616" data-name="Path 8616" d="M776.889,410.673a1.887,1.887,0,0,0,.741.664,2.558,2.558,0,0,0,1.167.237,2.428,2.428,0,0,0,1.169-.258,2.114,2.114,0,0,0,.762-.7,2.979,2.979,0,0,0,.412-1.02,5.949,5.949,0,0,0,.123-1.224,6.167,6.167,0,0,0-.121-1.259,2.867,2.867,0,0,0-.4-1.011,1.933,1.933,0,0,0-.749-.668,2.509,2.509,0,0,0-1.155-.241,2.375,2.375,0,0,0-1.157.258,2.181,2.181,0,0,0-.759.691,2.873,2.873,0,0,0-.42,1.007,5.729,5.729,0,0,0-.125,1.209,6.6,6.6,0,0,0,.117,1.294A2.881,2.881,0,0,0,776.889,410.673Z" transform="translate(-654.472 -390.153)" fill="none"/>
  <path id="Path_8617" data-name="Path 8617" d="M769.852,427.823a1.513,1.513,0,0,0-.46-.556,1.164,1.164,0,0,0-.71-.21,1.436,1.436,0,0,0-.422.064,1.641,1.641,0,0,0-.425.21,3.074,3.074,0,0,0-.447.374,5.221,5.221,0,0,0-.485.572v2.5a4.992,4.992,0,0,0,.858.88,1.389,1.389,0,0,0,.853.312,1.178,1.178,0,0,0,.711-.214,1.639,1.639,0,0,0,.481-.558,2.791,2.791,0,0,0,.275-.778,4.28,4.28,0,0,0,.091-.868,5.832,5.832,0,0,0-.073-.932A2.778,2.778,0,0,0,769.852,427.823Z" transform="translate(-663.239 -369.927)" fill="none"/>
  <path id="Path_8618" data-name="Path 8618" d="M776.97,412.834l-1.373,3.972h2.771l-1.392-3.972Z" transform="translate(-655.196 -383.085)" fill="none"/>
  <path id="Path_8619" data-name="Path 8619" d="M774.272,414.946a1.951,1.951,0,0,0,.11-.662,1.655,1.655,0,0,0-.181-.814,1.263,1.263,0,0,0-.449-.485,1.5,1.5,0,0,0-.554-.2,3.741,3.741,0,0,0-.558-.042h-.978v3.2h.953a2.193,2.193,0,0,0,.8-.123,1.489,1.489,0,0,0,.533-.343A1.432,1.432,0,0,0,774.272,414.946Z" transform="translate(-658.836 -383.174)" fill="none"/>
  <path id="Path_8620" data-name="Path 8620" d="M782.883,414.609a1.468,1.468,0,0,0,.1-.535,1.434,1.434,0,0,0-.21-.791,1.186,1.186,0,0,0-.7-.466,2.077,2.077,0,0,0-.347-.062q-.2-.017-.508-.017h-.893v2.684h1.034a2.318,2.318,0,0,0,.724-.1,1.438,1.438,0,0,0,.508-.285A1.083,1.083,0,0,0,782.883,414.609Z" transform="translate(-650.828 -383.174)" fill="none"/>
  <path id="Path_8621" data-name="Path 8621" d="M807.9,405.335l-1.373,3.972H809.3l-1.392-3.972Z" transform="translate(-626.583 -390.023)" fill="none"/>
  <path id="Path_8622" data-name="Path 8622" d="M782.139,427.727a1.506,1.506,0,0,0-.566-.545,1.809,1.809,0,0,0-.889-.2,1.893,1.893,0,0,0-.834.175,1.5,1.5,0,0,0-.587.51,2.416,2.416,0,0,0-.345.808,4.57,4.57,0,0,0-.116,1.078,5.377,5.377,0,0,0,.093,1.034,2.592,2.592,0,0,0,.3.822,1.443,1.443,0,0,0,.568.539,1.831,1.831,0,0,0,.884.192,1.891,1.891,0,0,0,.843-.175,1.491,1.491,0,0,0,.587-.506,2.3,2.3,0,0,0,.341-.8,4.767,4.767,0,0,0,.112-1.076,5.565,5.565,0,0,0-.09-1.034A2.423,2.423,0,0,0,782.139,427.727Z" transform="translate(-652.23 -369.993)" fill="none"/>
  <path id="Path_8623" data-name="Path 8623" d="M800.928,414.609a1.467,1.467,0,0,0,.094-.535,1.432,1.432,0,0,0-.208-.791,1.185,1.185,0,0,0-.7-.466,2.1,2.1,0,0,0-.348-.062q-.194-.017-.508-.017h-.893v2.684H799.4a2.316,2.316,0,0,0,.724-.1,1.475,1.475,0,0,0,.508-.285A1.084,1.084,0,0,0,800.928,414.609Z" transform="translate(-634.135 -383.174)" fill="none"/>
  <path id="Path_8624" data-name="Path 8624" d="M778.222,397.95h-.006l-1.373,3.972h2.771Z" transform="translate(-654.044 -396.855)" fill="none"/>
  <path id="Path_8625" data-name="Path 8625" d="M797.57,397.95h-.006l-1.373,3.972h2.771Z" transform="translate(-636.144 -396.855)" fill="none"/>
  <path id="Path_8626" data-name="Path 8626" d="M771.223,405.37a.8.8,0,0,0,.166.037,1.609,1.609,0,0,0,.252.015,1.585,1.585,0,0,0,.256-.015.81.81,0,0,0,.164-.037.175.175,0,0,0,.086-.058.163.163,0,0,0,.025-.087v-3.535H775.8v3.535a.162.162,0,0,0,.023.087.176.176,0,0,0,.087.058.8.8,0,0,0,.16.037,1.592,1.592,0,0,0,.26.015,1.529,1.529,0,0,0,.248-.015.805.805,0,0,0,.164-.037.176.176,0,0,0,.087-.058.163.163,0,0,0,.025-.087v-7.648a.163.163,0,0,0-.025-.087.165.165,0,0,0-.087-.058.806.806,0,0,0-.164-.036,1.522,1.522,0,0,0-.248-.015,1.585,1.585,0,0,0-.26.015.8.8,0,0,0-.16.036.165.165,0,0,0-.087.058.162.162,0,0,0-.023.087v3.19h-3.627v-3.19a.142.142,0,0,0-.112-.144.811.811,0,0,0-.164-.036,1.578,1.578,0,0,0-.256-.015,1.6,1.6,0,0,0-.252.015.8.8,0,0,0-.166.036.142.142,0,0,0-.112.144v7.648a.163.163,0,0,0,.025.087A.175.175,0,0,0,771.223,405.37Z" transform="translate(-659.346 -397.381)" fill="#010203"/>
  <path id="Path_8627" data-name="Path 8627" d="M776.007,405.407a2.061,2.061,0,0,0,.293.015,2.761,2.761,0,0,0,.281-.012.508.508,0,0,0,.166-.04.235.235,0,0,0,.089-.067.31.31,0,0,0,.05-.1l.653-1.916h3.313l.683,1.941a.672.672,0,0,0,.052.092.2.2,0,0,0,.087.06.714.714,0,0,0,.173.029c.075.008.177.01.3.01s.229,0,.3-.012a.292.292,0,0,0,.164-.056.152.152,0,0,0,.046-.127.763.763,0,0,0-.052-.218l-2.672-7.4a.334.334,0,0,0-.069-.114.255.255,0,0,0-.123-.071,1,1,0,0,0-.208-.033c-.087-.008-.2-.01-.327-.01s-.225,0-.3.01a.9.9,0,0,0-.2.033.258.258,0,0,0-.118.067.329.329,0,0,0-.065.112l-2.672,7.4a.754.754,0,0,0-.052.218.157.157,0,0,0,.042.127A.289.289,0,0,0,776.007,405.407Zm3.169-6.93h.006l1.392,3.971H777.8Z" transform="translate(-655.004 -397.381)" fill="#010203"/>
  <path id="Path_8628" data-name="Path 8628" d="M781.475,405.386H785a.172.172,0,0,0,.1-.027.21.21,0,0,0,.067-.087.465.465,0,0,0,.04-.142,1.511,1.511,0,0,0,.012-.206,1.616,1.616,0,0,0-.012-.21.41.41,0,0,0-.04-.139.2.2,0,0,0-.067-.079.159.159,0,0,0-.1-.029h-2.857v-6.89a.148.148,0,0,0-.025-.087.151.151,0,0,0-.085-.058.836.836,0,0,0-.164-.036,1.606,1.606,0,0,0-.256-.015,1.587,1.587,0,0,0-.252.015.855.855,0,0,0-.167.036.151.151,0,0,0-.085.058.147.147,0,0,0-.025.087v7.377a.4.4,0,0,0,.125.335A.445.445,0,0,0,781.475,405.386Z" transform="translate(-650.124 -397.381)" fill="#010203"/>
  <path id="Path_8629" data-name="Path 8629" d="M784.994,405.353a.8.8,0,0,0,.166.037,1.608,1.608,0,0,0,.252.015,1.591,1.591,0,0,0,.26-.015.8.8,0,0,0,.16-.037.157.157,0,0,0,.087-.062.166.166,0,0,0,.025-.083v-3.319H788.7a.144.144,0,0,0,.083-.029.236.236,0,0,0,.071-.079.393.393,0,0,0,.042-.137,1.46,1.46,0,0,0,.012-.2,1.607,1.607,0,0,0-.012-.212.359.359,0,0,0-.042-.133.186.186,0,0,0-.071-.069.168.168,0,0,0-.083-.023h-2.759V398.3h2.918a.148.148,0,0,0,.083-.025.214.214,0,0,0,.071-.077.392.392,0,0,0,.042-.139,1.53,1.53,0,0,0,.012-.2,1.624,1.624,0,0,0-.012-.208.427.427,0,0,0-.042-.144.205.205,0,0,0-.071-.079.149.149,0,0,0-.083-.025h-3.585a.436.436,0,0,0-.268.094.4.4,0,0,0-.127.337v7.377a.166.166,0,0,0,.025.083A.157.157,0,0,0,784.994,405.353Z" transform="translate(-646.606 -397.363)" fill="#010203"/>
  <path id="Path_8630" data-name="Path 8630" d="M789.046,405.353a.784.784,0,0,0,.162.037,1.576,1.576,0,0,0,.254.015,1.634,1.634,0,0,0,.26-.015.839.839,0,0,0,.164-.037.167.167,0,0,0,.089-.058.149.149,0,0,0,.027-.087v-6.94h.006l2.686,6.971a.153.153,0,0,0,.044.067.265.265,0,0,0,.1.052.682.682,0,0,0,.154.035,1.809,1.809,0,0,0,.221.012,1.726,1.726,0,0,0,.214-.01.73.73,0,0,0,.152-.029.283.283,0,0,0,.1-.054.183.183,0,0,0,.052-.073l2.809-6.971h.011v6.94a.148.148,0,0,0,.025.087.176.176,0,0,0,.087.058.751.751,0,0,0,.164.037,2.1,2.1,0,0,0,.508,0,.849.849,0,0,0,.162-.037.174.174,0,0,0,.089-.058.148.148,0,0,0,.025-.087v-7.329a.563.563,0,0,0-.036-.218.434.434,0,0,0-.1-.148.363.363,0,0,0-.144-.087.6.6,0,0,0-.177-.027h-.682a.988.988,0,0,0-.275.035.574.574,0,0,0-.216.11.794.794,0,0,0-.179.206,1.755,1.755,0,0,0-.15.314l-2.372,5.752h-.031l-2.278-5.77a1.511,1.511,0,0,0-.131-.291.678.678,0,0,0-.189-.2.757.757,0,0,0-.262-.117,1.465,1.465,0,0,0-.35-.037h-.651a.481.481,0,0,0-.306.11.449.449,0,0,0-.139.37v7.329a.162.162,0,0,0,.023.087A.155.155,0,0,0,789.046,405.353Z" transform="translate(-642.852 -397.363)" fill="#010203"/>
  <path id="Path_8631" data-name="Path 8631" d="M795.357,405.407a2.041,2.041,0,0,0,.293.015,2.72,2.72,0,0,0,.279-.012.521.521,0,0,0,.168-.04.255.255,0,0,0,.089-.067.356.356,0,0,0,.05-.1l.653-1.916H800.2l.683,1.941a.413.413,0,0,0,.052.092.188.188,0,0,0,.087.06.716.716,0,0,0,.171.029c.077.008.177.01.306.01s.227,0,.3-.012a.3.3,0,0,0,.164-.056.153.153,0,0,0,.046-.127.721.721,0,0,0-.054-.218l-2.672-7.4a.3.3,0,0,0-.067-.114.266.266,0,0,0-.123-.071,1.021,1.021,0,0,0-.21-.033c-.087-.008-.195-.01-.325-.01s-.225,0-.306.01a.942.942,0,0,0-.2.033.257.257,0,0,0-.118.067.3.3,0,0,0-.064.112L795.2,405a.756.756,0,0,0-.052.218.164.164,0,0,0,.042.127A.3.3,0,0,0,795.357,405.407Zm3.167-6.93h.008l1.392,3.971h-2.772Z" transform="translate(-637.104 -397.381)" fill="#010203"/>
  <path id="Path_8632" data-name="Path 8632" d="M800.54,405.362a.747.747,0,0,0,.158.037,1.6,1.6,0,0,0,.258.015,1.579,1.579,0,0,0,.256-.015.841.841,0,0,0,.163-.037.159.159,0,0,0,.087-.062.15.15,0,0,0,.027-.083v-4.809c0-.3,0-.61-.008-.918s-.01-.61-.017-.9h.012c.112.243.233.491.36.747s.258.5.385.737l2.431,4.532a3.161,3.161,0,0,0,.237.395,1.27,1.27,0,0,0,.221.243.638.638,0,0,0,.237.123,1.085,1.085,0,0,0,.291.035h.348a.61.61,0,0,0,.166-.025.439.439,0,0,0,.15-.081.4.4,0,0,0,.108-.141.463.463,0,0,0,.042-.21v-7.352a.14.14,0,0,0-.027-.081.189.189,0,0,0-.085-.064.491.491,0,0,0-.162-.04,1.847,1.847,0,0,0-.246-.013,1.975,1.975,0,0,0-.264.013.517.517,0,0,0-.162.04.192.192,0,0,0-.089.064.138.138,0,0,0-.025.081v4.322c0,.325,0,.662,0,1.013s.008.689.016,1.014H805.4c-.094-.194-.19-.385-.289-.577l-.294-.581c-.1-.2-.2-.4-.31-.6s-.218-.412-.333-.624l-1.869-3.5a2.717,2.717,0,0,0-.193-.318.843.843,0,0,0-.191-.2.641.641,0,0,0-.223-.1,1.261,1.261,0,0,0-.308-.031h-.52a.5.5,0,0,0-.306.1.413.413,0,0,0-.141.352v7.352a.151.151,0,0,0,.027.083A.161.161,0,0,0,800.54,405.362Z" transform="translate(-632.224 -397.373)" fill="#010203"/>
  <path id="Path_8633" data-name="Path 8633" d="M805.816,405.362a.737.737,0,0,0,.16.037,2.13,2.13,0,0,0,.512,0,.848.848,0,0,0,.164-.037.158.158,0,0,0,.087-.062.152.152,0,0,0,.027-.083v-4.809q0-.456-.006-.918c-.006-.308-.011-.61-.019-.9h.012c.112.243.233.491.362.747s.256.5.383.737l2.431,4.532a3.19,3.19,0,0,0,.237.395,1.21,1.21,0,0,0,.223.243.617.617,0,0,0,.235.123,1.084,1.084,0,0,0,.291.035h.348a.634.634,0,0,0,.168-.025.449.449,0,0,0,.148-.081.426.426,0,0,0,.11-.141.491.491,0,0,0,.04-.21v-7.352a.141.141,0,0,0-.027-.081.194.194,0,0,0-.083-.064.518.518,0,0,0-.164-.04,1.849,1.849,0,0,0-.246-.013,1.978,1.978,0,0,0-.264.013.516.516,0,0,0-.161.04.192.192,0,0,0-.089.064.138.138,0,0,0-.025.081v4.322c0,.325,0,.662,0,1.013s.008.689.016,1.014h-.006c-.094-.194-.191-.385-.289-.577l-.295-.581c-.1-.2-.2-.4-.308-.6s-.22-.412-.335-.624l-1.867-3.5a2.654,2.654,0,0,0-.195-.318.84.84,0,0,0-.191-.2.647.647,0,0,0-.221-.1,1.286,1.286,0,0,0-.31-.031h-.52a.5.5,0,0,0-.306.1.412.412,0,0,0-.139.352v7.352a.148.148,0,0,0,.025.083A.16.16,0,0,0,805.816,405.362Z" transform="translate(-627.341 -397.373)" fill="#010203"/>
  <path id="Path_8634" data-name="Path 8634" d="M773.112,412.632a4.485,4.485,0,0,0,1.65.287,5.368,5.368,0,0,0,1.221-.148,5.748,5.748,0,0,0,.585-.179,4.547,4.547,0,0,0,.462-.194.471.471,0,0,0,.233-.206.64.64,0,0,0,.056-.277v-3.036a.568.568,0,0,0-.031-.2.347.347,0,0,0-.087-.137.383.383,0,0,0-.123-.073.419.419,0,0,0-.135-.025h-2.532a.174.174,0,0,0-.092.025.2.2,0,0,0-.064.077.4.4,0,0,0-.04.135,1.209,1.209,0,0,0-.014.2.741.741,0,0,0,.054.327.167.167,0,0,0,.156.1h1.848v2.322a2.71,2.71,0,0,1-.706.268,3.236,3.236,0,0,1-.747.091,3.006,3.006,0,0,1-1.142-.21,2.445,2.445,0,0,1-.9-.616,2.9,2.9,0,0,1-.589-1,4.341,4.341,0,0,1-.017-2.624,3,3,0,0,1,.556-1.009,2.541,2.541,0,0,1,.888-.666,2.808,2.808,0,0,1,1.182-.241,3.507,3.507,0,0,1,.959.117,4.759,4.759,0,0,1,.693.258,3.878,3.878,0,0,1,.46.26.582.582,0,0,0,.247.117.154.154,0,0,0,.081-.025.191.191,0,0,0,.062-.083.633.633,0,0,0,.036-.148,1.574,1.574,0,0,0,.013-.206,1.189,1.189,0,0,0-.031-.3.44.44,0,0,0-.112-.185,1.6,1.6,0,0,0-.293-.206,2.93,2.93,0,0,0-.524-.235,5.707,5.707,0,0,0-.71-.187,4.327,4.327,0,0,0-.857-.081,4.251,4.251,0,0,0-1.617.3,3.615,3.615,0,0,0-1.249.841,3.774,3.774,0,0,0-.807,1.311,4.91,4.91,0,0,0-.287,1.719,4.852,4.852,0,0,0,.266,1.65,3.532,3.532,0,0,0,.766,1.269A3.385,3.385,0,0,0,773.112,412.632Z" transform="translate(-659.586 -390.585)" fill="#010203"/>
  <path id="Path_8635" data-name="Path 8635" d="M776.644,411.88a2.741,2.741,0,0,0,1.084.78,4.124,4.124,0,0,0,1.554.268,4.043,4.043,0,0,0,1.6-.293,2.957,2.957,0,0,0,1.136-.837,3.629,3.629,0,0,0,.68-1.321,6.192,6.192,0,0,0,.229-1.744,6.333,6.333,0,0,0-.212-1.713,3.274,3.274,0,0,0-.649-1.257,2.777,2.777,0,0,0-1.086-.774,4.089,4.089,0,0,0-1.534-.264,4.038,4.038,0,0,0-1.594.293,3.01,3.01,0,0,0-1.14.832,3.553,3.553,0,0,0-.684,1.307,6.021,6.021,0,0,0-.227,1.713,6.516,6.516,0,0,0,.21,1.742A3.3,3.3,0,0,0,776.644,411.88Zm.4-4.295a2.873,2.873,0,0,1,.42-1.007,2.181,2.181,0,0,1,.759-.691,2.375,2.375,0,0,1,1.157-.258,2.509,2.509,0,0,1,1.155.241,1.933,1.933,0,0,1,.749.668,2.867,2.867,0,0,1,.4,1.011,6.167,6.167,0,0,1,.121,1.259,5.94,5.94,0,0,1-.123,1.224,2.979,2.979,0,0,1-.412,1.02,2.113,2.113,0,0,1-.762.7,2.428,2.428,0,0,1-1.169.258,2.559,2.559,0,0,1-1.167-.237,1.888,1.888,0,0,1-.741-.664,2.882,2.882,0,0,1-.393-1.02,6.6,6.6,0,0,1-.117-1.294A5.729,5.729,0,0,1,777.042,407.585Z" transform="translate(-655.011 -390.588)" fill="#010203"/>
  <path id="Path_8636" data-name="Path 8636" d="M781.281,404.879a.4.4,0,0,0-.127.337v7.106a.393.393,0,0,0,.127.335.423.423,0,0,0,.268.1h3.823a.165.165,0,0,0,.091-.025.2.2,0,0,0,.069-.079.45.45,0,0,0,.044-.139,1.448,1.448,0,0,0,.012-.194,1.53,1.53,0,0,0-.012-.206.391.391,0,0,0-.044-.137.227.227,0,0,0-.069-.077.18.18,0,0,0-.091-.023h-3.159V409.02h2.672a.174.174,0,0,0,.09-.021.162.162,0,0,0,.068-.071.339.339,0,0,0,.04-.129,1.331,1.331,0,0,0,.012-.191,1.553,1.553,0,0,0-.012-.2.37.37,0,0,0-.04-.137.241.241,0,0,0-.068-.077.161.161,0,0,0-.09-.027h-2.672v-2.5h3.117a.16.16,0,0,0,.089-.025.178.178,0,0,0,.065-.077.676.676,0,0,0,.04-.135,1.122,1.122,0,0,0,.016-.194,1.218,1.218,0,0,0-.016-.206.769.769,0,0,0-.04-.139.173.173,0,0,0-.065-.079.159.159,0,0,0-.089-.025h-3.781A.432.432,0,0,0,781.281,404.879Z" transform="translate(-650.055 -390.531)" fill="#010203"/>
  <path id="Path_8637" data-name="Path 8637" d="M784.693,405.582a.17.17,0,0,0,.063.077.161.161,0,0,0,.09.025h2.241v6.909a.148.148,0,0,0,.025.087.161.161,0,0,0,.085.058.849.849,0,0,0,.168.037,2.1,2.1,0,0,0,.508,0,.836.836,0,0,0,.164-.037.161.161,0,0,0,.085-.058.148.148,0,0,0,.025-.087v-6.909h2.241a.161.161,0,0,0,.09-.025.206.206,0,0,0,.067-.077.434.434,0,0,0,.04-.139,1.521,1.521,0,0,0,.012-.2,1.591,1.591,0,0,0-.012-.206.476.476,0,0,0-.04-.144.186.186,0,0,0-.067-.079.16.16,0,0,0-.09-.025h-5.541a.16.16,0,0,0-.09.025.157.157,0,0,0-.063.079.548.548,0,0,0-.041.144,1.106,1.106,0,0,0-.015.206,1.06,1.06,0,0,0,.015.2A.5.5,0,0,0,784.693,405.582Z" transform="translate(-646.833 -390.531)" fill="#010203"/>
  <path id="Path_8638" data-name="Path 8638" d="M788.9,412.311a1.286,1.286,0,0,0,.25.179,3.07,3.07,0,0,0,.45.2,4.27,4.27,0,0,0,.61.168,3.885,3.885,0,0,0,.741.067,3.591,3.591,0,0,0,1.068-.154,2.485,2.485,0,0,0,.862-.458,2.174,2.174,0,0,0,.574-.743,2.321,2.321,0,0,0,.206-1,2,2,0,0,0-.158-.822,2.03,2.03,0,0,0-.412-.6,2.832,2.832,0,0,0-.581-.443c-.219-.125-.441-.241-.666-.345s-.447-.208-.664-.312a3.66,3.66,0,0,1-.583-.339,1.573,1.573,0,0,1-.408-.424,1.035,1.035,0,0,1-.154-.574,1.2,1.2,0,0,1,.079-.431.938.938,0,0,1,.241-.35,1.188,1.188,0,0,1,.406-.237,1.7,1.7,0,0,1,.579-.091,2.153,2.153,0,0,1,.643.091,3.262,3.262,0,0,1,.5.2c.139.071.256.137.352.194a.5.5,0,0,0,.214.087.116.116,0,0,0,.077-.029.161.161,0,0,0,.052-.085.835.835,0,0,0,.027-.146,1.484,1.484,0,0,0,.01-.2q0-.119-.006-.191a.685.685,0,0,0-.019-.127.271.271,0,0,0-.031-.085.382.382,0,0,0-.077-.092,1.013,1.013,0,0,0-.243-.154,2.7,2.7,0,0,0-.422-.173,3.589,3.589,0,0,0-.5-.123,3.137,3.137,0,0,0-.533-.046,3.243,3.243,0,0,0-.965.139,2.306,2.306,0,0,0-.77.4,1.868,1.868,0,0,0-.5.656,2.093,2.093,0,0,0-.181.889,2.037,2.037,0,0,0,.156.836,2.157,2.157,0,0,0,.41.606,2.86,2.86,0,0,0,.574.448,6.532,6.532,0,0,0,.658.349c.225.106.447.208.662.308a3.567,3.567,0,0,1,.576.333,1.564,1.564,0,0,1,.406.422,1.053,1.053,0,0,1,.154.579,1.344,1.344,0,0,1-.112.56,1.138,1.138,0,0,1-.316.416,1.527,1.527,0,0,1-.493.262,2.122,2.122,0,0,1-.631.092,2.751,2.751,0,0,1-.8-.108,4.246,4.246,0,0,1-.593-.231,3.692,3.692,0,0,1-.4-.229.5.5,0,0,0-.243-.1.182.182,0,0,0-.087.021.16.16,0,0,0-.062.077.568.568,0,0,0-.037.144,1.8,1.8,0,0,0-.013.225,1.074,1.074,0,0,0,.035.3A.451.451,0,0,0,788.9,412.311Z" transform="translate(-643.017 -390.588)" fill="#010203"/>
  <path id="Path_8639" data-name="Path 8639" d="M792.9,407.154a6.274,6.274,0,0,0-.017,3.475,3.451,3.451,0,0,0,.677,1.248,2.836,2.836,0,0,0,1.065.764,3.66,3.66,0,0,0,1.4.258,3.832,3.832,0,0,0,.828-.083,4.029,4.029,0,0,0,.672-.2,3.121,3.121,0,0,0,.489-.245,1.879,1.879,0,0,0,.26-.189.442.442,0,0,0,.085-.106.324.324,0,0,0,.041-.1.724.724,0,0,0,.021-.129c0-.048.008-.106.008-.171,0-.094,0-.173-.01-.235a.645.645,0,0,0-.029-.144.129.129,0,0,0-.048-.071.154.154,0,0,0-.075-.019.507.507,0,0,0-.254.117,4.538,4.538,0,0,1-.412.262,3.21,3.21,0,0,1-.606.262,2.637,2.637,0,0,1-.832.117,2.455,2.455,0,0,1-1.011-.2,1.966,1.966,0,0,1-.751-.591,2.807,2.807,0,0,1-.472-.972,5.551,5.551,0,0,1,.006-2.7,3.1,3.1,0,0,1,.481-1.007,2.045,2.045,0,0,1,.745-.624,2.175,2.175,0,0,1,.97-.214,2.566,2.566,0,0,1,.838.121,3.217,3.217,0,0,1,.595.264,3.562,3.562,0,0,1,.4.266.472.472,0,0,0,.243.119.122.122,0,0,0,.083-.027.237.237,0,0,0,.06-.087.61.61,0,0,0,.036-.144,1.578,1.578,0,0,0,.013-.21,1.771,1.771,0,0,0-.01-.191c-.008-.054-.015-.1-.025-.139a.381.381,0,0,0-.04-.1.609.609,0,0,0-.108-.125,1.644,1.644,0,0,0-.3-.214,2.714,2.714,0,0,0-.493-.227,4.5,4.5,0,0,0-.6-.164,3.688,3.688,0,0,0-2.1.22,3.07,3.07,0,0,0-1.105.822A3.841,3.841,0,0,0,792.9,407.154Z" transform="translate(-639.427 -390.579)" fill="#010203"/>
  <path id="Path_8640" data-name="Path 8640" d="M798.22,404.962a.149.149,0,0,0-.025-.087.151.151,0,0,0-.085-.058.844.844,0,0,0-.164-.037,2.1,2.1,0,0,0-.508,0,.807.807,0,0,0-.166.037.15.15,0,0,0-.087.058.148.148,0,0,0-.025.087v7.648a.148.148,0,0,0,.025.087.159.159,0,0,0,.087.058.8.8,0,0,0,.166.037,2.1,2.1,0,0,0,.508,0,.834.834,0,0,0,.164-.037.161.161,0,0,0,.085-.058.149.149,0,0,0,.025-.087v-3.534h3.627v3.534a.164.164,0,0,0,.025.087.176.176,0,0,0,.087.058.792.792,0,0,0,.16.037,1.579,1.579,0,0,0,.258.015,1.538,1.538,0,0,0,.25-.015.839.839,0,0,0,.164-.037.163.163,0,0,0,.085-.058.149.149,0,0,0,.025-.087v-7.648a.149.149,0,0,0-.025-.087.152.152,0,0,0-.085-.058.848.848,0,0,0-.164-.037,1.545,1.545,0,0,0-.25-.015,1.586,1.586,0,0,0-.258.015.8.8,0,0,0-.16.037.141.141,0,0,0-.112.144v3.19H798.22Z" transform="translate(-635.247 -390.549)" fill="#010203"/>
  <path id="Path_8641" data-name="Path 8641" d="M775.246,416.514a2.266,2.266,0,0,0,.564-.818,2.831,2.831,0,0,0,.2-1.078,2.531,2.531,0,0,0-.125-.822,2.018,2.018,0,0,0-.93-1.134,2.266,2.266,0,0,0-.66-.264,4.228,4.228,0,0,0-.558-.092q-.24-.023-.5-.023h-1.706a.455.455,0,0,0-.291.106.43.43,0,0,0-.129.35v7.352a.158.158,0,0,0,.025.087.177.177,0,0,0,.087.06,1.192,1.192,0,0,0,.164.036,2.115,2.115,0,0,0,.51,0,1.055,1.055,0,0,0,.16-.036.187.187,0,0,0,.087-.06.134.134,0,0,0,.029-.087v-2.868h.9a3.882,3.882,0,0,0,1.271-.185A2.523,2.523,0,0,0,775.246,416.514Zm-2.122-.16h-.953v-3.2h.978a3.741,3.741,0,0,1,.558.042,1.5,1.5,0,0,1,.554.2,1.264,1.264,0,0,1,.449.485,1.655,1.655,0,0,1,.181.814,1.952,1.952,0,0,1-.11.662,1.433,1.433,0,0,1-.327.522,1.489,1.489,0,0,1-.533.343A2.192,2.192,0,0,1,773.125,416.355Z" transform="translate(-659.346 -383.595)" fill="#010203"/>
  <path id="Path_8642" data-name="Path 8642" d="M780.9,420.307a2.548,2.548,0,0,0,.3-.013.292.292,0,0,0,.164-.054.154.154,0,0,0,.046-.127.75.75,0,0,0-.052-.218l-2.672-7.4a.316.316,0,0,0-.069-.114.256.256,0,0,0-.123-.071.88.88,0,0,0-.208-.035c-.087-.006-.2-.01-.327-.01s-.225,0-.3.01a.794.794,0,0,0-.2.035.248.248,0,0,0-.117.067.341.341,0,0,0-.065.11l-2.672,7.4a.754.754,0,0,0-.052.219.15.15,0,0,0,.042.125.289.289,0,0,0,.16.06,2.384,2.384,0,0,0,.292.015,2.233,2.233,0,0,0,.281-.013.565.565,0,0,0,.166-.038.256.256,0,0,0,.089-.067.305.305,0,0,0,.05-.1l.653-1.915H779.6l.683,1.94a.677.677,0,0,0,.052.092.194.194,0,0,0,.087.058.7.7,0,0,0,.173.031C780.675,420.3,780.777,420.307,780.9,420.307Zm-4.347-2.974,1.373-3.971h.006l1.392,3.971Z" transform="translate(-656.156 -383.612)" fill="#010203"/>
  <path id="Path_8643" data-name="Path 8643" d="M784.948,419.643l-.714-1.756c-.083-.2-.166-.381-.246-.541a3.018,3.018,0,0,0-.262-.426,1.887,1.887,0,0,0-.3-.318,1.6,1.6,0,0,0-.358-.218,3.13,3.13,0,0,0,.635-.3,2.053,2.053,0,0,0,.485-.422,1.7,1.7,0,0,0,.312-.56,2.424,2.424,0,0,0-.014-1.473,1.76,1.76,0,0,0-.36-.606,1.968,1.968,0,0,0-.593-.437,3.125,3.125,0,0,0-.816-.252c-.108-.012-.227-.023-.36-.033s-.3-.017-.5-.017h-1.694a.439.439,0,0,0-.268.1.393.393,0,0,0-.125.335v7.377a.156.156,0,0,0,.023.087.177.177,0,0,0,.086.06,1.191,1.191,0,0,0,.164.036,1.836,1.836,0,0,0,.256.015,1.877,1.877,0,0,0,.256-.015,1.124,1.124,0,0,0,.16-.036.183.183,0,0,0,.085-.06.135.135,0,0,0,.029-.087V416.7h.708a1.628,1.628,0,0,1,.622.108,1.356,1.356,0,0,1,.448.3,1.881,1.881,0,0,1,.329.462,6.29,6.29,0,0,1,.267.587l.734,1.879a.6.6,0,0,0,.058.123.242.242,0,0,0,.1.077.6.6,0,0,0,.164.038,1.934,1.934,0,0,0,.262.013,2.4,2.4,0,0,0,.295-.013.619.619,0,0,0,.173-.037.146.146,0,0,0,.081-.062.2.2,0,0,0,.017-.087.512.512,0,0,0-.025-.137A3.265,3.265,0,0,0,784.948,419.643Zm-2.362-3.9a2.317,2.317,0,0,1-.724.1h-1.034v-2.684h.893q.312,0,.508.017a2.085,2.085,0,0,1,.347.062,1.186,1.186,0,0,1,.7.466,1.434,1.434,0,0,1,.21.791,1.467,1.467,0,0,1-.1.535,1.084,1.084,0,0,1-.3.427A1.438,1.438,0,0,1,782.586,415.742Z" transform="translate(-651.336 -383.595)" fill="#010203"/>
  <path id="Path_8644" data-name="Path 8644" d="M783.8,413.082a.155.155,0,0,0,.154.1h2.241v6.909a.157.157,0,0,0,.025.087.161.161,0,0,0,.087.06,1.155,1.155,0,0,0,.165.036,1.86,1.86,0,0,0,.252.015,1.836,1.836,0,0,0,.256-.015,1.184,1.184,0,0,0,.164-.036.178.178,0,0,0,.087-.06.157.157,0,0,0,.023-.087v-6.909h2.243a.174.174,0,0,0,.089-.023.191.191,0,0,0,.067-.077.39.39,0,0,0,.04-.139,1.561,1.561,0,0,0,.012-.2,1.633,1.633,0,0,0-.012-.206.424.424,0,0,0-.04-.144.191.191,0,0,0-.067-.081.175.175,0,0,0-.089-.025h-5.542a.157.157,0,0,0-.154.106.541.541,0,0,0-.041.144,1.3,1.3,0,0,0-.016.206,1.241,1.241,0,0,0,.016.2A.5.5,0,0,0,783.8,413.082Z" transform="translate(-647.661 -383.595)" fill="#010203"/>
  <path id="Path_8645" data-name="Path 8645" d="M792.879,419.878a1.221,1.221,0,0,0,.221.244.666.666,0,0,0,.237.123,1.172,1.172,0,0,0,.289.033h.35a.541.541,0,0,0,.166-.025.4.4,0,0,0,.258-.221.454.454,0,0,0,.042-.208V412.47a.13.13,0,0,0-.027-.079.206.206,0,0,0-.085-.065.613.613,0,0,0-.162-.04,2.279,2.279,0,0,0-.246-.012,2.43,2.43,0,0,0-.264.012.655.655,0,0,0-.162.04.21.21,0,0,0-.089.065.129.129,0,0,0-.025.079v4.324c0,.323,0,.662,0,1.013s.008.689.016,1.013H793.4c-.094-.193-.191-.385-.289-.576s-.194-.385-.295-.581-.2-.4-.31-.6-.218-.412-.333-.626l-1.869-3.5a2.505,2.505,0,0,0-.193-.316.9.9,0,0,0-.191-.2.677.677,0,0,0-.223-.1,1.364,1.364,0,0,0-.308-.031h-.522a.5.5,0,0,0-.3.106.412.412,0,0,0-.141.35V420.1a.152.152,0,0,0,.027.085.171.171,0,0,0,.085.062,1.1,1.1,0,0,0,.158.036,1.861,1.861,0,0,0,.258.015,1.836,1.836,0,0,0,.256-.015,1.272,1.272,0,0,0,.164-.036.168.168,0,0,0,.087-.062.152.152,0,0,0,.027-.085v-4.809c0-.3,0-.608-.008-.916s-.01-.61-.017-.907h.012c.112.243.231.493.36.749s.258.5.385.735l2.431,4.534A3,3,0,0,0,792.879,419.878Z" transform="translate(-643.334 -383.603)" fill="#010203"/>
  <path id="Path_8646" data-name="Path 8646" d="M797.807,413.165a.158.158,0,0,0,.089-.025.175.175,0,0,0,.065-.077.574.574,0,0,0,.039-.135.981.981,0,0,0,.015-.195,1.041,1.041,0,0,0-.015-.206.643.643,0,0,0-.039-.139.187.187,0,0,0-.065-.081.175.175,0,0,0-.089-.025h-3.781a.44.44,0,0,0-.27.1.4.4,0,0,0-.125.335v7.107a.4.4,0,0,0,.125.335.439.439,0,0,0,.27.1h3.823a.154.154,0,0,0,.088-.025.23.23,0,0,0,.071-.081.42.42,0,0,0,.044-.139,1.4,1.4,0,0,0,.012-.192,1.564,1.564,0,0,0-.012-.208.4.4,0,0,0-.044-.135.231.231,0,0,0-.071-.077.169.169,0,0,0-.088-.025H794.69V416.52h2.672a.18.18,0,0,0,.091-.021.172.172,0,0,0,.067-.071.443.443,0,0,0,.041-.129,1.369,1.369,0,0,0,.011-.191,1.564,1.564,0,0,0-.011-.2.468.468,0,0,0-.041-.135.239.239,0,0,0-.067-.077.153.153,0,0,0-.091-.027H794.69v-2.5Z" transform="translate(-638.512 -383.595)" fill="#010203"/>
  <path id="Path_8647" data-name="Path 8647" d="M802.136,420.238a.587.587,0,0,0,.162.038,1.973,1.973,0,0,0,.262.013,2.428,2.428,0,0,0,.3-.013.651.651,0,0,0,.173-.037.134.134,0,0,0,.079-.062.174.174,0,0,0,.019-.087.606.606,0,0,0-.025-.137c-.015-.06-.054-.164-.112-.312l-.714-1.756c-.081-.2-.163-.381-.246-.541a2.713,2.713,0,0,0-.262-.426,1.742,1.742,0,0,0-.3-.318,1.545,1.545,0,0,0-.356-.218,3.164,3.164,0,0,0,.633-.3,2.066,2.066,0,0,0,.487-.422,1.73,1.73,0,0,0,.31-.56,2.195,2.195,0,0,0,.108-.718,2.247,2.247,0,0,0-.119-.755,1.762,1.762,0,0,0-.36-.606,1.953,1.953,0,0,0-.595-.437,3.1,3.1,0,0,0-.816-.252c-.106-.012-.225-.023-.36-.033s-.3-.017-.5-.017h-1.694a.439.439,0,0,0-.268.1.394.394,0,0,0-.127.335v7.377a.158.158,0,0,0,.025.087.169.169,0,0,0,.087.06,1.16,1.16,0,0,0,.162.036,1.879,1.879,0,0,0,.256.015,1.833,1.833,0,0,0,.256-.015,1.052,1.052,0,0,0,.16-.036.2.2,0,0,0,.087-.06.133.133,0,0,0,.027-.087V416.7h.708a1.62,1.62,0,0,1,.622.108,1.342,1.342,0,0,1,.45.3,1.881,1.881,0,0,1,.329.462c.092.177.181.373.267.587l.734,1.879a.458.458,0,0,0,.058.123A.242.242,0,0,0,802.136,420.238Zm-1.505-4.5a2.314,2.314,0,0,1-.724.1h-1.036v-2.684h.893q.315,0,.508.017a2.107,2.107,0,0,1,.348.062,1.185,1.185,0,0,1,.7.466,1.432,1.432,0,0,1,.208.791,1.469,1.469,0,0,1-.094.535,1.084,1.084,0,0,1-.3.427A1.474,1.474,0,0,1,800.63,415.742Z" transform="translate(-634.644 -383.595)" fill="#010203"/>
  <path id="Path_8648" data-name="Path 8648" d="M719.21,426.817a2.566,2.566,0,0,0-1.043-.537,5.853,5.853,0,0,0-1.527-.173,5.6,5.6,0,0,0-.976.081,6.61,6.61,0,0,0-.872.208,4.92,4.92,0,0,0-.7.275,1.567,1.567,0,0,0-.418.273.64.64,0,0,0-.162.277,1.6,1.6,0,0,0-.042.418,2.279,2.279,0,0,0,.025.356,1.241,1.241,0,0,0,.071.273.457.457,0,0,0,.119.169.251.251,0,0,0,.167.06.771.771,0,0,0,.352-.119c.144-.079.325-.167.541-.264a5.454,5.454,0,0,1,.745-.264,3.544,3.544,0,0,1,.957-.119,2.392,2.392,0,0,1,.685.085,1,1,0,0,1,.443.264,1.042,1.042,0,0,1,.239.447,2.428,2.428,0,0,1,.073.628v.458h-.741a9.149,9.149,0,0,0-1.779.154,3.883,3.883,0,0,0-1.282.472,2.13,2.13,0,0,0-.774.809,2.434,2.434,0,0,0-.26,1.155,2.613,2.613,0,0,0,.2,1.072,2.107,2.107,0,0,0,.576.77,2.471,2.471,0,0,0,.876.468,3.7,3.7,0,0,0,1.111.158,3.11,3.11,0,0,0,1.332-.281,3.438,3.438,0,0,0,1.068-.784v.6a.236.236,0,0,0,.073.187.461.461,0,0,0,.246.1,3.5,3.5,0,0,0,.558.031,3.429,3.429,0,0,0,.539-.031.572.572,0,0,0,.269-.1.227.227,0,0,0,.085-.187V429.1a4.4,4.4,0,0,0-.187-1.353A2.071,2.071,0,0,0,719.21,426.817Zm-1.319,5.435a3.37,3.37,0,0,1-.772.672,1.559,1.559,0,0,1-.83.231,1.2,1.2,0,0,1-.838-.273.954.954,0,0,1-.3-.749,1.109,1.109,0,0,1,.106-.5.938.938,0,0,1,.337-.372,1.68,1.68,0,0,1,.595-.229,4.33,4.33,0,0,1,.886-.077h.818Z" transform="translate(-713.055 -370.806)" fill="#010203"/>
  <path id="Path_8649" data-name="Path 8649" d="M724.54,427.056a2.291,2.291,0,0,0-.859-.695,3.026,3.026,0,0,0-1.307-.254,2.882,2.882,0,0,0-1.357.339,4.807,4.807,0,0,0-1.282,1.022v-.878a.257.257,0,0,0-.042-.148.318.318,0,0,0-.141-.106.988.988,0,0,0-.277-.064,3.645,3.645,0,0,0-.45-.021,3.507,3.507,0,0,0-.439.021,1.168,1.168,0,0,0-.285.064.308.308,0,0,0-.152.106.258.258,0,0,0-.044.148v7.595a.229.229,0,0,0,.052.148.368.368,0,0,0,.175.106,1.524,1.524,0,0,0,.327.066c.137.013.31.021.52.021s.383-.008.518-.021a1.564,1.564,0,0,0,.329-.066.361.361,0,0,0,.173-.106.229.229,0,0,0,.052-.148v-5.048a4.386,4.386,0,0,1,.868-.868,1.418,1.418,0,0,1,.826-.3,1.226,1.226,0,0,1,.566.123,1.043,1.043,0,0,1,.395.349,1.719,1.719,0,0,1,.235.541,3.663,3.663,0,0,1,.081.868v4.333a.228.228,0,0,0,.052.148.356.356,0,0,0,.169.106,1.47,1.47,0,0,0,.327.066c.139.013.314.021.524.021s.375-.008.516-.021a1.47,1.47,0,0,0,.327-.066.358.358,0,0,0,.17-.106.229.229,0,0,0,.052-.148v-4.692a6,6,0,0,0-.144-1.413A2.786,2.786,0,0,0,724.54,427.056Z" transform="translate(-708.569 -370.806)" fill="#010203"/>
  <path id="Path_8650" data-name="Path 8650" d="M734.04,424.806a.981.981,0,0,0-.3-.071,4.324,4.324,0,0,0-.485-.021,4.519,4.519,0,0,0-.5.021,1.134,1.134,0,0,0-.314.071.424.424,0,0,0-.171.119.258.258,0,0,0-.05.154v5.167q0,.586.011,1.234c.01.431.021.845.039,1.244h-.008q-.153-.341-.316-.681t-.331-.7c-.114-.235-.233-.47-.354-.706s-.245-.474-.37-.718L728.74,425.9a4.508,4.508,0,0,0-.314-.556,1.428,1.428,0,0,0-.327-.354,1.132,1.132,0,0,0-.4-.183,2.3,2.3,0,0,0-.545-.056h-1.2a.859.859,0,0,0-.576.2.748.748,0,0,0-.233.6v9.9a.274.274,0,0,0,.042.152.305.305,0,0,0,.152.115,1.156,1.156,0,0,0,.306.071,3.883,3.883,0,0,0,.495.027,3.947,3.947,0,0,0,.5-.027,1.229,1.229,0,0,0,.31-.071.336.336,0,0,0,.162-.115.262.262,0,0,0,.046-.152v-5.764c0-.431-.006-.849-.015-1.255s-.029-.812-.052-1.222h.018c.131.335.277.68.443,1.034s.325.687.485.993l2.741,5.15a7.75,7.75,0,0,0,.383.693,1.894,1.894,0,0,0,.352.426,1.038,1.038,0,0,0,.4.218,1.934,1.934,0,0,0,.516.06h.953a1.134,1.134,0,0,0,.32-.046.694.694,0,0,0,.271-.15.7.7,0,0,0,.183-.254.841.841,0,0,0,.069-.35v-9.9a.283.283,0,0,0-.044-.154A.345.345,0,0,0,734.04,424.806Z" transform="translate(-701.866 -372.095)" fill="#010203"/>
  <path id="Path_8651" data-name="Path 8651" d="M740.141,424.806a.984.984,0,0,0-.3-.071,4.32,4.32,0,0,0-.485-.021,4.524,4.524,0,0,0-.5.021,1.132,1.132,0,0,0-.314.071.424.424,0,0,0-.171.119.258.258,0,0,0-.05.154v5.167q0,.586.012,1.234c.01.431.021.845.039,1.244h-.008c-.1-.227-.208-.454-.316-.681s-.218-.458-.331-.7-.233-.47-.354-.706-.244-.474-.37-.718l-2.146-4.027a4.3,4.3,0,0,0-.314-.556,1.431,1.431,0,0,0-.327-.354,1.132,1.132,0,0,0-.4-.183,2.3,2.3,0,0,0-.545-.056h-1.2a.859.859,0,0,0-.576.2.748.748,0,0,0-.233.6v9.9a.274.274,0,0,0,.042.152.306.306,0,0,0,.152.115,1.16,1.16,0,0,0,.306.071,3.879,3.879,0,0,0,.495.027,3.943,3.943,0,0,0,.5-.027,1.23,1.23,0,0,0,.31-.071.338.338,0,0,0,.162-.115.263.263,0,0,0,.046-.152v-5.764q0-.647-.015-1.255c-.011-.406-.029-.812-.052-1.222h.017c.131.335.277.68.443,1.034s.325.687.485.993l2.741,5.15a7.732,7.732,0,0,0,.383.693,1.884,1.884,0,0,0,.352.426,1.037,1.037,0,0,0,.4.218,1.933,1.933,0,0,0,.516.06h.953a1.132,1.132,0,0,0,.319-.046.7.7,0,0,0,.272-.15.708.708,0,0,0,.183-.254.843.843,0,0,0,.069-.35v-9.9a.282.282,0,0,0-.044-.154A.344.344,0,0,0,740.141,424.806Z" transform="translate(-696.221 -372.095)" fill="#010203"/>
  <path id="Path_8652" data-name="Path 8652" d="M739.361,424.8a1.933,1.933,0,0,0-.341-.067,4.717,4.717,0,0,0-.545-.025,4.635,4.635,0,0,0-.537.025,2.111,2.111,0,0,0-.345.067.391.391,0,0,0-.187.112.239.239,0,0,0-.056.152v10.4a.245.245,0,0,0,.056.154.4.4,0,0,0,.183.11,1.651,1.651,0,0,0,.345.067,5.476,5.476,0,0,0,1.086,0,1.632,1.632,0,0,0,.341-.067.4.4,0,0,0,.183-.11.245.245,0,0,0,.056-.154v-10.4a.239.239,0,0,0-.056-.152A.386.386,0,0,0,739.361,424.8Z" transform="translate(-690.578 -372.103)" fill="#010203"/>
  <path id="Path_8653" data-name="Path 8653" d="M747.674,424.931a.339.339,0,0,0-.108-.152.233.233,0,0,0-.141-.048h-7.764a.232.232,0,0,0-.144.048.368.368,0,0,0-.1.152,1.191,1.191,0,0,0-.064.285,3.958,3.958,0,0,0-.021.435,3.774,3.774,0,0,0,.021.422,1.2,1.2,0,0,0,.064.281.424.424,0,0,0,.1.158.223.223,0,0,0,.144.05h2.759v8.879a.244.244,0,0,0,.056.154.4.4,0,0,0,.183.11,1.646,1.646,0,0,0,.345.067,5.449,5.449,0,0,0,1.082,0,1.653,1.653,0,0,0,.345-.067.4.4,0,0,0,.183-.11.245.245,0,0,0,.056-.154v-8.879h2.757a.224.224,0,0,0,.141-.05.386.386,0,0,0,.108-.158,1.307,1.307,0,0,0,.063-.281,3.73,3.73,0,0,0,.021-.422,3.913,3.913,0,0,0-.021-.435A1.3,1.3,0,0,0,747.674,424.931Z" transform="translate(-688.747 -372.079)" fill="#010203"/>
  <path id="Path_8654" data-name="Path 8654" d="M755.6,425.554a1.759,1.759,0,0,0-.4-.281,3.917,3.917,0,0,0-.728-.3,7.266,7.266,0,0,0-1.026-.239,7.924,7.924,0,0,0-1.3-.1,6.627,6.627,0,0,0-2.362.4,5,5,0,0,0-1.81,1.153,5.146,5.146,0,0,0-1.157,1.831,6.785,6.785,0,0,0-.408,2.43,6.7,6.7,0,0,0,.383,2.345,4.634,4.634,0,0,0,2.872,2.853,6.9,6.9,0,0,0,2.362.377c.3,0,.6-.013.9-.042a8.5,8.5,0,0,0,.884-.127c.293-.056.576-.125.847-.2s.5-.156.685-.229a.632.632,0,0,0,.366-.3,1.039,1.039,0,0,0,.091-.447v-4.383a.97.97,0,0,0-.042-.3.649.649,0,0,0-.123-.225.536.536,0,0,0-.189-.141.6.6,0,0,0-.243-.046h-3.719a.218.218,0,0,0-.137.046.377.377,0,0,0-.1.144.949.949,0,0,0-.063.26,3.263,3.263,0,0,0-.021.4,1.776,1.776,0,0,0,.085.651c.058.127.137.193.239.193h2.085v2.553a2.77,2.77,0,0,1-.68.256,3.31,3.31,0,0,1-.741.085,3.838,3.838,0,0,1-1.4-.246,2.9,2.9,0,0,1-1.086-.732,3.374,3.374,0,0,1-.7-1.205,5.036,5.036,0,0,1-.252-1.665,4.734,4.734,0,0,1,.248-1.569,3.448,3.448,0,0,1,.707-1.219,3.155,3.155,0,0,1,1.107-.784,3.666,3.666,0,0,1,1.446-.275,5.058,5.058,0,0,1,1.315.152,7.077,7.077,0,0,1,.976.333,5.328,5.328,0,0,1,.654.331.846.846,0,0,0,.358.154.21.21,0,0,0,.133-.042.324.324,0,0,0,.093-.15,1.325,1.325,0,0,0,.06-.285,3.829,3.829,0,0,0,.021-.426,3.122,3.122,0,0,0-.05-.643A.7.7,0,0,0,755.6,425.554Z" transform="translate(-682.203 -372.169)" fill="#010203"/>
  <path id="Path_8655" data-name="Path 8655" d="M757.388,426.544a.692.692,0,0,0-.037-.141.282.282,0,0,0-.069-.092.449.449,0,0,0-.148-.081,1.792,1.792,0,0,0-.239-.069,2.261,2.261,0,0,0-.264-.042c-.085-.008-.166-.012-.239-.012a1.769,1.769,0,0,0-.478.064,1.569,1.569,0,0,0-.476.225,3.1,3.1,0,0,0-.5.439,6,6,0,0,0-.562.7v-.945a.258.258,0,0,0-.042-.148.318.318,0,0,0-.141-.106.989.989,0,0,0-.277-.064,3.667,3.667,0,0,0-.451-.021,3.506,3.506,0,0,0-.439.021,1.17,1.17,0,0,0-.285.064.324.324,0,0,0-.154.106.274.274,0,0,0-.042.148v7.595a.228.228,0,0,0,.052.148.369.369,0,0,0,.175.106,1.515,1.515,0,0,0,.327.066c.135.013.308.021.52.021s.383-.008.518-.021a1.515,1.515,0,0,0,.327-.066.369.369,0,0,0,.175-.106.228.228,0,0,0,.052-.148v-4.734a6.551,6.551,0,0,1,.447-.629,2.688,2.688,0,0,1,.4-.408,1.49,1.49,0,0,1,.37-.225.954.954,0,0,1,.358-.073,1.174,1.174,0,0,1,.281.031c.085.019.162.041.233.064s.135.044.192.063a.477.477,0,0,0,.152.029.218.218,0,0,0,.141-.042.307.307,0,0,0,.091-.152,1.575,1.575,0,0,0,.05-.308c.012-.129.017-.3.017-.5s0-.368-.008-.487A2.068,2.068,0,0,0,757.388,426.544Z" transform="translate(-676.523 -370.806)" fill="#010203"/>
  <path id="Path_8656" data-name="Path 8656" d="M762.721,427.2a3.093,3.093,0,0,0-1.238-.814,5.148,5.148,0,0,0-1.771-.275,4.85,4.85,0,0,0-1.825.314,3.475,3.475,0,0,0-1.3.889,3.762,3.762,0,0,0-.778,1.38,5.734,5.734,0,0,0-.26,1.775,6.11,6.11,0,0,0,.239,1.787,3.336,3.336,0,0,0,.732,1.319,3.155,3.155,0,0,0,1.244.818,5.016,5.016,0,0,0,1.761.281,4.892,4.892,0,0,0,1.831-.316,3.454,3.454,0,0,0,1.3-.893,3.74,3.74,0,0,0,.776-1.378,5.834,5.834,0,0,0,.254-1.771,6.138,6.138,0,0,0-.239-1.8A3.353,3.353,0,0,0,762.721,427.2Zm-1.35,4.276a2.335,2.335,0,0,1-.339.8,1.509,1.509,0,0,1-.589.506,1.876,1.876,0,0,1-.841.175,1.842,1.842,0,0,1-.885-.193,1.425,1.425,0,0,1-.566-.539,2.549,2.549,0,0,1-.3-.822,5.225,5.225,0,0,1-.094-1.034,4.58,4.58,0,0,1,.115-1.078,2.454,2.454,0,0,1,.345-.808,1.5,1.5,0,0,1,.587-.51,1.892,1.892,0,0,1,.834-.175,1.822,1.822,0,0,1,.891.2,1.5,1.5,0,0,1,.564.545,2.418,2.418,0,0,1,.3.822,5.721,5.721,0,0,1,.089,1.034A4.657,4.657,0,0,1,761.371,431.472Z" transform="translate(-673.742 -370.806)" fill="#010203"/>
  <path id="Path_8657" data-name="Path 8657" d="M767.794,426.267a1.365,1.365,0,0,0-.323-.063,4.846,4.846,0,0,0-.52-.021,4.788,4.788,0,0,0-.518.021,1.465,1.465,0,0,0-.329.063.351.351,0,0,0-.169.106.246.246,0,0,0-.046.148v5.05a4.983,4.983,0,0,1-.882.868,1.4,1.4,0,0,1-.822.3,1.226,1.226,0,0,1-.566-.123,1.073,1.073,0,0,1-.4-.348,1.594,1.594,0,0,1-.233-.541,4.023,4.023,0,0,1-.077-.911v-4.291a.229.229,0,0,0-.052-.148.378.378,0,0,0-.173-.106,1.468,1.468,0,0,0-.329-.063,4.788,4.788,0,0,0-.518-.021,4.868,4.868,0,0,0-.516.021,1.465,1.465,0,0,0-.331.063.36.36,0,0,0-.171.106.246.246,0,0,0-.046.148v4.649a6.281,6.281,0,0,0,.141,1.452,2.843,2.843,0,0,0,.468,1.026,2.278,2.278,0,0,0,.86.7,3.01,3.01,0,0,0,1.315.256,2.877,2.877,0,0,0,1.349-.341,4.827,4.827,0,0,0,1.28-1.022v.878a.274.274,0,0,0,.042.148.306.306,0,0,0,.146.106,1.086,1.086,0,0,0,.275.065,4.117,4.117,0,0,0,.456.021,3.923,3.923,0,0,0,.439-.021,1.185,1.185,0,0,0,.281-.065.312.312,0,0,0,.148-.106.258.258,0,0,0,.042-.148v-7.595a.238.238,0,0,0-.05-.148A.39.39,0,0,0,767.794,426.267Z" transform="translate(-668.912 -370.736)" fill="#010203"/>
  <path id="Path_8658" data-name="Path 8658" d="M772.721,427.331a2.687,2.687,0,0,0-.957-.9,2.873,2.873,0,0,0-1.423-.327,3.158,3.158,0,0,0-.753.085,2.846,2.846,0,0,0-.685.26,3.818,3.818,0,0,0-.651.433,7.621,7.621,0,0,0-.653.6v-.9a.258.258,0,0,0-.042-.148.314.314,0,0,0-.148-.106,1.111,1.111,0,0,0-.281-.064,3.378,3.378,0,0,0-.429-.021,3.465,3.465,0,0,0-.439.021,1.111,1.111,0,0,0-.281.064.3.3,0,0,0-.148.106.258.258,0,0,0-.042.148V437.2a.246.246,0,0,0,.05.154.388.388,0,0,0,.175.114,1.365,1.365,0,0,0,.327.073,4.316,4.316,0,0,0,.52.025,4.259,4.259,0,0,0,.518-.025,1.411,1.411,0,0,0,.329-.073.381.381,0,0,0,.173-.114.248.248,0,0,0,.052-.154v-3.575a6.3,6.3,0,0,0,.527.46,3.3,3.3,0,0,0,.516.327,2.266,2.266,0,0,0,.535.2,2.717,2.717,0,0,0,.608.064,3.186,3.186,0,0,0,1.423-.306,2.8,2.8,0,0,0,1.038-.878,4.125,4.125,0,0,0,.635-1.382,7.11,7.11,0,0,0,.216-1.827,7.365,7.365,0,0,0-.169-1.617A4.072,4.072,0,0,0,772.721,427.331Zm-1.609,3.968a2.8,2.8,0,0,1-.275.778,1.639,1.639,0,0,1-.481.558,1.177,1.177,0,0,1-.711.214,1.389,1.389,0,0,1-.853-.312,4.994,4.994,0,0,1-.858-.88v-2.5a5.221,5.221,0,0,1,.485-.572,3.069,3.069,0,0,1,.447-.373,1.639,1.639,0,0,1,.425-.21,1.436,1.436,0,0,1,.422-.064,1.164,1.164,0,0,1,.71.21,1.513,1.513,0,0,1,.46.556,2.777,2.777,0,0,1,.246.8,5.825,5.825,0,0,1,.073.932A4.28,4.28,0,0,1,771.112,431.3Z" transform="translate(-664.269 -370.806)" fill="#010203"/>
  <path id="Path_8659" data-name="Path 8659" d="M780.839,433.39a.273.273,0,0,0-.085-.137.261.261,0,0,0-.137-.033.634.634,0,0,0-.312.135,5.735,5.735,0,0,1-.51.308,4.435,4.435,0,0,1-.745.31,3.338,3.338,0,0,1-1.03.141,2.948,2.948,0,0,1-1.178-.225,2.315,2.315,0,0,1-.9-.685,3.242,3.242,0,0,1-.57-1.171,6.27,6.27,0,0,1-.2-1.683,6.191,6.191,0,0,1,.189-1.59,3.526,3.526,0,0,1,.549-1.205,2.418,2.418,0,0,1,2.046-1.034,3.182,3.182,0,0,1,1.026.148,4.125,4.125,0,0,1,.741.333,5.194,5.194,0,0,1,.506.331.584.584,0,0,0,.323.148.2.2,0,0,0,.135-.05.4.4,0,0,0,.1-.162,1.2,1.2,0,0,0,.06-.291c.009-.119.015-.264.015-.433s0-.293-.012-.4a2.339,2.339,0,0,0-.038-.281.8.8,0,0,0-.068-.2,1.011,1.011,0,0,0-.158-.191,1.959,1.959,0,0,0-.4-.277,4,4,0,0,0-.653-.285,5.635,5.635,0,0,0-.787-.2,5.07,5.07,0,0,0-.886-.077,5.458,5.458,0,0,0-2.071.383,4.4,4.4,0,0,0-1.613,1.124,5.219,5.219,0,0,0-1.047,1.831,7.634,7.634,0,0,0-.375,2.493,7.762,7.762,0,0,0,.341,2.418,4.662,4.662,0,0,0,.98,1.733,4.036,4.036,0,0,0,1.55,1.043,5.66,5.66,0,0,0,2.042.348,5.887,5.887,0,0,0,1.962-.327,4.271,4.271,0,0,0,.655-.295,1.693,1.693,0,0,0,.362-.25.855.855,0,0,0,.137-.175.7.7,0,0,0,.069-.183,1.919,1.919,0,0,0,.036-.256c.01-.1.014-.219.014-.362,0-.2-.006-.366-.018-.489A1.47,1.47,0,0,0,780.839,433.39Z" transform="translate(-657.821 -372.165)" fill="#010203"/>
  <path id="Path_8660" data-name="Path 8660" d="M784.829,427.2a3.091,3.091,0,0,0-1.238-.814,5.157,5.157,0,0,0-1.771-.275,4.862,4.862,0,0,0-1.827.314,3.484,3.484,0,0,0-1.3.889,3.739,3.739,0,0,0-.78,1.38,5.794,5.794,0,0,0-.258,1.775,6.179,6.179,0,0,0,.237,1.787,3.364,3.364,0,0,0,.734,1.319,3.161,3.161,0,0,0,1.242.818,5.031,5.031,0,0,0,1.761.281,4.885,4.885,0,0,0,1.831-.316,3.461,3.461,0,0,0,1.3-.893,3.709,3.709,0,0,0,.774-1.378,5.773,5.773,0,0,0,.256-1.771,6.206,6.206,0,0,0-.239-1.8A3.4,3.4,0,0,0,784.829,427.2Zm-1.349,4.276a2.3,2.3,0,0,1-.341.8,1.49,1.49,0,0,1-.587.506,1.891,1.891,0,0,1-.843.175,1.83,1.83,0,0,1-.884-.193,1.442,1.442,0,0,1-.568-.539,2.59,2.59,0,0,1-.3-.822,5.377,5.377,0,0,1-.093-1.034,4.57,4.57,0,0,1,.116-1.078,2.413,2.413,0,0,1,.345-.808,1.5,1.5,0,0,1,.587-.51,1.892,1.892,0,0,1,.834-.175,1.809,1.809,0,0,1,.889.2,1.506,1.506,0,0,1,.566.545,2.419,2.419,0,0,1,.3.822,5.554,5.554,0,0,1,.091,1.034A4.759,4.759,0,0,1,783.479,431.472Z" transform="translate(-653.289 -370.806)" fill="#010203"/>
  <path id="Path_8661" data-name="Path 8661" d="M794.388,427.056a2.255,2.255,0,0,0-.839-.695,2.883,2.883,0,0,0-1.276-.254,2.543,2.543,0,0,0-.651.081,2.916,2.916,0,0,0-.639.246,3.926,3.926,0,0,0-.647.429,6.621,6.621,0,0,0-.668.63,2.5,2.5,0,0,0-.358-.57,2.108,2.108,0,0,0-.506-.439,2.428,2.428,0,0,0-.668-.281,3.335,3.335,0,0,0-.843-.1,2.682,2.682,0,0,0-1.305.339,5.007,5.007,0,0,0-1.257,1.022v-.878a.257.257,0,0,0-.042-.148.318.318,0,0,0-.141-.106.988.988,0,0,0-.277-.064,3.646,3.646,0,0,0-.45-.021,3.506,3.506,0,0,0-.439.021,1.19,1.19,0,0,0-.285.064.308.308,0,0,0-.152.106.258.258,0,0,0-.042.148v7.595a.227.227,0,0,0,.05.148.369.369,0,0,0,.175.106,1.54,1.54,0,0,0,.327.066c.137.013.31.021.52.021s.383-.008.52-.021a1.569,1.569,0,0,0,.327-.066.361.361,0,0,0,.173-.106.228.228,0,0,0,.052-.148v-5.048a4.866,4.866,0,0,1,.843-.868,1.291,1.291,0,0,1,.783-.3,1.11,1.11,0,0,1,.535.123,1.018,1.018,0,0,1,.375.349,1.706,1.706,0,0,1,.216.541,3.129,3.129,0,0,1,.073.7v4.5a.238.238,0,0,0,.05.148.368.368,0,0,0,.175.106,1.573,1.573,0,0,0,.327.066c.137.013.31.021.52.021s.375-.008.51-.021a1.565,1.565,0,0,0,.329-.066.36.36,0,0,0,.173-.106.228.228,0,0,0,.052-.148v-5.048a5.083,5.083,0,0,1,.851-.868,1.287,1.287,0,0,1,.774-.3,1.106,1.106,0,0,1,.541.123,1.064,1.064,0,0,1,.375.349,1.669,1.669,0,0,1,.221.541,3.141,3.141,0,0,1,.071.7v4.5a.235.235,0,0,0,.048.148.33.33,0,0,0,.169.106,1.571,1.571,0,0,0,.327.066c.137.013.312.021.527.021s.385-.008.52-.021a1.451,1.451,0,0,0,.323-.066.363.363,0,0,0,.171-.106.237.237,0,0,0,.05-.148v-4.861a5.516,5.516,0,0,0-.135-1.244A2.821,2.821,0,0,0,794.388,427.056Z" transform="translate(-648.439 -370.806)" fill="#010203"/>
  <path id="Path_8662" data-name="Path 8662" d="M797.337,427.331a2.679,2.679,0,0,0-.959-.9,2.861,2.861,0,0,0-1.421-.327,3.146,3.146,0,0,0-.753.085,2.85,2.85,0,0,0-.685.26,3.922,3.922,0,0,0-.653.433,7.974,7.974,0,0,0-.651.6v-.9a.257.257,0,0,0-.042-.148.324.324,0,0,0-.148-.106,1.114,1.114,0,0,0-.281-.064,3.41,3.41,0,0,0-.431-.021,3.452,3.452,0,0,0-.437.021,1.075,1.075,0,0,0-.281.064.321.321,0,0,0-.15.106.274.274,0,0,0-.042.148V437.2a.248.248,0,0,0,.052.154.382.382,0,0,0,.173.114,1.405,1.405,0,0,0,.329.073,4.261,4.261,0,0,0,.518.025,4.316,4.316,0,0,0,.52-.025,1.369,1.369,0,0,0,.327-.073.388.388,0,0,0,.175-.114.248.248,0,0,0,.052-.154v-3.575a6.032,6.032,0,0,0,.527.46,3.273,3.273,0,0,0,.514.327,2.313,2.313,0,0,0,.537.2,2.722,2.722,0,0,0,.609.064,3.171,3.171,0,0,0,1.421-.306,2.818,2.818,0,0,0,1.039-.878,4.123,4.123,0,0,0,.633-1.382,7.1,7.1,0,0,0,.218-1.827,7.365,7.365,0,0,0-.169-1.617A4.075,4.075,0,0,0,797.337,427.331Zm-1.609,3.968a2.8,2.8,0,0,1-.277.778,1.635,1.635,0,0,1-.479.558,1.179,1.179,0,0,1-.712.214,1.388,1.388,0,0,1-.851-.312,5,5,0,0,1-.859-.88v-2.5a5.221,5.221,0,0,1,.485-.572,2.968,2.968,0,0,1,.446-.373,1.64,1.64,0,0,1,.426-.21,1.435,1.435,0,0,1,.422-.064,1.163,1.163,0,0,1,.71.21,1.513,1.513,0,0,1,.46.556,2.782,2.782,0,0,1,.246.8,5.81,5.81,0,0,1,.073.932A4.288,4.288,0,0,1,795.728,431.3Z" transform="translate(-641.499 -370.806)" fill="#010203"/>
  <path id="Path_8663" data-name="Path 8663" d="M801.311,426.817a2.59,2.59,0,0,0-1.044-.537,5.866,5.866,0,0,0-1.528-.173,5.581,5.581,0,0,0-.974.081,6.465,6.465,0,0,0-.872.208,4.951,4.951,0,0,0-.7.275,1.636,1.636,0,0,0-.418.273.635.635,0,0,0-.16.277,1.591,1.591,0,0,0-.044.418,2.525,2.525,0,0,0,.025.356,1.362,1.362,0,0,0,.073.273.439.439,0,0,0,.12.169.25.25,0,0,0,.165.06.777.777,0,0,0,.354-.119c.144-.079.323-.167.541-.264a5.5,5.5,0,0,1,.743-.264,3.549,3.549,0,0,1,.959-.119,2.4,2.4,0,0,1,.685.085,1.013,1.013,0,0,1,.443.264,1.082,1.082,0,0,1,.239.447,2.434,2.434,0,0,1,.071.628v.458h-.739a9.184,9.184,0,0,0-1.781.154,3.873,3.873,0,0,0-1.28.472,2.136,2.136,0,0,0-.776.809,2.436,2.436,0,0,0-.258,1.155,2.609,2.609,0,0,0,.2,1.072,2.1,2.1,0,0,0,.574.77,2.464,2.464,0,0,0,.878.468,3.687,3.687,0,0,0,1.111.158,3.115,3.115,0,0,0,1.332-.281,3.437,3.437,0,0,0,1.069-.784v.6a.242.242,0,0,0,.071.187.468.468,0,0,0,.246.1,3.512,3.512,0,0,0,.558.031,3.443,3.443,0,0,0,.541-.031.565.565,0,0,0,.268-.1.222.222,0,0,0,.085-.187V429.1a4.346,4.346,0,0,0-.187-1.353A2.085,2.085,0,0,0,801.311,426.817Zm-1.321,5.435a3.359,3.359,0,0,1-.77.672,1.564,1.564,0,0,1-.83.231,1.2,1.2,0,0,1-.839-.273.96.96,0,0,1-.3-.749,1.108,1.108,0,0,1,.108-.5.944.944,0,0,1,.335-.372,1.686,1.686,0,0,1,.6-.229,4.328,4.328,0,0,1,.885-.077h.816Z" transform="translate(-637.102 -370.806)" fill="#010203"/>
  <path id="Path_8664" data-name="Path 8664" d="M806.641,427.056a2.3,2.3,0,0,0-.861-.695,3.013,3.013,0,0,0-1.307-.254,2.893,2.893,0,0,0-1.357.339,4.833,4.833,0,0,0-1.28,1.022v-.878a.274.274,0,0,0-.042-.148.318.318,0,0,0-.141-.106.989.989,0,0,0-.277-.064,3.663,3.663,0,0,0-.45-.021,3.466,3.466,0,0,0-.439.021,1.149,1.149,0,0,0-.285.064.324.324,0,0,0-.154.106.258.258,0,0,0-.042.148v7.595a.228.228,0,0,0,.052.148.352.352,0,0,0,.173.106,1.568,1.568,0,0,0,.327.066c.137.013.31.021.52.021s.383-.008.52-.021a1.543,1.543,0,0,0,.327-.066.37.37,0,0,0,.175-.106.227.227,0,0,0,.05-.148v-5.048a4.493,4.493,0,0,1,.868-.868,1.427,1.427,0,0,1,.826-.3,1.226,1.226,0,0,1,.566.123,1.051,1.051,0,0,1,.4.349,1.71,1.71,0,0,1,.235.541,3.654,3.654,0,0,1,.081.868v4.333a.238.238,0,0,0,.05.148.364.364,0,0,0,.171.106,1.468,1.468,0,0,0,.327.066c.139.013.314.021.523.021s.375-.008.514-.021a1.492,1.492,0,0,0,.329-.066.367.367,0,0,0,.169-.106.228.228,0,0,0,.052-.148v-4.692a5.987,5.987,0,0,0-.146-1.413A2.817,2.817,0,0,0,806.641,427.056Z" transform="translate(-632.616 -370.806)" fill="#010203"/>
  <path id="Path_8665" data-name="Path 8665" d="M811.787,426.215a4.792,4.792,0,0,0-.609-.033,4.471,4.471,0,0,0-.655.033.562.562,0,0,0-.269.108.581.581,0,0,0-.131.293l-1.635,5.184h-.025l-1.789-5.082a1.623,1.623,0,0,0-.119-.3.349.349,0,0,0-.179-.156,1.032,1.032,0,0,0-.331-.065c-.143-.008-.335-.012-.58-.012a5.131,5.131,0,0,0-.643.033.678.678,0,0,0-.345.123.315.315,0,0,0-.1.248,1.449,1.449,0,0,0,.11.454l2.614,6.981a.727.727,0,0,0,.133.225.572.572,0,0,0,.2.158l-1.015,2.545a.559.559,0,0,0-.05.246.226.226,0,0,0,.11.171.813.813,0,0,0,.308.1,5.311,5.311,0,0,0,1.54-.063.552.552,0,0,0,.416-.308l.92-2.689,2.528-7.441a1.205,1.205,0,0,0,.069-.37.3.3,0,0,0-.116-.25A.724.724,0,0,0,811.787,426.215Z" transform="translate(-628.571 -370.736)" fill="#010203"/>
  <path id="Path_8666" data-name="Path 8666" d="M812.3,412.4l-2.672-7.4a.344.344,0,0,0-.067-.114.293.293,0,0,0-.123-.071,1.016,1.016,0,0,0-.21-.035c-.087-.006-.194-.008-.325-.008s-.225,0-.306.008a.894.894,0,0,0-.2.035.275.275,0,0,0-.117.067.329.329,0,0,0-.065.112l-2.672,7.4a.751.751,0,0,0-.052.217.158.158,0,0,0,.042.127.29.29,0,0,0,.16.058,2.077,2.077,0,0,0,.293.015,2.738,2.738,0,0,0,.281-.012.556.556,0,0,0,.166-.04.242.242,0,0,0,.09-.067.348.348,0,0,0,.048-.1l.653-1.916h3.313l.683,1.941a.515.515,0,0,0,.054.092.166.166,0,0,0,.085.058.658.658,0,0,0,.173.031c.075.008.177.01.3.01s.229,0,.306-.012a.3.3,0,0,0,.162-.056.154.154,0,0,0,.048-.127A.856.856,0,0,0,812.3,412.4Zm-4.809-2.562,1.373-3.972h.006l1.392,3.972Z" transform="translate(-627.543 -390.549)" fill="#010203"/>
  <path id="Path_8667" data-name="Path 8667" d="M811.927,412.934a1.557,1.557,0,0,0-.291-.208,2.959,2.959,0,0,0-.526-.233,5.523,5.523,0,0,0-.71-.189,4.473,4.473,0,0,0-.856-.079,4.236,4.236,0,0,0-1.615.3,3.6,3.6,0,0,0-1.251.841,3.739,3.739,0,0,0-.807,1.311,4.907,4.907,0,0,0-.285,1.717,4.855,4.855,0,0,0,.264,1.652,3.6,3.6,0,0,0,.766,1.269,3.372,3.372,0,0,0,1.23.814,4.432,4.432,0,0,0,1.65.287,5.095,5.095,0,0,0,1.219-.148,5.2,5.2,0,0,0,.585-.177c.189-.071.343-.135.462-.194a.5.5,0,0,0,.235-.206.653.653,0,0,0,.054-.277v-3.036a.549.549,0,0,0-.031-.2.311.311,0,0,0-.085-.137.386.386,0,0,0-.123-.073.381.381,0,0,0-.137-.025h-2.53a.151.151,0,0,0-.093.025.19.19,0,0,0-.065.077.386.386,0,0,0-.041.135,1.523,1.523,0,0,0-.011.2.781.781,0,0,0,.052.327.167.167,0,0,0,.158.1h1.846v2.322a2.791,2.791,0,0,1-.7.268,3.247,3.247,0,0,1-.749.089,3.05,3.05,0,0,1-1.142-.208,2.46,2.46,0,0,1-.9-.616,2.915,2.915,0,0,1-.587-1,4.358,4.358,0,0,1-.019-2.624,2.959,2.959,0,0,1,.558-1.011,2.55,2.55,0,0,1,.886-.664,2.817,2.817,0,0,1,1.184-.241,3.423,3.423,0,0,1,.957.117,4.221,4.221,0,0,1,.693.258,3.814,3.814,0,0,1,.462.26.551.551,0,0,0,.246.116.142.142,0,0,0,.079-.023.174.174,0,0,0,.061-.085.582.582,0,0,0,.039-.146,1.646,1.646,0,0,0,.012-.208,1.089,1.089,0,0,0-.031-.3A.415.415,0,0,0,811.927,412.934Z" transform="translate(-627.452 -383.648)" fill="#010203"/>
  <g id="Group_429" data-name="Group 429">
    <path id="Path_8668" data-name="Path 8668" d="M770.395,416.16H719.342V400.534a3.144,3.144,0,0,0-6.287,0v37.307a3.144,3.144,0,1,0,6.287,0v-15.49H764.1v3.007h0v3.492a6.049,6.049,0,0,1-6.049,6.051h-6.69a6.049,6.049,0,0,1-6.051-6.051v-.119h0v-3.373h-6.293v3.373h0v.1a12.229,12.229,0,0,0,12.228,12.23h6.919a12.229,12.229,0,0,0,12.228-12.23v-6.486h0V416.16Z" transform="translate(-713.055 -397.373)" fill="#010203"/>
    <path id="Path_8669" data-name="Path 8669" d="M782.053,397.381H738.932a12.39,12.39,0,0,0-12.39,12.388v.2c0,.083,0,.164,0,.246h0v2.9h6.293v-3.563a5.911,5.911,0,0,1,5.912-5.912h43.46a5.913,5.913,0,0,1,5.914,5.912v.7a5.916,5.916,0,0,1-5.914,5.914H762.565v6.191h0v15.57a3.144,3.144,0,1,0,6.287,0v-15.57h12.76v0h.441a12.387,12.387,0,0,0,12.388-12.388v-.2A12.387,12.387,0,0,0,782.053,397.381Z" transform="translate(-700.578 -397.381)" fill="#010203"/>
  </g>
</svg>
