<svg id="Group_418" data-name="Group 418" xmlns="http://www.w3.org/2000/svg" width="215.682" height="52.31" viewBox="0 0 215.682 52.31">
  <path id="Path_8515" data-name="Path 8515" d="M31.667,172.721l3.575-9.587,3.348,9.662H31.667Zm10.423,9.739h3.273l-8.523-23.207h-3.2L24.819,182.46H28.09l2.587-7.152H39.5Zm15.445-4.946c0,1.9-1.521,2.892-4.185,2.892-2.129,0-3.5-.61-4.335-1.979l-3.121.533c1.219,2.51,3.729,3.652,7.3,3.652,4.871,0,7.381-2.664,7.381-5.554,0-3.652-3.423-4.641-7.3-5.479-1.9-.381-4.108-1.065-4.108-2.739,0-1.217,1.142-2.587,3.5-2.587a4.429,4.429,0,0,1,4.031,2.283l2.739-1.142c-1.294-2.433-3.8-3.348-6.391-3.348-4.108,0-6.771,1.979-6.771,5.175,0,3.652,3.119,4.337,6.162,5.021C55.024,174.927,57.535,175.536,57.535,177.515Zm9.587-18.262-3.044,1.294v4.262H61.264v2.433h2.815v11.337C64,180.862,64,182.535,67.5,182.535a19.613,19.613,0,0,0,2.892-.3v-2.358a9.336,9.336,0,0,1-1.9.379c-1.294,0-1.294-.912-1.294-2.967V167.242h3.2v-2.433H67.2v-5.556Zm5.858,5.556V182.46h2.967v-8.141c0-1.523-.075-3.273.762-4.566.988-1.6,2.358-2.129,5.325-2.206V164.5c-1.217.077-4.337.077-6.01,3.425v-3.119Zm26.478-5.556v2.892H112.7L99.533,179.492v3.044H116.5v-2.815H103.033l13.164-17.5V159.33H99.458Zm35.607,5.556V182.46h2.967V172.417a4.9,4.9,0,0,1,1.294-3.956,4.592,4.592,0,0,1,3.348-1.371,3.8,3.8,0,0,1,3.8,2.435,12.1,12.1,0,0,1,.152,2.892v9.966H149.6V172.036a12.249,12.249,0,0,0-.3-3.575,5.831,5.831,0,0,0-5.783-4.033,6.055,6.055,0,0,0-5.479,3.119v-2.662h-2.967ZM181.02,178.2a4.133,4.133,0,0,1-4.108,2.283c-1.977,0-5.325-1.217-5.325-7.075,0-1.6.3-7.077,5.173-7.077a4.214,4.214,0,0,1,4.108,2.51l2.739-1.142c-1.673-2.815-4.794-3.5-7-3.5-5.631,0-8.369,4.489-8.369,9.512,0,4.335,2.358,9.129,8.6,9.129a7.4,7.4,0,0,0,6.7-3.5Zm-60.258-6.389h9.358c-.227-4.641-2.892-5.4-4.717-5.4C122.892,166.4,121.143,168.232,120.761,171.809Zm11.793,7.3a7.251,7.251,0,0,1-6.773,3.652c-5.173,0-8.216-3.5-8.216-9.435,0-6.619,4.337-9.131,8.064-9.131,3.273,0,6.316,1.827,7.381,6.239a17.565,17.565,0,0,1,.3,3.577H120.684c-.075,2.967,1.142,6.7,5.327,6.619a4.263,4.263,0,0,0,3.652-1.977Zm21.912-7.3h9.358c-.227-4.641-2.89-5.4-4.717-5.4C156.521,166.4,154.771,168.232,154.466,171.809Zm11.718,7.3a7.251,7.251,0,0,1-6.773,3.652c-5.173,0-8.216-3.5-8.216-9.435,0-6.619,4.335-9.131,8.064-9.131,3.273,0,6.314,1.827,7.381,6.239a17.565,17.565,0,0,1,.3,3.577H154.239c-.077,2.967,1.14,6.7,5.325,6.619a4.26,4.26,0,0,0,3.652-1.977Zm33.705,3.348h-3.121a15.571,15.571,0,0,1-.379-2.587,7.751,7.751,0,0,1-5.935,2.815c-3.423,0-5.935-2.054-5.935-5.021a4.72,4.72,0,0,1,.762-2.664c.988-1.521,2.89-2.662,8.139-3.119l2.816-.227V171.2c0-1.825,0-4.869-3.956-4.869-2.435,0-3.348,1.217-3.577,2.283l-2.739-1.142c.077-.077.077-.229.152-.3,1.067-1.9,3.121-3.121,6.087-3.121a8.353,8.353,0,0,1,5.1,1.523c1.979,1.521,1.9,4.412,1.9,4.412l.152,9.054A14.445,14.445,0,0,0,199.89,182.46Zm-4.108-4.871c.456-.99.456-1.369.456-3.956a44.425,44.425,0,0,0-4.641.837c-3.273.685-3.8,1.977-3.8,3.2,0,1.446,1.142,2.585,3.348,2.585A4.767,4.767,0,0,0,195.781,177.59ZM97.4,182.46H94.36a15.685,15.685,0,0,1-.381-2.587,7.751,7.751,0,0,1-5.935,2.815c-3.423,0-6.01-2.054-6.01-5.021a4.734,4.734,0,0,1,.76-2.664c.99-1.521,2.892-2.662,8.141-3.119l2.816-.227V171.2c0-1.825,0-4.869-3.958-4.869-2.51,0-3.348,1.217-3.575,2.283l-2.739-1.142c.077-.077.077-.229.152-.3,1.065-1.9,3.121-3.121,6.087-3.121a8.353,8.353,0,0,1,5.1,1.523c1.977,1.521,1.9,4.412,1.9,4.412l.075,9.054A21.987,21.987,0,0,0,97.4,182.46Zm-4.033-4.871c.456-.99.456-1.369.456-3.956a44.425,44.425,0,0,0-4.641.837c-3.271.685-3.8,1.977-3.8,3.2,0,1.446,1.142,2.585,3.348,2.585A4.908,4.908,0,0,0,93.371,177.59Z" transform="translate(-24.819 -130.849)" fill="#010203"/>
  <path id="Path_8516" data-name="Path 8516" d="M136.224,181.273l-1.371.913c-5.325-2.967-16.737-8.673-17.727-9.131-1.065-.531-2.892-1.292-2.662-3.042.3-2.435,4.64-7.837,6.466-10.12,9.891-12.02,14.3-15.749,17.2-15.368,3.119.379,4.869,3.652,5.1,18.716q-2.625-.8-5.706-1.6c-.152-2.206-.608-5.477-.76-6.619-.154-1.294-.458-1.75-.914-1.827-.608-.075-2.054,1.294-3.348,2.662-.608.61-2.281,2.283-4.108,4.185-1.521-.075-2.587.229-3.119.99a3.005,3.005,0,0,0-.3,2.51l-2.435,2.435c-2.054,2.054-4.26,3.727-4.337,4.564-.075.685.913,1.371,2.435,2.283C124.127,174.73,133.028,179.6,136.224,181.273Zm13.847-15.066c-3.5-1.217-12.1-4.412-21.151-5.629-3.121-.381-4.337.685-3.121,3.652a49.678,49.678,0,0,0,7.989,11.564c3.425,3.652,7.152,4.641,8.37-.99.075-.227.075-.379.152-.608a30.039,30.039,0,0,0,.608-4.108c-1.523-.685-3.273-1.446-4.946-2.131.075,1.294.227,3.577.3,5.252v.608c.075,2.815-.837,2.815-2.435,1.673-1.825-1.294-7.531-8.825-8.216-12.173,0-.229.075-.229.152-.152.075,0,.075,0,.152.075h0c1.294.533,5.554,2.206,9.891,4.033,1.75.76,3.5,1.446,5.021,2.206,1.523.685,2.892,1.369,3.956,1.9,1.9.99,2.587,1.673,1.827,2.51-3.881,3.956-17.576,9.587-22.293,16.587l-.075.077c-.077.075-.077.152-.154.227a.075.075,0,0,1-.075.077,7.065,7.065,0,0,0-.685,2.054c-.227,1.521.608,2.892,2.816,3.5a10.839,10.839,0,0,0,1.825.379h.381c4.183.229,15.141-2.206,18.412-3.652,3.425-1.521,2.435-3.044,1.446-3.8-.76-.608-4.564-2.739-6.391-3.727a8.465,8.465,0,0,0-1.369.913c3.119,1.9,4.412,2.892,5.173,3.423.3.229.152.456-.3.533h-.3c-2.967.229-8.673.608-11.337.76-.379,0-.836.077-1.065.077.685-.608,1.369-1.142,1.75-1.446,5.706-4.033,15.216-9.662,18.033-12.1C156.538,175.871,162.169,170.392,150.072,166.207Z" transform="translate(58.096 -144.498)" fill="#010203"/>
</svg>
