<svg id="Group_432" data-name="Group 432" xmlns="http://www.w3.org/2000/svg" width="215.683" height="40.438" viewBox="0 0 215.683 40.438">
  <path id="Path_8674" data-name="Path 8674" d="M405.284,421.707h1.767v4.949h1.2v-4.949h1.764V420.7h-4.734Z" transform="translate(-327.592 -388.969)" fill="#070606"/>
  <path id="Path_8675" data-name="Path 8675" d="M409.522,424.031h2.991v-1h-2.991v-1.321h3.214V420.7h-4.417v5.957h4.53v-1h-3.328Z" transform="translate(-324.784 -388.969)" fill="#070606"/>
  <path id="Path_8676" data-name="Path 8676" d="M414.792,425.474a1.2,1.2,0,0,1-.824.3,1.322,1.322,0,0,1-1.057-.479,2.5,2.5,0,0,1-.406-1.609,2.333,2.333,0,0,1,.412-1.54,1.361,1.361,0,0,1,1.076-.476,1.233,1.233,0,0,1,1.255,1l1.19-.285a2.348,2.348,0,0,0-.608-1.1,2.479,2.479,0,0,0-1.777-.647,2.635,2.635,0,0,0-2.019.824,3.257,3.257,0,0,0-.768,2.31,3.106,3.106,0,0,0,.764,2.216,2.806,2.806,0,0,0,3.533.337,2.614,2.614,0,0,0,.893-1.448l-1.167-.37A1.772,1.772,0,0,1,414.792,425.474Z" transform="translate(-322.059 -389.018)" fill="#070606"/>
  <path id="Path_8677" data-name="Path 8677" d="M418.231,423.044h-2.357V420.7h-1.2v5.957h1.2v-2.6h2.357v2.6h1.2V420.7h-1.2Z" transform="translate(-318.907 -388.969)" fill="#070606"/>
  <path id="Path_8678" data-name="Path 8678" d="M421.579,424.677l-2.438-3.978h-1.17v5.957h1.117v-3.884l2.4,3.884H422.7V420.7h-1.117Z" transform="translate(-315.855 -388.969)" fill="#070606"/>
  <rect id="Rectangle_231" data-name="Rectangle 231" width="1.203" height="5.957" transform="translate(108.409 31.73)" fill="#070606"/>
  <path id="Path_8679" data-name="Path 8679" d="M427.891,420.7h-1.617l-2.43,2.645V420.7h-1.2v5.957h1.2v-1.8l.975-1,1.637,2.8h1.556l-2.365-3.637Z" transform="translate(-311.534 -388.969)" fill="#070606"/>
  <path id="Path_8680" data-name="Path 8680" d="M429.2,420.7h-1.271l-2.32,5.956h1.274l.491-1.353h2.381l.522,1.353h1.309Zm-1.453,3.6.8-2.21.824,2.21Z" transform="translate(-308.785 -388.969)" fill="#070606"/>
  <rect id="Rectangle_232" data-name="Rectangle 232" width="1.203" height="5.957" transform="translate(126.075 31.73)" fill="#070606"/>
  <path id="Path_8681" data-name="Path 8681" d="M436.254,421.634V420.7h-4.36v1.008h2.775l-3.129,3.864v1.085h4.839v-1h-3.389Z" transform="translate(-303.301 -388.969)" fill="#070606"/>
  <path id="Path_8682" data-name="Path 8682" d="M439.484,421.464a2.788,2.788,0,0,0-2.106-.818,3.278,3.278,0,0,0-1.284.237,2.309,2.309,0,0,0-.772.535,2.852,2.852,0,0,0-.554.816,3.8,3.8,0,0,0-.271,1.529,3.081,3.081,0,0,0,.784,2.233,2.8,2.8,0,0,0,2.114.809,2.761,2.761,0,0,0,2.1-.814,3.642,3.642,0,0,0-.006-4.526Zm-.916,3.8a1.5,1.5,0,0,1-1.18.52,1.517,1.517,0,0,1-1.184-.526,2.213,2.213,0,0,1-.47-1.532,2.253,2.253,0,0,1,.456-1.536,1.667,1.667,0,0,1,2.391-.01,2.247,2.247,0,0,1,.45,1.528A2.275,2.275,0,0,1,438.568,425.26Z" transform="translate(-300.567 -389.018)" fill="#070606"/>
  <path id="Path_8683" data-name="Path 8683" d="M439.377,420.725h-1.2v5.908h4.193v-1h-2.991Z" transform="translate(-297.164 -388.945)" fill="#070606"/>
  <path id="Path_8684" data-name="Path 8684" d="M444.247,420.7h-1.273l-2.318,5.956h1.274l.493-1.353h2.381l.518,1.353h1.309Zm-1.453,3.6.8-2.21.822,2.21Z" transform="translate(-294.867 -388.969)" fill="#070606"/>
  <path id="Path_8685" data-name="Path 8685" d="M447.683,425.474a1.213,1.213,0,0,1-.826.3,1.321,1.321,0,0,1-1.057-.479,2.508,2.508,0,0,1-.406-1.609,2.344,2.344,0,0,1,.412-1.54,1.361,1.361,0,0,1,1.076-.476,1.233,1.233,0,0,1,1.255,1l1.19-.285a2.349,2.349,0,0,0-.608-1.1,2.479,2.479,0,0,0-1.777-.647,2.635,2.635,0,0,0-2.019.824,3.265,3.265,0,0,0-.766,2.31,3.1,3.1,0,0,0,.762,2.216,2.808,2.808,0,0,0,3.535.337,2.612,2.612,0,0,0,.891-1.448l-1.167-.37A1.782,1.782,0,0,1,447.683,425.474Z" transform="translate(-291.63 -389.018)" fill="#070606"/>
  <path id="Path_8686" data-name="Path 8686" d="M450.051,423.056l-1.4-2.357h-1.41l2.182,3.45v2.507h1.2v-2.5l2.19-3.458h-1.386Z" transform="translate(-288.778 -388.969)" fill="#070606"/>
  <path id="Path_8687" data-name="Path 8687" d="M452.987,424.547a1.809,1.809,0,0,1-.166.953.659.659,0,0,1-.57.229.647.647,0,0,1-.593-.321,1.583,1.583,0,0,1-.15-.722l-1.134.129a2.036,2.036,0,0,0,.479,1.45,1.8,1.8,0,0,0,1.357.493,2.1,2.1,0,0,0,1.211-.314,1.621,1.621,0,0,0,.635-.836,3.856,3.856,0,0,0,.129-1.138V420.7h-1.2Z" transform="translate(-285.877 -388.969)" fill="#070606"/>
  <path id="Path_8688" data-name="Path 8688" d="M456.807,424.677,454.37,420.7H453.2v5.957h1.117v-3.884l2.4,3.884h1.207V420.7h-1.117Z" transform="translate(-283.264 -388.969)" fill="#070606"/>
  <path id="Path_8689" data-name="Path 8689" d="M459.763,420.7h-1.271l-2.32,5.956h1.274l.491-1.353h2.381l.522,1.353h1.309Zm-1.453,3.6.807-2.21.82,2.21Z" transform="translate(-280.513 -388.969)" fill="#070606"/>
  <path id="Path_8690" data-name="Path 8690" d="M442.643,428.117h9.468c0-1.063-.741-1.869-.787-3.192-.2-5.458-.067-11.01,0-16.479.011-1.1.579-1.875.579-2.813h-9.052c0,.922.574,1.679.581,2.77.044,5.481.231,11.112,0,16.687C443.38,426.369,442.643,427.109,442.643,428.117Z" transform="translate(-293.03 -402.906)" fill="#070606"/>
  <path id="Path_8691" data-name="Path 8691" d="M406.023,405.634H392.3v7.541c1.182-1.091,3.535-3.525,5.3-3.525h.1c.056,5.084.2,10.288-.012,15.441-.052,1.278-.789,2.018-.789,3.026h9.466c0-1.063-.739-1.869-.787-3.192-.187-5.055-.085-10.2-.017-15.276h.356c1.683,0,4.093,2.516,5.052,3.525q0-3.771,0-7.541h-4.951Z" transform="translate(-339.599 -402.906)" fill="#070606"/>
  <path id="Path_8692" data-name="Path 8692" d="M418.934,428.135a30.588,30.588,0,0,1,1.061-7.4c-.959.708-4.018,2.994-5.7,2.994l-2.31-.023c-.04-1.432-.058-2.868-.065-4.308.524,0,1.274.021,2.9.089,1,.041,1.58.618,2.372.618,0-1.2-.168-2.393-.168-3.59,0-1.274.168-2.549.168-3.823-.834,0-1.465.58-2.5.618-1.511.054-2.239.077-2.734.081q.029-2.134.058-4.258l2.043-.019a14.081,14.081,0,0,1,5.8,2.172,35.145,35.145,0,0,1-.924-5.65H403.552c0,.922.574,1.679.581,2.77.042,5.481.231,11.112,0,16.687-.052,1.278-.789,2.018-.789,3.026h1.9l0,.017Z" transform="translate(-329.386 -402.906)" fill="#070606"/>
  <path id="Path_8693" data-name="Path 8693" d="M435.939,428.118a25.262,25.262,0,0,1-3.725-5.985,40.5,40.5,0,0,1-2-4.453c2.587-1.122,4.665-3.153,4.665-6.311,0-5.267-4.549-5.737-7.523-5.737H413.775c0,.926.574,1.683.581,2.772.04,5.481.231,11.11,0,16.687-.054,1.276-.789,2.018-.789,3.026h9.468c0-1.065-.741-1.867-.791-3.194-.073-2.019-.1-4.054-.1-6.093l3.885,9.287Zm-13.8-11.127c.012-2.955.068-5.608.1-8.546.006-.341.008-.651.013-.943,2.353.091,3.937,1.752,3.937,4.622A4.886,4.886,0,0,1,422.141,416.991Z" transform="translate(-319.929 -402.907)" fill="#070606"/>
  <path id="Path_8694" data-name="Path 8694" d="M431.927,416.761l6.343,11.356h1.2l6.653-12.134c.029,3.03.029,6.076-.1,9.108-.052,1.278-.787,2.018-.787,3.026H454.7c0-1.063-.739-1.869-.789-3.192-.2-5.458-.066-11.01,0-16.479.013-1.1.581-1.875.581-2.813h-6.068l-7.25,11.734-6.224-11.734h-8.143c0,.938.909,1.71.92,2.813.067,5.469-.755,11.021-.957,16.479-.048,1.323-.787,2.129-.789,3.192h6.834c0-1.009-.735-1.748-.787-3.026C431.913,422.321,431.906,419.533,431.927,416.761Z" transform="translate(-308.444 -402.906)" fill="#070606"/>
  <path id="Path_8695" data-name="Path 8695" d="M490.724,418.262c-2.187-8.055-3.317-12.629-3.317-12.629h-8.65s-1.163,3.271-2.5,6.971-4.48,12-4.892,12.956c-.081.194-.173.416-.264.643-.783-1.234-1.79-2.893-2.572-4.447-1.507-2.982-3.386-6.2-3.386-6.2s2.36-3.737,3.762-6.17,2.121-3.75,2.189-3.75h-6.567a55.7,55.7,0,0,1-3.523,7.795,16.1,16.1,0,0,1-2.8,3.525c.013-2.841.067-5.685.1-8.507.015-1.1.583-1.873.583-2.813h-9.054c0,.926.576,1.683.583,2.772.042,5.481.229,11.11,0,16.687-.054,1.276-.789,2.018-.789,3.026H459.1c0-1.065-.741-1.867-.791-3.194-.067-1.821-.1-3.656-.1-5.494a19.333,19.333,0,0,1,2.356,3.731c.683,1.715,1.881,4.957,1.881,4.957H476.4s.289-1.505.706-3.448h6.684c.308,2.008.508,3.448.508,3.448h9.264S492.913,426.313,490.724,418.262Zm-12.515,1.609c.173-.678.345-1.307.512-1.852,1.026-3.357,2.36-7.3,2.36-7.3s1.2,5.005,1.917,9.085a.456.456,0,0,0,.011.067Z" transform="translate(-286.561 -402.907)" fill="#070606"/>
  <path id="Path_8696" data-name="Path 8696" d="M401.884,407.954a11.017,11.017,0,0,0-7.858-3.731l-17.524-.006a11.032,11.032,0,0,0-7.535,3.146,13.6,13.6,0,0,0-4.039,9.5v15.2a13.438,13.438,0,0,0,3.2,8.511,11.45,11.45,0,0,0,8.413,4.079l17.469,0c2.739,0,6.509-2,8.488-4.428a14.427,14.427,0,0,0,2.865-8.958V416.424A12.672,12.672,0,0,0,401.884,407.954Zm.7,24.37a9.963,9.963,0,0,1-2.335,6.185,9.332,9.332,0,0,1-6.651,3.4H376.738a9.355,9.355,0,0,1-6.453-3.073,10.21,10.21,0,0,1-2.574-6.418V416.287a10.546,10.546,0,0,1,2.855-6.592,8.356,8.356,0,0,1,5.777-2.737h17.411a9.652,9.652,0,0,1,6.5,3.321,10.993,10.993,0,0,1,2.339,6.946Z" transform="translate(-364.927 -404.217)" fill="#070606"/>
  <path id="Path_8697" data-name="Path 8697" d="M396.185,408.612a10.745,10.745,0,0,0-6.68-2.081l-13.062-.017c-3.03,0-5.55.832-7.152,2.48-1.661,1.715-2.071,5.286-2.068,7.123l0,12.9a9.524,9.524,0,0,0,2.963,7.227,10.829,10.829,0,0,0,7.09,2.106l3.773,0V416.838a18.387,18.387,0,0,0-5.179.8l.017-4.526,13.855.065v4.445a17.448,17.448,0,0,0-5.157-.807l.121,21.509h4.79a8.59,8.59,0,0,0,9.418-8.915l.006-14.252A8.447,8.447,0,0,0,396.185,408.612Zm-2.031,25.56c-1.684,1.321-4.26,1.4-6.559,1.369l-.175-15.724a50.415,50.415,0,0,1,5.094,1.783l.023-11.16H373.11l-.019,11.125c1.815-.612,3.4-1.249,5.138-1.779l.006,15.738a11.928,11.928,0,0,1-5.311-.791c-2.148-1.047-2.924-3.558-2.926-5.469l-.012-13.863a6.573,6.573,0,0,1,1.79-4.832,7.536,7.536,0,0,1,4.593-1.272h13.1a7.1,7.1,0,0,1,5.111,1.652c1.194,1.1,1.569,3.171,1.571,4.784l.012,12.858C396.167,431.057,395.463,433.146,394.154,434.172Z" transform="translate(-362.803 -402.092)" fill="#070606"/>
  <path id="Path_8698" data-name="Path 8698" d="M477.156,409.4a3.523,3.523,0,0,0-.527-.637.567.567,0,1,1,.637-.684,1.194,1.194,0,0,0,.329-.859,1.364,1.364,0,0,0-.2-.724,1.067,1.067,0,0,0-.535-.454,2.8,2.8,0,0,0-.974-.129h-2.125v4.792h.637v-2.129h.735a1.805,1.805,0,0,1,.35.025.868.868,0,0,1,.291.127,1.341,1.341,0,0,1,.321.32c.121.152.273.373.46.658l.633,1h.8Zm-1.394-1.373H474.4v-1.584h1.517a1.152,1.152,0,0,1,.782.219.71.71,0,0,1,.245.558.8.8,0,0,1-.127.429.734.734,0,0,1-.373.287A2,2,0,0,1,475.762,408.03Z" transform="translate(-264.241 -402.645)" fill="#070606"/>
  <path id="Path_8699" data-name="Path 8699" d="M476.8,404.921a4.311,4.311,0,1,0,4.31,4.312A4.316,4.316,0,0,0,476.8,404.921Zm0,8.074a3.763,3.763,0,1,1,3.762-3.762A3.766,3.766,0,0,1,476.8,412.995Z" transform="translate(-265.424 -403.566)" fill="#070606"/>
</svg>
