<svg id="Group_449" data-name="Group 449" xmlns="http://www.w3.org/2000/svg" width="180.742" height="76.398" viewBox="0 0 180.742 76.398">
  <path id="Path_8821" data-name="Path 8821" d="M224.768,345.64l-3.376-4.333L219,343.167l3.393,4.327Z" transform="translate(-190.022 -281.463)"/>
  <path id="Path_8822" data-name="Path 8822" d="M211.7,334.065a2.889,2.889,0,0,1,1.785,1.4c.439-.347,1.939-1.523,2.378-1.865a3.327,3.327,0,0,1-.924-2.085,2.607,2.607,0,0,1,.841-2.048.3.3,0,0,0,.067-.3l-.735-1.59-7.3,5.714,1.365,1.1a.3.3,0,0,0,.306,0A2.577,2.577,0,0,1,211.7,334.065Z" transform="translate(-200.382 -294.166)"/>
  <path id="Path_8823" data-name="Path 8823" d="M225.01,344.066a1.087,1.087,0,0,0-1.542-.194l-2.379,1.854a1.148,1.148,0,0,0-.2,1.507l.352.452a1.181,1.181,0,0,0,1.565.227l2.379-1.862a1.111,1.111,0,0,0,.173-1.546Z" transform="translate(-188.462 -279.308)"/>
  <path id="Path_8824" data-name="Path 8824" d="M211.57,333.642l6.683,8.547,1.91-2.447-6.211-7.958Z" transform="translate(-196.899 -290.272)"/>
  <path id="Path_8825" data-name="Path 8825" d="M222.144,342.555l-3.9-4.963-1.91,2.443,3.442,4.369Z" transform="translate(-192.49 -284.9)"/>
  <path id="Path_8826" data-name="Path 8826" d="M221.1,340.37l-2.813,2.2c-.655.5.335,1.821,1.016,1.3l2.816-2.193C222.774,341.169,221.746,339.868,221.1,340.37Z" transform="translate(-190.88 -282.434)"/>
  <path id="Path_8827" data-name="Path 8827" d="M211.895,334.377l2.816-2.191c.651-.508-.375-1.81-1.02-1.307l-2.811,2.2C210.226,333.578,211.215,334.9,211.895,334.377Z" transform="translate(-197.735 -291.214)"/>
  <path id="Path_8828" data-name="Path 8828" d="M214.983,325.1c-.031-.033-.2-.046-.21.143l-.35,2.274s-1.525-.42-1.544-.424a.234.234,0,0,0-.277.218l.023,1.613-3.153-1.586a.208.208,0,0,0-.275.218l.758,3.454-1.563-.431c-.108-.035-.264.106-.256.21l.015,1.621-2.277-.212a.145.145,0,0,0-.166.221l3.642,2.818,7.529-5.912S214.988,325.11,214.983,325.1Z" transform="translate(-202.348 -296.476)"/>
  <path id="Path_8829" data-name="Path 8829" d="M210.434,345.572l2.372,1.854L216.2,343.1l-2.388-1.86Z" transform="translate(-197.949 -281.526)"/>
  <path id="Path_8830" data-name="Path 8830" d="M220.407,329.161a.3.3,0,0,0,.067.3,2.6,2.6,0,0,1,.839,2.048,3.328,3.328,0,0,1-.922,2.085c.439.343,1.937,1.519,2.378,1.866a2.889,2.889,0,0,1,1.785-1.4,2.571,2.571,0,0,1,2.22.322.3.3,0,0,0,.306,0l1.313-1.051-7.287-5.75Z" transform="translate(-188.739 -294.162)"/>
  <path id="Path_8831" data-name="Path 8831" d="M213.7,345.657l-2.379-1.854a1.087,1.087,0,0,0-1.542.194l-.345.439a1.114,1.114,0,0,0,.173,1.548l2.379,1.86a1.178,1.178,0,0,0,1.563-.227l.354-.452A1.148,1.148,0,0,0,213.7,345.657Z" transform="translate(-199.095 -279.371)"/>
  <path id="Path_8832" data-name="Path 8832" d="M225.627,331.784l-12.6,16.143,2.367,1.849,12.616-16.134Z" transform="translate(-195.552 -290.272)"/>
  <path id="Path_8833" data-name="Path 8833" d="M216.166,342.526l-2.813-2.2c-.645-.5-1.671.8-1.02,1.305l2.816,2.193C215.831,344.347,216.82,343.029,216.166,342.526Z" transform="translate(-196.385 -282.472)"/>
  <path id="Path_8834" data-name="Path 8834" d="M222.529,334.377c.68.522,1.669-.8,1.015-1.3l-2.813-2.2c-.643-.5-1.669.8-1.02,1.307Z" transform="translate(-189.559 -291.214)"/>
  <path id="Path_8835" data-name="Path 8835" d="M231.9,332.194l-2.277.212.015-1.621c.008-.1-.148-.245-.256-.21l-1.563.431.759-3.454a.208.208,0,0,0-.275-.218l-3.153,1.586.023-1.613a.234.234,0,0,0-.277-.218c-.019,0-1.546.424-1.546.424L223,325.241c-.01-.189-.179-.175-.21-.143-.006.012-1.916,4.341-1.916,4.341l7.485,5.858,3.7-2.882A.144.144,0,0,0,231.9,332.194Z" transform="translate(-188.293 -296.476)"/>
  <path id="Path_8836" data-name="Path 8836" d="M250.219,323.257l-45.645,0-.624,0,0,27.855a23.447,23.447,0,0,0,46.894,0V323.257ZM227.4,373.312a22.2,22.2,0,0,1-22.2-22.2l0-26.611,44.4,0v26.611A22.2,22.2,0,0,1,227.4,373.312Z" transform="translate(-203.949 -298.161)"/>
  <path id="Path_8837" data-name="Path 8837" d="M212.349,332.778h26.869s6.642-17.934,6.653-17.952c.114-.451-.152-.451-.429-.258l-.341.15a11.868,11.868,0,0,1-2.391.868c-.9.2-1.53.1-2.068.955-.406.62-.16,1.236-.075,1.865-.106.2-.27-.214-.318-.289a2.684,2.684,0,0,0-2.535-1.532A2.373,2.373,0,0,0,236,320.909a.662.662,0,0,1,.144.608c-.017.2-.516.441-.7.456-.166.015,1.257,1.837,2.649.562a2.59,2.59,0,0,0,.166-1.64c-.054-.51.893-.753,1.119.283a4.109,4.109,0,0,1-1.675,4.064,3.031,3.031,0,0,1-3.115-.192,1.549,1.549,0,0,1-.693-1.365,1.421,1.421,0,0,0,.845-.936,1.558,1.558,0,0,0-1.122-2.05,1.489,1.489,0,0,0-1.864,1.477,2.074,2.074,0,0,0,.564,1.273c-.42,1.222-1.232,1.19-2.114,1.226-1.182.065-2.978-.71-3.019-3.6.027-.522.445-2.351,1.19-2.391.483,0,.612.387.42.747a1.219,1.219,0,0,0-.275.914c.281,1.353,2.312,1.234,2.331,1.178-1.153-1.713,2.025-2.039,1.906-4.074a2.283,2.283,0,0,0-1.738-2.225,2.978,2.978,0,0,0-2.233.243,2.724,2.724,0,0,0-.635.445c-.031.04-.108.046-.069-.042.019-.054.114-.169.168-.3a2.242,2.242,0,0,0-.26-2.1,12.949,12.949,0,0,1-1.575-2.154,7.684,7.684,0,0,0-.458-.991.2.2,0,0,0-.339-.013,7.265,7.265,0,0,0-.443.974,13.1,13.1,0,0,1-1.6,2.185,2.236,2.236,0,0,0-.258,2.1c.081.181.123.27.144.322.058.131-.06.094-.087.058a2.188,2.188,0,0,0-.595-.479,2.979,2.979,0,0,0-2.233-.243,2.286,2.286,0,0,0-1.74,2.225c-.117,2.035,3.061,2.36,1.908,4.074.019.056,2.05.175,2.331-1.178a1.218,1.218,0,0,0-.277-.914c-.191-.36-.062-.743.42-.747.745.04,1.163,1.869,1.19,2.391-.04,2.886-1.835,3.662-3.017,3.6-.884-.037-1.694,0-2.114-1.226a2.084,2.084,0,0,0,.564-1.273,1.49,1.49,0,0,0-1.865-1.477,1.557,1.557,0,0,0-1.12,2.05,1.416,1.416,0,0,0,.845.936,1.553,1.553,0,0,1-.693,1.365,3.031,3.031,0,0,1-3.115.192,4.114,4.114,0,0,1-1.677-4.064c.227-1.036,1.174-.793,1.12-.283a2.59,2.59,0,0,0,.166,1.64c1.39,1.274,2.815-.547,2.649-.562-.187-.015-.687-.254-.7-.456a.657.657,0,0,1,.144-.608,2.373,2.373,0,0,0-1.711-4.324,2.684,2.684,0,0,0-2.535,1.532c-.079.183-.25.31-.21.135a1.888,1.888,0,0,0-.1-1.5,2.829,2.829,0,0,0-2.152-1.167,12.533,12.533,0,0,1-2.462-.9l-.264-.131c-.237-.089-.47-.154-.433.271C205.707,314.843,212.349,332.778,212.349,332.778Z" transform="translate(-202.337 -310.221)"/>
  <path id="Path_8838" data-name="Path 8838" d="M248.5,341.9c-.452,0-1.043.042-1.14.042-.123,0-.7-.042-1.428-.042-.206,0-.316.029-.316.123s.1.125.233.125c.535,0,.66.193.66.412a2.913,2.913,0,0,1-.139.8c-.479,1.607-1.579,5.232-1.825,6.153H244.5l-2.855-6.907c-.179-.439-.248-.645-.4-.645-.11,0-.193.11-.345.495l-2.664,7.154h-.04c-.246-.768-1.525-4.93-1.758-5.837a8.873,8.873,0,0,1-.3-1.263c0-.15.027-.246.152-.3a.731.731,0,0,1,.343-.054c.137,0,.246-.013.246-.125,0-.081-.1-.123-.289-.123-.8,0-1.4.042-1.523.042s-.88-.042-1.594-.042c-.193,0-.3.029-.3.123,0,.112.083.125.219.125a1.218,1.218,0,0,1,.551.123,2,2,0,0,1,.508.974l2.911,8.721c.11.356.179.508.316.508.166,0,.233-.166.495-.728.591-1.263,2.416-6.126,2.678-6.825h.027l2.857,6.878c.206.508.289.674.425.674.179,0,.246-.166.4-.645.672-2.06,2.114-6.428,2.745-8.159.289-.782.441-1.33.77-1.455a1.527,1.527,0,0,1,.481-.067c.123,0,.191-.042.191-.139C248.745,341.934,248.649,341.9,248.5,341.9Z" transform="translate(-176.913 -280.909)"/>
  <path id="Path_8839" data-name="Path 8839" d="M256.972,352.041a2.421,2.421,0,0,1-.853-.206,6.513,6.513,0,0,1-1.964-1.484c-.535-.508-3.227-3.406-3.721-4.05.468-.495,2.541-2.555,2.967-2.967a4.41,4.41,0,0,1,1.484-1.03,2.66,2.66,0,0,1,.8-.15c.139,0,.206-.029.206-.125s-.1-.123-.233-.123c-.425,0-1.18.042-1.607.042-.37,0-1.126-.042-1.413-.042-.152,0-.219.029-.219.123s.054.112.177.139c.139.027.193.123.193.273,0,.235-.3.578-.687,1.03-.4.468-2.4,2.514-2.868,3.022h-.069v-.6c0-2.087,0-2.472.027-2.911.027-.481.139-.714.508-.784a2.094,2.094,0,0,1,.385-.04c.11,0,.193-.029.193-.125s-.1-.123-.289-.123c-.468,0-1.332.042-1.661.042s-1.2-.042-1.923-.042c-.206,0-.3.029-.3.123s.083.125.235.125a2.882,2.882,0,0,1,.535.04c.452.1.562.316.589.784.029.439.029.824.029,2.911V348.3c0,1.265,0,2.349-.069,2.926-.056.4-.123.7-.4.755a2.264,2.264,0,0,1-.495.056c-.164,0-.219.04-.219.11,0,.1.1.137.275.137.549,0,1.415-.04,1.731-.04.343,0,1.207.04,1.977.04.15,0,.26-.04.26-.137,0-.069-.067-.11-.177-.11a5.914,5.914,0,0,1-.674-.056c-.343-.054-.466-.356-.495-.741-.04-.591-.04-1.675-.04-2.94v-1.249h.069l.15.206c.289.4,2.994,3.571,3.6,4.106a2.7,2.7,0,0,0,1.7.893c.287.027.535.027.947.027h1.194c.262,0,.331-.04.331-.137S257.068,352.041,256.972,352.041Z" transform="translate(-164.959 -280.909)"/>
  <path id="Path_8840" data-name="Path 8840" d="M263.708,352.041a2.055,2.055,0,0,1-.385-.042,2.724,2.724,0,0,1-1.538-.934c-.81-.851-1.758-2.073-2.98-3.612,1.386-1.126,1.813-2.06,1.813-3.076a2.384,2.384,0,0,0-.934-1.881,4.4,4.4,0,0,0-2.528-.591c-.425,0-1.469.042-1.937.042-.289,0-1.153-.042-1.881-.042-.206,0-.3.029-.3.123s.083.125.233.125a2.867,2.867,0,0,1,.535.04c.454.1.564.316.591.784.027.439.027.824.027,2.911V348.3c0,1.265,0,2.349-.067,2.926-.056.4-.123.7-.4.755a2.263,2.263,0,0,1-.495.056c-.164,0-.219.04-.219.11,0,.1.1.137.275.137.549,0,1.413-.04,1.675-.04.206,0,1.223.04,2.019.04.177,0,.273-.04.273-.137,0-.069-.054-.11-.164-.11a6.462,6.462,0,0,1-.674-.056c-.412-.054-.495-.356-.535-.755-.069-.578-.069-1.661-.069-2.94V348.1a.1.1,0,0,1,.11-.11l1.2.029a.283.283,0,0,1,.246.1c.179.206.81,1.14,1.359,1.894a6.664,6.664,0,0,0,1.883,2.019,2.81,2.81,0,0,0,1.469.26h1.305c.164,0,.26-.027.26-.137C263.872,352.081,263.818,352.041,263.708,352.041Zm-5.521-4.917a1.368,1.368,0,0,1-.974.233,3.622,3.622,0,0,1-1.045-.137c-.1-.042-.123-.1-.123-.248V342.8c0-.11.027-.166.123-.192a3.077,3.077,0,0,1,.728-.054,2.2,2.2,0,0,1,2.1,2.512A2.42,2.42,0,0,1,258.187,347.124Z" transform="translate(-158.537 -280.909)"/>
  <path id="Path_8841" data-name="Path 8841" d="M270.1,352.186a2.921,2.921,0,0,1-.576-.056c-.289-.069-.687-.26-1.209-1.5-.88-2.089-3.076-7.691-3.406-8.445-.139-.316-.219-.441-.345-.441s-.22.152-.383.551l-3.448,8.623c-.273.687-.535,1.155-1.167,1.236a3.728,3.728,0,0,1-.425.029c-.11,0-.166.027-.166.11,0,.11.083.137.262.137.714,0,1.469-.04,1.619-.04.427,0,1.016.04,1.457.04.15,0,.233-.027.233-.137,0-.083-.042-.11-.206-.11h-.206c-.425,0-.549-.179-.549-.425a2.638,2.638,0,0,1,.206-.839l.741-1.964c.027-.081.054-.11.123-.11h3.063a.133.133,0,0,1,.137.1l1.1,2.911a.227.227,0,0,1-.125.318c-.137.013-.191.04-.191.123s.164.1.412.11c1.1.027,2.1.027,2.6.027s.631-.027.631-.137S270.214,352.186,270.1,352.186Zm-4.642-4.024h-2.526c-.056,0-.069-.042-.056-.1l1.263-3.379c.013-.056.042-.123.083-.123s.056.067.069.123l1.236,3.392C265.546,348.12,265.532,348.162,265.463,348.162Z" transform="translate(-153.038 -281.055)"/>
  <path id="Path_8842" data-name="Path 8842" d="M276.936,352.041a2.413,2.413,0,0,1-.853-.206,6.512,6.512,0,0,1-1.964-1.484c-.535-.508-3.227-3.406-3.721-4.05.468-.495,2.541-2.555,2.967-2.967a4.425,4.425,0,0,1,1.482-1.03,2.682,2.682,0,0,1,.8-.15c.139,0,.206-.029.206-.125s-.1-.123-.233-.123c-.425,0-1.182.042-1.607.042-.37,0-1.126-.042-1.413-.042-.152,0-.221.029-.221.123s.056.112.179.139c.139.027.193.123.193.273,0,.235-.3.578-.687,1.03-.4.468-2.4,2.514-2.868,3.022h-.069v-.6c0-2.087,0-2.472.027-2.911.027-.481.137-.714.508-.784a2.078,2.078,0,0,1,.385-.04c.11,0,.193-.029.193-.125s-.1-.123-.289-.123c-.468,0-1.332.042-1.661.042s-1.2-.042-1.923-.042c-.206,0-.3.029-.3.123s.083.125.233.125a2.89,2.89,0,0,1,.537.04c.452.1.562.316.589.784.029.439.029.824.029,2.911V348.3c0,1.265,0,2.349-.069,2.926-.056.4-.123.7-.4.755a2.262,2.262,0,0,1-.495.056c-.164,0-.219.04-.219.11,0,.1.1.137.275.137.549,0,1.415-.04,1.731-.04.343,0,1.207.04,1.977.04.15,0,.26-.04.26-.137,0-.069-.067-.11-.177-.11a5.916,5.916,0,0,1-.674-.056c-.343-.054-.466-.356-.495-.741-.04-.591-.04-1.675-.04-2.94v-1.249h.069l.15.206c.289.4,2.994,3.571,3.6,4.106a2.7,2.7,0,0,0,1.7.893c.289.027.537.027.949.027h1.194c.262,0,.329-.04.329-.137S277.032,352.041,276.936,352.041Z" transform="translate(-146.49 -280.909)"/>
  <path id="Path_8843" data-name="Path 8843" d="M278.331,341.8a5.291,5.291,0,0,0-5.673,5.385,5.231,5.231,0,0,0,5.535,5.383,5.428,5.428,0,0,0,5.685-5.631C283.878,343.8,281.75,341.8,278.331,341.8Zm.439,10.08c-2.637,0-4.216-2.266-4.216-5.121,0-3.421,1.8-4.3,3.379-4.3,2.252,0,4.024,1.908,4.024,4.984C281.956,351.419,279.731,351.885,278.77,351.885Z" transform="translate(-140.385 -281.002)"/>
  <path id="Path_8844" data-name="Path 8844" d="M295.255,341.9c-.454,0-1.043.042-1.14.042-.123,0-.7-.042-1.428-.042-.206,0-.316.029-.316.123s.1.125.233.125c.535,0,.66.193.66.412a2.913,2.913,0,0,1-.139.8c-.479,1.607-1.579,5.232-1.825,6.153h-.042l-2.857-6.907c-.177-.439-.246-.645-.4-.645-.112,0-.193.11-.345.495L285,349.609h-.04c-.246-.768-1.525-4.93-1.758-5.837a8.866,8.866,0,0,1-.3-1.263c0-.15.027-.246.15-.3a.742.742,0,0,1,.345-.054c.137,0,.246-.013.246-.125,0-.081-.1-.123-.289-.123-.8,0-1.4.042-1.523.042s-.88-.042-1.594-.042c-.192,0-.3.029-.3.123,0,.112.083.125.219.125a1.223,1.223,0,0,1,.551.123,2.016,2.016,0,0,1,.508.974l2.911,8.721c.11.356.179.508.316.508.164,0,.233-.166.495-.728.589-1.263,2.416-6.126,2.678-6.825h.027l2.857,6.878c.206.508.287.674.425.674.179,0,.246-.166.4-.645.672-2.06,2.114-6.428,2.745-8.159.289-.782.441-1.33.77-1.455a1.523,1.523,0,0,1,.479-.067c.125,0,.193-.042.193-.139C295.5,341.934,295.405,341.9,295.255,341.9Z" transform="translate(-133.658 -280.909)"/>
  <path id="Path_8845" data-name="Path 8845" d="M293.736,352.041a5.9,5.9,0,0,1-.7-.056c-.412-.054-.508-.3-.549-.672-.056-.591-.056-1.677-.056-3.009v-2.416c0-2.087,0-2.472.029-2.911.027-.481.137-.714.508-.784a2.339,2.339,0,0,1,.412-.04c.137,0,.219-.029.219-.139,0-.081-.11-.11-.289-.11-.522,0-1.332.042-1.675.042-.4,0-1.265-.042-1.786-.042-.22,0-.329.029-.329.11,0,.11.083.139.22.139a1.975,1.975,0,0,1,.495.054c.3.069.439.3.468.77.027.439.027.824.027,2.911V348.3c0,1.332,0,2.418-.069,2.994-.04.4-.123.633-.4.687a2.244,2.244,0,0,1-.493.056c-.166,0-.221.04-.221.11,0,.1.1.137.275.137.549,0,1.415-.04,1.731-.04.372,0,1.236.04,2.143.04.15,0,.26-.04.26-.137C293.956,352.081,293.888,352.041,293.736,352.041Z" transform="translate(-124.785 -280.909)"/>
  <path id="Path_8846" data-name="Path 8846" d="M300.654,350.253c-.1,0-.123.054-.15.206-.1.562-.262.851-.618,1.016a3.511,3.511,0,0,1-1.292.164c-1.4,0-1.619-.206-1.648-1.153-.013-.4,0-1.661,0-2.129v-1.084c0-.083.014-.137.083-.137.329,0,1.69.013,1.95.04.508.054.7.26.77.535a3.711,3.711,0,0,1,.054.495.108.108,0,0,0,.123.123c.123,0,.123-.15.123-.26s.029-.647.056-.92a9.909,9.909,0,0,1,.11-1c0-.083-.04-.11-.1-.11s-.123.069-.219.179c-.123.137-.329.177-.658.206s-1.9.027-2.2.027c-.083,0-.1-.056-.1-.152v-3.473c0-.1.029-.139.1-.139.275,0,1.717.029,1.95.056.687.083.824.246.92.495a1.454,1.454,0,0,1,.083.493c0,.125.027.192.123.192s.123-.081.137-.15c.029-.166.056-.77.069-.907.042-.631.11-.8.11-.893,0-.067-.014-.123-.083-.123a1.359,1.359,0,0,0-.219.056c-.11.027-.329.054-.589.083-.262.013-3,.013-3.434.013-.383,0-1.249-.042-1.977-.042-.206,0-.3.029-.3.123s.083.125.233.125a2.9,2.9,0,0,1,.537.04c.452.1.562.316.589.784.029.439.029.824.029,2.911v2.416c0,1.265,0,2.349-.069,2.926-.056.4-.123.7-.4.755a2.264,2.264,0,0,1-.495.056c-.164,0-.219.04-.219.11,0,.1.1.137.275.137.549,0,1.415-.04,1.731-.04.809,0,1.729.081,3.8.081.524,0,.647,0,.743-.356a10.979,10.979,0,0,0,.177-1.525C300.763,350.363,300.763,350.253,300.654,350.253Z" transform="translate(-120.799 -280.962)"/>
  <path id="Path_8847" data-name="Path 8847" d="M233.282,346.471a.624.624,0,0,0,.273-.081c.289-.139.508-.248.687-.358a5.215,5.215,0,0,0,2.333-2.6,7.353,7.353,0,0,0,.331-2.431c0-.685-.042-1.346-.042-1.935V336.53c0-2.087,0-2.472.029-2.911.027-.481.137-.714.508-.784a2.088,2.088,0,0,1,.4-.04c.166,0,.248-.027.248-.123s-.1-.125-.289-.125c-.535,0-1.4.042-1.731.042-.356,0-1.222-.042-1.95-.042-.206,0-.3.029-.3.125s.083.123.235.123a2.887,2.887,0,0,1,.535.04c.452.1.562.316.591.784.027.439.027.824.027,2.911v3.941c0,2.691.014,4.066-1.03,5.123a2.854,2.854,0,0,1-.66.522c-.233.123-.3.179-.3.246A.109.109,0,0,0,233.282,346.471Z" transform="translate(-176.916 -289.567)"/>
  <path id="Path_8848" data-name="Path 8848" d="M247.417,342.828a2.93,2.93,0,0,1-.578-.056c-.287-.067-.685-.26-1.207-1.5-.88-2.089-3.076-7.691-3.406-8.446-.139-.316-.219-.441-.345-.441s-.22.152-.383.551l-3.448,8.623c-.273.687-.535,1.155-1.167,1.236a3.735,3.735,0,0,1-.425.029c-.11,0-.166.027-.166.11,0,.11.083.137.262.137.714,0,1.469-.04,1.619-.04.427,0,1.016.04,1.457.04.15,0,.233-.027.233-.137,0-.083-.042-.11-.206-.11h-.206c-.425,0-.551-.179-.551-.425a2.694,2.694,0,0,1,.206-.839l.743-1.964c.027-.081.054-.11.123-.11h3.063a.134.134,0,0,1,.137.1l1.1,2.913a.226.226,0,0,1-.125.316c-.137.014-.193.04-.193.123s.166.1.414.11c1.1.027,2.1.027,2.6.027s.631-.027.631-.137S247.527,342.828,247.417,342.828Zm-4.642-4.023H240.25c-.056,0-.069-.042-.056-.1l1.263-3.379c.013-.056.042-.123.083-.123s.056.067.069.123l1.236,3.392C242.859,338.762,242.845,338.8,242.776,338.8Z" transform="translate(-174.026 -289.712)"/>
  <path id="Path_8849" data-name="Path 8849" d="M252.541,342.6c.164-.1.177-.123.177-.495v-1.509c0-.687,0-1.236.015-1.648.013-.481.15-.714.522-.784a2.18,2.18,0,0,1,.37-.04c.1,0,.179-.029.179-.112,0-.11-.1-.137-.275-.137-.452,0-1.18.042-1.606.042s-1.278-.042-1.992-.042c-.191,0-.287.027-.287.137,0,.083.081.112.206.112a2.873,2.873,0,0,1,.535.04c.452.1.576.316.591.784.013.412.013.934.013,1.619v1.292a.489.489,0,0,1-.262.508,3.056,3.056,0,0,1-1.167.15c-2.9,0-4.78-2.21-4.78-5.163a4.089,4.089,0,0,1,1.265-3.365,3.962,3.962,0,0,1,2.718-.851,4.386,4.386,0,0,1,3.063,1.072,1.922,1.922,0,0,1,.466,1.14c.015.11.042.177.139.177s.15-.067.15-.287a18.478,18.478,0,0,1,.1-2.252c0-.1-.027-.152-.193-.166a9.147,9.147,0,0,1-1.084-.15,16.425,16.425,0,0,0-2.431-.219,6.65,6.65,0,0,0-3.694.891,5.134,5.134,0,0,0-2.389,4.491c0,3.791,2.98,5.383,6.345,5.383A7.761,7.761,0,0,0,252.541,342.6Z" transform="translate(-167.927 -289.658)"/>
  <path id="Path_8850" data-name="Path 8850" d="M254.325,342.683a5.889,5.889,0,0,1-.7-.056c-.412-.054-.508-.3-.549-.672-.056-.591-.056-1.677-.056-3.009V336.53c0-2.087,0-2.472.027-2.911.029-.481.139-.714.508-.784a2.38,2.38,0,0,1,.412-.04c.137,0,.219-.027.219-.139,0-.081-.11-.11-.287-.11-.524,0-1.332.042-1.677.042-.4,0-1.263-.042-1.785-.042-.219,0-.329.029-.329.11,0,.112.083.139.219.139a2,2,0,0,1,.495.054c.3.069.439.3.466.77.027.439.027.824.027,2.911v2.416c0,1.332,0,2.418-.067,3-.042.4-.123.631-.4.685a2.262,2.262,0,0,1-.495.056c-.164,0-.219.04-.219.11,0,.1.1.137.275.137.549,0,1.413-.04,1.729-.04.372,0,1.236.04,2.143.04.152,0,.262-.04.262-.137C254.544,342.723,254.475,342.683,254.325,342.683Z" transform="translate(-161.245 -289.567)"/>
  <path id="Path_8851" data-name="Path 8851" d="M257.2,333.327c.275,0,1.717.029,1.95.056.685.083.824.246.92.495a1.506,1.506,0,0,1,.083.495c0,.123.027.191.123.191s.123-.081.137-.15c.027-.166.056-.77.069-.907a8.443,8.443,0,0,1,.11-.891c0-.069-.013-.125-.083-.125a1.311,1.311,0,0,0-.219.056c-.11.027-.329.054-.591.083-.26.013-2.994.013-3.433.013-.385,0-1.249-.042-1.977-.042-.206,0-.3.029-.3.125s.081.123.233.123a2.87,2.87,0,0,1,.535.04c.454.1.564.316.591.784.027.439.027.824.027,2.911V339c0,1.265,0,2.349-.069,2.926-.054.4-.123.7-.4.755a2.277,2.277,0,0,1-.495.056c-.166,0-.219.04-.219.11,0,.1.1.137.273.137.551,0,1.415-.04,1.731-.04.811,0,1.731.083,3.8.083.522,0,.645,0,.741-.358a10.686,10.686,0,0,0,.179-1.525c0-.137,0-.246-.11-.246s-.123.054-.152.206c-.094.562-.26.851-.618,1.016a3.5,3.5,0,0,1-1.29.164c-1.4,0-1.621-.206-1.648-1.153-.013-.4,0-1.661,0-2.129v-1.084c0-.083.013-.137.083-.137.329,0,1.688.013,1.95.04.508.056.7.262.768.535a3.431,3.431,0,0,1,.056.495.108.108,0,0,0,.123.123c.123,0,.123-.15.123-.26s.027-.647.056-.92a9.926,9.926,0,0,1,.11-1c0-.083-.042-.11-.1-.11-.069,0-.123.069-.219.179a.977.977,0,0,1-.66.206c-.316.027-1.894.027-2.2.027-.083,0-.1-.056-.1-.152v-3.473C257.107,333.37,257.134,333.327,257.2,333.327Z" transform="translate(-157.655 -289.619)"/>
  <path id="Path_8852" data-name="Path 8852" d="M259.291,332.672c0,.1.083.123.233.123a2.085,2.085,0,0,1,.454.04c.452.1.562.316.589.784.029.439.029.824.029,2.911v2.416c0,1.265,0,2.349-.069,2.926-.056.4-.123.7-.4.755a2.262,2.262,0,0,1-.495.056c-.164,0-.219.04-.219.11,0,.1.1.137.275.137.549,0,1.415-.04,1.731-.04,1.111,0,2.018.083,3.995.083.714,0,.784-.069.866-.371a10.868,10.868,0,0,0,.206-1.579c0-.166-.013-.235-.11-.235s-.139.083-.152.206a1.718,1.718,0,0,1-.356.824c-.343.372-.88.385-1.608.385-1.07,0-1.428-.1-1.661-.3-.289-.246-.289-1.194-.289-2.953V336.53c0-2.087,0-2.472.029-2.911.027-.481.137-.714.508-.784a3.7,3.7,0,0,1,.535-.04c.164,0,.246-.027.246-.123s-.1-.125-.289-.125c-.535,0-1.538.042-1.867.042-.37,0-1.236-.042-1.881-.042C259.387,332.547,259.291,332.576,259.291,332.672Z" transform="translate(-152.751 -289.567)"/>
  <path id="Path_8853" data-name="Path 8853" d="M271.348,342.6a10.874,10.874,0,0,0,.206-1.579c0-.166-.015-.235-.11-.235-.11,0-.139.083-.152.206a1.717,1.717,0,0,1-.356.824c-.345.372-.88.385-1.607.385-1.07,0-1.428-.1-1.661-.3-.289-.246-.289-1.194-.289-2.953V336.53c0-2.087,0-2.472.027-2.911.029-.481.139-.714.508-.784a3.742,3.742,0,0,1,.535-.04c.166,0,.248-.027.248-.123s-.1-.125-.289-.125c-.535,0-1.538.042-1.867.042-.372,0-1.236-.042-1.881-.042-.206,0-.3.029-.3.125s.083.123.233.123a2.066,2.066,0,0,1,.452.04c.454.1.564.316.591.784.027.439.027.824.027,2.911v2.416c0,1.265,0,2.349-.067,2.926-.056.4-.123.7-.4.755a2.262,2.262,0,0,1-.495.056c-.164,0-.219.04-.219.11,0,.1.1.137.275.137.549,0,1.413-.04,1.729-.04,1.113,0,2.019.083,4,.083C271.2,342.972,271.265,342.9,271.348,342.6Z" transform="translate(-148.063 -289.567)"/>
  <path id="Path_8854" data-name="Path 8854" d="M280.545,337.582c0-3.144-2.129-5.134-5.548-5.134a5.288,5.288,0,0,0-5.671,5.383,5.23,5.23,0,0,0,5.533,5.383A5.43,5.43,0,0,0,280.545,337.582Zm-5.109,4.944c-2.637,0-4.216-2.266-4.216-5.121,0-3.421,1.8-4.3,3.379-4.3,2.252,0,4.023,1.908,4.023,4.984C278.621,342.06,276.4,342.526,275.435,342.526Z" transform="translate(-143.468 -289.658)"/>
  <path id="Path_8855" data-name="Path 8855" d="M281.73,330.9a.581.581,0,0,0-.275.123,25.785,25.785,0,0,0-2.21,1.731c-.069.067-.123.123-.123.177a.086.086,0,0,0,.081.083,1.264,1.264,0,0,0,.235-.11,8.255,8.255,0,0,1,2.347-.811,2.424,2.424,0,0,1,.468,0c.069,0,.15-.04.069-.206-.166-.37-.289-.631-.4-.824C281.853,330.94,281.826,330.9,281.73,330.9Z" transform="translate(-134.406 -291.09)"/>
  <path id="Path_8856" data-name="Path 8856" d="M286.216,342.9c.152.15.316.3.468.3.123,0,.177-.123.177-.426l.152-8.667c.013-.768.123-1.057.508-1.167a1.516,1.516,0,0,1,.412-.04c.164,0,.246-.042.246-.123,0-.11-.137-.125-.316-.125-.672,0-1.194.042-1.346.042-.289,0-.947-.042-1.661-.042-.206,0-.358.015-.358.125,0,.081.056.123.221.123a2.235,2.235,0,0,1,.728.083c.329.137.452.4.466,1.236l.139,6.164h-.069c-.233-.219-2.087-2.2-3.021-3.13-2.006-1.99-4.093-4.229-4.258-4.409-.233-.246-.356-.425-.508-.425-.137,0-.177.193-.177.468l-.125,8.13c-.013,1.194-.067,1.592-.425,1.7a2.4,2.4,0,0,1-.618.069c-.137,0-.219.027-.219.11,0,.123.123.137.3.137.714,0,1.359-.04,1.482-.04.262,0,.81.04,1.7.04.193,0,.316-.027.316-.137,0-.083-.083-.11-.233-.11a2.173,2.173,0,0,1-.714-.1c-.275-.1-.454-.454-.481-1.525l-.15-5.768h.04c.246.262,1.771,1.977,3.269,3.461C283.594,340.281,285.352,342.081,286.216,342.9Z" transform="translate(-136.709 -289.679)"/>
  <path id="Path_8857" data-name="Path 8857" d="M284.733,335.043c0,1.111.522,2.073,2.033,3.254l.631.495c1.14.88,1.346,1.525,1.346,2.2a1.67,1.67,0,0,1-1.84,1.567,1.894,1.894,0,0,1-1.964-1.388,2.864,2.864,0,0,1-.123-.7c0-.11-.013-.233-.139-.233-.11,0-.15.152-.164.358s-.069,1.043-.069,1.8c0,.3.042.372.262.468a4.765,4.765,0,0,0,2,.356,3.969,3.969,0,0,0,2.183-.562,2.77,2.77,0,0,0,1.292-2.391c0-1.3-.6-2.223-2.252-3.5l-.385-.287c-1.14-.866-1.455-1.346-1.455-1.979a1.444,1.444,0,0,1,1.634-1.413,1.743,1.743,0,0,1,1.5.672,1.677,1.677,0,0,1,.356.907c0,.166.04.246.137.246s.152-.11.152-.412c0-1.07.054-1.469.054-1.648,0-.1-.067-.137-.193-.164a6.64,6.64,0,0,0-1.825-.233C286,332.448,284.733,333.532,284.733,335.043Z" transform="translate(-129.481 -289.658)"/>
  <path id="Path_8858" data-name="Path 8858" d="M299.877,342.929c.262,0,.331-.04.331-.137s-.083-.11-.179-.11a2.4,2.4,0,0,1-.851-.206,6.5,6.5,0,0,1-1.966-1.484c-.535-.508-3.226-3.406-3.721-4.051.468-.495,2.541-2.555,2.967-2.967a4.409,4.409,0,0,1,1.484-1.03,2.66,2.66,0,0,1,.8-.15c.139,0,.206-.027.206-.123s-.1-.125-.233-.125c-.425,0-1.18.042-1.607.042-.37,0-1.126-.042-1.413-.042-.152,0-.219.029-.219.125,0,.081.054.11.177.137.139.027.192.123.192.275,0,.233-.3.576-.687,1.03s-2.4,2.512-2.868,3.021h-.069v-.6c0-2.087,0-2.472.027-2.911.029-.481.139-.714.508-.784a2.1,2.1,0,0,1,.385-.04c.11,0,.192-.027.192-.123s-.1-.125-.289-.125c-.468,0-1.332.042-1.661.042s-1.2-.042-1.923-.042c-.206,0-.3.029-.3.125s.083.123.235.123a2.888,2.888,0,0,1,.535.04c.452.1.562.316.589.784.029.439.029.824.029,2.911v2.416c0,1.265,0,2.349-.069,2.926-.056.4-.123.7-.4.755a2.262,2.262,0,0,1-.495.056c-.164,0-.219.04-.219.11,0,.1.1.137.275.137.549,0,1.415-.04,1.731-.04.343,0,1.207.04,1.977.04.15,0,.26-.04.26-.137,0-.069-.067-.11-.177-.11a5.91,5.91,0,0,1-.674-.056c-.343-.054-.466-.356-.495-.741-.04-.591-.04-1.675-.04-2.94V337.7h.069l.15.206c.289.4,2.993,3.571,3.6,4.106a2.7,2.7,0,0,0,1.7.893c.287.027.535.027.947.027Z" transform="translate(-125.126 -289.567)"/>
  <path id="Path_8859" data-name="Path 8859" d="M299.689,342.683a5.822,5.822,0,0,1-.7-.056c-.412-.054-.508-.3-.551-.672-.054-.591-.054-1.677-.054-3.009V336.53c0-2.087,0-2.472.027-2.911.027-.481.137-.714.508-.784a2.362,2.362,0,0,1,.412-.04c.137,0,.219-.027.219-.139,0-.081-.11-.11-.289-.11-.522,0-1.332.042-1.675.042-.4,0-1.263-.042-1.785-.042-.221,0-.331.029-.331.11,0,.112.083.139.221.139a1.974,1.974,0,0,1,.493.054c.3.069.441.3.468.77.027.439.027.824.027,2.911v2.416c0,1.332,0,2.418-.069,3-.04.4-.123.631-.4.685a2.277,2.277,0,0,1-.495.056c-.166,0-.219.04-.219.11,0,.1.1.137.273.137.551,0,1.415-.04,1.731-.04.372,0,1.236.04,2.143.04.15,0,.26-.04.26-.137C299.908,342.723,299.841,342.683,299.689,342.683Z" transform="translate(-119.278 -289.567)"/>
  <path id="Path_8860" data-name="Path 8860" d="M233.587,323.437a2.873,2.873,0,0,1,.535.04c.454.1.564.316.591.784.027.439.027.824.027,2.911v2.006c0,1.991.522,3.007,1.222,3.639a4.417,4.417,0,0,0,3.049.947,4.1,4.1,0,0,0,2.857-.99c1.153-.988,1.3-2.609,1.3-4.133v-1.469c0-2.087,0-2.472.027-2.911.029-.481.139-.714.508-.784a2.122,2.122,0,0,1,.4-.04c.166,0,.248-.027.248-.123s-.1-.125-.289-.125c-.535,0-1.4.042-1.565.042-.015,0-.88-.042-1.581-.042-.192,0-.287.029-.287.125s.081.123.233.123a2.724,2.724,0,0,1,.495.04c.452.1.562.316.589.784.029.439.029.824.029,2.911v1.717c0,1.413-.042,2.649-.8,3.406a2.693,2.693,0,0,1-1.9.741,2.548,2.548,0,0,1-1.715-.562c-.674-.551-1.072-1.388-1.072-3.379v-1.923c0-2.087,0-2.472.029-2.911.027-.481.137-.714.508-.784a2.087,2.087,0,0,1,.4-.04c.139,0,.221-.027.221-.123s-.1-.125-.3-.125c-.495,0-1.361.042-1.69.042-.412,0-1.276-.042-2-.042-.206,0-.3.029-.3.125S233.437,323.437,233.587,323.437Z" transform="translate(-176.746 -298.224)"/>
  <path id="Path_8861" data-name="Path 8861" d="M243.945,333.437a2.171,2.171,0,0,1-.714-.1c-.275-.1-.452-.454-.481-1.525l-.15-5.768h.04c.248.262,1.773,1.977,3.269,3.461,1.428,1.413,3.186,3.213,4.05,4.037.152.15.316.3.468.3.123,0,.179-.123.179-.425l.15-8.665c.014-.77.123-1.059.508-1.169a1.528,1.528,0,0,1,.412-.04c.166,0,.246-.042.246-.123,0-.11-.137-.125-.316-.125-.672,0-1.194.042-1.346.042-.287,0-.947-.042-1.661-.042-.206,0-.356.015-.356.125,0,.081.054.123.219.123a2.228,2.228,0,0,1,.728.083c.329.137.452.4.466,1.236l.139,6.164h-.069c-.233-.219-2.087-2.2-3.02-3.13-2.006-1.991-4.093-4.23-4.257-4.409-.235-.246-.358-.425-.508-.425s-.179.193-.179.468l-.123,8.13c-.013,1.194-.069,1.592-.427,1.7a2.382,2.382,0,0,1-.616.069c-.139,0-.221.027-.221.11,0,.123.125.137.3.137.714,0,1.361-.04,1.484-.04.26,0,.81.04,1.7.04.192,0,.316-.027.316-.137C244.178,333.464,244.1,333.437,243.945,333.437Z" transform="translate(-170.251 -298.336)"/>
  <path id="Path_8862" data-name="Path 8862" d="M248.307,323.437a1.974,1.974,0,0,1,.493.054c.3.069.441.3.468.77.027.439.027.824.027,2.911v2.418c0,1.33,0,2.416-.067,2.994-.042.4-.125.631-.4.685a2.151,2.151,0,0,1-.495.056c-.166,0-.219.04-.219.11,0,.1.1.137.273.137.551,0,1.415-.04,1.731-.04.372,0,1.236.04,2.143.04.152,0,.262-.04.262-.137,0-.069-.069-.11-.221-.11a5.488,5.488,0,0,1-.7-.056c-.412-.054-.508-.3-.551-.672-.054-.591-.054-1.677-.054-3.007v-2.418c0-2.087,0-2.472.027-2.911.027-.481.137-.714.508-.784a2.38,2.38,0,0,1,.412-.04c.137,0,.219-.027.219-.137,0-.083-.11-.112-.289-.112-.522,0-1.332.042-1.675.042-.4,0-1.263-.042-1.785-.042-.219,0-.329.029-.329.112C248.088,323.41,248.169,323.437,248.307,323.437Z" transform="translate(-163.115 -298.224)"/>
  <path id="Path_8863" data-name="Path 8863" d="M266.289,323.507a1.494,1.494,0,0,1,.481-.069c.123,0,.193-.042.193-.137s-.1-.112-.248-.112c-.452,0-1.043.042-1.14.042-.123,0-.7-.042-1.427-.042-.206,0-.318.029-.318.125,0,.081.1.123.235.123.535,0,.658.193.658.412a2.911,2.911,0,0,1-.137.8c-.481,1.605-1.581,5.23-1.827,6.151h-.04l-2.857-6.907c-.179-.439-.246-.645-.4-.645-.11,0-.193.11-.343.495l-2.664,7.154h-.04c-.248-.768-1.525-4.93-1.76-5.835a9.054,9.054,0,0,1-.3-1.265c0-.15.027-.246.15-.3a.734.734,0,0,1,.343-.054c.139,0,.248-.013.248-.123,0-.083-.1-.125-.289-.125-.8,0-1.4.042-1.525.042s-.878-.042-1.592-.042c-.193,0-.3.029-.3.125s.083.123.219.123a1.21,1.21,0,0,1,.549.123,1.993,1.993,0,0,1,.508.976l2.911,8.719c.11.358.179.508.316.508.166,0,.235-.166.495-.728.591-1.263,2.418-6.124,2.678-6.825h.029l2.855,6.88c.206.506.289.672.425.672.179,0,.248-.166.4-.645.674-2.06,2.116-6.428,2.747-8.157C265.81,324.178,265.96,323.63,266.289,323.507Z" transform="translate(-160.059 -298.224)"/>
  <path id="Path_8864" data-name="Path 8864" d="M260.694,323.49a2.892,2.892,0,0,1,.537.04c.452.1.562.316.589.784.029.439.029.824.029,2.911v2.418c0,1.263,0,2.347-.069,2.924-.056.4-.123.7-.4.755a2.15,2.15,0,0,1-.495.056c-.164,0-.22.04-.22.11,0,.1.1.137.275.137.549,0,1.413-.04,1.731-.04.809,0,1.729.083,3.8.083.524,0,.647,0,.743-.358a10.974,10.974,0,0,0,.177-1.525c0-.137,0-.246-.11-.246s-.123.054-.15.206c-.1.562-.262.851-.618,1.016a3.511,3.511,0,0,1-1.292.164c-1.4,0-1.619-.206-1.648-1.153-.013-.4,0-1.661,0-2.127v-1.086c0-.083.014-.137.083-.137.329,0,1.69.013,1.95.04.508.056.7.262.77.535a3.684,3.684,0,0,1,.054.495.108.108,0,0,0,.123.123c.123,0,.123-.15.123-.26s.029-.645.056-.92a9.923,9.923,0,0,1,.11-1c0-.083-.04-.11-.1-.11s-.123.069-.219.179a.957.957,0,0,1-.658.206c-.316.027-1.9.027-2.2.027-.083,0-.1-.054-.1-.15v-3.475c0-.1.029-.137.1-.137.275,0,1.717.027,1.95.054.687.083.824.246.92.495a1.457,1.457,0,0,1,.083.495c0,.123.027.193.123.193s.123-.083.137-.152c.029-.166.056-.768.069-.907.042-.631.11-.8.11-.891,0-.069-.013-.125-.083-.125a1.359,1.359,0,0,0-.219.056c-.11.027-.329.054-.589.083-.262.013-3,.013-3.434.013-.385,0-1.249-.042-1.977-.042-.206,0-.3.029-.3.125S260.544,323.49,260.694,323.49Z" transform="translate(-151.668 -298.277)"/>
  <path id="Path_8865" data-name="Path 8865" d="M265.953,323.437a2.871,2.871,0,0,1,.535.04c.454.1.564.316.591.784.027.439.027.824.027,2.911v2.418c0,1.263,0,2.347-.069,2.924-.054.4-.123.7-.4.755a2.164,2.164,0,0,1-.495.056c-.166,0-.219.04-.219.11,0,.1.1.137.273.137.551,0,1.415-.04,1.677-.04.206,0,1.221.04,2.018.04.179,0,.275-.04.275-.137,0-.069-.056-.11-.166-.11a5.98,5.98,0,0,1-.672-.056c-.412-.054-.495-.356-.537-.755-.067-.578-.067-1.661-.067-2.94v-.191c0-.083.04-.11.11-.11l1.194.027a.288.288,0,0,1,.248.1c.179.206.81,1.14,1.359,1.894a6.663,6.663,0,0,0,1.881,2.019,2.8,2.8,0,0,0,1.471.26h1.3c.166,0,.262-.027.262-.137,0-.069-.056-.11-.166-.11a2.065,2.065,0,0,1-.385-.042,2.721,2.721,0,0,1-1.536-.934c-.811-.851-1.76-2.073-2.98-3.612,1.386-1.126,1.812-2.06,1.812-3.076a2.381,2.381,0,0,0-.934-1.881,4.387,4.387,0,0,0-2.526-.591c-.427,0-1.471.042-1.937.042-.289,0-1.153-.042-1.881-.042-.206,0-.3.029-.3.125S265.8,323.437,265.953,323.437Zm2.774.645c0-.11.027-.164.123-.193a3.067,3.067,0,0,1,.728-.054,2.2,2.2,0,0,1,2.1,2.512,2.42,2.42,0,0,1-.809,2.06,1.377,1.377,0,0,1-.976.233,3.619,3.619,0,0,1-1.043-.137c-.1-.04-.123-.1-.123-.246Z" transform="translate(-146.803 -298.224)"/>
  <path id="Path_8866" data-name="Path 8866" d="M272.311,333.5a4.765,4.765,0,0,0,2,.356,3.969,3.969,0,0,0,2.183-.562,2.77,2.77,0,0,0,1.292-2.391c0-1.3-.6-2.224-2.252-3.5l-.385-.287c-1.14-.866-1.455-1.346-1.455-1.979a1.444,1.444,0,0,1,1.634-1.413,1.741,1.741,0,0,1,1.5.672,1.668,1.668,0,0,1,.358.907c0,.166.04.246.137.246s.152-.11.152-.412c0-1.07.054-1.469.054-1.648,0-.094-.067-.137-.192-.164a6.637,6.637,0,0,0-1.825-.233c-1.91,0-3.173,1.084-3.173,2.6,0,1.113.522,2.073,2.033,3.253l.631.495c1.14.88,1.346,1.525,1.346,2.2a1.669,1.669,0,0,1-1.84,1.567,1.893,1.893,0,0,1-1.964-1.388,2.86,2.86,0,0,1-.123-.7c0-.11-.015-.233-.139-.233s-.15.152-.164.358-.069,1.043-.069,1.8C272.049,333.334,272.089,333.4,272.311,333.5Z" transform="translate(-140.948 -298.316)"/>
  <path id="Path_8867" data-name="Path 8867" d="M276.164,323.437a1.4,1.4,0,0,1,.578.179,3.34,3.34,0,0,1,.947,1c.481.714,2.32,3.737,2.416,3.956a2.909,2.909,0,0,1,.316,1.442v1.126c0,.219,0,.8-.04,1.373-.027.4-.15.7-.425.755a2.117,2.117,0,0,1-.481.056c-.15,0-.219.04-.219.11,0,.11.11.137.3.137.508,0,1.373-.04,1.717-.04.37,0,1.236.04,2.1.04.179,0,.289-.04.289-.137,0-.069-.069-.11-.219-.11a5.507,5.507,0,0,1-.687-.056c-.412-.054-.535-.356-.562-.755-.042-.578-.042-1.153-.042-1.373v-1.126a3.288,3.288,0,0,1,.206-1.375,43.859,43.859,0,0,1,2.624-4.366,2.048,2.048,0,0,1,.741-.674,1.479,1.479,0,0,1,.6-.164c.15,0,.26-.042.26-.137s-.1-.112-.246-.112c-.262,0-1.167.042-1.469.042-.4,0-.837-.042-1.292-.042-.164,0-.233.029-.233.125,0,.081.123.11.246.137a.328.328,0,0,1,.289.343,1.769,1.769,0,0,1-.193.714c-.193.425-1.921,3.448-2.06,3.777-.219-.385-2.143-3.694-2.333-4.106a1.266,1.266,0,0,1-.166-.468.248.248,0,0,1,.193-.246c.206-.054.3-.069.3-.15s-.069-.125-.206-.125c-.618,0-1.182.042-1.469.042-.454,0-1.484-.042-1.731-.042-.166,0-.262.042-.262.125S276.054,323.437,276.164,323.437Z" transform="translate(-137.332 -298.224)"/>
  <path id="Path_8868" data-name="Path 8868" d="M282.061,325.15c.083,0,.123-.056.152-.166a1.582,1.582,0,0,1,.233-.481c.206-.3.535-.37,1.332-.4l2.046-.054v5.631c0,1.263,0,2.347-.069,2.924-.04.4-.123.7-.4.755a2.149,2.149,0,0,1-.495.056c-.164,0-.219.04-.219.11,0,.1.1.137.275.137.549,0,1.415-.04,1.731-.04.383,0,1.249.04,2.156.04.15,0,.26-.04.26-.137,0-.069-.069-.11-.219-.11a5.513,5.513,0,0,1-.7-.056c-.412-.054-.495-.356-.535-.741-.069-.591-.069-1.675-.069-2.938v-5.631l1.731.04c1.222.029,1.594.412,1.621.77l.014.15c.013.206.04.275.15.275.083,0,.11-.083.125-.219,0-.358.04-1.305.04-1.594,0-.206-.014-.287-.11-.287a6.015,6.015,0,0,1-1.319.137h-5.439c-.452,0-.974-.027-1.373-.069a3.192,3.192,0,0,1-.591-.164c-.083,0-.123.081-.164.26-.029.11-.289,1.359-.289,1.579C281.938,325.081,281.965,325.15,282.061,325.15Z" transform="translate(-131.8 -298.316)"/>
  <path id="Path_8869" data-name="Path 8869" d="M294.118,333.666c.522,0,.645,0,.741-.358a10.692,10.692,0,0,0,.179-1.525c0-.137,0-.246-.11-.246s-.123.054-.152.206c-.1.562-.26.851-.618,1.016a3.5,3.5,0,0,1-1.29.164c-1.4,0-1.621-.206-1.648-1.153-.013-.4,0-1.661,0-2.127v-1.086c0-.083.014-.137.083-.137.329,0,1.688.013,1.948.04.508.056.7.262.77.535a3.705,3.705,0,0,1,.054.495.109.109,0,0,0,.125.123c.123,0,.123-.15.123-.26s.027-.645.054-.92c.042-.7.112-.92.112-1s-.042-.11-.1-.11c-.069,0-.125.069-.221.179a.957.957,0,0,1-.658.206c-.316.027-1.894.027-2.2.027-.083,0-.1-.054-.1-.15v-3.475c0-.1.027-.137.1-.137.273,0,1.715.027,1.95.054.685.083.824.246.92.495a1.5,1.5,0,0,1,.081.495c0,.123.029.193.125.193s.123-.083.137-.152c.027-.166.054-.768.069-.907a8.516,8.516,0,0,1,.11-.891c0-.069-.015-.125-.083-.125a1.266,1.266,0,0,0-.22.056c-.11.027-.331.054-.591.083-.262.013-2.994.013-3.433.013-.385,0-1.249-.042-1.979-.042-.206,0-.3.029-.3.125s.081.123.233.123a2.869,2.869,0,0,1,.535.04c.452.1.562.316.591.784.027.439.027.824.027,2.911v2.418c0,1.263,0,2.347-.069,2.924-.054.4-.123.7-.4.755a2.131,2.131,0,0,1-.493.056c-.166,0-.219.04-.219.11,0,.1.094.137.273.137.551,0,1.415-.04,1.731-.04C291.125,333.583,292.045,333.666,294.118,333.666Z" transform="translate(-126.095 -298.277)"/>
  <path id="Path_8870" data-name="Path 8870" d="M302.186,323.186a6.059,6.059,0,0,1-1.319.137h-5.438c-.452,0-.976-.027-1.373-.069a3.145,3.145,0,0,1-.591-.164c-.083,0-.123.081-.166.26-.027.11-.287,1.359-.287,1.579,0,.152.027.221.123.221s.123-.056.15-.166a1.628,1.628,0,0,1,.233-.481c.206-.3.537-.37,1.332-.4l2.046-.054v5.631c0,1.263,0,2.347-.067,2.924-.042.4-.125.7-.4.755a2.149,2.149,0,0,1-.495.056c-.166,0-.219.04-.219.11,0,.1.1.137.273.137.551,0,1.415-.04,1.731-.04.385,0,1.249.04,2.156.04.152,0,.262-.04.262-.137,0-.069-.069-.11-.219-.11a5.513,5.513,0,0,1-.7-.056c-.412-.054-.495-.356-.535-.741-.069-.591-.069-1.675-.069-2.938v-5.631l1.731.04c1.222.029,1.592.412,1.619.77l.015.15c.014.206.04.275.15.275.083,0,.11-.083.123-.219,0-.358.042-1.305.042-1.594C302.3,323.267,302.281,323.186,302.186,323.186Z" transform="translate(-121.554 -298.316)"/>
</svg>
