<svg id="Group_423" data-name="Group 423" xmlns="http://www.w3.org/2000/svg" width="194.942" height="66.758" viewBox="0 0 194.942 66.758">
  <path id="Path_8551" data-name="Path 8551" d="M438.529,498.137c0-2.4-2.749-3.617-8.18-3.617-6.024,0-8.172.861-8.915,1.583-.117.11-.47.589-.47,2.458v1.178c0,.441.017.963.054,1.554.037.626.066,1.163.085,1.617.017.472.027.855.027,1.17v.928c0,.091,0,.179,0,.27.216.064.46.139.734.229.63.2,1.359.489,2.237.868a9,9,0,0,0,2.747.862,12.451,12.451,0,0,0,8.076-3.433C437.312,501.732,438.529,499.824,438.529,498.137Z" transform="translate(-323.457 -475.625)" fill="none"/>
  <path id="Path_8552" data-name="Path 8552" d="M471.219,494.468a4.36,4.36,0,1,0-4.332-4.449A4.368,4.368,0,0,0,471.219,494.468Zm-1.625-6.655h1.76c.982,0,1.525.343,1.525,1.174a1.054,1.054,0,0,1-.73,1.1c.533.179.562.745.576,1.215.019.68.073.866.187.961v.037h-.47a7.258,7.258,0,0,1-.2-1.492c-.1-.481-.466-.551-.889-.551h-1.336V492.3h-.424Z" transform="translate(-280.971 -483.739)" fill="none"/>
  <path id="Path_8553" data-name="Path 8553" d="M417.113,501.514c-.071-.424-.175-.922-.312-1.48s-.246-1.063-.318-1.478a6.6,6.6,0,0,1-.106-1.088,7.685,7.685,0,0,1,.081-.9,7.836,7.836,0,0,0,.077-.866c0-.859-.5-1.276-1.542-1.276-.452,0-1.132.637-1.8,3.679a23.133,23.133,0,0,0-.784,4.923c0,2.8.732,4.214,2.17,4.214.187,0,.616-.2,1.4-1.544a4.747,4.747,0,0,0,1.134-4.177Z" transform="translate(-331.374 -475.717)" fill="none"/>
  <path id="Path_8554" data-name="Path 8554" d="M470.953,487.842c0-.67-.524-.834-1.09-.834h-1.349v1.727h1.321C470.464,488.735,470.953,488.471,470.953,487.842Z" transform="translate(-279.467 -482.574)" fill="none"/>
  <path id="Path_8555" data-name="Path 8555" d="M434.137,487.6c-.489,0-1.271.042-2.322.123q-1.612.127-4.074.339c-1.486.139-2.774.266-3.818.377-.753.079-1.405.16-1.954.241a74.489,74.489,0,0,0-.718,10.184,93.919,93.919,0,0,0,13.112-2.9,14.4,14.4,0,0,0,4.919-2.68c2.4-1.848,2.761-2.959,2.761-3.456C442.043,488.414,439.159,487.6,434.137,487.6Z" transform="translate(-323.19 -482.025)" fill="none"/>
  <path id="Path_8556" data-name="Path 8556" d="M394.044,507.7c1.151,0,2.131-1.1,2.907-3.255a13.413,13.413,0,0,0,.934-4.5l.006-.518a1.372,1.372,0,0,0,.048-.329v-1.648c0-2.023-.522-3.007-1.592-3.007-.4,0-.764.3-1.086.9l-1.151,2.329c-1.648,3.315-2.472,5.552-2.449,6.655.733.318,1.049.564,1.049.814,0,.127-.09.256-.287.408-.115.09-.183.175-.183.237a1.984,1.984,0,0,0,.443,1.246A1.565,1.565,0,0,0,394.044,507.7Z" transform="translate(-350.566 -475.698)" fill="none"/>
  <path id="Path_8557" data-name="Path 8557" d="M419.977,505.1a2.533,2.533,0,0,0-2.274.146,2.638,2.638,0,0,0-.945.941,2.523,2.523,0,0,0,0,2.559,2.643,2.643,0,0,0,.945.943,2.493,2.493,0,0,0,1.284.348,2.468,2.468,0,0,0,1.284-.35,2.709,2.709,0,0,0,.947-.943,2.5,2.5,0,0,0,.144-2.262,2.63,2.63,0,0,0-.558-.826A2.579,2.579,0,0,0,419.977,505.1Z" transform="translate(-327.669 -466.029)" fill="none"/>
  <path id="Path_8558" data-name="Path 8558" d="M563.141,497.879h0a5.367,5.367,0,0,1-.512.21l.429-.181-1.685.449-.61.152a7.8,7.8,0,0,0-2.264.61c-.12.037-.208.064-.283.091-.449.06-.9.119-1.344.183-1.885.258-3.767.533-5.65.8-3.56.5-7.125.936-10.711,1.153a5.9,5.9,0,0,0-1.469.316c1.017-4.291.631-8.74-2.112-12.334a1.738,1.738,0,0,0-.508-.452l.019-.023-.745-.545-.373-.27-.395-.237-.787-.468-.826-.4c-.139-.066-.273-.135-.414-.2l-.425-.164c-.285-.106-.568-.219-.855-.318a17.549,17.549,0,0,0-1.762-.462,16.806,16.806,0,0,0-3.6-.362,17.287,17.287,0,0,0-1.81.121c-.3.042-.6.062-.9.125l-.891.183a15.466,15.466,0,0,0-3.436,1.234,15.3,15.3,0,0,0-1.6.913c-.256.171-.5.364-.747.545l-.372.279c-.119.094-.225.191-.339.285a18.808,18.808,0,0,0-4.53,5.514,14.646,14.646,0,0,0-.741,1.684s-.017.06-.044.171-.069.275-.112.489-.1.468-.135.766-.079.637-.106,1a11.656,11.656,0,0,0,.121,2.5,11.379,11.379,0,0,0,.78,2.684,13.766,13.766,0,0,0,2.8,4.12c.225.245.445.451.643.637s.368.339.516.462l.456.393-.339-.476c-.11-.148-.239-.333-.374-.551s-.3-.456-.452-.731a14.7,14.7,0,0,1-.941-1.9,11.537,11.537,0,0,1-.66-2.26,9.01,9.01,0,0,1,.183-4.124c.064-.266.16-.5.231-.71s.158-.383.216-.529c.137-.285.216-.447.216-.447a11.392,11.392,0,0,1,.7-1.64,15.459,15.459,0,0,1,3.733-4.52c.1-.079.194-.166.289-.239l.285-.21c.191-.139.373-.291.572-.42a12.456,12.456,0,0,1,3.943-1.673,13.126,13.126,0,0,1,10.477,2c-2.651,6.567-5.754,14.2-13.576,15.3-1.709.243-.98,2.828.712,2.589,8.359-1.18,12.03-8.879,14.949-15.959a13.805,13.805,0,0,1-.025,9.537c-.033,0-.067.01-.1.011l.1-.006c-.012.037-.021.075-.035.112a21.085,21.085,0,0,1-6.94,10.168c-2.792,2.039-6.336,3.04-9.422,4.534a24.924,24.924,0,0,0-2.56,1.405c-.156-3.925-2.075-8.074-3.958-11.085-.916-1.461-3.238-.117-2.318,1.355,2.054,3.28,4.457,8.309,3.3,12.357a6.6,6.6,0,0,0-1.182,2.472,1.349,1.349,0,0,0,2.453,1.036,8.506,8.506,0,0,0,1.209-2.353c1.594-1.842,4.453-2.926,6.438-3.806,3.213-1.425,6.522-2.6,9.117-5.05a25.426,25.426,0,0,0,6.817-11.376c3.775-.348,7.531-.889,11.285-1.425a57.338,57.338,0,0,0,6.185-1.034q.7-.179,1.4-.368c-12.276,6.661-19.047,19.338-28.282,29.3a68.754,68.754,0,0,1-16.868,13.152,70.288,70.288,0,0,1-9.628,4.43c-.9.335-1.806.645-2.718.943-.42.139-1.511.435-1.983.568-1.5.333-3.009.61-4.526.847a91.18,91.18,0,0,1-21.685.35,107.816,107.816,0,0,1-19.917-3.708c-13.688-3.8-27.215-8.825-39.594-15.836-1.527-.864-3.055-1.758-4.589-2.655a20.11,20.11,0,0,1-.112-2.364,49.245,49.245,0,0,1,.235-4.959c.011-.114.027-.221.04-.335a121.238,121.238,0,0,1,14.313,2.693c8.241,2.033,16.383,4.372,24.776,5.735.974.158,2.154-.99,3.111-.834-8.255-1.34-16.277-3.608-24.378-5.637a115.778,115.778,0,0,0-17.673-3.107c.139-.93.312-1.823.526-2.666a5.563,5.563,0,0,1,.961.986,2.414,2.414,0,0,0,1.829.849c2.287,0,3.95-1.631,4.944-4.846a22.9,22.9,0,0,0,.947-6.723,4.627,4.627,0,0,0-.766-2.947,4.414,4.414,0,0,0-3.45-1.132c-.554,0-1.24.749-2.16,2.364-.458.851-.847,1.619-1.161,2.295v-1.265a1.589,1.589,0,0,0-.052-.377v-.389a4.115,4.115,0,0,1,.075-.618,4.335,4.335,0,0,0,.081-.71c0-1.042-.612-1.261-1.128-1.261-.8,0-.972.358-.972.658a.624.624,0,0,0,.266.468,34.362,34.362,0,0,1-.212,4.129c-.175,1.752-.456,3.912-.837,6.414-.258,1.683-.477,3.229-.658,4.628-1.964-.141-3.935-.221-5.918-.225-1.041,0-2.081.835-3.109.832a88.077,88.077,0,0,1,8.892.489c-.035.281-.067.558-.1.824a44.2,44.2,0,0,0-.316,4.745q0,.606.029,1.134c-8.913-5.177-18.138-10.122-28.7-10-1.567.017-3.115,1.232-4.667,1.249,14.837-.166,26.952,9.533,39.475,16.113a163.022,163.022,0,0,0,20.491,8.757,190.054,190.054,0,0,0,19.39,5.953,105.676,105.676,0,0,0,20.067,2.834,82.7,82.7,0,0,0,21.282-1.436,91.5,91.5,0,0,0,20.168-6.557,69.284,69.284,0,0,0,17.582-12.026c11.2-10.48,17.977-25.527,32.086-32.769ZM410.057,513.886c.2-.152.287-.281.287-.408,0-.25-.316-.5-1.049-.814-.023-1.1.8-3.34,2.449-6.655l1.151-2.329c.321-.6.685-.9,1.086-.9,1.07,0,1.592.984,1.592,3.007v1.648a1.375,1.375,0,0,1-.048.329l-.006.518a13.413,13.413,0,0,1-.934,4.5c-.776,2.16-1.756,3.255-2.907,3.255a1.565,1.565,0,0,1-1.361-.674,1.984,1.984,0,0,1-.443-1.245C409.874,514.061,409.942,513.976,410.057,513.886Z" transform="translate(-368.199 -484.039)"/>
  <path id="Path_8559" data-name="Path 8559" d="M374.98,517.345c7.739-13.1,21.812-20.878,35.917-25.385.472-.148.941-.293,1.415-.435.094-.029,1.1-.3,1.213-.335q1.21-.295,2.428-.56c2.224-.491,4.462-.9,6.711-1.265,4.151-.67,8.338-1.124,12.535-1.392a102.938,102.938,0,0,1,25.377,1.426.978.978,0,0,0-.15.233.886.886,0,0,0,.056.874l.025.037a3.038,3.038,0,0,0,2.562,1.221c.089,0,.179,0,.254-.008.616-.023,1.118-.035,1.494-.04l-.189,1.85c-.256,2.53-.441,5.161-.551,7.824-.05,1.219-.089,2.474-.115,3.752a.948.948,0,0,0-.241-.031c-.345,0-.6.277-.757.826a13.208,13.208,0,0,1-1.086,3.148,2.779,2.779,0,0,1-2.607,1.5,2.414,2.414,0,0,1-1.174-.385c0-3.25-.141-5.15-.429-5.816a4.685,4.685,0,0,0-1.989-1.871,5.618,5.618,0,0,0-2.9-.9,1.8,1.8,0,0,0-1.908,1.463c-.141.458-.246.826-.314,1.094a3.542,3.542,0,0,1-.185.549.97.97,0,0,0-.343.653v.281a1.88,1.88,0,0,0,.015.214,2.242,2.242,0,0,0-.067.287,26.384,26.384,0,0,1-2.083,5.768c-1.609,3.608-2.352,4.147-2.653,4.147-.93,0-1.382-.576-1.382-1.758a15.843,15.843,0,0,1,.1-1.656c.069-.655.177-1.419.314-2.27.141-.886.246-1.667.316-2.322a16.72,16.72,0,0,0,.106-1.685c0-.835-.787-1.569-2.335-2.179-2.014-.809-2.116-1.111-2.116-1.163,0-.108.01-.271.027-.474s.044-.481.077-.8c.036-.27.061-.506.081-.71a1.9,1.9,0,0,0-.027-.558c-.048-1.14-.7-1.378-1.232-1.378-.959,0-1.444.722-1.444,2.148a4.18,4.18,0,0,0,.429,1.461,4.083,4.083,0,0,1,.408,1.315,8.7,8.7,0,0,1-.674,2.818c-.235.71-.4,1.282-.506,1.731-.366,1.036-.67,1.889-.9,2.532-1.057,2.774-2.035,4.179-2.913,4.179-.918,0-1.382-1.24-1.382-3.689a14.575,14.575,0,0,1,.1-1.636c.069-.612.175-1.3.312-2.043q.263-1.372.395-2.118a6.473,6.473,0,0,0,.129-.909,2.125,2.125,0,0,1,.323-.776,1.6,1.6,0,0,0,.306-.733c0-.78-1.238-.776-1.638-.778-.044,0-.092-.006-.135-.006-.41,0-.922.189-1.057,1.086l.089.017-.048.012a1.22,1.22,0,0,1,.01.233v1.288a4.061,4.061,0,0,1-.075.72l-.183.984q-.159.768-.237,1.213a2.03,2.03,0,0,1-.112.474l-.017.048a17.372,17.372,0,0,1-1.715,5.2c-.139.268-.279.529-.418.784s-.294.51-.464.774a1.749,1.749,0,0,1-1.355.947c-.214,0-.861,0-.861-1.636,0-1.444.064-2.8.181-4.033a26.9,26.9,0,0,1,.543-3.4,1.942,1.942,0,0,0,.133-.31c.052-.144.112-.35.181-.618a2.722,2.722,0,0,0,.219-.976,1.1,1.1,0,0,0-.47-.849,1.589,1.589,0,0,0-1.026-.373,1.218,1.218,0,0,0-.993.372c-.169.206-.418.909-.608,4.626-.067,1.1-.119,2.064-.154,2.882s-.054,1.511-.054,2.079a4.152,4.152,0,0,0,.653,2.247,2.566,2.566,0,0,0,2.256,1.269,3.087,3.087,0,0,0,2.58-1.321c.277-.535.56-1.055.833-1.546q.344-.606.653-1.176a8.863,8.863,0,0,0,.845,1.846,2.51,2.51,0,0,0,2.1,1.392c1.505,0,2.967-1.779,4.468-5.437a23.665,23.665,0,0,0,1.763-5.292,8.217,8.217,0,0,0,.331-1.492c1.9.774,2.3,1.392,2.3,1.775l-.1,3.221a33.251,33.251,0,0,0,0,3.752,4.608,4.608,0,0,0,.551,2.535,3.473,3.473,0,0,0,2.828,1.461c.966,0,2.195-1.725,3.752-5.269.123,3.681,1.448,5.55,3.943,5.55a3.332,3.332,0,0,0,2.668-1.336,6.344,6.344,0,0,0,.616-.99q.341-.638.77-1.592.208-.687.368-1.251c.085-.31.162-.6.229-.874a8.538,8.538,0,0,0,1.736.447,3.737,3.737,0,0,0,3.307-2.2,13.014,13.014,0,0,0,.972-2.116q-.009.953-.01,1.917V510c0,.287-.017.826-.054,1.65l0,1.806c0,2.239.524,4.924,3.022,5.019h.029a1.165,1.165,0,0,0,1.149-.889c.462.135,1.157.327,2.206.61a22.767,22.767,0,0,0,5.573.955c2.88,0,5.85-1.224,8.836-3.635,3.034-2.455,4.57-4.876,4.57-7.2,0-3.542-2.208-5.935-6.574-7.138,1.059-.393,1.987-.743,2.77-1.045,1.421-.547,2.408-.953,3.011-1.244a9.927,9.927,0,0,0,3.092-2.324,4.954,4.954,0,0,0,1.756-3.294c0-2.112-1.636-3.758-4.869-4.89a22.97,22.97,0,0,0-7.55-1.224,90.188,90.188,0,0,0-11.919.747,1.97,1.97,0,0,0-.243-.416c0-.256.008-.512.033-.77a2.012,2.012,0,0,0-2.012-2.012,2.05,2.05,0,0,0-2.012,2.012,8.943,8.943,0,0,0-.021,1.342c-15.085-2.74-30.815-1.736-45.7,1.679-14.764,3.39-29.762,8.553-40.961,19.17a44.726,44.726,0,0,0-7.727,9.685c.168-.285,2.025-.516,2.339-.6C373,517.9,374.784,517.677,374.98,517.345Zm78.535-1.122c-1.438,0-2.17-1.417-2.17-4.214a23.133,23.133,0,0,1,.784-4.923c.672-3.042,1.351-3.679,1.8-3.679,1.038,0,1.542.418,1.542,1.276a7.832,7.832,0,0,1-.077.866,7.685,7.685,0,0,0-.081.9,6.6,6.6,0,0,0,.106,1.088c.071.416.177.916.318,1.479s.241,1.057.312,1.48a4.747,4.747,0,0,1-1.134,4.177C454.132,516.025,453.7,516.223,453.516,516.223Zm32.891-20.256a14.4,14.4,0,0,1-4.919,2.68,93.917,93.917,0,0,1-13.112,2.9,74.489,74.489,0,0,1,.718-10.184c.549-.081,1.2-.162,1.954-.241,1.043-.112,2.331-.239,3.817-.377q2.46-.211,4.074-.339c1.051-.081,1.833-.123,2.322-.123,5.023,0,7.906.812,7.906,2.229C489.167,493.008,488.807,494.119,486.407,495.967Zm-15.453,19.488c-.878-.379-1.607-.666-2.237-.868-.273-.09-.518-.166-.733-.229,0-.09,0-.179,0-.27v-.928c0-.316-.01-.7-.027-1.17-.019-.454-.048-.991-.085-1.617-.037-.591-.054-1.113-.054-1.554v-1.178c0-1.869.352-2.349.47-2.458.743-.722,2.891-1.583,8.915-1.583,5.431,0,8.18,1.217,8.18,3.617,0,1.686-1.217,3.594-3.61,5.668a12.451,12.451,0,0,1-8.076,3.432A9,9,0,0,1,470.954,515.455Z" transform="translate(-370.314 -484.705)"/>
  <path id="Path_8560" data-name="Path 8560" d="M441.644,491.137c0,.966-.075,3.259-.354,8.576-.181,3.636-.318,6.262-.418,8.026-.16,2.778-.16,3.1-.16,3.207a5.678,5.678,0,0,0,.06.732l.1.782c.025.185.05.362.071.533l-2.9.252c-2.476.216-3.509.46-3.509,1.405l0,.081c.094.938.943,1.247,5.775,1.247a41.311,41.311,0,0,0,7.36-.574c2.039-.354,2.635-.678,2.951-.949l.281-.239v-.372c0-1.174-1.6-1.271-3.54-1.271-.395,0-.839.008-1.317.023-.577.015-1.034.031-1.38.042a24.044,24.044,0,0,1-.1-2.5A99.046,99.046,0,0,1,445.2,499.6a40.006,40.006,0,0,1,1.613-8.648l4.757-.624.046-.006c.169-.033.435-.1.834-.219.375-.11.889-.277,1.527-.493l1.03-.354-.637-.882a1.667,1.667,0,0,0-1.384-.695h-.943c-.337,0-.743-.013-1.213-.039-.516-.029-.943-.042-1.3-.042h-.893c-.2,0-.816,0-9.7.728l-.123.01-.117.048c-.47.2-.893.387-1.257.568a9.756,9.756,0,0,0-1.03.595l-2.006,1.35,2.412.123C438.2,491.089,439.827,491.128,441.644,491.137Z" transform="translate(-311.021 -482.031)"/>
  <path id="Path_8561" data-name="Path 8561" d="M465.16,507.539q1.1-.283,2.2-.591c.52-.144.516-.154,0-.021a117.221,117.221,0,0,1-44.665,2.74c-.992-.133-2.139.964-3.109.834A119.308,119.308,0,0,0,465.16,507.539Z" transform="translate(-324.736 -464.234)"/>
  <path id="Path_8562" data-name="Path 8562" d="M414.458,505.837a2.714,2.714,0,0,1,.828-.576,2.415,2.415,0,0,1,2.039.04,2.369,2.369,0,0,1,.853.647v-.495a2.623,2.623,0,0,0-.56-.4,2.759,2.759,0,0,0-1.319-.337,2.905,2.905,0,0,0-1.473.393,2.968,2.968,0,0,0-1.086,1.065,2.771,2.771,0,0,0-.4,1.457,2.71,2.71,0,0,0,.408,1.444,3,3,0,0,0,1.088,1.065,2.875,2.875,0,0,0,3.344-.314v-.495a2.072,2.072,0,0,1-.524.443,2.9,2.9,0,0,1-.685.312,2.457,2.457,0,0,1-.693.11,2.357,2.357,0,0,1-.964-.216,3.042,3.042,0,0,1-.853-.564,2.632,2.632,0,0,1-.558-.809,2.344,2.344,0,0,1-.2-.945,2.507,2.507,0,0,1,.2-.984A2.667,2.667,0,0,1,414.458,505.837Z" transform="translate(-330.511 -466.191)"/>
  <path id="Path_8563" data-name="Path 8563" d="M420.623,505.111a2.9,2.9,0,0,0-2.584-.167,2.994,2.994,0,0,0-.945.631,2.917,2.917,0,0,0-.641.936,2.8,2.8,0,0,0-.231,1.116,2.772,2.772,0,0,0,.4,1.45,2.966,2.966,0,0,0,1.08,1.065,2.895,2.895,0,0,0,2.918,0,2.96,2.96,0,0,0,1.078-1.065,2.816,2.816,0,0,0,0-2.9A2.946,2.946,0,0,0,420.623,505.111Zm1.118,2.516a2.49,2.49,0,0,1-.348,1.276,2.709,2.709,0,0,1-.947.943,2.468,2.468,0,0,1-1.284.35,2.493,2.493,0,0,1-1.284-.348,2.643,2.643,0,0,1-.945-.943,2.523,2.523,0,0,1,0-2.559,2.638,2.638,0,0,1,.945-.941,2.533,2.533,0,0,1,2.274-.146,2.578,2.578,0,0,1,.828.556,2.629,2.629,0,0,1,.558.826A2.476,2.476,0,0,1,421.741,507.627Z" transform="translate(-327.843 -466.192)"/>
  <path id="Path_8564" data-name="Path 8564" d="M421.959,510.02a1.413,1.413,0,0,1-.689.177,1.3,1.3,0,0,1-.834-.273,1.773,1.773,0,0,1-.537-.749l-.316.141a1.862,1.862,0,0,0,.647.889,1.654,1.654,0,0,0,1.022.331,1.825,1.825,0,0,0,.866-.218,1.746,1.746,0,0,0,.656-.595,1.474,1.474,0,0,0,.25-.836,1.265,1.265,0,0,0-.645-1.126L421.3,507.2a3.815,3.815,0,0,1-.76-.45.746.746,0,0,1-.262-.608,1.106,1.106,0,0,1,.139-.543,1.058,1.058,0,0,1,.387-.395,1.026,1.026,0,0,1,.541-.144,1.3,1.3,0,0,1,1.151.668l.256-.21a1.516,1.516,0,0,0-.579-.581,1.591,1.591,0,0,0-.807-.218,1.515,1.515,0,0,0-.749.185,1.281,1.281,0,0,0-.514.508,1.472,1.472,0,0,0-.187.745,1.13,1.13,0,0,0,.587,1.013l1.022.541c.258.125.456.231.6.314a1.336,1.336,0,0,1,.375.335.772.772,0,0,1,.168.5,1.246,1.246,0,0,1-.191.674A1.4,1.4,0,0,1,421.959,510.02Z" transform="translate(-324.733 -466.192)"/>
  <path id="Path_8565" data-name="Path 8565" d="M422.905,505.823l1.969,4.876,1.978-4.876h.013l.972,4.689h.345l-1.217-5.853-2.091,5.155-2.083-5.155-1.217,5.853h.347l.97-4.689Z" transform="translate(-322.891 -466.245)"/>
  <path id="Path_8566" data-name="Path 8566" d="M428.064,505.093v-.337h-2.705v5.665h2.705v-.337h-2.346v-2.592h2.288v-.341h-2.288v-2.058Z" transform="translate(-319.391 -466.155)"/>
  <path id="Path_8567" data-name="Path 8567" d="M428.871,510.421v-5.328h1.466v-.337h-3.291v.337h1.463v5.328Z" transform="translate(-317.83 -466.155)"/>
  <rect id="Rectangle_229" data-name="Rectangle 229" width="0.359" height="5.665" transform="translate(113.16 38.601)"/>
  <path id="Path_8568" data-name="Path 8568" d="M430.858,505.837a2.7,2.7,0,0,1,.83-.576,2.428,2.428,0,0,1,.989-.206,2.46,2.46,0,0,1,1.049.246,2.379,2.379,0,0,1,.851.647v-.495a2.626,2.626,0,0,0-.56-.4,2.848,2.848,0,0,0-.641-.252,2.794,2.794,0,0,0-.678-.085,2.9,2.9,0,0,0-1.473.393,2.969,2.969,0,0,0-1.086,1.065,2.771,2.771,0,0,0-.4,1.457,2.725,2.725,0,0,0,.406,1.444,3.03,3.03,0,0,0,1.091,1.065,2.872,2.872,0,0,0,3.342-.314v-.495a2.109,2.109,0,0,1-.524.443,2.932,2.932,0,0,1-.685.312,2.477,2.477,0,0,1-.691.11,2.369,2.369,0,0,1-.968-.216,3.061,3.061,0,0,1-.851-.564,2.633,2.633,0,0,1-.558-.809,2.312,2.312,0,0,1-.2-.945,2.5,2.5,0,0,1,.2-.984A2.706,2.706,0,0,1,430.858,505.837Z" transform="translate(-315.339 -466.191)"/>
  <path id="Path_8569" data-name="Path 8569" d="M433.867,505.2a1.045,1.045,0,0,1,.545-.144,1.293,1.293,0,0,1,1.147.668l.256-.21a1.473,1.473,0,0,0-.578-.581,1.589,1.589,0,0,0-.8-.218,1.5,1.5,0,0,0-.749.185,1.273,1.273,0,0,0-.516.508,1.471,1.471,0,0,0-.187.745,1.134,1.134,0,0,0,.587,1.013l1.022.541c.256.125.454.231.6.314a1.405,1.405,0,0,1,.379.335.8.8,0,0,1,.167.5,1.235,1.235,0,0,1-.2.674,1.372,1.372,0,0,1-.514.487,1.413,1.413,0,0,1-.689.177,1.3,1.3,0,0,1-.832-.273,1.773,1.773,0,0,1-.537-.749l-.316.141a1.886,1.886,0,0,0,.647.889,1.654,1.654,0,0,0,1.022.331,1.836,1.836,0,0,0,.866-.218,1.782,1.782,0,0,0,.658-.595,1.475,1.475,0,0,0,.25-.836,1.267,1.267,0,0,0-.647-1.126l-1.082-.564a3.738,3.738,0,0,1-.758-.45.748.748,0,0,1-.266-.608,1.089,1.089,0,0,1,.142-.543A1.047,1.047,0,0,1,433.867,505.2Z" transform="translate(-312.646 -466.192)"/>
  <path id="Path_8570" data-name="Path 8570" d="M471.39,494.959a4.692,4.692,0,1,0-4.691-4.767v.077A4.692,4.692,0,0,0,471.39,494.959Zm0-9.05a4.359,4.359,0,1,1,0,8.719,4.411,4.411,0,0,1-4.331-4.449A4.337,4.337,0,0,1,471.394,485.909Z" transform="translate(-281.146 -483.899)"/>
  <path id="Path_8571" data-name="Path 8571" d="M468.718,489.264h1.336c.423,0,.789.069.889.551a7.258,7.258,0,0,0,.2,1.492h.47v-.037c-.114-.094-.167-.281-.187-.961-.014-.47-.042-1.036-.576-1.215a1.054,1.054,0,0,0,.73-1.1c0-.832-.543-1.174-1.525-1.174h-1.76v4.486h.424Zm0-2.083h1.349c.566,0,1.09.164,1.09.834,0,.629-.489.893-1.118.893h-1.321Z" transform="translate(-279.67 -482.747)"/>
</svg>
