<svg id="Group_416" data-name="Group 416" xmlns="http://www.w3.org/2000/svg" width="215.682" height="39.108" viewBox="0 0 215.682 39.108">
  <path id="Path_8506" data-name="Path 8506" d="M370.09,150.46h-5.163V182h28.681v-4.588H370.09Z" transform="translate(-364.927 -145.585)" fill-rule="evenodd"/>
  <path id="Path_8507" data-name="Path 8507" d="M375.654,161.654h4.015l5.736-10.9h-5.449Z" transform="translate(-355.003 -145.309)" fill-rule="evenodd"/>
  <path id="Path_8508" data-name="Path 8508" d="M413.323,150.716a22.985,22.985,0,0,0-21.122,0,20.516,20.516,0,0,0-7.776,7.063,17.891,17.891,0,0,0,0,19.421,20.516,20.516,0,0,0,7.776,7.063,22.985,22.985,0,0,0,21.122,0A20.488,20.488,0,0,0,421.1,177.2a17.89,17.89,0,0,0,0-19.421A20.487,20.487,0,0,0,413.323,150.716Zm3.313,24.5a15.642,15.642,0,0,1-5.816,5.552,16.5,16.5,0,0,1-15.84,0,15.651,15.651,0,0,1-5.814-5.552,14.617,14.617,0,0,1,0-15.212,15.636,15.636,0,0,1,5.814-5.552,16.485,16.485,0,0,1,15.84,0A15.627,15.627,0,0,1,416.636,160a14.617,14.617,0,0,1,0,15.212Z" transform="translate(-349.54 -147.726)" fill-rule="evenodd"/>
  <path id="Path_8509" data-name="Path 8509" d="M432.959,168.023a8.664,8.664,0,0,0,4.079-3.96,10.6,10.6,0,0,0,.271-7.237,8.912,8.912,0,0,0-4.243-4.905,12.335,12.335,0,0,0-6.072-1.461H406.344V182h5.163V169.386h12.663L433.879,182h5.737l-10.04-13.048A6.552,6.552,0,0,0,432.959,168.023ZM411.507,164.8v-9.751h15.774a5.593,5.593,0,0,1,3.768.98,5.5,5.5,0,0,1,1.89,3.889,4.99,4.99,0,0,1-1.675,3.929,5.967,5.967,0,0,1-3.983.953Z" transform="translate(-326.611 -145.585)" fill-rule="evenodd"/>
  <path id="Path_8510" data-name="Path 8510" d="M426.01,182h28.681v-4.588H431.173v-9.176h17.5v-4.3h-17.5v-8.889h23.519V150.46H426.01Z" transform="translate(-308.418 -145.585)" fill-rule="evenodd"/>
  <path id="Path_8511" data-name="Path 8511" d="M435.422,147.928l-3.155,4.014,10.9-4.014Z" transform="translate(-302.629 -147.928)" fill-rule="evenodd"/>
  <path id="Path_8512" data-name="Path 8512" d="M457.417,150.46,441.356,182h5.161l4.089-8.03H469.39l4.089,8.03h5.161L462.579,150.46Zm-4.767,19.5L460,155.529l7.346,14.431Z" transform="translate(-294.221 -145.585)" fill-rule="evenodd"/>
  <path id="Path_8513" data-name="Path 8513" d="M467.227,177.415V150.46h-5.162V182h28.681v-4.588Z" transform="translate(-275.063 -145.585)" fill-rule="evenodd"/>
</svg>
