<svg id="Group_433" data-name="Group 433" xmlns="http://www.w3.org/2000/svg" width="215.682" height="41.063" viewBox="0 0 215.682 41.063">
  <rect id="Rectangle_233" data-name="Rectangle 233" width="7.011" height="5.829" transform="translate(101.64 3.182)" fill="none"/>
  <path id="Path_8700" data-name="Path 8700" d="M239.956,415.589a.69.69,0,0,0,.2-.572v-1.109a.673.673,0,0,0-.2-.562,1.267,1.267,0,0,0-.755-.162h-4.786v2.564H239.2A1.284,1.284,0,0,0,239.956,415.589Z" transform="translate(-158.291 -395.609)" fill="none"/>
  <path id="Path_8701" data-name="Path 8701" d="M228.32,417.033h4l-1.972-3.747Z" transform="translate(-163.931 -395.515)" fill="none"/>
  <rect id="Rectangle_234" data-name="Rectangle 234" width="7.012" height="5.829" transform="translate(115.052 32.349)" fill="none"/>
  <path id="Path_8702" data-name="Path 8702" d="M237.574,405.78l-2.031,3.747h4Z" transform="translate(-157.248 -402.459)" fill="none"/>
  <rect id="Rectangle_235" data-name="Rectangle 235" width="7.012" height="5.829" transform="translate(139.052 32.349)" fill="none"/>
  <path id="Path_8703" data-name="Path 8703" d="M218.477,431.735a3.139,3.139,0,0,0-1.047.179l-8.28-6.492,7.352-6.091a3.132,3.132,0,0,0,1.028.173,2.9,2.9,0,1,0,0-5.785,3.108,3.108,0,0,0-1.713.508l-.06,0-10.211,8.324.01-13.828-2.318-2.125L200.8,408.73l.04,19.355,2.247,1.889,2.272-1.7,11.281,8.755.142,0a3.13,3.13,0,0,0,1.7.5,2.9,2.9,0,1,0,0-5.785Z" transform="translate(-189.391 -401.7)" fill="none"/>
  <path id="Path_8704" data-name="Path 8704" d="M228.265,415.466a.689.689,0,0,0,.2-.57v-.988a.679.679,0,0,0-.2-.562,1.274,1.274,0,0,0-.757-.162h-4.786v2.443h4.786A1.275,1.275,0,0,0,228.265,415.466Z" transform="translate(-169.108 -395.609)" fill="none"/>
  <path id="Path_8705" data-name="Path 8705" d="M234.771,408.083a.683.683,0,0,0,.2-.57V406.4a.669.669,0,0,0-.2-.56,1.267,1.267,0,0,0-.755-.162H229.23v2.564h4.786A1.268,1.268,0,0,0,234.771,408.083Z" transform="translate(-163.089 -402.552)" fill="none"/>
  <path id="Path_8706" data-name="Path 8706" d="M227.585,404.055H203.051c-5.213,0-8.178,2.618-8.178,8.213v24.638c0,5.953,2.607,8.213,8.178,8.213h24.534c5.034,0,8.178-2.079,8.178-8.213V412.268C235.763,407.57,233.156,404.055,227.585,404.055Zm-3.625,35.821a3.13,3.13,0,0,1-1.7-.5l-.142,0-11.281-8.756-2.272,1.7-2.247-1.889-.04-19.355,2.439-2.129,2.318,2.125-.01,13.828,10.211-8.324.06,0a3.108,3.108,0,0,1,1.713-.508,2.9,2.9,0,1,1,0,5.785,3.13,3.13,0,0,1-1.028-.173l-7.352,6.091,8.28,6.492a3.139,3.139,0,0,1,1.047-.179,2.9,2.9,0,1,1,0,5.785Z" transform="translate(-194.873 -404.055)" fill="#010203"/>
  <path id="Path_8707" data-name="Path 8707" d="M309.995,420l-3.15,3.539L303.707,420h-2.837l4.747,5.089v4.122h2.146V425.04L312.5,420Z" transform="translate(-96.813 -389.302)" fill="#010203"/>
  <path id="Path_8708" data-name="Path 8708" d="M303.715,424.838c0,.115.006.283.017.5s.035.579.067,1.1a6.309,6.309,0,0,0-.456-.491c-.169-.16-.362-.329-.58-.51L296.325,420h-1.452v9.212h1.91v-4.976c0-.187-.006-.4-.021-.656s-.039-.524-.065-.807a4.872,4.872,0,0,0,.337.356c.121.117.264.248.425.393l6.715,5.691h1.451V420h-1.91Z" transform="translate(-102.361 -389.302)" fill="#010203"/>
  <path id="Path_8709" data-name="Path 8709" d="M289.464,421.65h5.751l-6.392,6.56v1h9.817v-1.734h-6.486l6.486-6.561V420h-9.176Z" transform="translate(-107.958 -389.302)" fill="#010203"/>
  <path id="Path_8710" data-name="Path 8710" d="M290.6,420H285.14a2.608,2.608,0,0,0-1.8.462,2.424,2.424,0,0,0-.466,1.719v4.853a2.412,2.412,0,0,0,.466,1.719,2.611,2.611,0,0,0,1.8.458H290.6a2.61,2.61,0,0,0,1.8-.458,2.382,2.382,0,0,0,.472-1.719v-1.092l-2.127-.443v1.977H285V421.65h5.735v1.744l2.127-.339v-.872a2.4,2.4,0,0,0-.472-1.719A2.607,2.607,0,0,0,290.6,420Z" transform="translate(-113.461 -389.302)" fill="#010203"/>
  <rect id="Rectangle_236" data-name="Rectangle 236" width="2.129" height="9.21" transform="translate(164.469 30.701)" fill="#010203"/>
  <path id="Path_8711" data-name="Path 8711" d="M281.782,420h-6.307a2.612,2.612,0,0,0-1.8.462,2.425,2.425,0,0,0-.466,1.719v4.849a2.417,2.417,0,0,0,.466,1.723,2.615,2.615,0,0,0,1.8.458h6.307a2.609,2.609,0,0,0,1.8-.458,2.417,2.417,0,0,0,.466-1.723v-3.169H278.5v1.567h3.479v2.048h-6.644V421.65h6.644v1.03l2.066-.375V422.1a2.237,2.237,0,0,0-.476-1.642A2.64,2.64,0,0,0,281.782,420Z" transform="translate(-122.403 -389.302)" fill="#010203"/>
  <path id="Path_8712" data-name="Path 8712" d="M262.969,420H260.84v9.21h8.987v-1.734h-6.858Z" transform="translate(-133.846 -389.302)" fill="#010203"/>
  <path id="Path_8713" data-name="Path 8713" d="M274.991,420h-6.727a2.609,2.609,0,0,0-1.8.462,2.424,2.424,0,0,0-.468,1.719v4.853a2.412,2.412,0,0,0,.468,1.719,2.611,2.611,0,0,0,1.8.458h6.727a2.611,2.611,0,0,0,1.8-.458,2.412,2.412,0,0,0,.466-1.719v-4.853a2.424,2.424,0,0,0-.466-1.719A2.608,2.608,0,0,0,274.991,420Zm.146,7.477h-7.011V421.65h7.011Z" transform="translate(-129.075 -389.302)" fill="#010203"/>
  <path id="Path_8714" data-name="Path 8714" d="M255.333,424.838c0,.115.006.283.017.5s.037.579.069,1.1a6.332,6.332,0,0,0-.458-.491c-.169-.16-.36-.329-.58-.51L247.944,420h-1.453v9.212h1.91v-4.976c0-.187-.006-.4-.019-.656s-.039-.524-.065-.807a4.492,4.492,0,0,0,.337.356c.121.117.262.248.425.393l6.713,5.691h1.452V420h-1.91Z" transform="translate(-147.12 -389.302)" fill="#010203"/>
  <path id="Path_8715" data-name="Path 8715" d="M262.523,420H255.8a2.609,2.609,0,0,0-1.8.462,2.425,2.425,0,0,0-.466,1.719v4.853a2.412,2.412,0,0,0,.466,1.719,2.611,2.611,0,0,0,1.8.458h6.726a2.608,2.608,0,0,0,1.8-.458,2.412,2.412,0,0,0,.466-1.719v-4.853a2.424,2.424,0,0,0-.466-1.719A2.605,2.605,0,0,0,262.523,420Zm.146,7.477h-7.011V421.65h7.011Z" transform="translate(-140.607 -389.302)" fill="#010203"/>
  <path id="Path_8716" data-name="Path 8716" d="M248.039,423.574H241.4V420h-2.128v9.21H241.4v-3.964h6.64v3.964h2.147V420h-2.147Z" transform="translate(-153.799 -389.302)" fill="#010203"/>
  <path id="Path_8717" data-name="Path 8717" d="M240.394,420h-5.456a2.614,2.614,0,0,0-1.8.462,2.424,2.424,0,0,0-.466,1.719v4.853a2.412,2.412,0,0,0,.466,1.719,2.617,2.617,0,0,0,1.8.458h5.456a2.6,2.6,0,0,0,1.794-.458,2.381,2.381,0,0,0,.474-1.719v-1.092l-2.129-.443v1.977H234.8V421.65h5.733v1.744l2.129-.339v-.872a2.394,2.394,0,0,0-.474-1.719A2.6,2.6,0,0,0,240.394,420Z" transform="translate(-159.906 -389.302)" fill="#010203"/>
  <path id="Path_8718" data-name="Path 8718" d="M228.817,425.195h4.222v-1.567h-4.222V421.57h7.233V420h-9.362v9.21h9.447v-1.734h-7.319Z" transform="translate(-165.439 -389.302)" fill="#010203"/>
  <path id="Path_8719" data-name="Path 8719" d="M220.732,421.65h4.2v7.562h2.128V421.65h4.213V420H220.732Z" transform="translate(-170.95 -389.302)" fill="#010203"/>
  <path id="Path_8720" data-name="Path 8720" d="M250.135,412.357h-3.079l-5.069,3.842v-3.842H239.84v9.211h2.146v-4.051l5.477,4.051h3.415l-6.8-4.872Z" transform="translate(-153.273 -396.374)" fill="#010203"/>
  <path id="Path_8721" data-name="Path 8721" d="M241.15,418.092a2.367,2.367,0,0,0,1.579-.429,1.7,1.7,0,0,0,.487-1.355v-2.166a1.712,1.712,0,0,0-.487-1.361,2.39,2.39,0,0,0-1.579-.424h-7.822v9.212h2.095v-3.477h2.016l3.685,3.477h3.053l-4.22-3.477Zm-5.727-1.577v-2.564h4.786a1.268,1.268,0,0,1,.755.162.673.673,0,0,1,.2.562v1.109a.69.69,0,0,1-.2.572,1.284,1.284,0,0,1-.755.16Z" transform="translate(-159.297 -396.375)" fill="#010203"/>
  <path id="Path_8722" data-name="Path 8722" d="M231.367,412.357l-5.173,9.212h2.12l1.063-2.012h5.8l1.1,2.012h2.389l-5.244-9.212Zm-1.08,5.535,2.031-3.746,1.971,3.746Z" transform="translate(-165.897 -396.375)" fill="#010203"/>
  <path id="Path_8723" data-name="Path 8723" d="M223.729,417.978h5.727a2.4,2.4,0,0,0,1.581-.422,1.709,1.709,0,0,0,.487-1.357v-2.058a1.712,1.712,0,0,0-.487-1.361,2.392,2.392,0,0,0-1.581-.424h-7.82v9.212h2.093Zm0-4.027h4.786a1.275,1.275,0,0,1,.757.162.679.679,0,0,1,.2.562v.988a.689.689,0,0,1-.2.57,1.275,1.275,0,0,1-.757.162h-4.786Z" transform="translate(-170.114 -396.375)" fill="#010203"/>
  <rect id="Rectangle_237" data-name="Rectangle 237" width="2.128" height="9.21" transform="translate(153.369 1.534)" fill="#010203"/>
  <path id="Path_8724" data-name="Path 8724" d="M272.341,409.191l6.055-4.339h-3.079l-5.069,3.842v-3.842H268.1v9.21h2.146v-4.05l5.477,4.05h3.416Z" transform="translate(-127.127 -403.318)" fill="#010203"/>
  <path id="Path_8725" data-name="Path 8725" d="M263.658,414.062H269.3a2.636,2.636,0,0,0,1.812-.46,2.392,2.392,0,0,0,.474-1.717v-1.263a2.394,2.394,0,0,0-.474-1.719,2.635,2.635,0,0,0-1.812-.46h-5.7v-1.979h5.983v1.047l1.879-.447v-.189a2.075,2.075,0,0,0-.491-1.581,2.684,2.684,0,0,0-1.777-.443h-5.186a2.6,2.6,0,0,0-1.8.462,2.419,2.419,0,0,0-.466,1.717v1.018a2.419,2.419,0,0,0,.466,1.717,2.6,2.6,0,0,0,1.8.462h5.7v2.1H263.25v-1.09l-1.877.393v.252a2.393,2.393,0,0,0,.472,1.717A2.638,2.638,0,0,0,263.658,414.062Z" transform="translate(-133.352 -403.318)" fill="#010203"/>
  <path id="Path_8726" data-name="Path 8726" d="M263.924,411.029l-2.471-6.177h-1.487l-2.432,6.177-2.318-6.177h-2.2l3.519,9.21h1.47l2.554-6.37,2.515,6.37h1.438l3.528-9.21h-1.9Z" transform="translate(-141.081 -403.318)" fill="#010203"/>
  <path id="Path_8727" data-name="Path 8727" d="M255.556,404.852h-6.724a2.6,2.6,0,0,0-1.8.462,2.42,2.42,0,0,0-.466,1.717v4.853a2.406,2.406,0,0,0,.466,1.719,2.617,2.617,0,0,0,1.8.458h6.724a2.617,2.617,0,0,0,1.8-.458,2.406,2.406,0,0,0,.466-1.719v-4.853a2.419,2.419,0,0,0-.466-1.717A2.6,2.6,0,0,0,255.556,404.852Zm.148,7.477h-7.011V406.5H255.7Z" transform="translate(-147.052 -403.318)" fill="#010203"/>
  <path id="Path_8728" data-name="Path 8728" d="M250.847,404.852h-3.079l-5.069,3.842v-3.842h-2.146v9.21H242.7v-4.05l5.477,4.05h3.416l-6.8-4.871Z" transform="translate(-152.614 -403.318)" fill="#010203"/>
  <path id="Path_8729" data-name="Path 8729" d="M230.237,410.585h2.016l3.685,3.477h4.482l1.063-2.01h5.795l1.1,2.01h2.389l-5.244-9.21h-2.048l-4.953,8.821-3.748-3.088h1.194a2.377,2.377,0,0,0,1.579-.427,1.709,1.709,0,0,0,.487-1.357v-2.164a1.717,1.717,0,0,0-.487-1.363,2.4,2.4,0,0,0-1.579-.422h-7.822v9.21h2.095Zm14.186-3.945,1.971,3.746h-4Zm-14.186-.194h4.786a1.268,1.268,0,0,1,.755.162.669.669,0,0,1,.2.56v1.111a.683.683,0,0,1-.2.57,1.267,1.267,0,0,1-.755.162h-4.786Z" transform="translate(-164.095 -403.318)" fill="#010203"/>
  <path id="Path_8730" data-name="Path 8730" d="M223.851,410.012l5.477,4.05h3.416l-6.8-4.871L232,404.852H228.92l-5.069,3.842v-3.842H221.7v9.21h2.146Z" transform="translate(-170.051 -403.318)" fill="#010203"/>
</svg>
