<svg id="Group_422" data-name="Group 422" xmlns="http://www.w3.org/2000/svg" width="92.471" height="87.314" viewBox="0 0 92.471 87.314">
  <g id="Group_420" data-name="Group 420" transform="translate(0 58.805)">
    <path id="Path_8544" data-name="Path 8544" d="M573.312,426.1c-2.636,0-4.149.483-5.693,2.179l2.512,2.453a3.393,3.393,0,0,1,3.03-1.3c2.089,0,2.938.758,2.938,2.483v.787h-3.725c-3.665,0-5.392,2.06-5.392,4.572a5.059,5.059,0,0,0,1.3,3.544,5.384,5.384,0,0,0,4.029,1.394,4.8,4.8,0,0,0,3.877-1.515v1.363h3.846V431.673C580.036,427.979,577.734,426.1,573.312,426.1Zm2.788,10.145a2.594,2.594,0,0,1-.576,2,3.125,3.125,0,0,1-2.485.757c-1.544,0-2.27-.726-2.27-1.817,0-1.12.787-1.786,2.21-1.786H576.1Z" transform="translate(-566.982 -419.338)"/>
    <path id="Path_8545" data-name="Path 8545" d="M584.318,430.369a4.726,4.726,0,0,0-3.846-1.575,5.5,5.5,0,0,0-3.846,1.423c-1.575,1.575-1.6,4.27-1.6,6.632s.029,5.088,1.6,6.663a5.577,5.577,0,0,0,3.877,1.423,4.732,4.732,0,0,0,3.906-1.665v1.484h3.846V423.192h-3.937Zm-2.7,11.023c-2.362,0-2.664-1.969-2.664-4.543s.3-4.513,2.664-4.513,2.7,1.939,2.7,4.513S583.985,441.392,581.623,441.392Z" transform="translate(-559.544 -422.03)"/>
    <path id="Path_8546" data-name="Path 8546" d="M590.063,426.1c-4.091,0-6.877,2.907-6.877,8.055,0,6.389,3.575,8.085,7.3,8.085a7.52,7.52,0,0,0,6-2.482l-2.393-2.333a4.369,4.369,0,0,1-3.575,1.484,3.258,3.258,0,0,1-3.452-3.513h9.874v-1.756C596.937,429.311,594.452,426.1,590.063,426.1Zm-3,6.6a4.352,4.352,0,0,1,.364-1.7,2.94,2.94,0,0,1,5.269,0,4.352,4.352,0,0,1,.364,1.7Z" transform="translate(-551.991 -419.338)"/>
    <path id="Path_8547" data-name="Path 8547" d="M595.477,440V423.192H591.54v17.049a4.288,4.288,0,0,0,4.6,4.512h2.241v-3.33h-1.513C595.871,441.423,595.477,440.938,595.477,440Z" transform="translate(-544.263 -422.03)"/>
    <path id="Path_8548" data-name="Path 8548" d="M603.886,426.1a4.8,4.8,0,0,0-3.937,1.665v-1.484h-3.816v21.563h3.937v-7.177a4.668,4.668,0,0,0,3.816,1.573,5.494,5.494,0,0,0,3.846-1.423c1.575-1.575,1.606-4.3,1.606-6.663s-.031-5.057-1.606-6.632A5.494,5.494,0,0,0,603.886,426.1Zm-1.151,12.6c-2.362,0-2.664-1.969-2.664-4.543s.3-4.513,2.664-4.513,2.666,1.939,2.666,4.513S605.1,438.7,602.735,438.7Z" transform="translate(-540.013 -419.338)"/>
    <path id="Path_8549" data-name="Path 8549" d="M612.068,428.794a5.213,5.213,0,0,0-3.785,1.634v-7.237h-3.937v21.561h3.937v-9.629a2.569,2.569,0,1,1,5.119,0v9.629h3.937V434.546C617.339,431.216,615.521,428.794,612.068,428.794Z" transform="translate(-532.416 -422.03)"/>
    <rect id="Rectangle_228" data-name="Rectangle 228" width="3.937" height="15.778" transform="translate(88.012 6.946)"/>
    <circle id="Ellipse_4" data-name="Ellipse 4" cx="2.491" cy="2.491" r="2.491" transform="translate(87.489)"/>
  </g>
  <g id="_2HOkKC.tif" data-name="2HOkKC.tif" transform="translate(22.095)">
    <g id="Group_421" data-name="Group 421">
      <path id="Path_8550" data-name="Path 8550" d="M604.344,443.836a25.9,25.9,0,1,1,25.922-25.916A25.909,25.909,0,0,1,604.344,443.836Zm3.1-18.6c-.812.682-1.471,1.3-2.195,1.819a23.126,23.126,0,0,1-2.331,1.479,5.058,5.058,0,0,1-4.524.129,3.368,3.368,0,0,1-2.1-2.472,5.3,5.3,0,0,1,2.6-6.033,14.42,14.42,0,0,1,5.906-1.8c1.034-.123,2.075-.175,3.088-.258v-4.2c-1.821.208-3.56.318-5.263.622a14.33,14.33,0,0,0-8.112,3.881,9.418,9.418,0,0,0-1.525,10.638,8.617,8.617,0,0,0,9.225,4.052c3.276-.647,5.731-2.714,7.939-4.811Zm9.146.008c0-4.566.164-9.054-.046-13.524-.2-4.328-2.7-7.006-6.915-8a23.432,23.432,0,0,0-8.78-.2c-1.584.227-3.148.6-4.809.932l1.111,3.833c2.385-.318,4.628-.7,6.888-.893a12.709,12.709,0,0,1,5.6.649,3.933,3.933,0,0,1,2.7,3.169,15.465,15.465,0,0,1,.2,2.443c.023,3.56.014,7.119.015,10.681v.912Z" transform="translate(-578.459 -392.042)"/>
    </g>
  </g>
</svg>
