<svg id="Group_434" data-name="Group 434" xmlns="http://www.w3.org/2000/svg" width="215.681" height="47.479" viewBox="0 0 215.681 47.479">
  <path id="Path_8731" data-name="Path 8731" d="M24.819,412.959q8.143,0,16.29.006a1.407,1.407,0,0,0,1.1-.456c3.265-3.282,6.551-6.547,9.812-9.833.364-.368.56-.393.939-.01,3.278,3.3,6.582,6.572,9.864,9.866a1.349,1.349,0,0,0,1.051.433c5.231-.013,10.461,0,15.692-.021.562,0,.747.125.745.72q-.032,12.244,0,24.486c0,.6-.194.724-.753.722-4.93-.019-9.862,0-14.793-.027a2.259,2.259,0,0,0-1.783.722c-3.311,3.35-6.667,6.657-9.984,10-.42.424-.631.381-1.028-.017-3.386-3.415-6.8-6.805-10.192-10.217a1.484,1.484,0,0,0-1.153-.483c-4.99.015-9.982.01-14.974.008-.279,0-.558-.017-.836-.027Z" transform="translate(-24.819 -402.388)" fill="#020203"/>
  <path id="Path_8732" data-name="Path 8732" d="M137.962,418.608a1.571,1.571,0,0,1-.68.8,1.158,1.158,0,0,1-1.465-.422,1.138,1.138,0,0,1,1.827-1.348,3.753,3.753,0,0,1,.318.5Z" transform="translate(77.719 -388.634)" fill="#020203"/>
  <path id="Path_8733" data-name="Path 8733" d="M100.817,416.709c.766-1.028,1.348-2.052,2.125-2.932a7.606,7.606,0,0,1,2.16-1.944,3.172,3.172,0,0,1,.726-.271c1.617-.352,2.628.626,2.3,2.254-.2.991-.483,1.967-.658,3,.524-.751,1.03-1.511,1.571-2.247A11.5,11.5,0,0,1,111.526,412a2.825,2.825,0,0,1,1.384-.52,1.661,1.661,0,0,1,1.864,1.586,7.31,7.31,0,0,1-.416,2.524c-.549,1.873-1.111,3.744-1.652,5.619-.089.308-.322.741.015.928.383.214.616-.244.847-.495.256-.277.472-.593.7-.893.108-.139.218-.231.4-.117a.292.292,0,0,1,.125.449,5.8,5.8,0,0,1-3.563,3.072A1.76,1.76,0,0,1,109,422.069c.549-2.1,1.2-4.174,1.773-6.268.077-.289.166-.576.227-.866s.243-.63-.081-.82c-.347-.206-.587.125-.816.329a11.985,11.985,0,0,0-1.205,1.405,18.364,18.364,0,0,0-3.459,7.541.775.775,0,0,1-.951.7,19.615,19.615,0,0,0-2.154,0c-.493.021-.562-.135-.429-.589.807-2.755,1.586-5.516,2.374-8.274.042-.154.077-.31.117-.464.062-.229.2-.51-.025-.668-.275-.191-.533.025-.743.214a18.061,18.061,0,0,0-2.851,3.744,18.524,18.524,0,0,0-2.018,5.406c-.127.466-.312.664-.812.635-.757-.044-1.519-.031-2.276-.006-.489.017-.57-.137-.433-.6.836-2.807,1.646-5.621,2.46-8.434.106-.364.2-.732.268-1.1.144-.751-.069-1.015-.843-1.111-.166-.021-.441.121-.437-.233,0-.25.156-.341.379-.377,1.511-.256,3.022-.522,4.536-.772.477-.079.645.073.477.591-.412,1.271-.78,2.555-1.153,3.837A1.335,1.335,0,0,0,100.817,416.709Z" transform="translate(40.272 -394.016)" fill="#020203"/>
  <path id="Path_8734" data-name="Path 8734" d="M119.876,410.315q-15.695,0-31.387,0a3.532,3.532,0,0,1-1.246-.1c-.422-.156-.862-.31-.874-.853s.431-.707.851-.868a2.724,2.724,0,0,1,1-.114q5.813,0,11.622,0H151.3a3.186,3.186,0,0,1,1.3.146c.372.158.759.327.766.814s-.37.666-.741.832a2.973,2.973,0,0,1-1.24.146q-8.894,0-17.79,0Z" transform="translate(32.122 -396.853)" fill="#020203"/>
  <path id="Path_8735" data-name="Path 8735" d="M66.766,408.447a40.376,40.376,0,0,1,5.138.191c3.85.612,4.7,4.6,2.63,7.231a7.337,7.337,0,0,1-5.687,2.728,14.1,14.1,0,0,1-2.8-.131.4.4,0,0,0-.518.337c-.51,1.883-1.161,3.727-1.577,5.637-.258,1.178.035,1.569,1.207,1.761a1.764,1.764,0,0,1,.35.067c.173.065.5-.135.5.231,0,.327-.26.35-.516.35-2.7,0-5.388,0-8.084-.006-.156,0-.41.087-.422-.185s.154-.385.425-.377c1.457.037,2.158-.755,2.539-2.1,1.2-4.276,2.481-8.53,3.729-12.793.038-.133.065-.269.1-.406.3-1.274-.1-1.825-1.421-1.96-.167-.017-.454.121-.454-.212,0-.314.229-.364.5-.362C63.755,408.451,65.112,408.447,66.766,408.447Z" transform="translate(4.934 -396.785)" fill="#020203"/>
  <path id="Path_8736" data-name="Path 8736" d="M91.149,408.233a4,4,0,0,1,1.4.212,1.673,1.673,0,0,1,1.063,1.765,1.376,1.376,0,0,1-1.013,1.33,1.217,1.217,0,0,1-1.3-.372,1.084,1.084,0,0,1-.2-1.269c.116-.294.5-.612.179-.9-.362-.325-.755-.006-1.088.193a3.892,3.892,0,0,0-1.213,1.3,13.264,13.264,0,0,0-1.607,3.844c-.1.36-.013.527.385.495.258-.021.52-.006.78,0,.674.008.691.015.475.676-.354,1.082-.1.907-1.24.928-1.061.021-.9-.141-1.174.9-.78,2.945-1.421,5.927-2.354,8.832a12.046,12.046,0,0,1-2.88,5.236,5.54,5.54,0,0,1-4.844,1.513,1.652,1.652,0,0,1-1.367-1.03,1.081,1.081,0,0,1,.26-1.215,1.659,1.659,0,0,1,1.627-.535,1.106,1.106,0,0,1,.8,1.686c-.06.114-.231.21-.1.356a.38.38,0,0,0,.4.04,1.7,1.7,0,0,0,.83-.656,5.723,5.723,0,0,0,.968-2.231c1.067-4.106,2.116-8.216,3.188-12.321.119-.462.021-.639-.456-.579a.5.5,0,0,1-.119,0c-.36-.062-.9.2-1.045-.141-.156-.366.16-.832.281-1.25.071-.248.316-.235.5-.235a2.124,2.124,0,0,0,1.916-1.3,13.5,13.5,0,0,1,2.732-3.673A6.226,6.226,0,0,1,91.149,408.233Z" transform="translate(21.665 -396.981)" fill="#020203"/>
  <path id="Path_8737" data-name="Path 8737" d="M91.522,413.124a.587.587,0,0,0,.25-.5c.085-.716.506-.884,1.159-.857.554.023,1.113-.065,1.671-.1.639-.037.66-.01.481.6q-1.187,4.074-2.372,8.151c-.127.439-.223.888-.333,1.332-.054.218-.1.441.129.595.256.171.464.008.647-.139a4.974,4.974,0,0,0,.889-.963c.142-.2.26-.578.635-.329s0,.456-.1.632A5.232,5.232,0,0,1,91,424.392c-1.486.27-2.333-.554-2.044-2.035.112-.578.291-1.143.4-1.734a29.631,29.631,0,0,1-1.854,2.335,4.36,4.36,0,0,1-2.1,1.405,2.012,2.012,0,0,1-2.406-1.074,5.344,5.344,0,0,1-.285-4.016,11.646,11.646,0,0,1,4.6-6.984,6,6,0,0,1,.726-.416C89.7,411.037,90.773,411.417,91.522,413.124Z" transform="translate(28.498 -394.008)" fill="#020203"/>
  <path id="Path_8738" data-name="Path 8738" d="M66.529,420.484a9.6,9.6,0,0,1,7.165-8.9,4.194,4.194,0,0,1,4.749,1.786,4.873,4.873,0,0,1,.387,3.146,9.673,9.673,0,0,1-6.979,7.727,5.19,5.19,0,0,1-2.016.15A3.6,3.6,0,0,1,66.529,420.484Z" transform="translate(13.768 -394)" fill="#020203"/>
  <path id="Path_8739" data-name="Path 8739" d="M118.7,420.046a28.522,28.522,0,0,1-3.2,3.579,3.049,3.049,0,0,1-1.829.8,1.52,1.52,0,0,1-1.561-.785,1.645,1.645,0,0,1,.21-1.736,1.4,1.4,0,0,1,1.721-.46c1.394.762,2.387.306,3.234-.864.316-.433.656-.851,1-1.263a.528.528,0,0,0,.089-.549,36.482,36.482,0,0,0-1.513-4.655c-.514-1.186-.841-1.384-2.141-1.33-.15.008-.293.031-.3-.171a.317.317,0,0,1,.3-.37c.529-.091,1.059-.187,1.588-.281.784-.139,1.569-.271,2.352-.422a.721.721,0,0,1,.866.42,15.9,15.9,0,0,1,1.515,3.837c.61-.818,1.161-1.565,1.719-2.306a9.139,9.139,0,0,1,1.273-1.344,2.44,2.44,0,0,1,2.154-.637,1.509,1.509,0,0,1-.456,2.974,7.846,7.846,0,0,1-1.17-.243,1.586,1.586,0,0,0-1.586.45,8.43,8.43,0,0,0-1.45,1.964.669.669,0,0,0-.071.572,28.54,28.54,0,0,0,1.465,4.168,1.59,1.59,0,0,0,.837.9,1.087,1.087,0,0,0,1.251-.479c.227-.275.45-.558.664-.845.133-.179.27-.129.412-.035.125.085.216.2.115.35-.859,1.284-1.729,2.574-3.317,3.042a2.535,2.535,0,0,1-3.149-1.7C119.351,421.81,119.058,420.966,118.7,420.046Z" transform="translate(55.782 -393.998)" fill="#020203"/>
  <path id="Path_8740" data-name="Path 8740" d="M112.379,422.57a5.168,5.168,0,0,0,3.292-1.39c.2-.16.4-.323.6-.5.167-.152.281-.06.406.058a.221.221,0,0,1,.021.354c-2.014,2.541-4.824,3.979-8.03,3.063a3.419,3.419,0,0,1-2.148-3.573,10,10,0,0,1,8.03-9.017,5.553,5.553,0,0,1,1.964-.046,1.934,1.934,0,0,1,1.619,2.316,5.269,5.269,0,0,1-2.262,3.325,9.34,9.34,0,0,1-5.015,1.746c-.439.037-.606.189-.624.6-.012.3-.067.595-.064.893A2.005,2.005,0,0,0,112.379,422.57Z" transform="translate(50.754 -394.002)" fill="#020203"/>
  <path id="Path_8741" data-name="Path 8741" d="M75.642,427.429c-1.271-.013-2.3-.832-2-2.185.4-1.81,1-3.565,1.509-5.344.826-2.87,1.671-5.735,2.508-8.6.044-.152.085-.308.119-.462.181-.789-.042-1.109-.841-1.245-.16-.027-.447.127-.437-.231.008-.239.152-.339.381-.377,1.473-.243,2.942-.518,4.418-.73.66-.094.693-.01.506.635Q79.555,416.6,77.3,424.31c-.06.21-.092.427-.142.641a.443.443,0,0,0,.166.529.473.473,0,0,0,.554-.083,5.194,5.194,0,0,0,1.144-1.292,3.073,3.073,0,0,1,.285-.381c.15-.152.3-.019.439.039s.148.164.065.287a8.439,8.439,0,0,1-3.015,3.08A3.094,3.094,0,0,1,75.642,427.429Z" transform="translate(20.302 -396.993)" fill="#020203"/>
  <path id="Path_8742" data-name="Path 8742" d="M73.53,420.121q8.083,0,16.163,0c.878,0,1.351.61,1.063,1.336a.863.863,0,0,1-.809.6c-.119.006-.239,0-.358,0q-16.1,0-32.207,0c-.882,0-1.3-.4-1.2-1.151a.812.812,0,0,1,.824-.785c.219-.012.439-.01.658-.01Z" transform="translate(4.184 -385.983)" fill="#020203"/>
  <path id="Path_8743" data-name="Path 8743" d="M94.109,418.041c.341-.685.676-1.374,1.022-2.058a20.156,20.156,0,0,1,2.012-3.386,3.075,3.075,0,0,1,1.142-.941,1.352,1.352,0,0,1,2.031,1.167,3.672,3.672,0,0,1-.651,2.495.975.975,0,0,1-1.779-.039c-.458-.7-.683-.733-1.267-.089A14.662,14.662,0,0,0,94.5,418.98a22.562,22.562,0,0,0-1.446,4.547.612.612,0,0,1-.732.566c-.7-.029-1.4-.038-2.095,0-.533.031-.641-.131-.51-.641.7-2.738,1.38-5.483,2.062-8.226.1-.406.2-.814.264-1.226.123-.747-.154-1.088-.891-1.163-.154-.015-.408.1-.422-.185-.013-.252.208-.32.406-.362,1.246-.273,2.489-.552,3.739-.8.76-.152.862-.029.668.7q-.684,2.57-1.373,5.134c-.062.227-.112.454-.168.68Z" transform="translate(35.175 -394.021)" fill="#020203"/>
  <path id="Path_8744" data-name="Path 8744" d="M125.4,419.692c.148.518.252,1.028.439,1.505a2.216,2.216,0,0,0,2.216,1.507A1.6,1.6,0,0,0,129.6,420.6a2.7,2.7,0,0,0-.63-1.074c-.474-.514-.968-1.011-1.423-1.54a2.8,2.8,0,0,1-.6-3.348,3.167,3.167,0,0,1,3.394-1.346c.352.067.7.148,1.051.231.491.117.974.246,1.4-.181.123-.123.362-.15.3.114-.219,1-.483,1.985-.749,3.053a1.362,1.362,0,0,1-.3-.745,2.38,2.38,0,0,0-1.417-1.808,1.369,1.369,0,0,0-1.555.264,1.4,1.4,0,0,0-.408,1.525,3.36,3.36,0,0,0,.866,1.344c.452.479.936.93,1.373,1.423a2.733,2.733,0,0,1,.628,2.886,2.864,2.864,0,0,1-2.293,1.794,7.3,7.3,0,0,1-2.847-.158,2.152,2.152,0,0,0-1.671.166c-.144.1-.364.146-.291-.135a26.7,26.7,0,0,1,.857-3.344C125.3,419.709,125.328,419.709,125.4,419.692Z" transform="translate(67.326 -392.367)" fill="#020203"/>
  <path id="Path_8745" data-name="Path 8745" d="M139.62,422.987h-3.966c.054-.225.216-.193.335-.21a.912.912,0,0,0,.8-.839,8.991,8.991,0,0,0,.139-1.544c.008-.373-.137-.5-.491-.474-.218.017-.439,0-.658,0-1.925,0-1.925,0-3.086,1.506-.626.81-.579,1.038.437,1.54H130.3c1.994-1.361,3.207-3.415,4.763-5.148,1.236-1.38,2.391-2.834,3.588-4.249.119-.141.219-.412.452-.3.2.1.106.36.1.547q-.133,3.823-.277,7.646c-.021.6-.027,1.184.757,1.386Z" transform="translate(72.766 -392.343)" fill="#020203"/>
  <path id="Path_8746" data-name="Path 8746" d="M129.817,417.259a1.131,1.131,0,0,1,1.161,1.109,1.181,1.181,0,0,1-1.144,1.147,1.119,1.119,0,0,1-1.138-1.13A1.078,1.078,0,0,1,129.817,417.259Z" transform="translate(71.281 -388.631)" fill="#020203"/>
  <path id="Path_8747" data-name="Path 8747" d="M79.047,425.3c0,3.814-.012,7.625.012,11.437,0,.556-.166.7-.707.7-4.953-.017-9.9,0-14.856-.017a1.486,1.486,0,0,0-1.157.472c-3.253,3.269-6.528,6.515-9.78,9.785-.366.368-.562.391-.941.008-3.246-3.275-6.518-6.522-9.768-9.793a1.48,1.48,0,0,0-1.157-.472c-4.872.013-9.745.008-14.616.008-.812,0-.814,0-.814-.822V413.97c0-.77,0-.77.791-.77q7.577,0,15.155.008a1.342,1.342,0,0,0,1.049-.433q4.6-4.629,9.229-9.233c.674-.672.522-.672,1.176-.021q4.583,4.563,9.152,9.141a1.664,1.664,0,0,0,1.3.551c5.073-.021,10.143,0,15.216-.025.583,0,.732.16.728.733C79.034,417.712,79.047,421.5,79.047,425.3Z" transform="translate(-24.408 -401.79)" fill="#fefefe"/>
  <path id="Path_8748" data-name="Path 8748" d="M66.993,411.7a6.459,6.459,0,0,1-1.488,4.056,3.506,3.506,0,0,1-3.546,1.036c-.256-.042-.331-.164-.26-.416q1.014-3.5,2.014-7.007c.1-.364.4-.343.678-.345A2.344,2.344,0,0,1,66.993,411.7Z" transform="translate(9.276 -396.245)" fill="#fefefe"/>
  <path id="Path_8749" data-name="Path 8749" d="M89.159,413.862a12.122,12.122,0,0,1-2.988,7,2.891,2.891,0,0,1-.268.239,1.033,1.033,0,0,1-1.047.275c-.406-.135-.466-.527-.51-.876a6.136,6.136,0,0,1,.21-2.189,16.772,16.772,0,0,1,2.237-5.369,3.039,3.039,0,0,1,.682-.747.887.887,0,0,1,1.53.474A4.048,4.048,0,0,1,89.159,413.862Z" transform="translate(30.222 -393.574)" fill="#fefefe"/>
  <path id="Path_8750" data-name="Path 8750" d="M68.3,421.347a19.786,19.786,0,0,1,2.832-8.536,1.838,1.838,0,0,1,.664-.678,1.433,1.433,0,0,1,1.421-.154,1.248,1.248,0,0,1,.649,1.253,17.023,17.023,0,0,1-2.982,9.252c-.714,1.068-2,1.051-2.46.048A3.235,3.235,0,0,1,68.3,421.347Z" transform="translate(15.409 -393.635)" fill="#fefefe"/>
  <path id="Path_8751" data-name="Path 8751" d="M113.118,412.9c-.166,1.737-1.434,4.38-4.035,4.744-.377.054-.612.1-.425-.435a11.924,11.924,0,0,1,2.532-4.624,2.175,2.175,0,0,1,.778-.545C112.666,411.778,113.16,412.151,113.118,412.9Z" transform="translate(52.681 -393.536)" fill="#fefefe"/>
  <path id="Path_8752" data-name="Path 8752" d="M135.069,414.891q-.075,1.3-.152,2.6c-.015.254-.133.4-.41.4-.556,0-1.113,0-1.669,0-.325,0-.4-.129-.179-.387q1.138-1.328,2.281-2.657Z" transform="translate(74.829 -390.864)" fill="#fdfdfd"/>
  <path id="Path_8753" data-name="Path 8753" d="M70.716,424.838a.783.783,0,0,1-.322.481q-1.652,1.655-3.307,3.3Q58.479,437.206,49.88,445.8c-.379.379-.581.41-.98.012Q38.71,435.592,28.483,425.4c-.373-.373-.422-.576-.017-.978Q38.7,414.241,48.887,404.018c.368-.368.572-.431.98-.023q10.2,10.217,20.427,20.4C70.446,424.547,70.593,424.707,70.716,424.838Z" transform="translate(-21.708 -401.161)" fill="#020203"/>
  <path id="Path_8754" data-name="Path 8754" d="M45.063,408.765h.687c4.453,0,8.906.01,13.358-.014.591,0,.78.135.778.759q-.035,10.508,0,21.017c0,.608-.166.768-.77.764-4.333-.025-8.665-.012-13-.015-.189,0-.393.064-.578-.073.054-.241.258-.352.408-.5q5-4.993,10.018-9.968c.4-.4.368-.6-.012-.98q-5.218-5.155-10.4-10.348A1.624,1.624,0,0,1,45.063,408.765Z" transform="translate(-6.091 -396.502)" fill="#020203"/>
  <path id="Path_8755" data-name="Path 8755" d="M39.914,431.2a.9.9,0,0,1-.581.071c-4.291,0-8.582-.011-12.873.019-.635,0-.753-.208-.753-.784q.026-10.476.012-20.949c0-.8,0-.8.78-.8q6.645,0,13.293,0a.952.952,0,0,1,.581.065c-.035.248-.246.354-.393.5q-5.224,5.23-10.465,10.446c-.379.375-.366.574.006.941q5.016,4.973,10,9.98C39.666,430.849,39.876,430.956,39.914,431.2Z" transform="translate(-23.997 -396.501)" fill="#020203"/>
  <path id="Path_8756" data-name="Path 8756" d="M60.232,416.178c-1.03,0-1.921,0-2.813,0-.246,0-.372-.216-.526-.366-1.249-1.205-2.5-2.4-3.737-3.629-.291-.289-.472-.289-.782-.023-1.427,1.217-2.882,2.4-4.312,3.613a2.02,2.02,0,0,1-1.126.441,5.012,5.012,0,0,1-4.322-1.473c-1.015-.951-2.2-1.721-3.282-2.6-.323-.262-.508-.227-.784.061-1.151,1.219-2.331,2.408-3.486,3.623a1.094,1.094,0,0,1-.891.375c-.747-.021-1.494-.008-2.249-.008.013-.294.187-.389.3-.516,2.073-2.268,4.16-4.522,6.222-6.8.347-.385.562-.451.991-.09,2,1.679,4.047,3.307,6.055,4.982a.6.6,0,0,0,.945-.019c1.967-1.69,3.96-3.352,5.937-5.032.258-.219.435-.329.735-.015,2.258,2.368,4.538,4.717,6.809,7.073C60,415.854,60.063,415.954,60.232,416.178Z" transform="translate(-18.247 -396.732)" fill="#fefefe"/>
  <path id="Path_8757" data-name="Path 8757" d="M60.251,416.682c-1.542,1.588-2.942,3.036-4.345,4.48-.918.945-1.86,1.867-2.747,2.84-.366.4-.595.348-.97.029-1.914-1.633-3.864-3.221-5.768-4.863-.435-.377-.681-.323-1.092.014-2.014,1.667-4.058,3.3-6.083,4.949-.277.227-.447.293-.728-.017-2.152-2.358-4.324-4.7-6.488-7.048a.4.4,0,0,1-.169-.368c.878,0,1.763-.008,2.649.006.216,0,.331.208.468.349,1.126,1.159,2.268,2.3,3.365,3.49.37.4.6.46,1.057.09,1.532-1.246,3.113-2.433,4.665-3.656a1.676,1.676,0,0,1,.874-.308,4.773,4.773,0,0,1,4.393,1.529c.861.907,1.927,1.611,2.87,2.441.373.331.6.354.97-.023,1.2-1.221,2.46-2.391,3.683-3.6a1.075,1.075,0,0,1,.845-.345C58.491,416.693,59.283,416.682,60.251,416.682Z" transform="translate(-18.306 -389.232)" fill="#fefefe"/>
  <path id="Path_8758" data-name="Path 8758" d="M32.223,413.143a9.751,9.751,0,0,1,2.634-.029,1.086,1.086,0,0,1,.585,1.879,2.048,2.048,0,0,1-1.775.668c-.385-.035-.549.1-.618.45a3.959,3.959,0,0,1-.166.572c-.137.406-.266.8.35.976H30.985c.639-.189.712-.751.862-1.267.233-.8.472-1.6.724-2.395C32.691,413.628,32.723,413.32,32.223,413.143Z" transform="translate(-19.115 -392.54)" fill="#fdfdfd"/>
  <path id="Path_8759" data-name="Path 8759" d="M36.5,418.908a1.244,1.244,0,0,0,.379-.749c.231-.824.452-1.654.664-2.483.054-.2.218-.422-.152-.581-.287-.125-.094-.37.1-.424.331-.1.458-.348.622-.6a2.254,2.254,0,0,1,1.215-1.015.927.927,0,0,1,1.007.156.347.347,0,0,1,.083.437.389.389,0,0,1-.375.25.313.313,0,0,1-.32-.3c.017-.549-.216-.283-.366-.106a2.4,2.4,0,0,0-.445.9c-.1.318.527.194.314.578-.133.239-.493.052-.57.36-.1.406-.223.8-.329,1.211a7.335,7.335,0,0,1-.651,1.794,1.561,1.561,0,0,1-1.332.882c-.285.014-.587.023-.707-.308-.077-.208.085-.343.256-.414C36.247,418.348,36.36,418.643,36.5,418.908Z" transform="translate(-14.835 -392.59)" fill="#fdfdfd"/>
  <path id="Path_8760" data-name="Path 8760" d="M44.215,415.129a4.794,4.794,0,0,0-.645,1.469.508.508,0,0,1-.6.429c-.375-.01-.5-.1-.375-.5.2-.6.345-1.222.512-1.837,0-.013-.015-.035-.075-.152a4.405,4.405,0,0,0-1.124,1.852c-.064.2-.054.477-.27.574a.858.858,0,0,1-.755,0c-.219-.133-.013-.358.035-.533.135-.5.295-.992.437-1.49a4.364,4.364,0,0,1,.1-.462c.083-.193-.466-.366-.044-.5a1.532,1.532,0,0,1,1.1-.125c.293.142-.09.454.012.749.25-.22.481-.435.73-.632A.553.553,0,0,1,44.1,414,6.355,6.355,0,0,1,44.215,415.129Z" transform="translate(-10.05 -391.843)" fill="#fcfcfc"/>
  <path id="Path_8761" data-name="Path 8761" d="M40.123,416.4c.283.075.335-.241.593-.144a1.362,1.362,0,0,1-1.053.837c-.389.056-.46-.277-.562-.589-.137.114-.244.2-.345.287-.244.223-.506.414-.851.239a.771.771,0,0,1-.387-.81,2.693,2.693,0,0,1,1.448-2.316.637.637,0,0,1,.732,0,.285.285,0,0,0,.254.065c.934-.139.934-.133.67.751C40.458,415.269,40.3,415.818,40.123,416.4Z" transform="translate(-13.073 -391.841)" fill="#fdfdfd"/>
  <path id="Path_8762" data-name="Path 8762" d="M36.647,414.879a2.457,2.457,0,0,1-2.177,2.233,1.019,1.019,0,0,1-1.061-1.039,2.468,2.468,0,0,1,1.937-2.266A1.028,1.028,0,0,1,36.647,414.879Z" transform="translate(-16.872 -391.84)" fill="#fdfdfd"/>
  <path id="Path_8763" data-name="Path 8763" d="M46.893,413.433H39.475c-.16,0-.318,0-.477-.01-.121-.006-.264-.023-.275-.169-.015-.2.166-.191.3-.2a3.773,3.773,0,0,1,.418-.01q7.447,0,14.895.006c.235,0,.664-.121.662.164,0,.372-.441.214-.685.216C51.836,413.437,49.365,413.433,46.893,413.433Z" transform="translate(-11.957 -392.552)" fill="#fefefe"/>
  <path id="Path_8764" data-name="Path 8764" d="M47.5,414.721c.308-.3.5-.641.837-.824a.514.514,0,0,1,.614,0,.366.366,0,0,1,.119.479c-.121.237-.329.244-.562.229-.666-.042-.984.366-.789,1,.035.114.083.223.117.337.16.51.427.693.93.244-.193.508-.476.868-.961.9-.614.044-.7-.558-.963-.937-.295.1-.383.4-.6.572a1.359,1.359,0,0,1-.606.362.4.4,0,0,1-.524-.35c-.046-.308.164-.5.42-.441a.863.863,0,0,0,1.163-.612,1.786,1.786,0,0,0-.938-1.569C46.605,413.584,47.006,413.709,47.5,414.721Z" transform="translate(-6.043 -391.838)" fill="#fcfcfc"/>
  <path id="Path_8765" data-name="Path 8765" d="M46.328,416.166a1.77,1.77,0,0,1-1.642.939.973.973,0,0,1-.984-1.1,2.628,2.628,0,0,1,2.258-2.21c.285-.017.578-.017.735.273a.715.715,0,0,1-.148.826,2.108,2.108,0,0,1-1.419.8c-.258.037-.418.121-.387.408a.464.464,0,0,0,.472.443C45.643,416.587,45.935,416.272,46.328,416.166Z" transform="translate(-7.354 -391.838)" fill="#fcfcfc"/>
  <path id="Path_8766" data-name="Path 8766" d="M36.314,417.261l.464-.418a1.223,1.223,0,0,1-1.007,1c-.412,0-.631-.327-.495-.8.285-.993.593-1.979.884-2.97.069-.233.248-.489-.079-.685a.2.2,0,0,1-.046-.141,1.888,1.888,0,0,1,1.2-.235c.395.054.09.395.042.57-.277,1-.593,1.979-.887,2.969A.974.974,0,0,0,36.314,417.261Z" transform="translate(-15.182 -392.576)" fill="#fcfcfc"/>
  <path id="Path_8767" data-name="Path 8767" d="M40.892,414.538c.277-.119.333-.437.562-.595.2-.135.4-.237.583-.031a.655.655,0,0,1,.027.782c-.1.189-.266.358-.474.191-.343-.271-.449-.01-.585.21a4.8,4.8,0,0,0-.631,1.54c-.11.516-.5.412-.8.354-.4-.079-.127-.383-.087-.574.112-.526.273-1.04.387-1.563.058-.269.264-.589-.308-.766.295-.092.422-.144.554-.173C40.95,413.733,40.95,413.735,40.892,414.538Z" transform="translate(-11.366 -391.835)" fill="#fbfbfb"/>
  <path id="Path_8768" data-name="Path 8768" d="M42.722,414.491c.331-.35.635-.914,1.2-.6.535.293.171.822.079,1.244-.085.383-.221.755-.333,1.128.229.127.277-.167.464-.108a.4.4,0,0,1,0,.158,1.275,1.275,0,0,1-.433.483.687.687,0,0,1-.874.121c-.285-.2-.189-.481-.119-.76a7.743,7.743,0,0,0,.4-1.55c0-.012-.033-.037-.046-.035a.732.732,0,0,0-.106.046C42.8,414.711,42.71,414.7,42.722,414.491Z" transform="translate(-8.341 -391.833)" fill="#fcfcfc"/>
  <path id="Path_8769" data-name="Path 8769" d="M35.052,416.012c1.255,0,2.51,0,3.767.006.162,0,.435-.069.441.166.008.279-.279.223-.464.223q-3.8.006-7.595,0c-.181,0-.483.071-.474-.2.012-.26.312-.185.495-.187C32.5,416.008,33.776,416.012,35.052,416.012Z" transform="translate(-19.353 -389.789)" fill="#fefefe"/>
  <path id="Path_8770" data-name="Path 8770" d="M42.848,414.4l.233.125-.449.5a2.071,2.071,0,0,1-.117-1.128C42.761,413.975,42.419,414.443,42.848,414.4Z" transform="translate(-8.467 -391.74)" fill="#fff"/>
  <path id="Path_8771" data-name="Path 8771" d="M33.432,413.919c-.1.462-.167.957-.73,1.117-.347.1-.57.04-.424-.4.1-.3.183-.61.275-.916.069-.223.09-.524.424-.472C33.328,413.3,33.459,413.564,33.432,413.919Z" transform="translate(-17.96 -392.35)" fill="#020203"/>
  <path id="Path_8772" data-name="Path 8772" d="M39.2,414.445a3.259,3.259,0,0,1-.674,1.546c-.087.108-.206.216-.356.158s-.154-.225-.131-.36a3.9,3.9,0,0,1,.583-1.55c.1-.142.2-.329.424-.235C39.215,414.079,39.192,414.264,39.2,414.445Z" transform="translate(-12.604 -391.665)" fill="#020203"/>
  <path id="Path_8773" data-name="Path 8773" d="M33.908,416.06a5.172,5.172,0,0,1,.658-1.823c.1-.173.258-.347.479-.279.25.077.194.325.181.514a3.988,3.988,0,0,1-.622,1.85c-.1.168-.214.368-.46.3C33.856,416.549,33.91,416.3,33.908,416.06Z" transform="translate(-16.413 -391.698)" fill="#020203"/>
  <path id="Path_8774" data-name="Path 8774" d="M44.31,415.237a2,2,0,0,1,.589-1.14c.09-.09.193-.154.316-.094.144.069.1.2.067.31A1.111,1.111,0,0,1,44.31,415.237Z" transform="translate(-6.787 -391.664)"/>
</svg>
