<svg id="Group_419" data-name="Group 419" xmlns="http://www.w3.org/2000/svg" width="201.566" height="51.353" viewBox="0 0 201.566 51.353">
  <rect id="Rectangle_227" data-name="Rectangle 227" width="7.503" height="1.736" transform="translate(129.338 12.927)" fill="#010203"/>
  <path id="Path_8517" data-name="Path 8517" d="M734.119,166.7c-2.418-.168-2.718-.437-2.753-2.25L731,147.965v-.235c0-1.511.5-1.848,2.788-1.981v-.839c-1.276.1-1.814.133-2.653.133a31.587,31.587,0,0,1-3.223-.168l-6.347,16.989-6.245-16.989a25.637,25.637,0,0,1-3.19.168c-.94,0-1.444-.033-2.753-.133v.839c2.316.133,2.788.47,2.788,2.014v.2l-.707,16.485c-.067,1.813-.4,2.083-2.753,2.25v.807c1.746-.135,2.418-.167,3.357-.167s1.611.033,3.325.167V166.7c-2.351-.168-2.788-.47-2.788-1.946v-.3l.672-17.426,5.506,14.875.4,1.176.47,1.309.47,1.309.37,1.074h.5l.368-1.109.437-1.274.47-1.244.4-1.107,5.54-14.976.3,17.392v.169c0,1.579-.5,1.946-2.788,2.081v.807a32.811,32.811,0,0,1,8.394,0Z" transform="translate(-708.702 -144.629)" fill="#010203"/>
  <path id="Path_8518" data-name="Path 8518" d="M729.591,164.758c3.292,0,5.44-2.048,5.877-5.506h-1.344c-.4,2.853-1.881,4.4-4.264,4.4-3.055,0-4.4-2.351-4.432-7.589h10c-.067-5.171-2.183-7.926-6.145-7.926-4.029,0-6.547,3.257-6.547,8.43S725.259,164.758,729.591,164.758Zm-.335-15.748c2.183,0,3.29,1.881,3.492,5.843h-7.254C725.831,150.991,727.107,149.01,729.256,149.01Z" transform="translate(-695.714 -141.612)" fill="#010203"/>
  <path id="Path_8519" data-name="Path 8519" d="M739.053,148.2a4.232,4.232,0,0,0-3.929,3.021v-.368c-.067-1.009-.135-1.546-.3-2.788a20.769,20.769,0,0,1-4.432.772v.6h.435c1.746.033,1.914.2,1.948,1.646v10.979c0,1.444-.37,1.713-2.418,1.813v.672a34.784,34.784,0,0,1,7.489,0v-.672c-2.048-.1-2.385-.37-2.385-1.813v-7.017c0-3.325,1.109-5.44,2.855-5.44.6,0,1.007.335,1.007.807v.3l-.068.335a2.041,2.041,0,0,0-.067.337,1.243,1.243,0,0,0,1.378,1.142,1.437,1.437,0,0,0,1.409-1.613A2.719,2.719,0,0,0,739.053,148.2Z" transform="translate(-688.67 -141.676)" fill="#010203"/>
  <path id="Path_8520" data-name="Path 8520" d="M743.609,164.9c3.022,0,4.936-1.946,5.373-5.541h-1.376q-.607,4.433-3.727,4.434c-2.585,0-3.9-2.385-3.9-7.086,0-4.8,1.478-7.521,4-7.521,2.048,0,3.29,1.411,3.894,4.332h.739V147.98h-.57l-.909,1.711a4.35,4.35,0,0,0-3.425-1.411c-3.962,0-6.647,3.427-6.647,8.428C737.062,161.612,739.715,164.9,743.609,164.9Z" transform="translate(-682.466 -141.756)" fill="#010203"/>
  <path id="Path_8521" data-name="Path 8521" d="M755.879,159.252c-.4,2.853-1.881,4.4-4.264,4.4-3.057,0-4.4-2.351-4.434-7.589h10.007c-.067-5.171-2.183-7.926-6.145-7.926-4.029,0-6.547,3.257-6.547,8.43s2.518,8.191,6.85,8.191c3.292,0,5.44-2.048,5.877-5.506Zm-4.869-10.242c2.183,0,3.29,1.881,3.492,5.843h-7.254C747.586,150.991,748.86,149.01,751.011,149.01Z" transform="translate(-675.588 -141.612)" fill="#010203"/>
  <path id="Path_8522" data-name="Path 8522" d="M767.814,166.986v-.57c-2.25-.067-2.452-.235-2.452-2.283V144.747a31.839,31.839,0,0,1-5.069.918v.57c2.114,0,2.383.235,2.383,1.981v5.877c-1.242-2.016-2.216-2.62-4.029-2.62-3.592,0-6.11,3.392-6.11,8.226s2.551,8.228,6.211,8.228a4.336,4.336,0,0,0,4.164-2.753,12.625,12.625,0,0,0,.47,2.686,16.667,16.667,0,0,1,3.929-.807Zm-8.765,0c-2.418,0-3.692-2.518-3.692-7.319,0-4.869,1.174-7.252,3.592-7.252,2.485,0,3.762,2.551,3.762,7.487C762.71,164.57,761.467,166.986,759.049,166.986Z" transform="translate(-668.15 -144.747)" fill="#010203"/>
  <path id="Path_8523" data-name="Path 8523" d="M768.251,163.651c-3.055,0-4.4-2.351-4.434-7.589h10.007c-.067-5.171-2.181-7.926-6.145-7.926-4.029,0-6.547,3.257-6.547,8.43s2.518,8.191,6.85,8.191c3.29,0,5.44-2.048,5.875-5.506h-1.342C772.113,162.1,770.634,163.651,768.251,163.651Zm-.6-14.641c2.183,0,3.29,1.881,3.492,5.843h-7.254C764.222,150.991,765.5,149.01,767.646,149.01Z" transform="translate(-660.198 -141.612)" fill="#010203"/>
  <path id="Path_8524" data-name="Path 8524" d="M780.05,159.952c0-1.981-.907-3.057-3.457-4.164l-1.411-.6c-3.055-1.342-3.56-1.779-3.56-3.123a2.943,2.943,0,0,1,3.157-2.788c2.116,0,3.223,1.276,3.525,3.962h.774v-5.2h-.6l-.572,1.376a5.605,5.605,0,0,0-3.425-1.074c-2.955,0-5.036,1.814-5.036,4.466,0,1.946.772,2.888,3.223,4.029l1.544.7,1.276.57c1.646.739,2.283,1.511,2.283,2.653a3.19,3.19,0,0,1-3.458,3.022c-2.351,0-3.762-1.477-4.366-4.532l-.737.033v5.608h.6l.807-1.511a6.041,6.041,0,0,0,4.029,1.409C777.8,164.786,780.05,162.773,780.05,159.952Z" transform="translate(-652.729 -141.708)" fill="#010203"/>
  <path id="Path_8525" data-name="Path 8525" d="M794.423,156.461a5.856,5.856,0,0,0-2.651-1.074,5.083,5.083,0,0,0,3.693-4.969,5.277,5.277,0,0,0-2.014-4.264,7.2,7.2,0,0,0-4.634-1.209h-8.832v.839c2.418.133,2.755.4,2.755,2.216v16.285c0,1.813-.27,2.048-2.755,2.25v.807h8.5a8.923,8.923,0,0,0,5.238-1.176,6.322,6.322,0,0,0,2.787-5.238A5.577,5.577,0,0,0,794.423,156.461Zm-8.863-10.477h2.853c2.822,0,4.064,1.378,4.064,4.5a5.156,5.156,0,0,1-1.109,3.525c-.737.839-1.646,1.109-3.525,1.109H785.56Zm3.29,20.316h-1.209c-1.779,0-2.081-.27-2.081-1.746v-8.4h3.19c1.779,0,2.788.3,3.56,1.074a5.563,5.563,0,0,1,1.207,3.829C793.517,164.42,791.838,166.3,788.85,166.3Z" transform="translate(-642.757 -144.564)" fill="#010203"/>
  <path id="Path_8526" data-name="Path 8526" d="M797.1,163.651c-3.057,0-4.4-2.351-4.433-7.589h10.007c-.068-5.171-2.183-7.926-6.145-7.926-4.029,0-6.547,3.257-6.547,8.43s2.518,8.191,6.85,8.191c3.29,0,5.438-2.048,5.875-5.506h-1.344C800.963,162.1,799.486,163.651,797.1,163.651ZM796.5,149.01c2.183,0,3.292,1.881,3.492,5.843h-7.252C793.072,150.991,794.348,149.01,796.5,149.01Z" transform="translate(-633.506 -141.612)" fill="#010203"/>
  <path id="Path_8527" data-name="Path 8527" d="M811.752,162.1v-8.059a7.643,7.643,0,0,0-.5-3.022,4.643,4.643,0,0,0-4.432-2.686,5.064,5.064,0,0,0-4.532,2.618,17.833,17.833,0,0,0-.337-2.92,20.661,20.661,0,0,1-4.432,1.007v.572c.167,0,.337.033.437.033,1.679,0,1.879.2,1.913,1.579V162.1c0,1.444-.335,1.713-2.383,1.813v.672a32,32,0,0,1,3.625-.2,31.653,31.653,0,0,1,3.627.2v-.672c-1.746-.067-2.183-.4-2.183-1.746v-8.126c0-2.753,1.209-4.2,3.492-4.2,2.149,0,3.022,1.174,3.022,4.1v8.226c0,1.344-.437,1.679-2.25,1.746v.672a31.808,31.808,0,0,1,3.661-.2,32.587,32.587,0,0,1,3.66.2v-.672C812.089,163.814,811.752,163.545,811.752,162.1Z" transform="translate(-626.569 -141.708)" fill="#010203"/>
  <path id="Path_8528" data-name="Path 8528" d="M814.3,163.322h-3.927l9.133-14.976H807.954l-.774,4.364h.672c1.209-3.021,1.746-3.492,3.929-3.492h4.13l-9.1,14.976h11.551l.872-4.834h-.7C817.523,162.415,816.582,163.322,814.3,163.322Z" transform="translate(-617.938 -141.417)" fill="#010203"/>
  <path id="Path_8529" data-name="Path 8529" d="M715.326,176.612l-4.2-12.591H709.87l4.806,14.123h1.175l4.826-14.123h-1.238Z" transform="translate(-707.622 -126.916)" fill="#010203"/>
  <path id="Path_8530" data-name="Path 8530" d="M722.923,169.813a6.738,6.738,0,0,0-.189-2.141c-.335-1.049-1.49-1.679-3.084-1.679-2.1,0-3.336.943-3.525,2.749h1.132c.21-1.2.966-1.763,2.372-1.763,1.594,0,2.2.608,2.2,2.225v.524c-4.447.672-6.043,1.7-6.043,3.862a2.816,2.816,0,0,0,3.105,2.853,3.135,3.135,0,0,0,2.938-1.658,6.3,6.3,0,0,0,.252,1.405h1.091a7.194,7.194,0,0,1-.252-2.749Zm-1.092,1.91a4.922,4.922,0,0,1-.441,2.391,2.748,2.748,0,0,1-2.412,1.344,1.876,1.876,0,0,1-2.035-1.91c0-1.49,1.238-2.245,4.888-2.959Z" transform="translate(-702.146 -125.091)" fill="#010203"/>
  <path id="Path_8531" data-name="Path 8531" d="M725.3,165.994a3.2,3.2,0,0,0-3.044,1.763,4.151,4.151,0,0,0-.189-1.49H721a9.952,9.952,0,0,1,.231,3.315v6.609h1.092v-5.708c0-2.181,1.089-3.5,2.9-3.5a1.875,1.875,0,0,1,1.825.966,4.993,4.993,0,0,1,.295,2.476v5.77h1.092V170.5c0-1.993-.021-2.2-.252-2.832A2.782,2.782,0,0,0,725.3,165.994Z" transform="translate(-697.325 -125.091)" fill="#010203"/>
  <path id="Path_8532" data-name="Path 8532" d="M729.893,170.4c-1.785-.526-2.289-.924-2.289-1.763,0-.965.86-1.658,2.1-1.658a1.9,1.9,0,0,1,2.162,1.931h1.07c-.083-1.91-1.2-2.917-3.232-2.917-1.91,0-3.23,1.092-3.23,2.686a2.585,2.585,0,0,0,.587,1.615,4.161,4.161,0,0,0,2.056,1.07,7.228,7.228,0,0,1,2.225.839,1.487,1.487,0,0,1,.651,1.3,2.042,2.042,0,0,1-2.31,1.952,2.239,2.239,0,0,1-2.455-2.247h-1.07c0,2.058,1.28,3.232,3.525,3.232,2.1,0,3.463-1.2,3.463-3.042a2.671,2.671,0,0,0-.566-1.742C732.158,171.176,731.55,170.9,729.893,170.4Z" transform="translate(-692.555 -125.091)" fill="#010203"/>
  <path id="Path_8533" data-name="Path 8533" d="M732.2,170.288a1.112,1.112,0,0,0-1.092,1.092,1.081,1.081,0,0,0,2.162,0A1.108,1.108,0,0,0,732.2,170.288Z" transform="translate(-687.977 -121.118)" fill="#010203"/>
  <path id="Path_8534" data-name="Path 8534" d="M741.935,170.59a2.964,2.964,0,0,0,2.351-3.086,3.177,3.177,0,0,0-2.16-3.148,10.143,10.143,0,0,0-3.485-.335h-2.162v14h2.162a12.381,12.381,0,0,0,4.093-.356,3.484,3.484,0,0,0,2.266-3.5C745,172.247,744.035,171.113,741.935,170.59Zm-4.258-5.519H739a6.605,6.605,0,0,1,2.624.273,2.216,2.216,0,0,1,1.427,2.181,2.582,2.582,0,0,1-1.113,2.162,5.422,5.422,0,0,1-2.9.5h-1.363Zm4.68,11.52a7.9,7.9,0,0,1-3.211.377h-1.469V171.24h1.448a9.35,9.35,0,0,1,2.791.25,2.637,2.637,0,0,1,1.783,2.6A2.609,2.609,0,0,1,742.356,176.59Z" transform="translate(-683.005 -126.916)" fill="#010203"/>
  <path id="Path_8535" data-name="Path 8535" d="M746.062,165.994c-2.455,0-4.154,2.12-4.154,5.161,0,3.19,1.658,5.288,4.154,5.288,2.456,0,4.156-2.141,4.156-5.225C750.219,168.114,748.54,165.994,746.062,165.994Zm0,9.464c-1.8,0-3.021-1.721-3.021-4.281,0-2.476,1.238-4.2,3.021-4.2s3.022,1.742,3.022,4.239C749.085,173.694,747.826,175.458,746.062,175.458Z" transform="translate(-677.982 -125.091)" fill="#010203"/>
  <path id="Path_8536" data-name="Path 8536" d="M748.664,168.406c.021-.271.021-.5.021-.63a7.456,7.456,0,0,0-.168-1.509H747.49a23.213,23.213,0,0,1,.146,3.544v6.38h1.113v-4.385a7.382,7.382,0,0,1,.481-3.105,2.415,2.415,0,0,1,1.994-1.636,2.8,2.8,0,0,1,1.28.356v-1.092a2.809,2.809,0,0,0-1.323-.335C750.091,165.994,749.357,166.708,748.664,168.406Z" transform="translate(-672.818 -125.091)" fill="#010203"/>
  <path id="Path_8537" data-name="Path 8537" d="M755.29,165.994a3.2,3.2,0,0,0-3.042,1.763,4.155,4.155,0,0,0-.189-1.49h-1.07a9.952,9.952,0,0,1,.231,3.315v6.609h1.089v-5.708c0-2.181,1.092-3.5,2.9-3.5a1.875,1.875,0,0,1,1.825.966,4.993,4.993,0,0,1,.295,2.476v5.77h1.092V170.5c0-1.993-.021-2.2-.252-2.832A2.783,2.783,0,0,0,755.29,165.994Z" transform="translate(-669.581 -125.091)" fill="#010203"/>
  <path id="Path_8538" data-name="Path 8538" d="M761.319,164.642h-1.092l-.042,2.876h-1.511v.9h1.49l-.125,5.373-.021.8c-.021.42-.042.922-.042,1.049,0,1.426.608,1.992,2.12,1.992a4.218,4.218,0,0,0,1.615-.271v-1.007a3.571,3.571,0,0,1-1.426.335c-.9,0-1.153-.377-1.153-1.7v-.252l.019-.882.106-5.435h2.5v-.9h-2.476Z" transform="translate(-662.472 -126.342)" fill="#010203"/>
  <path id="Path_8539" data-name="Path 8539" d="M766.131,165.994c-2.455,0-4.155,2.12-4.155,5.161,0,3.19,1.657,5.288,4.155,5.288,2.456,0,4.156-2.141,4.156-5.225C770.288,168.114,768.609,165.994,766.131,165.994Zm0,9.464c-1.8,0-3.021-1.721-3.021-4.281,0-2.476,1.238-4.2,3.021-4.2s3.022,1.742,3.022,4.239C769.154,173.694,767.895,175.458,766.131,175.458Z" transform="translate(-659.416 -125.091)" fill="#010203"/>
  <path id="Path_8540" data-name="Path 8540" d="M771.46,168.406c.019-.271.019-.5.019-.63a7.319,7.319,0,0,0-.168-1.509h-1.028a23.232,23.232,0,0,1,.146,3.544v6.38h1.113v-4.385a7.345,7.345,0,0,1,.483-3.105,2.412,2.412,0,0,1,1.992-1.636,2.8,2.8,0,0,1,1.28.356v-1.092a2.81,2.81,0,0,0-1.322-.335C772.885,165.994,772.151,166.708,771.46,168.406Z" transform="translate(-651.731 -125.091)" fill="#010203"/>
  <path id="Path_8541" data-name="Path 8541" d="M780.784,166.136h-1.091v5.706a4.165,4.165,0,0,1-.441,2.247,2.467,2.467,0,0,1-2.162,1.238,2.164,2.164,0,0,1-1.783-.818,3.689,3.689,0,0,1-.379-2.183v-6.189h-1.089v6.147a4.952,4.952,0,0,0,.335,2.435,3.169,3.169,0,0,0,2.9,1.594,2.622,2.622,0,0,0,2.624-1.658,4.169,4.169,0,0,0,.21,1.405h1.111c-.229-.691-.229-.776-.229-3Z" transform="translate(-648.443 -124.96)" fill="#010203"/>
  <path id="Path_8542" data-name="Path 8542" d="M783.253,165.994a3.2,3.2,0,0,0-3.044,1.763,4.109,4.109,0,0,0-.189-1.49h-1.07a9.957,9.957,0,0,1,.231,3.315v6.609h1.092v-5.708c0-2.181,1.091-3.5,2.9-3.5a1.88,1.88,0,0,1,1.827.966,5.027,5.027,0,0,1,.293,2.476v5.77h1.092V170.5c0-1.993-.021-2.2-.252-2.832A2.782,2.782,0,0,0,783.253,165.994Z" transform="translate(-643.714 -125.091)" fill="#010203"/>
  <path id="Path_8543" data-name="Path 8543" d="M785.535,170.288a1.112,1.112,0,0,0-1.092,1.092,1.081,1.081,0,0,0,2.162,0A1.107,1.107,0,0,0,785.535,170.288Z" transform="translate(-638.631 -121.118)" fill="#010203"/>
</svg>
