<svg id="Group_752" data-name="Group 752" xmlns="http://www.w3.org/2000/svg" xmlns:xlink="http://www.w3.org/1999/xlink" width="215.692" height="52.839" viewBox="0 0 215.692 52.839">
  <defs>
    <clipPath id="clip-path">
      <rect id="Rectangle_408" data-name="Rectangle 408" width="215.692" height="52.839" fill="none"/>
    </clipPath>
  </defs>
  <path id="Path_9323" data-name="Path 9323" d="M36.311,20.281V3.538h3.1v7.245h.044l5.225-7.245h3.633L42.01,11.776l6.307,8.506H44.684l-5.225-7.356h-.044v7.356Z" transform="translate(33.595 3.273)" fill="#010203"/>
  <g id="Group_751" data-name="Group 751" transform="translate(0 0)">
    <g id="Group_750" data-name="Group 750" clip-path="url(#clip-path)">
      <path id="Path_9324" data-name="Path 9324" d="M42.685,12.111a8.735,8.735,0,0,1,.651-3.334,8.346,8.346,0,0,1,1.79-2.74,9.051,9.051,0,0,1,2.518-1.812,8.648,8.648,0,0,1,3.8-.861,8.413,8.413,0,0,1,3.49.724,8.693,8.693,0,0,1,2.7,1.833A8.857,8.857,0,0,1,59.34,8.334a8.543,8.543,0,0,1,.851,3.756,8.4,8.4,0,0,1-.458,2.793,8.537,8.537,0,0,1-1.215,2.326,9.577,9.577,0,0,1-1.812,1.829,8.217,8.217,0,0,1-2.435,1.28,8.8,8.8,0,0,1-2.828.464,8.357,8.357,0,0,1-3.567-.745,9.116,9.116,0,0,1-2.69-1.856,8.522,8.522,0,0,1-2.5-6.07m3.1-.021a5.671,5.671,0,0,0,.441,2.243,6,6,0,0,0,1.167,1.8,5.916,5.916,0,0,0,1.756,1.259,5.211,5.211,0,0,0,2.291.5,5.565,5.565,0,0,0,2.8-.762,5.44,5.44,0,0,0,2.1-2.143,5.924,5.924,0,0,0,0-5.814,5.455,5.455,0,0,0-2.093-2.149,5.554,5.554,0,0,0-2.8-.762,5.179,5.179,0,0,0-2.291.491A6.211,6.211,0,0,0,47.39,8.014a5.539,5.539,0,0,0-1.176,1.85,6.016,6.016,0,0,0-.425,2.226" transform="translate(39.492 3.113)" fill="#010203"/>
      <path id="Path_9325" data-name="Path 9325" d="M53.053,20.281V3.538h3.1v6.813h5.987V3.538h3.1V20.281h-3.1V13.246H56.156v7.035Z" transform="translate(49.085 3.273)" fill="#010203"/>
      <rect id="Rectangle_401" data-name="Rectangle 401" width="6.284" height="2.672" transform="translate(117.518 14.718)" fill="#010203"/>
      <rect id="Rectangle_402" data-name="Rectangle 402" width="3.103" height="16.744" transform="translate(127.039 6.809)" fill="#010203"/>
      <rect id="Rectangle_403" data-name="Rectangle 403" width="6.284" height="2.672" transform="translate(133.346 14.718)" fill="#010203"/>
      <path id="Path_9326" data-name="Path 9326" d="M74.185,20.281V3.538h3.523l6.925,12.171h.044V3.538h3.1V20.281H84.325L77.332,8.11h-.044V20.281Z" transform="translate(68.636 3.273)" fill="#010203"/>
      <path id="Path_9327" data-name="Path 9327" d="M82.452,12.111A8.7,8.7,0,0,1,83.1,8.777a8.311,8.311,0,0,1,1.789-2.74,9.051,9.051,0,0,1,2.518-1.812,8.648,8.648,0,0,1,3.8-.861,8.406,8.406,0,0,1,3.49.724,8.693,8.693,0,0,1,2.7,1.833,8.906,8.906,0,0,1,1.708,2.412,8.568,8.568,0,0,1,.849,3.756,8.4,8.4,0,0,1-.458,2.793,8.536,8.536,0,0,1-1.215,2.326,9.577,9.577,0,0,1-1.812,1.829,8.217,8.217,0,0,1-2.435,1.28,8.8,8.8,0,0,1-2.828.464,8.348,8.348,0,0,1-3.565-.745,9.066,9.066,0,0,1-2.69-1.856,8.512,8.512,0,0,1-2.5-6.07m3.1-.021A5.705,5.705,0,0,0,86,14.333a6.033,6.033,0,0,0,1.167,1.8,5.916,5.916,0,0,0,1.756,1.259,5.217,5.217,0,0,0,2.291.5,5.565,5.565,0,0,0,2.8-.762,5.44,5.44,0,0,0,2.1-2.143,5.924,5.924,0,0,0,0-5.814,5.442,5.442,0,0,0-2.093-2.149,5.554,5.554,0,0,0-2.8-.762,5.179,5.179,0,0,0-2.291.491,6.211,6.211,0,0,0-1.762,1.265,5.539,5.539,0,0,0-1.176,1.85,6.017,6.017,0,0,0-.425,2.226" transform="translate(76.285 3.113)" fill="#010203"/>
      <path id="Path_9328" data-name="Path 9328" d="M92.319,12.111a8.7,8.7,0,0,1,.653-3.334,8.311,8.311,0,0,1,1.789-2.74,9.051,9.051,0,0,1,2.518-1.812,8.648,8.648,0,0,1,3.8-.861,8.406,8.406,0,0,1,3.49.724,8.693,8.693,0,0,1,2.7,1.833,8.907,8.907,0,0,1,1.708,2.412,8.569,8.569,0,0,1,.849,3.756,8.4,8.4,0,0,1-.458,2.793,8.537,8.537,0,0,1-1.215,2.326,9.577,9.577,0,0,1-1.812,1.829,8.217,8.217,0,0,1-2.435,1.28,8.8,8.8,0,0,1-2.828.464,8.348,8.348,0,0,1-3.565-.745,9.066,9.066,0,0,1-2.69-1.856,8.512,8.512,0,0,1-2.5-6.07m3.1-.021a5.705,5.705,0,0,0,.441,2.243,6.033,6.033,0,0,0,1.167,1.8,5.916,5.916,0,0,0,1.756,1.259,5.217,5.217,0,0,0,2.291.5,5.565,5.565,0,0,0,2.8-.762,5.44,5.44,0,0,0,2.1-2.143,5.924,5.924,0,0,0,0-5.814,5.442,5.442,0,0,0-2.093-2.149,5.554,5.554,0,0,0-2.8-.762,5.179,5.179,0,0,0-2.291.491,6.211,6.211,0,0,0-1.762,1.265,5.539,5.539,0,0,0-1.176,1.85,6.016,6.016,0,0,0-.425,2.226" transform="translate(85.414 3.113)" fill="#010203"/>
      <path id="Path_9329" data-name="Path 9329" d="M102.549,20.281V3.537h5.135a8.274,8.274,0,0,1,3.138.508,4.6,4.6,0,0,1,1.5,1,5.456,5.456,0,0,1,1.049,1.43,5.014,5.014,0,0,1,.541,2.32,5.362,5.362,0,0,1-.414,2.1,5.078,5.078,0,0,1-1.055,1.629,5,5,0,0,1-1.369,1,8.124,8.124,0,0,1-1.746.585l4.551,6.174h-3.754l-4.43-6.405h-.044v6.405Zm3.1-13.838v5.113h1.989a3.968,3.968,0,0,0,1.688-.352,2.153,2.153,0,0,0,.928-.862A2.5,2.5,0,0,0,110.621,9a2.589,2.589,0,0,0-.364-1.348,2.272,2.272,0,0,0-.972-.916,3.779,3.779,0,0,0-1.644-.3Z" transform="translate(94.879 3.272)" fill="#010203"/>
      <path id="Path_9330" data-name="Path 9330" d="M35.731,27.166V17.944h2.318a8.064,8.064,0,0,1,1.355.089,2.833,2.833,0,0,1,.855.293,2.582,2.582,0,0,1,.695.562,2.612,2.612,0,0,1,.495.836,3.115,3.115,0,0,1,.177,1.08,2.909,2.909,0,0,1-.429,1.588,2.454,2.454,0,0,1-1.1.966,5.406,5.406,0,0,1-2.052.293h-.608v3.515Zm1.71-5.109h.547a2.632,2.632,0,0,0,1.506-.314,1.1,1.1,0,0,0,.424-.945,1.189,1.189,0,0,0-.208-.7,1.123,1.123,0,0,0-.574-.425,3.461,3.461,0,0,0-1.086-.129h-.608Z" transform="translate(33.059 16.602)" fill="#010203"/>
      <path id="Path_9331" data-name="Path 9331" d="M42.971,26.394a3.668,3.668,0,0,1-1.405-.279,3.517,3.517,0,0,1-1.161-.77,3.883,3.883,0,0,1-.76-1.061,3.558,3.558,0,0,1-.36-1.577,3.686,3.686,0,0,1,.491-1.833,3.493,3.493,0,0,1,1.365-1.363,3.678,3.678,0,0,1,3.662,0,3.424,3.424,0,0,1,1.35,1.346,3.877,3.877,0,0,1,.246,3.2,3.491,3.491,0,0,1-.637,1.086,3.545,3.545,0,0,1-.839.718,3.924,3.924,0,0,1-.941.395,3.708,3.708,0,0,1-1.009.141m0-1.521a1.844,1.844,0,0,0,1.438-.639,2.192,2.192,0,0,0,.57-1.507,2.3,2.3,0,0,0-.281-1.105,2.031,2.031,0,0,0-.757-.8,1.876,1.876,0,0,0-.965-.283,1.98,1.98,0,0,0-.976.281,2.015,2.015,0,0,0-.778.784,2.347,2.347,0,0,0,0,2.227,1.952,1.952,0,0,0,.757.774,1.992,1.992,0,0,0,1,.271" transform="translate(36.346 17.599)" fill="#010203"/>
      <rect id="Rectangle_404" data-name="Rectangle 404" width="1.654" height="9.222" transform="translate(84.418 34.548)" fill="#010203"/>
      <path id="Path_9332" data-name="Path 9332" d="M50.226,21.138H48.609a.821.821,0,0,0-.241-.462.686.686,0,0,0-.876.037.576.576,0,0,0-.179.425.474.474,0,0,0,.146.352,2.067,2.067,0,0,0,.753.329,6.926,6.926,0,0,1,1.342.526,1.68,1.68,0,0,1,.63.656,2.049,2.049,0,0,1,.231,1,2.307,2.307,0,0,1-.7,1.706,2.369,2.369,0,0,1-1.737.691,2.711,2.711,0,0,1-1.134-.229,2.475,2.475,0,0,1-.8-.553,2.267,2.267,0,0,1-.45-.707,3.023,3.023,0,0,1-.185-.914h1.7a1.3,1.3,0,0,0,.339.683.806.806,0,0,0,.562.2.747.747,0,0,0,.545-.2.671.671,0,0,0,.21-.5.561.561,0,0,0-.193-.452,2.982,2.982,0,0,0-.8-.385,7.022,7.022,0,0,1-1.205-.518,1.961,1.961,0,0,1-.682-.678,1.786,1.786,0,0,1-.225-.9,2.2,2.2,0,0,1,.3-1.136,2.039,2.039,0,0,1,.851-.8,2.5,2.5,0,0,1,1.147-.281,2.21,2.21,0,0,1,.968.206,2.382,2.382,0,0,1,.712.5,2.075,2.075,0,0,1,.418.63,2.527,2.527,0,0,1,.169.782" transform="translate(42.013 17.599)" fill="#010203"/>
      <path id="Path_9333" data-name="Path 9333" d="M48.883,27.166V17.944h1.654V23.5h.025l2.208-3.254h1.9l-2.487,3.388L55,27.166H52.909L50.562,23.93h-.025v3.236Z" transform="translate(45.227 16.602)" fill="#010203"/>
      <path id="Path_9334" data-name="Path 9334" d="M59.823,19.253v6.915H58.3v-.857a3.563,3.563,0,0,1-1.049.8,3.04,3.04,0,0,1-1.359.287,3.225,3.225,0,0,1-1.679-.447A3.372,3.372,0,0,1,53,24.647a4.207,4.207,0,0,1-.013-3.845,3.3,3.3,0,0,1,1.273-1.317,3.358,3.358,0,0,1,1.694-.464,2.868,2.868,0,0,1,1.07.189,3.14,3.14,0,0,1,.8.452,2.13,2.13,0,0,1,.46.466H58.3v-.876ZM58.254,22.7a2.148,2.148,0,0,0-.581-1.563,1.944,1.944,0,0,0-1.45-.6,1.967,1.967,0,0,0-1.032.283,1.947,1.947,0,0,0-.741.816,2.407,2.407,0,0,0-.271,1.109,2.089,2.089,0,0,0,.6,1.519,1.97,1.97,0,0,0,1.457.61,1.85,1.85,0,0,0,1.463-.633,2.251,2.251,0,0,0,.556-1.544" transform="translate(48.596 17.599)" fill="#010203"/>
      <path id="Path_9335" data-name="Path 9335" d="M58.978,24.613h1.794a1.577,1.577,0,0,0,.285.791,1.153,1.153,0,0,0,.968.443,1.21,1.21,0,0,0,.893-.347,1.178,1.178,0,0,0,.347-.87,1.108,1.108,0,0,0-.16-.614,1.38,1.38,0,0,0-.514-.431c-.127-.069-.568-.25-1.326-.547a3.962,3.962,0,0,1-1.153-.628,2.256,2.256,0,0,1-.593-.82,2.663,2.663,0,0,1-.212-1.07,2.715,2.715,0,0,1,.352-1.359,2.452,2.452,0,0,1,.988-.968,2.777,2.777,0,0,1,1.342-.343,2.733,2.733,0,0,1,1.167.248,2.812,2.812,0,0,1,.876.614,2.5,2.5,0,0,1,.506.782,3.464,3.464,0,0,1,.206.984H63a1.529,1.529,0,0,0-.248-.718A.921.921,0,0,0,62,19.444a.959.959,0,0,0-.71.264.927.927,0,0,0-.268.691.9.9,0,0,0,.316.73,3.55,3.55,0,0,0,1.022.464,7.964,7.964,0,0,1,1.13.454,2.963,2.963,0,0,1,.837.641,2.581,2.581,0,0,1,.474.828,3.116,3.116,0,0,1,.167,1.049,2.689,2.689,0,0,1-1.107,2.279,2.987,2.987,0,0,1-1.842.6,3.256,3.256,0,0,1-1.038-.169,3.055,3.055,0,0,1-.891-.472,2.814,2.814,0,0,1-.631-.666,2.707,2.707,0,0,1-.36-.772,4.107,4.107,0,0,1-.121-.749" transform="translate(54.567 16.515)" fill="#010203"/>
      <path id="Path_9336" data-name="Path 9336" d="M62.8,28.475v-9.22H64.32v.809h.025a3.166,3.166,0,0,1,.984-.785,2.8,2.8,0,0,1,1.236-.256,3.437,3.437,0,0,1,1.758.46,3.28,3.28,0,0,1,1.259,1.342,4.022,4.022,0,0,1,.468,1.916,3.572,3.572,0,0,1-1.03,2.6A3.332,3.332,0,0,1,66.545,26.4a2.8,2.8,0,0,1-1.109-.2,3.344,3.344,0,0,1-.982-.687v2.969Zm1.557-5.766a2.338,2.338,0,0,0,.268,1.111,1.857,1.857,0,0,0,.778.782,2.087,2.087,0,0,0,.974.273,2.063,2.063,0,0,0,1.738-1.059,2.231,2.231,0,0,0,.281-1.1,2.158,2.158,0,0,0-.6-1.554,1.9,1.9,0,0,0-1.409-.624,1.866,1.866,0,0,0-.535.079,2.3,2.3,0,0,0-.508.229,2.121,2.121,0,0,0-.477.406,1.952,1.952,0,0,0-.37.643,2.329,2.329,0,0,0-.141.814" transform="translate(58.102 17.599)" fill="#010203"/>
      <rect id="Rectangle_405" data-name="Rectangle 405" width="1.654" height="1.654" transform="translate(129.903 42.114)" fill="#010203"/>
      <path id="Path_9337" data-name="Path 9337" d="M71.217,26.058V24.537l3.065-3.874H71.563V19.142h4.7v1.521L73.2,24.537h3.273v1.521Z" transform="translate(65.89 17.71)" fill="#010203"/>
      <path id="Path_9338" data-name="Path 9338" d="M80.187,26.394a3.668,3.668,0,0,1-1.405-.279,3.516,3.516,0,0,1-1.161-.77,3.883,3.883,0,0,1-.76-1.061,3.558,3.558,0,0,1-.36-1.577,3.686,3.686,0,0,1,.491-1.833,3.493,3.493,0,0,1,1.365-1.363,3.678,3.678,0,0,1,3.662,0,3.424,3.424,0,0,1,1.35,1.346,3.877,3.877,0,0,1,.246,3.2,3.588,3.588,0,0,1-1.479,1.8,3.878,3.878,0,0,1-.939.395,3.708,3.708,0,0,1-1.009.141m0-1.521a1.844,1.844,0,0,0,1.438-.639,2.192,2.192,0,0,0,.57-1.507,2.3,2.3,0,0,0-.281-1.105,2.03,2.03,0,0,0-.757-.8,1.871,1.871,0,0,0-.965-.283,1.98,1.98,0,0,0-.976.281,2.015,2.015,0,0,0-.778.784,2.347,2.347,0,0,0,0,2.227,1.952,1.952,0,0,0,.757.774,1.992,1.992,0,0,0,1,.271" transform="translate(70.778 17.599)" fill="#010203"/>
      <rect id="Rectangle_406" data-name="Rectangle 406" width="1.654" height="1.654" transform="translate(156.304 42.114)" fill="#010203"/>
      <path id="Path_9339" data-name="Path 9339" d="M86.6,26.394a3.668,3.668,0,0,1-1.405-.279,3.517,3.517,0,0,1-1.161-.77,3.883,3.883,0,0,1-.76-1.061,3.584,3.584,0,0,1-.36-1.577,3.686,3.686,0,0,1,.491-1.833,3.493,3.493,0,0,1,1.365-1.363,3.678,3.678,0,0,1,3.662,0,3.424,3.424,0,0,1,1.35,1.346,3.877,3.877,0,0,1,.246,3.2,3.588,3.588,0,0,1-1.479,1.8,3.878,3.878,0,0,1-.939.395,3.708,3.708,0,0,1-1.009.141m0-1.521a1.844,1.844,0,0,0,1.438-.639,2.192,2.192,0,0,0,.57-1.507,2.3,2.3,0,0,0-.281-1.105,2.031,2.031,0,0,0-.757-.8,1.871,1.871,0,0,0-.965-.283,1.98,1.98,0,0,0-.976.281,2.015,2.015,0,0,0-.778.784,2.347,2.347,0,0,0,0,2.227,1.952,1.952,0,0,0,.757.774,1.992,1.992,0,0,0,1,.271" transform="translate(76.716 17.599)" fill="#010203"/>
      <rect id="Rectangle_407" data-name="Rectangle 407" width="1.654" height="1.654" transform="translate(168.66 42.114)" fill="#010203"/>
      <path id="Path_9340" data-name="Path 9340" d="M110.405,3.2a1.629,1.629,0,0,1,.92-.857,1.806,1.806,0,0,1,.645-.116,1.848,1.848,0,0,1,.647.116,1.6,1.6,0,0,1,.92.857,1.667,1.667,0,0,1,.137.68,1.681,1.681,0,0,1-.137.689,1.612,1.612,0,0,1-.373.524,1.677,1.677,0,0,1-.547.339,1.809,1.809,0,0,1-.647.119,1.768,1.768,0,0,1-.645-.119,1.722,1.722,0,0,1-.543-.339,1.652,1.652,0,0,1-.377-.524,1.622,1.622,0,0,1-.142-.689,1.609,1.609,0,0,1,.142-.68m.41,1.209a1.212,1.212,0,0,0,.266.418,1.189,1.189,0,0,0,.4.271,1.25,1.25,0,0,0,1.377-.271,1.272,1.272,0,0,0,.266-.418,1.408,1.408,0,0,0,.1-.529,1.328,1.328,0,0,0-.1-.518,1.3,1.3,0,0,0-.266-.41,1.229,1.229,0,0,0-.4-.271,1.285,1.285,0,0,0-.976,0,1.189,1.189,0,0,0-.4.271,1.235,1.235,0,0,0-.266.41,1.327,1.327,0,0,0-.1.518,1.407,1.407,0,0,0,.1.529m.5-1.461h.7a.983.983,0,0,1,.539.125.47.47,0,0,1,.191.425.445.445,0,0,1-.142.37.64.64,0,0,1-.347.127l.5.818h-.389l-.454-.8h-.231v.8h-.364Zm.364.782h.329a.674.674,0,0,0,.262-.044c.067-.029.1-.1.1-.214a.178.178,0,0,0-.129-.191.841.841,0,0,0-.252-.04h-.312Z" transform="translate(102.016 2.059)" fill="#010203"/>
      <path id="Path_9341" data-name="Path 9341" d="M26.42,0a26.42,26.42,0,1,0,26.42,26.42A26.42,26.42,0,0,0,26.42,0m0,50.14A23.721,23.721,0,1,1,50.14,26.42,23.72,23.72,0,0,1,26.42,50.14" transform="translate(0 0)" fill="#010203"/>
      <path id="Path_9342" data-name="Path 9342" d="M7.543,31.472l0,.033q0,4.525,0,9.052c0,.129.048.166.169.16a2.925,2.925,0,0,0,1.377-.323,3.482,3.482,0,0,0,1.078-.866c.358-.464.68-.959,1.007-1.446.393-.585.772-1.178,1.163-1.762.67-1,1.348-2.006,2.021-3.011.456-.68.909-1.361,1.365-2.043l.845-1.253q.621-.927,1.24-1.85l2.043-3.055c.123-.187.121-.187.262-.006.019.027.048.048.067.077.379.579.753,1.161,1.138,1.737.4.6.818,1.2,1.223,1.8.325.487.637.984.963,1.471.308.462.626.914.936,1.375.343.51.68,1.026,1.024,1.534.47.695.945,1.382,1.413,2.077.639.953,1.267,1.912,1.908,2.863a14.162,14.162,0,0,0,1.09,1.554,3.275,3.275,0,0,0,1.679,1.053,2.906,2.906,0,0,0,.579.067c.316.017.318.01.318-.314q0-4.3,0-8.594a.455.455,0,0,0-.308-.487,13.94,13.94,0,0,1-1.323-.612c-.454-.248-.886-.545-1.325-.826a5.7,5.7,0,0,1-1.465-1.442,7.239,7.239,0,0,1-1.107-2.072c-.173-.524-.3-1.063-.46-1.592-.2-.682-.424-1.359-.63-2.041-.194-.651-.375-1.305-.57-1.956s-.4-1.286-.593-1.933c-.4-1.332-.791-2.668-1.188-4-.248-.841-.5-1.683-.749-2.524-.354-1.2-.7-2.4-1.057-3.592-.221-.741-.456-1.477-.676-2.218-.335-1.134-.662-2.268-1-3.433-.027.062-.042.09-.052.121-.156.518-.308,1.038-.464,1.556-.252.834-.508,1.667-.757,2.5-.339,1.144-.67,2.291-1.009,3.435-.26.872-.531,1.742-.793,2.614-.185.62-.364,1.24-.547,1.86q-.474,1.606-.951,3.209c-.221.747-.454,1.49-.676,2.237q-.5,1.658-.986,3.319c-.16.541-.325,1.08-.477,1.621a7.718,7.718,0,0,1-1.057,2.468,11.9,11.9,0,0,1-.768,1.009A7,7,0,0,1,9.5,30.505c-.447.243-.913.447-1.369.67-.194.094-.387.193-.593.3" transform="translate(6.971 2.845)" fill="#010203"/>
      <path id="Path_9343" data-name="Path 9343" d="M7.543,31.472c.206-.1.4-.2.593-.3.456-.223.922-.427,1.369-.67a7,7,0,0,0,1.95-1.477,11.9,11.9,0,0,0,.768-1.009,7.718,7.718,0,0,0,1.057-2.468c.152-.541.318-1.08.477-1.621q.491-1.66.986-3.319c.221-.747.454-1.49.676-2.237q.479-1.6.951-3.209c.183-.62.362-1.24.547-1.86.262-.872.533-1.742.793-2.614.339-1.144.67-2.291,1.009-3.435.248-.837.5-1.671.757-2.5.156-.518.308-1.038.464-1.556.01-.031.025-.06.052-.121.341,1.165.668,2.3,1,3.433.219.741.454,1.477.676,2.218.354,1.2.7,2.395,1.057,3.592.248.841.5,1.683.749,2.524.4,1.334.789,2.67,1.188,4,.193.647.4,1.288.593,1.933s.375,1.305.57,1.956c.206.682.425,1.359.63,2.041.158.529.287,1.068.46,1.592a7.239,7.239,0,0,0,1.107,2.072,5.7,5.7,0,0,0,1.465,1.442c.439.281.87.578,1.325.826a13.94,13.94,0,0,0,1.323.612.455.455,0,0,1,.308.487q-.006,4.3,0,8.594c0,.323,0,.331-.318.314a2.906,2.906,0,0,1-.579-.067,3.275,3.275,0,0,1-1.679-1.053,14.162,14.162,0,0,1-1.09-1.554c-.641-.951-1.269-1.91-1.908-2.863-.468-.695-.943-1.382-1.413-2.077-.345-.508-.682-1.024-1.024-1.534-.31-.46-.628-.913-.936-1.375-.325-.487-.637-.984-.963-1.471-.4-.6-.82-1.2-1.223-1.8-.385-.576-.759-1.157-1.138-1.737-.019-.029-.048-.05-.067-.077-.141-.181-.139-.181-.262.006L17.8,28.162q-.618.924-1.24,1.85l-.845,1.253c-.456.682-.909,1.363-1.365,2.043-.674,1-1.351,2.006-2.021,3.011-.391.583-.77,1.176-1.163,1.762-.327.487-.649.982-1.007,1.446a3.482,3.482,0,0,1-1.078.866,2.925,2.925,0,0,1-1.377.323c-.121.006-.169-.031-.169-.16q.006-4.528,0-9.052l0-.033" transform="translate(6.971 2.845)" fill="#010203"/>
    </g>
  </g>
</svg>
