<svg id="Layer_2" data-name="Layer 2" xmlns="http://www.w3.org/2000/svg" width="114.567" height="66.76" viewBox="0 0 114.567 66.76">
  <g id="Layer_1-2" data-name="Layer 1-2">
    <path id="Path_8804" data-name="Path 8804" d="M589,312.731a7.3,7.3,0,0,1,4.782,1.983,4.928,4.928,0,0,1,1.409,4.374,8.177,8.177,0,0,1-1.463,3.808,24.182,24.182,0,0,1-3.508,3.9,61.6,61.6,0,0,1-6.907,5.344c-.47.32-.957.618-1.542.993.52.214.947.387,1.375.568a21.982,21.982,0,0,1,4.341,2.156,9.74,9.74,0,0,1,3.767,4.632,7.459,7.459,0,0,1,.439,3.717c-.162.976-.245,1.952-.427,2.926a10.113,10.113,0,0,1-1.49,3.413,20.607,20.607,0,0,1-3.488,4.258,15.621,15.621,0,0,1-6.923,3.919,13.664,13.664,0,0,1-4.747.437c-1.661-.173-3.315-.466-4.955-.787a26.8,26.8,0,0,1-5.086-1.538A6.912,6.912,0,0,1,561.706,355a1.846,1.846,0,0,1-.45-.9c-.158-1.332,1.219-1.621,2.087-1.323a32,32,0,0,0,3.136.988c1.376.325,2.774.558,4.172.784a22.13,22.13,0,0,0,5.363.35,12.765,12.765,0,0,0,6.582-2.53,15.051,15.051,0,0,0,3.658-3.75,8.564,8.564,0,0,0,1.584-5.437,5.852,5.852,0,0,0-3.785-5.29,13.541,13.541,0,0,0-4.426-.955c-1.427-.079-2.853-.119-4.276-.175l-2.031-.089a.448.448,0,0,0-.529.345c0,.021-.006.04-.008.06a108.068,108.068,0,0,1-3.479,11.32c-.244.7-.468,1.413-.753,2.1a1.073,1.073,0,0,1-1.34.641c-.443-.1-.9-.15-1.33-.287a1.412,1.412,0,0,1-.9-1.128,7.815,7.815,0,0,1,.487-4.876q2.5-6.1,4.89-12.236a21.285,21.285,0,0,0,1.088-3.694,7.872,7.872,0,0,0-.013-3.346,2.44,2.44,0,0,1,.3-1.833,2.788,2.788,0,0,1,2.339-.531,1.347,1.347,0,0,1,.884,1.219,12.937,12.937,0,0,1,.027,1.706v.131c-.025,1.284-.048,2.56-.092,3.854-.015.414-.069.826-.108,1.288a1.707,1.707,0,0,0,.323-.085c2.57-1.349,8.072-4.1,9.812-5.733,1.247-1.041,2.524-2.052,3.692-3.169a6.8,6.8,0,0,0,2.145-3.889,1.932,1.932,0,0,0-1.8-2.341,11.508,11.508,0,0,0-6.11.61l-6.738,2.666c-1.463.583-2.926,1.126-4.349,1.74-.9.389-1.783.847-2.649,1.325a1.462,1.462,0,0,1-1.817-.166,3.481,3.481,0,0,1-.943-1.887c-.2-.7.2-1.043.732-1.3,1.567-.772,3.117-1.581,4.722-2.266,1.81-.764,3.652-1.5,5.523-2.108,2.052-.656,4.145-1.219,6.253-1.671a36.348,36.348,0,0,1,3.812-.4c.139-.015,1.405,0,1.6,0" transform="translate(-561.243 -312.724)" fill="#020203"/>
    <path id="Path_8805" data-name="Path 8805" d="M619.687,327.659a9.6,9.6,0,0,0-1.611.7c-1.092.759-2.154,1.567-3.169,2.424a21.953,21.953,0,0,0-1.993,1.977q-1.926,2.094-3.81,4.239c-1.172,1.338-2.376,2.659-3.446,4.081-1.278,1.706-2.466,3.479-3.635,5.259s-2.193,3.625-3.386,5.379a8.86,8.86,0,0,1-1.858,1.831,2.049,2.049,0,0,1-2.193.287,1.437,1.437,0,0,1-.814-1.265,5.617,5.617,0,0,1,.732-3.092,83.761,83.761,0,0,1,4.563-8.532c1.011-1.706,2.023-3.392,3.019-5.1.258-.445.41-.949.662-1.4,1.221-2.172,2.439-4.343,3.7-6.493a23.254,23.254,0,0,0,2.289-4.7,3.48,3.48,0,0,1,1.309-1.966,2.2,2.2,0,0,1,2.451.173c.214.154.279.578.323.889a5.631,5.631,0,0,1-.593,2.7c-.366,1.007-.681,2.031-1.011,3.049a1.5,1.5,0,0,0,0,.395c.76-.516,1.463-.941,2.116-1.463,1.706-1.34,3.354-2.739,5.061-4.075a27.7,27.7,0,0,1,2.585-1.762,4.44,4.44,0,0,1,1.359-.522c.732-.167,1.394.391,1.706,1.438a10.338,10.338,0,0,1,.144,4.47c-.115.543-.385,5.463-.429,5.958.47-.41.859-.716,1.219-1.061,1.219-1.174,2.414-2.374,3.638-3.54s2.495-2.316,3.756-3.49c.932-.859,1.869-1.706,2.816-2.555a52.146,52.146,0,0,1,5.987-4.767c.466-.306.974-.541,1.463-.807a1.248,1.248,0,0,1,1.532.279,4.406,4.406,0,0,1,1.463,2.193,5.222,5.222,0,0,1,0,2.129,48.132,48.132,0,0,1-2.609,8.211c-.909,2.393-1.858,4.772-2.793,7.158-1.078,2.741-2.195,5.467-3.228,8.226-.443,1.19-.682,2.453-1.072,3.658a35.939,35.939,0,0,1-1.325,3.671c-.506,1.138-1.113,1.38-2.293.6a2.228,2.228,0,0,1-1.19-1.658,3.962,3.962,0,0,1,.243-1.411q1.741-5.507,3.519-11a67.216,67.216,0,0,1,4.114-9.45,10.221,10.221,0,0,0,1.273-4.426c0-.56-.295-.751-.768-.427a25.028,25.028,0,0,0-2.372,1.773q-2.394,2.088-4.707,4.264a41.051,41.051,0,0,0-5.538,6.355c-1.794,2.589-3.639,5.146-5.5,7.683A6.675,6.675,0,0,1,618.8,346.5a2.336,2.336,0,0,1-1.538.2,1.473,1.473,0,0,1-.976-1.552,12.7,12.7,0,0,1,.82-4.025c.689-2.15,1.417-4.293,2.05-6.461a21.547,21.547,0,0,0,.6-6.721,1.664,1.664,0,0,0-.071-.275" transform="translate(-531.178 -309.535)" fill="#020203"/>
    <path id="Path_8806" data-name="Path 8806" d="M578.255,350.97a17.176,17.176,0,0,1,.693-3.973,33.22,33.22,0,0,1,2.1-5.308c.7-1.43,1.417-2.853,2.1-4.293.949-2.008,1.809-4.062,2.816-6.039,1.309-2.566,2.747-5.065,4.079-7.618a42.439,42.439,0,0,1,3.848-5.629,12.679,12.679,0,0,1,1.8-1.95,2.315,2.315,0,0,1,2.87-.144,2.282,2.282,0,0,1,.789,1.386,2.061,2.061,0,0,1-.676,1.885,36.353,36.353,0,0,0-4,5.219c-1.03,1.706-2.073,3.433-3.015,5.2-1.808,3.394-3.586,6.807-5.292,10.251-1.013,2.039-1.881,4.145-2.788,6.236-.4.932-.759,1.885-1.111,2.838a1.557,1.557,0,0,0-.069.678c.05.447.308.7.755.645a21.515,21.515,0,0,0,2.437-.489c2.836-.747,5.658-1.538,8.488-2.3,2.46-.658,4.917-1.323,7.391-1.925,1.638-.4,3.3-.7,4.955-1.016a1.091,1.091,0,0,1,1.438,1.178,1.154,1.154,0,0,1-.708.916c-1.369.753-2.714,1.565-4.145,2.181-2.01.866-4.064,1.631-6.135,2.337-1.513.518-3.08.878-4.634,1.3-1.219.331-2.422.681-3.656.974a22.681,22.681,0,0,1-4.518.695,8.81,8.81,0,0,1-3.85-.631,2.833,2.833,0,0,1-1.856-1.844,5.663,5.663,0,0,1-.1-.764" transform="translate(-545.506 -310.081)" fill="#020203"/>
    <path id="Path_8807" data-name="Path 8807" d="M596.331,341.5a5.416,5.416,0,0,0-.909.289,8.19,8.19,0,0,0-1.053.514,8.363,8.363,0,0,0-.789.524,11.218,11.218,0,0,0-.938.766,7.1,7.1,0,0,0-.631.685,8.649,8.649,0,0,0-.7.951,5.8,5.8,0,0,0-.487,1.016,5.238,5.238,0,0,0-.277,1.19,2.978,2.978,0,0,0-.027.454,2.928,2.928,0,0,0,.085.593,2.851,2.851,0,0,0,.21.541,2.617,2.617,0,0,0,.356.535,3.374,3.374,0,0,0,.776.664,4.011,4.011,0,0,0,1,.452,5.935,5.935,0,0,0,1.086.2,6.1,6.1,0,0,0,1.076.021,7.528,7.528,0,0,0,2.112-.427,7.112,7.112,0,0,0,1.95-1.107,5.157,5.157,0,0,0,1.848-2.532,5.876,5.876,0,0,0,.273-.974,5.467,5.467,0,0,0,.073-.589,2.876,2.876,0,0,0-.044-.589,2.616,2.616,0,0,0-.406-1.043,3.234,3.234,0,0,0-.364-.447,3.564,3.564,0,0,0-.449-.368,3.723,3.723,0,0,0-.847-.427.923.923,0,0,0-.125-.487.91.91,0,0,0-.556-.425,5.217,5.217,0,0,0-1.022-.123h-.085a5.481,5.481,0,0,0-1.134.137m-.144,1.969a.581.581,0,0,0,.181.017,8.215,8.215,0,0,1,1.109.064,6.088,6.088,0,0,1,1.3.375,3.229,3.229,0,0,1,.487.268,2.662,2.662,0,0,1,.244.244,2.24,2.24,0,0,1,.154.262,2.491,2.491,0,0,1,.063.287,2.321,2.321,0,0,1,0,.4,5.936,5.936,0,0,1-.321,1.1,4.611,4.611,0,0,1-.431.766,6.37,6.37,0,0,1-.859.845,5.218,5.218,0,0,1-2.624,1.084,6.667,6.667,0,0,1-1.413,0,4.534,4.534,0,0,1-.855-.223,3.252,3.252,0,0,1-.508-.295,2.677,2.677,0,0,1-.245-.223,2.832,2.832,0,0,1-.144-.244c-.025-.079-.048-.162-.065-.245a2.2,2.2,0,0,1,0-.316,4.892,4.892,0,0,1,.264-.916,5.4,5.4,0,0,1,.576-.957c.183-.225.373-.445.575-.653a6.725,6.725,0,0,1,.687-.614,8.186,8.186,0,0,1,1.573-.943c.079-.035.16-.064.243-.092" transform="translate(-534.155 -286.229)" fill="#020203"/>
    <path id="Path_8808" data-name="Path 8808" d="M609.858,341.459c-.273.015-.547.054-.814.092s-.487.073-.731.123-.487.106-.732.167a4.735,4.735,0,0,0-1.567.66,2.564,2.564,0,0,0-.807.857,1.8,1.8,0,0,0-.146,1.334,2.021,2.021,0,0,0,.224.506,2.312,2.312,0,0,0,.389.487,4,4,0,0,0,.945.643c.245.127.487.245.732.362a6.05,6.05,0,0,1,.872.472,3.076,3.076,0,0,1,.264.262,1.248,1.248,0,0,1,.083.139c.017.054.035.108.046.162v.094c-.012.048-.025.094-.038.144a2.888,2.888,0,0,1-.21.335,3.877,3.877,0,0,1-.518.518,3.672,3.672,0,0,1-.572.346,5,5,0,0,1-.976.231,4.474,4.474,0,0,1-.936,0,6.272,6.272,0,0,1-1.319-.383,5.443,5.443,0,0,1-1.065-.62,10.923,10.923,0,0,1-.888-.807,7.622,7.622,0,0,1-.656-.708.692.692,0,0,0-.518-.218.731.731,0,0,0-.729.732h0c0,.064.019.129.025.194a.729.729,0,0,0,.191.323,10.827,10.827,0,0,0,1.013,1.026,8.553,8.553,0,0,0,1.28,1.013,6.549,6.549,0,0,0,.957.466,6.927,6.927,0,0,0,1.024.335,5.4,5.4,0,0,0,1.04.142,6,6,0,0,0,1.172-.1,4.385,4.385,0,0,0,.9-.221,3.987,3.987,0,0,0,.976-.547,3.65,3.65,0,0,0,1.351-1.736,1.206,1.206,0,0,0,.046-.233,2.143,2.143,0,0,0,.031-.37,2,2,0,0,0-.11-.6,2.42,2.42,0,0,0-.245-.514,3.041,3.041,0,0,0-.414-.487,4.845,4.845,0,0,0-1.326-.828,8.279,8.279,0,0,1-1.146-.633,2.248,2.248,0,0,1-.2-.185,1.347,1.347,0,0,1-.083-.144.61.61,0,0,1-.019-.065v-.039l.036-.065.142-.135a3.847,3.847,0,0,1,.408-.245,10.617,10.617,0,0,1,1.792-.429l-.135.017a8.137,8.137,0,0,1,.941-.094h.245v.019a1.007,1.007,0,0,0,.451.591.958.958,0,0,0,.76.1,6.183,6.183,0,0,0,.938-.4l.2-.15a2.017,2.017,0,0,0,.181-.245.946.946,0,0,0,.131-.529,1.054,1.054,0,0,0-.545-.889,1.683,1.683,0,0,0-.529-.185c-.081-.017-.162-.031-.245-.042a7.316,7.316,0,0,0-1.1-.077h-.487" transform="translate(-525.213 -286.17)" fill="#020203"/>
    <path id="Path_8809" data-name="Path 8809" d="M616.478,337.511l-.229.094a.983.983,0,0,0-.345.345,2.264,2.264,0,0,0-.179.329c-.056.1-.113.2-.173.3a7.868,7.868,0,0,1-.449.672.7.7,0,0,0-.1.21c-.244.381-.487.76-.745,1.142-.506.768-1,1.548-1.463,2.333-.976,1.621-2.016,3.2-3.028,4.8-.529.834-1.074,1.65-1.632,2.464q-.774,1.115-1.5,2.26c-.127.194-.262.391-.372.595a.883.883,0,0,0-.087.651.845.845,0,0,0,.391.5.832.832,0,0,0,.649.085.84.84,0,0,0,.578-.552c.112-.2.243-.393.373-.585l.416-.633c.268-.406.547-.8.822-1.2.523-.757,1.063-1.5,1.565-2.27,1.038-1.594,2.095-3.169,3.111-4.788q.768-1.219,1.565-2.408c.314-.472.637-.937.955-1.405a1.1,1.1,0,0,0,.179-.221c.156-.221.308-.441.451-.674s.223-.423.331-.641a.97.97,0,0,0,.094-.732.953.953,0,0,0-1.167-.668" transform="translate(-519.695 -289.821)" fill="#020203"/>
    <path id="Path_8810" data-name="Path 8810" d="M617.2,341.577a1.639,1.639,0,0,0-.362.062c-.191.069-.375.15-.562.231l-.3.135-.685.333c-.4.2-.791.418-1.184.633-.814.456-1.627.914-2.453,1.344-.427.221-.853.445-1.282.658-.208.1-.416.2-.624.3l-.262.127a1.141,1.141,0,0,0-.687.772l-.033.219c.014.1.025.193.042.289l.017.042a1.263,1.263,0,0,0,.108.244,2.3,2.3,0,0,0,.219.291c.039.05.083.1.125.146.079.085.164.167.244.243a6.607,6.607,0,0,0,.539.447c.423.335,2.955,2.266,3.138,2.437a.792.792,0,0,0,1.12-1.118c-.139-.123-2.668-2.146-3.169-2.528l-.3-.244c.612-.266,1.219-.545,1.819-.845.851-.429,1.686-.886,2.53-1.328a16.236,16.236,0,0,0,2.99-1.921.922.922,0,0,0-.131-.487.932.932,0,0,0-.339-.343,1.265,1.265,0,0,0-.464-.15h-.058" transform="translate(-517.284 -286.042)" fill="#020203"/>
    <path id="Path_8811" data-name="Path 8811" d="M623.258,340.842a8.188,8.188,0,0,0-1.1.185,9.026,9.026,0,0,0-1.024.323,14.151,14.151,0,0,0-1.95.891,13.858,13.858,0,0,0-3.292,2.5c-.214.221-.414.458-.616.689a8.657,8.657,0,0,0-1.792,2.888,3.272,3.272,0,0,0-.141,1.091,2.249,2.249,0,0,0,.339,1.182,1.949,1.949,0,0,0,.851.7,3.318,3.318,0,0,0,.539.19,3.763,3.763,0,0,0,.655.085,5.18,5.18,0,0,0,1.13-.112,6.552,6.552,0,0,0,.992-.262,10.68,10.68,0,0,0,1.018-.416c.333-.148.655-.312.976-.487q.731-.39,1.432-.818c.437-.262.864-.541,1.29-.824-.112.225-.229.448-.335.676-.15.314-.289.633-.422.957a4.565,4.565,0,0,0-.3.949c-.027.146-.052.291-.077.437-.064.349-.118.7-.16,1.053a.758.758,0,0,0,.245.558.777.777,0,0,0,.558.231.788.788,0,0,0,.558-.231.828.828,0,0,0,.229-.558c.013-.167.035-.339.056-.506a5.627,5.627,0,0,1,.323-1.434.249.249,0,0,1-.031.079c.071-.171.144-.345.227-.512.106-.219.214-.439.325-.658.208-.4.42-.8.616-1.219.125-.264.258-.526.377-.793a1.393,1.393,0,0,0,.133-1.263l-.029-.048a.791.791,0,0,0-.277-.281.71.71,0,0,0-.437-.137h-.041a.758.758,0,0,0-.393.108c-.071.035-.137.081-.206.119-.225.131-.443.283-.662.423l-.639.412c-.531.346-1.061.7-1.606,1.024a24.4,24.4,0,0,1-2.682,1.417,7.372,7.372,0,0,1-1.617.452,3.362,3.362,0,0,1-.668.021,3.54,3.54,0,0,1-.348-.092c-.062-.033-.121-.067-.177-.1l-.034-.033c-.016-.023-.029-.046-.042-.069-.012-.044-.023-.087-.033-.131a2.84,2.84,0,0,1,0-.447,3.382,3.382,0,0,1,.162-.566,7.8,7.8,0,0,1,.918-1.476c.243-.3.5-.591.755-.884a11.212,11.212,0,0,1,1.525-1.423,14.169,14.169,0,0,1,2.9-1.683,8.846,8.846,0,0,1,1.95-.572,5.474,5.474,0,0,1,1.151,0,3.389,3.389,0,0,1,.658.177c.071.035.141.067.21.11-.144.156-.759,1.29-.449,1.6a.82.82,0,0,0,1.147,0,7.924,7.924,0,0,0,.61-.637,1.545,1.545,0,0,0,.341-.566,2.03,2.03,0,0,0,.052-.325,1.62,1.62,0,0,0-.046-.408.818.818,0,0,0-.06-.187,1.7,1.7,0,0,0-.141-.3,1.8,1.8,0,0,0-.458-.46,3.41,3.41,0,0,0-.878-.431,4.2,4.2,0,0,0-1.045-.2,4.843,4.843,0,0,0-.5-.027,3.535,3.535,0,0,0-.533.027m-1.49,9.566c0-.033.027-.064.042-.1h0l-.042.1m.044-.106.031-.075-.031.075" transform="translate(-513.047 -286.755)" fill="#020203"/>
    <path id="Path_8812" data-name="Path 8812" d="M583.906,356.027a.816.816,0,0,1-.789-.6,3.385,3.385,0,0,1-.042-.343.965.965,0,0,1,.075-.36,3.165,3.165,0,0,1,.171-.366l.079-.164c.042-.085.083-.173.123-.26l.115-.244c.062-.139.125-.277.194-.412s.148-.3.221-.449c.146-.291.289-.583.445-.87l1.405-2.637c.173-.322.354-.641.537-.961.092-.16.181-.32.271-.489l.035-.058c.245-.424.487-.862.743-1.282.512-.832,1.061-1.706,1.683-2.7q1.039-1.646,2.083-3.292l.04-.067-.035-.067-.029-.058c0-.025-.025-.046-.035-.071-.05-.11-.1-.221-.142-.337l-.031-.073v-.031a1.181,1.181,0,0,1-.031-.356,1.482,1.482,0,0,1,.495-1.022,3.685,3.685,0,0,1,.936-.6c.206-.085.447-.187.691-.275l.044-.017.372-.583a.978.978,0,0,1,.847-.489.958.958,0,0,1,.853.508l.046.083h.094c.406-.06.811-.106,1.12-.139.177-.021.389-.042.606-.052l.522-.021h.595a5.518,5.518,0,0,1,2.069.281l.065.027a2.021,2.021,0,0,1,.362.173c.11.077.212.156.316.244a3.342,3.342,0,0,1,1,1.238,3.7,3.7,0,0,1,.245.678,5.71,5.71,0,0,1,.1.668,4.553,4.553,0,0,1-.044,1.132,4.316,4.316,0,0,1-.4,1.2,7.234,7.234,0,0,1-.529.918,7.515,7.515,0,0,1-.793,1,9.384,9.384,0,0,1-.755.708,12.959,12.959,0,0,1-1.923,1.369c-.379.214-.7.387-1.03.541s-.732.323-1.163.487-.945.339-1.6.531l-.119.035c-.121.037-.243.073-.366.1a3.159,3.159,0,0,1-.814.144,1.128,1.128,0,0,1-.406-.069.857.857,0,0,1-.487-.372.8.8,0,0,1-.081-.62.822.822,0,0,1,.368-.487.85.85,0,0,1,.42-.112.534.534,0,0,1,.175.023h.085v.015h.033v-.017a6.115,6.115,0,0,0,.759-.244l.216-.069c.512-.169,1.022-.356,1.519-.562a13.2,13.2,0,0,0,2.635-1.5,10.482,10.482,0,0,0,1.573-1.492,7.189,7.189,0,0,0,.747-1.249,2.457,2.457,0,0,0,.189-1.375,3.565,3.565,0,0,0-.146-.57,2.414,2.414,0,0,0-.173-.3,3.528,3.528,0,0,0-.37-.37,1.76,1.76,0,0,0-.189-.119h0a3.483,3.483,0,0,0-.468-.119c-.3-.025-.595-.027-.878-.033h-.331c-.212,0-.423.013-.629.023h-.052c-.245.012-.489.023-.732.054l-.72.085c-.514.081-.959.168-1.367.272l-.054.012-.029.046q-.647,1-1.29,2c-.539.836-1.078,1.675-1.619,2.508q-.9,1.389-1.813,2.776c-.146.219-.283.425-.418.635l-.166.243c-.112.166-.227.337-.329.512-.26.458-.915,1.592-.915,1.592-.148.262-.466.886-.862,1.677A43.669,43.669,0,0,1,584.5,355.8a.756.756,0,0,1-.572.231" transform="translate(-541.048 -290.734)" fill="#020203"/>
    <path id="Path_8813" data-name="Path 8813" d="M602.079,356.88a7.141,7.141,0,0,1-.861-.044,8.859,8.859,0,0,1-1.247-.242l-.075-.019c-.181-.05-.366-.1-.541-.164a3.565,3.565,0,0,1-.564-.279,3.284,3.284,0,0,1-.907-.864,3.069,3.069,0,0,1-.516-1.159,3.693,3.693,0,0,1,.046-1.394,8.927,8.927,0,0,1,.214-.9.681.681,0,0,1-.214.035h-.1a.732.732,0,0,1-.612-.812.709.709,0,0,1,.275-.47l.518-.321c.366-.227.743-.462,1.1-.71l.037-.023q.113-.225.231-.445c.4-.732.859-1.523,1.405-2.4a46.289,46.289,0,0,1,3.2-4.5c.668-.824,1.242-1.477,1.8-2.05a26.274,26.274,0,0,1,1.973-1.877,12.664,12.664,0,0,1,2.262-1.513,5.08,5.08,0,0,1,1.338-.472c.083-.017.168-.029.245-.04a2.723,2.723,0,0,1,.4-.027,2.179,2.179,0,0,1,.487.05,1.331,1.331,0,0,1,.732.416,1.151,1.151,0,0,1,.3.606,1.192,1.192,0,0,1-.152.706c-.041.075-.079.154-.119.231s-.106.216-.166.319l-.2.362c-.173.3-.352.624-.537.928-.2.341-.435.691-.712,1.072a16.888,16.888,0,0,1-1.735,2.023c-.66.668-1.342,1.307-2.023,1.9s-1.373,1.163-2.147,1.767l-.242.2c-.318.243-.649.512-.976.749l-4.247,2.969-.094.2a12.14,12.14,0,0,0-.714,1.706,5.669,5.669,0,0,0-.2,1.205,2.651,2.651,0,0,0,.038.325,3.081,3.081,0,0,0,.169.381,3.261,3.261,0,0,0,.333.431,2.4,2.4,0,0,0,.283.218,3.759,3.759,0,0,0,.616.242,8.35,8.35,0,0,0,.92.191,7.5,7.5,0,0,0,.974.081,9.36,9.36,0,0,0,1.573-.141h.046c.258-.046.523-.094.785-.154h.048c.127,0,.21.119.229.325.04.437-.212,1.128-.7,1.221a10.315,10.315,0,0,1-1.461.173h-.512m9.31-19.228a3.4,3.4,0,0,0-.5.083,5.9,5.9,0,0,0-1.142.512,12.469,12.469,0,0,0-1.613,1.143c-.452.381-.913.808-1.492,1.392a35.639,35.639,0,0,0-3.232,3.829c-.7.939-1.378,1.95-2.029,2.982l1.685-1.176c.3-.216.6-.449.9-.68l.192-.15a44.44,44.44,0,0,0,4.06-3.525,17.648,17.648,0,0,0,1.373-1.538,16.19,16.19,0,0,0,1.1-1.6c.117-.2.231-.41.348-.614l.141-.244c.081-.141.154-.281.216-.4" transform="translate(-528.442 -291.009)" fill="#020203"/>
  </g>
</svg>
