<svg xmlns="http://www.w3.org/2000/svg" width="77.028" height="77.03" viewBox="0 0 77.028 77.03">
  <path id="Path_8505" data-name="Path 8505" d="M609.507,138.078a38.515,38.515,0,1,0,38.514,38.516A38.516,38.516,0,0,0,609.507,138.078Zm-31.524,20.41a36.457,36.457,0,0,1,31.1-18.225L604.1,173.271l-26.32,21.269A36.309,36.309,0,0,1,577.983,158.488Zm31.668,54.625a36.324,36.324,0,0,1-31.4-17.759l31.268-12.943,31.4,12.742A36.4,36.4,0,0,1,609.651,213.113Zm5.117-39.405-4.749-33.443a36.462,36.462,0,0,1,31.37,54.044Z" transform="translate(-570.993 -138.078)" fill-rule="evenodd"/>
</svg>
