<svg xmlns="http://www.w3.org/2000/svg" width="139.067" height="66.759" viewBox="0 0 139.067 66.759">
  <path id="Path_8781" data-name="Path 8781" d="M557.51,274.2h-2.435v-.834h5.808v.834h-2.422v7.622h-.951Zm4.4-.834h.947v3.8h3.783v-3.8h.951v8.455h-.951v-3.8h-3.783v3.8h-.947v-8.455Zm9.812,8.455c-1.738,0-2.435-.7-2.435-2.43V275.81c0-1.744.7-2.439,2.435-2.439h2.422v.853h-2.422c-1.155,0-1.484.352-1.484,1.586v1.363h3.107v.853h-3.107V279.4c0,1.224.343,1.586,1.484,1.586h2.651v.843Zm12.119-2.326c0,1.742-.7,2.428-2.449,2.428h-.556c-1.814,0-2.535-.722-2.535-2.53V275.82c0-1.827.722-2.551,2.535-2.551h.456c1.23,0,1.827.306,2.258,1.149l-.749.437a1.385,1.385,0,0,0-1.509-.733h-.456c-1.23,0-1.584.381-1.584,1.7V279.4c0,1.307.354,1.686,1.584,1.686h.556c1.18,0,1.523-.362,1.523-1.584v-1.382H581.5v-.853h2.335V279.5Zm1.619-3.69c0-1.817.724-2.541,2.537-2.541h.649c1.813,0,2.537.724,2.537,2.541V279.4c0,1.808-.724,2.53-2.537,2.53h-.649c-1.813,0-2.537-.722-2.537-2.53Zm3.182,5.275c1.232,0,1.586-.379,1.586-1.688V275.81c0-1.307-.354-1.688-1.586-1.688h-.649c-1.23,0-1.584.379-1.584,1.688V279.4c0,1.309.354,1.688,1.584,1.688Zm4.156-5.275c0-1.817.724-2.541,2.537-2.541h.649c1.813,0,2.537.724,2.537,2.541V279.4c0,1.808-.724,2.53-2.537,2.53h-.649c-1.814,0-2.537-.722-2.537-2.53Zm3.182,5.275c1.232,0,1.586-.379,1.586-1.688V275.81c0-1.307-.354-1.688-1.586-1.688h-.649c-1.23,0-1.584.379-1.584,1.688V279.4c0,1.309.354,1.688,1.584,1.688Zm4.233-7.714h2.942c1.813,0,2.535.724,2.535,2.541v3.382c0,1.81-.722,2.532-2.535,2.532h-2.942v-8.455Zm2.942,7.612c1.23,0,1.584-.379,1.584-1.688v-3.382c0-1.307-.354-1.688-1.584-1.688h-1.989v6.759h1.989Zm-42.874-36.716v2.7a2.7,2.7,0,0,0,2.7,2.7h17.557a1.354,1.354,0,0,1,1.35,1.353v2.7a1.349,1.349,0,0,1-1.346,1.353H562.981a8.1,8.1,0,0,1-8.1-8.1h0v-10.8a8.1,8.1,0,0,1,8.1-8.1h17.549a1.348,1.348,0,0,1,1.35,1.346v2.707a1.346,1.346,0,0,1-1.35,1.344H562.981a2.7,2.7,0,0,0-2.7,2.7v2.707h14.852a1.348,1.348,0,0,1,1.349,1.344v2.7a1.35,1.35,0,0,1-1.346,1.353H560.278Zm33.755,10.8a8.1,8.1,0,0,1-8.1-8.1V229.415a1.349,1.349,0,0,1,1.349-1.346h2.7a1.35,1.35,0,0,1,1.352,1.346v17.551a2.7,2.7,0,0,0,2.7,2.7h10.808a2.7,2.7,0,0,0,2.7-2.7h0V229.415a1.349,1.349,0,0,1,1.349-1.346h2.7a1.349,1.349,0,0,1,1.349,1.346v17.551a8.1,8.1,0,0,1-8.1,8.1H594.033Zm35.1,0a1.357,1.357,0,0,1-1.224-.78l-10.8-24.3a1.349,1.349,0,0,1,.655-1.792,1.324,1.324,0,0,1,.57-.127H621.3a1.357,1.357,0,0,1,1.224.78l7.957,17.921,7.956-17.921a1.358,1.358,0,0,1,1.224-.78h2.966a1.351,1.351,0,0,1,1.225,1.919l-10.8,24.3a1.355,1.355,0,0,1-1.223.78h-2.693Zm18.9-25.654a1.348,1.348,0,0,1,1.35-1.346h2.7a1.349,1.349,0,0,1,1.35,1.346v24.3a1.35,1.35,0,0,1-1.346,1.353h-2.7a1.35,1.35,0,0,1-1.35-1.35v-24.3Zm9.451,6.749a8.1,8.1,0,0,1,8.1-8.1h17.551a1.349,1.349,0,0,1,1.349,1.346v2.707a1.347,1.347,0,0,1-1.349,1.344H665.6a2.705,2.705,0,0,0-2.7,2.7v10.8a2.7,2.7,0,0,0,2.7,2.7h17.553a1.357,1.357,0,0,1,1.351,1.353v2.7a1.351,1.351,0,0,1-1.348,1.355H665.6a8.1,8.1,0,0,1-8.1-8.1v-10.8Zm31.054-6.749a1.349,1.349,0,0,1,1.351-1.346h2.7a1.349,1.349,0,0,1,1.35,1.346v5.4a1.349,1.349,0,0,1-1.35,1.346h-2.7a1.349,1.349,0,0,1-1.351-1.346Zm0,18.9a1.349,1.349,0,0,1,1.348-1.353h2.7a1.349,1.349,0,0,1,1.35,1.35v5.4a1.35,1.35,0,0,1-1.348,1.353h-2.7a1.35,1.35,0,0,1-1.351-1.35v-5.4Zm-45.624,39.459a6.157,6.157,0,0,0-.279,1.113,22.555,22.555,0,0,0-.366,3.467,15.326,15.326,0,0,0,.348,1.762c.054.214.212.447-.042.631a.708.708,0,0,1-.822-.131,2.055,2.055,0,0,1-.464-.9,10.47,10.47,0,0,1-.268-4.033c.1-.668.133-1.353.245-2.021.11-.649.268-1.288.412-1.927.185-.826.372-1.652.577-2.476.117-.474.266-.947.4-1.419a.205.205,0,0,0-.01-.25.239.239,0,0,0-.25.01,5.361,5.361,0,0,1-2.16.333.441.441,0,0,0-.42.214,6.754,6.754,0,0,1-1.484,1.353,2.436,2.436,0,0,1-2.687.221,3.59,3.59,0,0,1-1.473-2.075c-.04-.243-.125-.158-.26-.075-.551.343-1.02.8-1.6,1.093a9.861,9.861,0,0,1-3.425.984,3.763,3.763,0,0,1-1.113-.158,5.168,5.168,0,0,1-1.211-.4,1.322,1.322,0,0,1-.649-.583.924.924,0,0,0-.47-.474.568.568,0,0,1-.245-.724,13.1,13.1,0,0,1,.449-2.012,6.5,6.5,0,0,1,1.917-2.6,3.994,3.994,0,0,1,.891-.566,1.368,1.368,0,0,1,1.492.073,1.74,1.74,0,0,0,.47.131,3.984,3.984,0,0,1,.757.472,1.008,1.008,0,0,1,.325,1.386,1.045,1.045,0,0,1-.2.237,11.371,11.371,0,0,1-2.412,1.883c-.395.26-.8.491-1.205.732a.681.681,0,0,0-.085.959.6.6,0,0,0,.114.108,1.647,1.647,0,0,0,.889.2,8.375,8.375,0,0,0,2.882-.62,19.655,19.655,0,0,0,2.314-1.261,1.963,1.963,0,0,0,.889-1.049,7.081,7.081,0,0,1,.549-1.149.744.744,0,0,1,.556-.425.381.381,0,0,0,.323-.362c.06-.185-.112-.177-.208-.233a.356.356,0,0,1-.187-.389.341.341,0,0,1,.337-.316,6.678,6.678,0,0,1,3.467.362,2.3,2.3,0,0,1,1.39,2.726,5.549,5.549,0,0,1-.35,1.03c-.092.194-.06.287.185.306a3.94,3.94,0,0,0,1.359-.223,6.241,6.241,0,0,0,.787-.231.575.575,0,0,0,.318-.352c.314-1.011.747-1.975.963-3.013a4.04,4.04,0,0,0-.019-1.7c-.073-.343-.029-.435.32-.491a1.159,1.159,0,0,1,.768.129,9.263,9.263,0,0,1,1.059.6.307.307,0,0,1,.141.121,1.144,1.144,0,0,0,.474.751.986.986,0,0,1,.092.7c.006.4.021.408.381.3a8.148,8.148,0,0,1,2.62-.445,3.239,3.239,0,0,1,2.11.984,2.172,2.172,0,0,1,.079,2.53c-.135.233-.229.474-.346.714-.036.075-.1.158-.01.233a.227.227,0,0,0,.25,0c.531-.214,1.078-.391,1.586-.651a12.12,12.12,0,0,0,1.725-.9.462.462,0,0,0,.216-.343,19.514,19.514,0,0,1,1.174-4.3c.4-.916.712-1.881,1.184-2.753a21.187,21.187,0,0,1,1.319-1.929c.241-.352.464-.722.693-1.084a25.346,25.346,0,0,1,2.63-2.986,11.167,11.167,0,0,1,1.051-.77.543.543,0,0,1,.252-.056,2.568,2.568,0,0,1,1.413.474.365.365,0,0,1,.185.333,7.219,7.219,0,0,1-.039,1.484c-.092.435-.237.862-.345,1.3a10.3,10.3,0,0,1-2.418,3.96c-.5.612-.992,1.242-1.534,1.817a14.635,14.635,0,0,0-1.762,2.318,5.065,5.065,0,0,0-.681,1.881c-.11.668-.227,1.336-.4,2a2.272,2.272,0,0,0,.04,1.473c.137.352.042.743.185,1.105a6.3,6.3,0,0,0,.691,1.186.29.29,0,0,0,.4.077.359.359,0,0,0,.064-.058,10.052,10.052,0,0,0,1.182-.955,25.4,25.4,0,0,1,3.049-2.412,19.32,19.32,0,0,1,1.981-1.307.532.532,0,0,0,.26-.333c.063-.27.223-.51.289-.77a5.538,5.538,0,0,1,1.482-2.281,3.983,3.983,0,0,1,1.523-1.018,1.245,1.245,0,0,1,1.261.129c.235.175.543.139.787.306a3.58,3.58,0,0,1,.63.472,1.021,1.021,0,0,1,.01,1.444.629.629,0,0,1-.064.06,10.929,10.929,0,0,1-2.368,1.827c-.412.25-.822.5-1.232.759a.656.656,0,0,0-.142.916.579.579,0,0,0,.142.141,1.66,1.66,0,0,0,.887.214,7.257,7.257,0,0,0,1.887-.268,13.192,13.192,0,0,0,3.533-1.744,1.827,1.827,0,0,0,.635-.658.242.242,0,0,1,.264-.158.273.273,0,0,1,.219.214.7.7,0,0,1-.073.631,5.485,5.485,0,0,1-1.577,1.567,7.568,7.568,0,0,1-2.865,1.427,4.952,4.952,0,0,1-3.047.1c-.37-.129-.741-.25-1.113-.389a.993.993,0,0,1-.535-.556.731.731,0,0,0-.483-.464.177.177,0,0,1-.108-.065c-.187-.406-.381-.166-.562-.008-.341.3-.68.593-1.007.9-.25.231-.354.574-.587.834a20.757,20.757,0,0,1-1.721,1.864,3.875,3.875,0,0,1-3.126,1.132,2.6,2.6,0,0,1-2.156-1.271,9.995,9.995,0,0,1-1.076-2.245c-.127-.527-.123-1.065-.235-1.594-.054-.25-.114-.287-.3-.148a9.351,9.351,0,0,1-2.272,1.205c-1.049.408-2.127.751-3.2,1.1-.8.26-1.608.483-2.418.7a4.054,4.054,0,0,1-1.8.094.915.915,0,0,1-.464-.306c-.154-.148-.248-.2-.435.027a7.63,7.63,0,0,0-1.1,2.429c-.127.352-.237.7-.379,1.057-.069.241-.206.25-.385.037Zm3.1-6.026c-.013.119-.006.241.144.175a6.478,6.478,0,0,0,1-.418,17.3,17.3,0,0,1,2.245-1.232,2.789,2.789,0,0,0,1.224-1.076.149.149,0,0,0,.031-.175.164.164,0,0,0-.185-.046,8.2,8.2,0,0,0-2.626.916c-.412.223-.772.549-1.169.809a2.1,2.1,0,0,0-.66,1.047Zm-7.056-2.262a1.17,1.17,0,0,1,0-.233c.21-.872-.676-1.567-1.344-1.788-.116-.039-.323-.1-.327.129a.756.756,0,0,0,.27.816.372.372,0,0,1,.2.485.384.384,0,0,1-.135.164.372.372,0,0,0-.167.5l.023.04a3.48,3.48,0,0,0,.759,1.066c.166.148.279.158.416-.065a1.7,1.7,0,0,0,.308-1.111Zm-3.238,2.466c-.006.547.152.722.689.629a2.481,2.481,0,0,0,1.469-.928c.127-.148.015-.221-.106-.3a4.63,4.63,0,0,1-1.113-1.105c-.227-.314-.32-.314-.516.039a3.63,3.63,0,0,0-.418,1.669ZM660.9,273.64a20.278,20.278,0,0,0,3.633-5.991,19.329,19.329,0,0,0-3.631,5.991Zm-32.612,5.812c.368-.287.732-.574,1.1-.862a1.489,1.489,0,0,0,.449-.435.151.151,0,0,0,.008-.185.131.131,0,0,0-.175.017,4.729,4.729,0,0,0-1.373,1.465Zm40.841-.017c.349-.325.758-.566,1.113-.872.141-.121.273-.25.4-.379a.149.149,0,0,0,.025-.187c-.052-.073-.114-.027-.169.01a4.588,4.588,0,0,0-1.367,1.428Zm-53.661-.141a.835.835,0,0,0-1.161.212.82.82,0,0,0-.15.476,2.117,2.117,0,0,1-.171.7,4.078,4.078,0,0,0-.21,1.475c-.044,1.02-.006,2.048-.006,3.069a2.115,2.115,0,0,0,.239.889.5.5,0,0,1-.071.658.593.593,0,0,1-.682.065,1.31,1.31,0,0,1-.472-.352,3.688,3.688,0,0,1-.936-2.17c-.021-.287-.116-.556-.16-.843a10.78,10.78,0,0,1,.04-3.088,18.5,18.5,0,0,1,.245-2.058c.121-.5.129-1.02.2-1.53.071-.481.156-.955.25-1.427.127-.641.277-1.263.4-1.9a5.053,5.053,0,0,1,.158-.6.34.34,0,0,0-.137-.462.369.369,0,0,0-.123-.039,1.187,1.187,0,0,1-.522-.194.187.187,0,0,1-.106-.158.158.158,0,0,1,.171-.119,1.778,1.778,0,0,0,.481-.094,1.323,1.323,0,0,0,.787-1.047c.258-.926.585-1.835.884-2.753.019-.065.04-.131.062-.194a.7.7,0,0,1,.4-.593,1.178,1.178,0,0,1,1,.389,2.31,2.31,0,0,0,.587.658,1.36,1.36,0,0,1,.451.76c.073.352.143.425.5.343.462-.112.912-.241,1.369-.362a18.41,18.41,0,0,1,3.159-.62,9.785,9.785,0,0,1,2.947.212,4.5,4.5,0,0,1,2.281,1.5,1.416,1.416,0,0,1,.556.955,2.809,2.809,0,0,1-.368,1.835,2.641,2.641,0,0,0-.425.743,1.242,1.242,0,0,1-.356.508,18.113,18.113,0,0,1-1.469,1.457c-.547.4-1.138.751-1.713,1.113-.416.258-.818.537-1.215.834a7.542,7.542,0,0,1-2.381,1.242c-.616.168-1.219.4-1.829.6a.266.266,0,0,1-.185.01,1.3,1.3,0,0,0-1.151.1,7.269,7.269,0,0,1-1.785.26c-.092-.01-.256.037-.256-.129,0-.121.135-.121.229-.141.2-.056.4-.121.637-.187Zm10.128-8.372a.8.8,0,0,0-.233-.7,2.556,2.556,0,0,0-1.246-.472,5.057,5.057,0,0,0-1.242.027,9.333,9.333,0,0,0-1.247.112c-1.082.306-2.193.52-3.255.909a1.482,1.482,0,0,0-.676.445,3.859,3.859,0,0,1-.5.418,1.368,1.368,0,0,0-.737,1.326,1.274,1.274,0,0,1-.115.768c-.254.52-.676.938-.945,1.448a1.773,1.773,0,0,0-.246.537c-.106.668-.383,1.3-.439,1.985-.017.214.021.287.2.241.412-.129.849-.1,1.261-.231.45-.148.876-.345,1.311-.51.782-.3,1.54-.632,2.289-.993a25.7,25.7,0,0,0,3.61-2.123,6.385,6.385,0,0,0,1.792-1.779,3.207,3.207,0,0,0,.426-1.4Z" transform="translate(-554.88 -228.069)" fill="#010203" fill-rule="evenodd"/>
</svg>
