<svg xmlns="http://www.w3.org/2000/svg" width="123.637" height="77.028" viewBox="0 0 123.637 77.028">
  <path id="Path_8803" data-name="Path 8803" d="M827.348,302.43l9.462-60.095h15.769l-1.519,8.124H845.7l-1.469,8.836h5.383l-1.045,7.525H843l-5.69,35.609Zm-16.119-60.095-5.618,34.8c-.685,4.359-1.646,6.122,2.456,8.956,1.889,1.286,5,1.6,8.12,1.619,3.69.023,6.63-1.024,8.6-3.215s1.844-3.334,2.549-7.575l5.777-34.585h-9.241L818.142,277.8c-.325,2-.477,3.049-2.162,2.859-1.519-.167-1.272-1.192-.889-3.525l5.689-34.8Zm-32.958,43.827,14.071-43.8h12.219l-2.591,43.8h-9.812l.945-8.122h-2.953l-2.422,8.122Zm13.27-15.268h2.74l2.41-19.1Zm-37.8,15.23h8.584l3.088-19.463.912,19.463h9.747l7.015-43.8h-8.729l-2.99,17.958-.94-17.958h-9.6Zm-24.8.015L738.71,225.4h9.027l-4.882,31.82,5.375-14.887h9.289l-8.288,20.414,2.052,23.39h-9.289l-.916-17.1-2.966,17.1Z" transform="translate(-728.942 -225.402)" fill="#010203" fill-rule="evenodd"/>
</svg>
