<svg xmlns="http://www.w3.org/2000/svg" width="215.683" height="43.138" viewBox="0 0 215.683 43.138">
  <path id="Path_8789" data-name="Path 8789" d="M394.525,262.819h15.149V251.338H394.525Zm-.884,13.278-12.234-3.519a4.068,4.068,0,0,1-2.915-3.9v-4.963h15.149Zm-24.355-25.654a8.616,8.616,0,0,1-.339,1.881h14.09a12.567,12.567,0,0,1-.318,1.28H368.48a6.687,6.687,0,0,1-1.463,1.958h14.92a14.047,14.047,0,0,1-.7,1.267H346.547a15.451,15.451,0,0,0,1.507,2.014h31.67a16.544,16.544,0,0,1-1.232,1.263H349.3a18.025,18.025,0,0,0,2.435,1.873h24.32c.543-.35,1.059-.728,1.554-1.12v7.818a4.942,4.942,0,0,0,3.556,4.763l12.918,3.715L407,273.438a4.942,4.942,0,0,0,3.556-4.763V250.442Zm-1.022-4.476h14.381a13.276,13.276,0,0,0-.8-1.9H366.6a6.24,6.24,0,0,1,1.659,1.9Zm-23.521,6.357h13.922a8.29,8.29,0,0,1-.339-1.881h-13.8A12.7,12.7,0,0,0,344.743,252.323Zm1.2-8.255a13.283,13.283,0,0,0-.8,1.9h14.2a6.307,6.307,0,0,1,1.665-1.9ZM360.6,255.561a6.566,6.566,0,0,1-1.467-1.958H345.066a13.355,13.355,0,0,0,.776,1.958Zm-1.85-8.33H344.806a12.337,12.337,0,0,0-.273,1.946h13.822a8.413,8.413,0,0,1,.395-1.946Zm5.146,18.175a23.1,23.1,0,0,0,9.828-2.139H354.072a23.084,23.084,0,0,0,9.824,2.139Zm5.36-16.229h14.007a12.567,12.567,0,0,0-.275-1.946H368.861a8.314,8.314,0,0,1,.395,1.946Zm-5.36-14.748a23.174,23.174,0,0,0-9.539,2.008h19.08A23.17,23.17,0,0,0,363.9,234.429Zm17.247,8.415a15.5,15.5,0,0,0-1.469-1.923H348.12a15.3,15.3,0,0,0-1.467,1.923Zm-5.31-5.125H351.962a18.3,18.3,0,0,0-2.609,1.964H378.44A18.17,18.17,0,0,0,375.834,237.719Zm-57.528,22.4A18.715,18.715,0,0,0,320.8,262h24.634a15.624,15.624,0,0,0,1.305-1.261l-.872-.62Zm18.148-4.563h2.988l-1.671-1.188A6.247,6.247,0,0,1,336.453,255.556Zm0-11.466a6.3,6.3,0,0,1,1.317,1.188l1.713-1.188Zm-6.112,0h-15.4a13.166,13.166,0,0,0-.8,1.877h14.436a6.476,6.476,0,0,1,1.769-1.877Zm10.892,12.739h-25.7a15.289,15.289,0,0,0,1.536,2.018h27Zm-12.881-3.219h-14.3a13.375,13.375,0,0,0,.789,1.946h15.087A6.79,6.79,0,0,1,328.352,253.609Zm15.68-12.667H317.087a15.756,15.756,0,0,0-1.436,1.877h25.668Zm2.707-1.875a19.134,19.134,0,0,0-1.917-1.344H320.946a18.9,18.9,0,0,0-2.56,1.948h27.477Zm-13.857-4.638a23.2,23.2,0,0,0-9.564,2.023h19.143a23.207,23.207,0,0,0-9.579-2.023Zm0,30.977c4.638,0,7.949-.452,10.767-2.137H323.083A23.069,23.069,0,0,0,332.882,265.406Zm-5.4-14.95H313.5a13.283,13.283,0,0,0,.233,1.881h14.084A7.884,7.884,0,0,1,327.48,250.456Zm.5-3.219H313.81a12.878,12.878,0,0,0-.291,1.95h13.988a7.9,7.9,0,0,1,.475-1.95Zm-43.831-.924c2.406,0,4.634-.295,4.634-2.428,0-1.609-1.452-2.36-4.563-2.36h-4.847v4.788Zm-34.279.437c1.5,0,4.99-.258,4.99-2.647,0-2.264-2.329-2.578-4.849-2.578H245.6v5.225Zm46.265,2.16a11.86,11.86,0,0,1,4.095,1.781v-4.447A9.752,9.752,0,0,1,296.137,248.91Zm-81.408-6.942c-3.918,0-6.074,2.7-6.074,7.6,0,3.436,1.065,7.535,6.145,7.535,6.141,0,6.141-5.947,6.141-7.9C220.942,244.54,218.736,241.968,214.73,241.968Zm70.357,16.013c5.2,0,5.2-2,5.2-2.651,0-1.706-1.675-2.5-5.275-2.5h-5.641v5.15Zm-18.626.926v-10.1a12.968,12.968,0,0,1-6.688,3.148ZM215.3,265.666a28.936,28.936,0,0,1-12.373-2.489c-5.346-2.622-8.057-7.077-8.057-13.239a13.929,13.929,0,0,1,6.492-12.271c3.45-2.233,8.247-3.463,13.509-3.463,4.9,0,13.434.936,17.663,6.936v-6.418l21.679,0c3.6,0,8.965,0,12.246,3.134v-3.132H289.34c5.071,0,8.983,1.511,10.892,3.995v-3.995H313.08v30.432H300.232V262.2c-3.248,2.572-8.168,2.959-12.7,2.959H257.691l-11.237-12.032H245.6v12.032H232.537v-6.389C228.637,264.43,221.119,265.666,215.3,265.666Zm155.14,7.265c.76,0,1.126-.385,1.126-.984s-.366-1-1.126-1h-1.115v1.985Zm-3.792-4H370.6c2.637,0,3.6,1.484,3.6,3,0,1.484-.959,2.955-3.6,2.955h-1.269v2.268h-2.678Zm-12.981,0h2.68V274c0,.8.381,1.242,1.086,1.242s1.113-.443,1.113-1.242v-5.067h2.664V274c0,2.2-1.565,3.34-3.777,3.34S353.67,276.2,353.67,274ZM344,275.257c1.1,0,1.846-.913,1.846-2.254a1.872,1.872,0,1,0-3.692,0C342.157,274.345,342.891,275.257,344,275.257Zm0-6.522A4.309,4.309,0,0,1,348.53,273a4.537,4.537,0,0,1-9.065,0A4.313,4.313,0,0,1,344,268.735Zm-13.331,4.154c.747,0,1.14-.372,1.14-.957,0-.6-.393-.986-1.14-.986h-1.3v1.942Zm-3.975-3.954h4.129c2.636,0,3.594,1.5,3.594,3.013a2.428,2.428,0,0,1-1.353,2.281l1.367,2.926h-2.691l-.988-2.484h-1.38v2.484H326.7Zm-8.908-.2a6.047,6.047,0,0,1,3.244,1.028l-1.226,1.711a3.547,3.547,0,0,0-2-.655A1.94,1.94,0,0,0,315.831,273c0,1.2.591,2.254,1.973,2.254a2.673,2.673,0,0,0,1.282-.3v-1h-1.55v-1.542H321.3v3.725a5.547,5.547,0,0,1-3.565,1.2,4.264,4.264,0,0,1-4.6-4.339C313.138,270.647,314.844,268.735,317.789,268.735Z" transform="translate(-194.874 -234.204)" fill="#020203" fill-rule="evenodd"/>
</svg>
