<svg id="Group_736" data-name="Group 736" xmlns="http://www.w3.org/2000/svg" width="302.268" height="45.396" viewBox="0 0 302.268 45.396">
  <path id="Path_8782" data-name="Path 8782" d="M372.667,272.036c6.213-2.725,12.424,3.707,16.131-4.141-6.648,1.743-12.861-2.943-16.131,4.141m0-8.609c8.938-3.926,17.985,5.231,23.216-5.887-9.591,2.614-18.53-4.034-23.216,5.887m0-9.7c11.334-5.342,25.288,6.429,29.429-7.959-12.208,3.488-23.434-5.558-29.429,7.959m25.833,27.9H364.927V245.877a8.746,8.746,0,0,1,8.72-8.72h35.864v33.571a11.028,11.028,0,0,1-11.01,10.9" transform="translate(-364.927 -236.72)" fill="#020203"/>
  <g id="Group_436" data-name="Group 436" transform="translate(66.602)">
    <path id="Path_8783" data-name="Path 8783" d="M404.328,263.643v-2.288a11.432,11.432,0,0,0,7.2-1.416c2.944-1.853,4.033-5.342,4.033-8.723a11.659,11.659,0,0,0-.763-4.468c-1.527-3.926-4.9-6.321-10.247-6.321-.982,0-2.18.108-2.4.108v29.321c0,3.054,0,5.56.111,6.977s.434,1.527,3.7,2.288l1.853.329v2.18h-18.2v-2.18l1.854-.329c3.378-.761,3.7-.871,3.7-2.288.111-1.417.111-4.034.111-6.977V248.928c0-3.051,0-5.56-.111-6.977s-.326-1.524-3.7-2.288l-1.854-.326v-2.18h13.08c5.56,0,8.175.216,11.118,1.09a11.539,11.539,0,0,1,8.938,11.663C422.749,258.63,415.772,265.607,404.328,263.643Z" transform="translate(-389.613 -236.72)" fill="#020203"/>
    <path id="Path_8784" data-name="Path 8784" d="M435.668,248.165H433.38c-.329-2.288-.548-3.6-.874-5.231-.545-2.18-1.309-2.725-15.586-2.725v18.53c5.339,0,9.265-.108,10.792-.326,1.09-.108,1.524-.219,1.851-.982.329-1.306.545-2.18.982-4.031h2.072v14.059h-2.072a34.225,34.225,0,0,0-.982-3.923c-.326-1.09-.545-1.417-1.851-1.527-1.419-.219-5.342-.219-10.792-.219v8.067c0,3.054,0,5.668.108,7.085s.326,1.527,3.815,2.18l1.853.329v2.18h-18.2v-2.18l1.854-.329c3.27-.761,3.7-.871,3.7-2.288.111-1.417.111-4.034.111-6.977V248.928c0-3.051,0-5.56-.111-6.977s-.545-1.524-4.686-2.288l-1.854-.326v-2.18h32.375C435.994,240.208,435.886,244.023,435.668,248.165Z" transform="translate(-366.015 -236.72)" fill="#020203"/>
    <path id="Path_8785" data-name="Path 8785" d="M462.8,282.064c-8.283.329-10.792-.761-17.332-8.283l-6.213-7.414a21.585,21.585,0,0,0-2.614-2.725h-5.887v6.324c0,3.051,0,5.558.108,6.974s.437,1.527,3.707,2.29l1.853.326v2.18h-18.2v-2.18l1.854-.326c3.378-.763,3.7-.871,3.7-2.29.111-1.416.111-4.031.111-6.974V248.928c0-3.051,0-5.56-.111-6.977s-.326-1.524-3.7-2.288l-1.854-.326v-2.18s7.085.108,9.918.108c2.509,0,3.926-.108,6.869-.108a26.541,26.541,0,0,1,8.283.979,11.742,11.742,0,0,1,8.938,11.663,12.538,12.538,0,0,1-8.612,11.99,17.4,17.4,0,0,1,3.6,3.273l6.429,6.974c5.453,5.887,6.543,6.977,9.92,7.74Zm-18.53-35.424c-1.527-3.925-5.015-6.105-10.247-6.105a18.894,18.894,0,0,0-3.162.219v19.4h7.522c3.488,0,5.342-2.4,6.213-5.45a13.071,13.071,0,0,0,.545-3.6A15.422,15.422,0,0,0,444.269,246.64Z" transform="translate(-341.043 -236.72)" fill="#020203"/>
    <path id="Path_8786" data-name="Path 8786" d="M475.108,249.2c-.982-4.141-1.2-5.561-1.746-6.432-.763-1.635-2.4-2.288-7.085-2.288h-4.36v29.758c0,3.051,0,5.558.108,6.974s.326,1.527,3.707,2.291l1.853.326v2.18h-18.2v-2.18l1.851-.326c3.381-.764,3.707-.871,3.707-2.291.108-1.416.108-4.031.108-6.974V240.483h-4.36c-4.686,0-6.321.653-7.085,2.288a54.1,54.1,0,0,0-1.743,6.432h-2.291a114.76,114.76,0,0,1,0-12.208,48.976,48.976,0,0,0,6.105.326H471.4a50.163,50.163,0,0,0,6.1-.326,113.374,113.374,0,0,1,0,12.208Z" transform="translate(-305.062 -236.995)" fill="#020203"/>
    <path id="Path_8787" data-name="Path 8787" d="M487.623,248.165h-2.288c-.326-2.288-.545-3.6-.871-5.231-.545-2.18-1.309-2.725-15.589-2.725v18.53c5.342,0,9.265-.108,10.792-.326,1.09-.108,1.527-.219,1.853-.982.326-1.306.545-2.18.979-4.031h2.072v14.059H482.5a34.216,34.216,0,0,0-.979-3.923c-.326-1.09-.545-1.417-1.853-1.527-1.417-.219-5.342-.219-10.792-.219v8.067c0,3.054,0,5.668.111,7.085s.326,1.527,3.815,2.18l1.853.329v2.18H456.448v-2.18l1.853-.329c3.27-.761,3.707-.871,3.707-2.288.108-1.417.108-4.034.108-6.977V248.928c0-3.051,0-5.56-.108-6.977s-.545-1.524-4.686-2.288l-1.854-.326v-2.18h32.373C487.952,240.208,487.842,244.023,487.623,248.165Z" transform="translate(-277.793 -236.72)" fill="#020203"/>
    <path id="Path_8788" data-name="Path 8788" d="M470.216,281.63v-2.18l1.851-.329c3.38-.761,3.707-.871,3.707-2.288.108-1.417.108-4.034.108-6.977V248.928c0-3.051,0-5.56-.108-6.977s-.326-1.524-3.707-2.288l-1.851-.326v-2.18h18.2v2.18l-1.853.326c-3.27.764-3.707.871-3.815,2.288s-.111,4.033-.111,6.977v20.928c0,3.054,0,5.56.111,6.977s.434,1.527,3.815,2.288l1.853.329v2.18Z" transform="translate(-252.753 -236.72)" fill="#020203"/>
  </g>
</svg>
